<svg xmlns="http://www.w3.org/2000/svg" width="170" height="246" fill="none" viewBox="0 0 170 246">
  <path fill="#fff" stroke="#000" stroke-width="2.499" d="M2 237.183c0 3.778 3.089 6.867 6.867 6.867h152.789c3.768 0 6.857-3.089 6.857-6.867V8.867c0-3.778-3.089-6.867-6.857-6.867H8.867C5.09 2 2 5.089 2 8.867v228.316Z"/>
  <path fill="#000" d="M13.423 9.43v18.258h-3.86V13.094h-.107l-4.181 2.621v-3.423l4.52-2.862h3.628Zm11.498 18.66c-1.533-.006-2.853-.383-3.958-1.132-1.1-.75-1.947-1.834-2.541-3.254-.588-1.42-.88-3.13-.874-5.126 0-1.991.295-3.688.883-5.09.594-1.403 1.441-2.47 2.54-3.201 1.106-.737 2.422-1.106 3.95-1.106 1.527 0 2.84.369 3.94 1.106 1.106.737 1.956 1.807 2.55 3.21.594 1.396.889 3.09.883 5.08 0 2.004-.298 3.715-.892 5.136-.588 1.42-1.432 2.505-2.532 3.254-1.1.748-2.416 1.123-3.949 1.123Zm0-3.2c1.046 0 1.881-.526 2.505-1.578.624-1.052.933-2.63.927-4.734 0-1.385-.143-2.538-.428-3.46-.28-.92-.677-1.613-1.194-2.076a2.605 2.605 0 0 0-1.81-.696c-1.04 0-1.872.52-2.496 1.56-.624 1.04-.94 2.598-.945 4.672 0 1.402.14 2.573.419 3.512.285.933.686 1.635 1.203 2.104a2.637 2.637 0 0 0 1.819.695Zm132.656 210.055v-18.257h3.86v14.593h.107l4.181-2.621v3.424l-4.52 2.861h-3.628Zm-11.498-18.658c1.533.006 2.853.383 3.958 1.132 1.1.749 1.947 1.833 2.541 3.254.588 1.42.88 3.129.874 5.126 0 1.991-.295 3.688-.883 5.09-.594 1.403-1.441 2.47-2.541 3.201-1.105.737-2.422 1.105-3.949 1.105-1.527 0-2.841-.368-3.94-1.105-1.106-.737-1.956-1.807-2.55-3.21-.594-1.396-.888-3.09-.883-5.081 0-2.003.298-3.715.892-5.135.588-1.421 1.432-2.505 2.532-3.254 1.099-.749 2.416-1.123 3.949-1.123Zm0 3.2c-1.046 0-1.881.526-2.505 1.578-.624 1.052-.933 2.63-.927 4.734 0 1.385.142 2.538.428 3.459.279.921.677 1.613 1.194 2.077a2.609 2.609 0 0 0 1.81.695c1.04 0 1.872-.52 2.496-1.56.624-1.04.939-2.597.945-4.671 0-1.403-.139-2.574-.419-3.513-.285-.933-.686-1.634-1.203-2.104a2.641 2.641 0 0 0-1.819-.695ZM12.306 47.476c0 1.81 1.51 3.279 3.38 3.279 1.869 0 3.378-1.47 3.378-3.279 0-1.81-1.51-3.279-3.379-3.279-1.87 0-3.379 1.47-3.379 3.28Zm-4.358 6.208c0 1.81 1.51 3.279 3.379 3.279 1.87 0 3.379-1.47 3.379-3.28 0-1.809-1.51-3.278-3.38-3.278-1.868 0-3.378 1.47-3.378 3.279Zm8.657.02c0 .66.2 1.28.55 1.8a3.412 3.412 0 0 0 2.829 1.479c1.869 0 3.378-1.47 3.378-3.28 0-1.809-1.51-3.278-3.378-3.278-1.87 0-3.38 1.47-3.38 3.279Zm-4.888 6.367c1.67 0 2.549-1.36 3.009-2.719.46-1.36.5-2.719.5-2.719h.86s.16 5.428 3.498 5.438h-7.867Z"/>
  <path fill="#000" d="M17.974 49.885c-1.9 1.9-1.9 4.748-1.9 4.748l-.849.01s0-2.909-1.85-4.758"/>
  <path fill="#000" d="M17.595 55.983c-1.9-1.9-4.749-1.9-4.749-1.9v-.85s2.91 0 4.759-1.848"/>
  <path fill="#000" d="M13.786 55.993c1.9-1.9 4.748-1.9 4.748-1.9v-.85s-2.909 0-4.758-1.848m145.445 146.182c0-1.809-1.509-3.279-3.378-3.279-1.87 0-3.379 1.47-3.379 3.279 0 1.81 1.509 3.279 3.379 3.279 1.869 0 3.378-1.469 3.378-3.279Zm4.359-6.207c0-1.81-1.51-3.279-3.379-3.279s-3.379 1.469-3.379 3.279c0 1.809 1.51 3.278 3.379 3.278s3.379-1.469 3.379-3.278Zm-8.657-.02c0-.66-.2-1.28-.55-1.8a3.412 3.412 0 0 0-2.829-1.479c-1.869 0-3.378 1.469-3.378 3.279 0 1.809 1.509 3.278 3.378 3.278 1.87 0 3.379-1.469 3.379-3.278Zm4.888-6.368c-1.669 0-2.549 1.359-3.009 2.719-.46 1.359-.5 2.719-.5 2.719h-.859s-.16-5.428-3.499-5.438h7.867Z"/>
  <path fill="#000" d="M153.554 195.168c1.899-1.899 1.899-4.748 1.899-4.748l.85-.01s0 2.909 1.849 4.758"/>
  <path fill="#000" d="M153.933 189.07c1.9 1.9 4.749 1.9 4.749 1.9v.849s-2.909 0-4.759 1.85"/>
  <path fill="#000" d="M157.742 189.06c-1.899 1.9-4.748 1.9-4.748 1.9v.849s2.909 0 4.758 1.85M37.81 27.567c0 4.342 3.623 7.868 8.11 7.868 4.486 0 8.109-3.526 8.109-7.869 0-4.342-3.623-7.869-8.11-7.869-4.485 0-8.108 3.527-8.108 7.87ZM27.35 42.465c0 4.342 3.623 7.87 8.11 7.87 4.486 0 8.109-3.528 8.109-7.87 0-4.342-3.623-7.869-8.11-7.869-4.486 0-8.108 3.527-8.108 7.869Zm20.777.048c0 1.583.48 3.07 1.32 4.318 1.44 2.136 3.958 3.551 6.79 3.551 4.486 0 8.108-3.527 8.108-7.869s-3.622-7.87-8.109-7.87c-4.486 0-8.109 3.528-8.109 7.87ZM36.395 57.795c4.007 0 6.118-3.263 7.222-6.525 1.103-3.263 1.2-6.526 1.2-6.526h2.063s.383 13.027 8.396 13.051h-18.88Z"/>
  <path fill="#000" d="M51.414 33.348c-4.558 4.559-4.558 11.396-4.558 11.396l-2.04.024s0-6.981-4.438-11.42"/>
  <path fill="#000" d="M50.502 47.983c-4.558-4.558-11.395-4.558-11.395-4.558v-2.04s6.981 0 11.42-4.438"/>
  <path fill="#000" d="M41.362 48.007c4.558-4.558 11.395-4.558 11.395-4.558v-2.04s-6.981 0-11.42-4.438M37.81 81.703c0 4.342 3.623 7.869 8.11 7.869 4.486 0 8.109-3.527 8.109-7.87 0-4.342-3.623-7.868-8.11-7.868-4.485 0-8.108 3.526-8.108 7.869ZM27.35 96.601c0 4.343 3.623 7.869 8.11 7.869 4.486 0 8.109-3.526 8.109-7.869 0-4.342-3.623-7.869-8.11-7.869-4.486 0-8.108 3.527-8.108 7.87Zm20.777.049c0 1.582.48 3.07 1.32 4.318 1.44 2.135 3.958 3.55 6.79 3.55 4.486 0 8.108-3.526 8.108-7.869 0-4.342-3.622-7.869-8.109-7.869-4.486 0-8.109 3.527-8.109 7.87Zm-11.732 15.281c4.007 0 6.118-3.262 7.222-6.525 1.103-3.263 1.2-6.526 1.2-6.526h2.063s.383 13.027 8.396 13.051h-18.88Z"/>
  <path fill="#000" d="M51.414 87.484c-4.558 4.559-4.558 11.396-4.558 11.396l-2.04.024s0-6.981-4.438-11.42"/>
  <path fill="#000" d="M50.502 102.119c-4.558-4.558-11.395-4.558-11.395-4.558v-2.04s6.981 0 11.42-4.438"/>
  <path fill="#000" d="M41.362 102.143c4.558-4.558 11.395-4.558 11.395-4.558v-2.04s-6.981 0-11.42-4.438m12.549 68.095c0-4.343-3.623-7.869-8.11-7.869-4.486 0-8.109 3.526-8.109 7.869 0 4.342 3.623 7.869 8.11 7.869 4.486 0 8.108-3.527 8.108-7.869Zm10.459-14.899c0-4.342-3.622-7.869-8.109-7.869-4.486 0-8.109 3.527-8.109 7.869 0 4.343 3.623 7.869 8.11 7.869 4.486 0 8.108-3.526 8.108-7.869Zm-20.776-.048c0-1.583-.48-3.071-1.32-4.318-1.439-2.135-3.958-3.551-6.789-3.551-4.486 0-8.109 3.527-8.109 7.869 0 4.343 3.623 7.869 8.11 7.869 4.485 0 8.108-3.526 8.108-7.869ZM55.3 128.973c-4.006 0-6.117 3.263-7.22 6.525-1.104 3.263-1.2 6.526-1.2 6.526h-2.063s-.384-13.027-8.397-13.051H55.3Z"/>
  <path fill="#000" d="M40.282 153.42c4.559-4.559 4.559-11.396 4.559-11.396L46.88 142s0 6.981 4.438 11.42"/>
  <path fill="#000" d="M41.194 138.785c4.558 4.559 11.396 4.559 11.396 4.559v2.039s-6.982 0-11.42 4.438"/>
  <path fill="#000" d="M50.335 138.761c-4.559 4.559-11.396 4.559-11.396 4.559v2.039s6.981 0 11.42 4.438m3.527 63.541c0-4.343-3.623-7.869-8.11-7.869-4.486 0-8.109 3.526-8.109 7.869 0 4.342 3.623 7.869 8.11 7.869 4.486 0 8.108-3.527 8.108-7.869Zm10.459-14.899c0-4.342-3.622-7.869-8.109-7.869-4.486 0-8.109 3.527-8.109 7.869 0 4.343 3.623 7.869 8.11 7.869 4.486 0 8.108-3.526 8.108-7.869Zm-20.776-.048c0-1.583-.48-3.071-1.32-4.318-1.439-2.135-3.958-3.551-6.789-3.551-4.486 0-8.109 3.527-8.109 7.869 0 4.343 3.623 7.869 8.11 7.869 4.485 0 8.108-3.526 8.108-7.869ZM55.3 183.109c-4.006 0-6.117 3.263-7.22 6.526-1.104 3.262-1.2 6.525-1.2 6.525h-2.063s-.384-13.027-8.397-13.051H55.3Z"/>
  <path fill="#000" d="M40.282 207.556c4.559-4.558 4.559-11.396 4.559-11.396l2.039-.024s0 6.982 4.438 11.42"/>
  <path fill="#000" d="M41.194 192.921c4.558 4.559 11.396 4.559 11.396 4.559v2.039s-6.982 0-11.42 4.438"/>
  <path fill="#000" d="M50.335 192.897c-4.559 4.559-11.396 4.559-11.396 4.559v2.039s6.981 0 11.42 4.438m67.279-176.366c0 4.342 3.623 7.868 8.109 7.868 4.487 0 8.109-3.526 8.109-7.869 0-4.342-3.622-7.869-8.109-7.869-4.486 0-8.109 3.527-8.109 7.87Zm-10.459 14.898c0 4.342 3.622 7.87 8.108 7.87 4.487 0 8.109-3.528 8.109-7.87 0-4.342-3.622-7.869-8.109-7.869-4.486 0-8.108 3.527-8.108 7.869Zm20.776.048c0 1.583.48 3.07 1.319 4.318 1.44 2.136 3.959 3.551 6.79 3.551 4.486 0 8.109-3.527 8.109-7.869s-3.623-7.87-8.109-7.87-8.109 3.528-8.109 7.87Zm-11.732 15.282c4.007 0 6.118-3.263 7.221-6.525 1.104-3.263 1.2-6.526 1.2-6.526h2.063s.384 13.027 8.397 13.051h-18.881Z"/>
  <path fill="#000" d="M131.242 33.348c-4.559 4.559-4.559 11.396-4.559 11.396l-2.039.024s0-6.981-4.438-11.42"/>
  <path fill="#000" d="M130.33 47.983c-4.558-4.558-11.396-4.558-11.396-4.558v-2.04s6.982 0 11.42-4.438"/>
  <path fill="#000" d="M121.189 48.007c4.559-4.558 11.396-4.558 11.396-4.558v-2.04s-6.981 0-11.42-4.438m-3.527 44.732c0 4.342 3.623 7.869 8.109 7.869 4.487 0 8.109-3.527 8.109-7.87 0-4.342-3.622-7.868-8.109-7.868-4.486 0-8.109 3.526-8.109 7.869Zm-10.459 14.898c0 4.343 3.622 7.869 8.108 7.869 4.487 0 8.109-3.526 8.109-7.869 0-4.342-3.622-7.869-8.109-7.869-4.486 0-8.108 3.527-8.108 7.87Zm20.776.049c0 1.582.48 3.07 1.319 4.318 1.44 2.135 3.959 3.55 6.79 3.55 4.486 0 8.109-3.526 8.109-7.869 0-4.342-3.623-7.869-8.109-7.869s-8.109 3.527-8.109 7.87Zm-11.732 15.281c4.007 0 6.118-3.262 7.221-6.525 1.104-3.263 1.2-6.526 1.2-6.526h2.063s.384 13.027 8.397 13.051h-18.881Z"/>
  <path fill="#000" d="M131.242 87.484c-4.559 4.559-4.559 11.396-4.559 11.396l-2.039.024s0-6.981-4.438-11.42"/>
  <path fill="#000" d="M130.33 102.119c-4.558-4.558-11.396-4.558-11.396-4.558v-2.04s6.982 0 11.42-4.438"/>
  <path fill="#000" d="M121.189 102.143c4.559-4.558 11.396-4.558 11.396-4.558v-2.04s-6.981 0-11.42-4.438m12.548 68.095c0-4.343-3.623-7.869-8.109-7.869s-8.109 3.526-8.109 7.869c0 4.342 3.623 7.869 8.109 7.869s8.109-3.527 8.109-7.869Zm10.46-14.899c0-4.342-3.623-7.869-8.109-7.869s-8.109 3.527-8.109 7.869c0 4.343 3.623 7.869 8.109 7.869s8.109-3.526 8.109-7.869Zm-20.776-.048c0-1.583-.48-3.071-1.32-4.318-1.439-2.135-3.958-3.551-6.789-3.551-4.487 0-8.109 3.527-8.109 7.869 0 4.343 3.622 7.869 8.109 7.869 4.486 0 8.109-3.526 8.109-7.869Zm11.732-15.282c-4.007 0-6.118 3.263-7.222 6.525-1.103 3.263-1.199 6.526-1.199 6.526h-2.064s-.383-13.027-8.396-13.051h18.881Z"/>
  <path fill="#000" d="M120.11 153.42c4.558-4.559 4.558-11.396 4.558-11.396l2.039-.024s0 6.981 4.439 11.42"/>
  <path fill="#000" d="M121.022 138.785c4.558 4.559 11.395 4.559 11.395 4.559v2.039s-6.981 0-11.419 4.438"/>
  <path fill="#000" d="M130.162 138.761c-4.558 4.559-11.395 4.559-11.395 4.559v2.039s6.981 0 11.419 4.438m3.527 63.541c0-4.343-3.623-7.869-8.109-7.869s-8.109 3.526-8.109 7.869c0 4.342 3.623 7.869 8.109 7.869s8.109-3.527 8.109-7.869Zm10.46-14.899c0-4.342-3.623-7.869-8.109-7.869s-8.109 3.527-8.109 7.869c0 4.343 3.623 7.869 8.109 7.869s8.109-3.526 8.109-7.869Zm-20.776-.048c0-1.583-.48-3.071-1.32-4.318-1.439-2.135-3.958-3.551-6.789-3.551-4.487 0-8.109 3.527-8.109 7.869 0 4.343 3.622 7.869 8.109 7.869 4.486 0 8.109-3.526 8.109-7.869Zm11.732-15.282c-4.007 0-6.118 3.263-7.222 6.526-1.103 3.262-1.199 6.525-1.199 6.525h-2.064s-.383-13.027-8.396-13.051h18.881Z"/>
  <path fill="#000" d="M120.11 207.556c4.558-4.558 4.558-11.396 4.558-11.396l2.039-.024s0 6.982 4.439 11.42"/>
  <path fill="#000" d="M121.022 192.921c4.558 4.559 11.395 4.559 11.395 4.559v2.039s-6.981 0-11.419 4.438"/>
  <path fill="#000" d="M130.162 192.897c-4.558 4.559-11.395 4.559-11.395 4.559v2.039s6.981 0 11.419 4.438M77.725 54.635c0 4.342 3.623 7.869 8.109 7.869s8.109-3.527 8.109-7.87c0-4.342-3.623-7.868-8.11-7.868-4.485 0-8.108 3.526-8.108 7.869Zm-10.46 14.898c0 4.343 3.623 7.87 8.109 7.87s8.109-3.528 8.109-7.87c0-4.342-3.623-7.869-8.11-7.869-4.485 0-8.108 3.527-8.108 7.87Zm20.776.048a7.71 7.71 0 0 0 1.32 4.319c1.44 2.135 3.958 3.55 6.79 3.55 4.486 0 8.108-3.526 8.108-7.869 0-4.342-3.622-7.869-8.109-7.869-4.486 0-8.109 3.527-8.109 7.87ZM76.31 84.863c4.006 0 6.117-3.262 7.22-6.525 1.104-3.263 1.2-6.526 1.2-6.526h2.064s.383 13.027 8.396 13.051H76.31Z"/>
  <path fill="#000" d="M91.328 60.416c-4.558 4.559-4.558 11.396-4.558 11.396l-2.04.024s0-6.981-4.438-11.42"/>
  <path fill="#000" d="M90.416 75.051c-4.558-4.558-11.395-4.558-11.395-4.558v-2.04s6.981 0 11.42-4.438"/>
  <path fill="#000" d="M81.276 75.075c4.558-4.558 11.395-4.558 11.395-4.558v-2.04s-6.981 0-11.42-4.438M93.799 186.27c0-4.342-3.623-7.869-8.109-7.869s-8.109 3.527-8.109 7.869 3.623 7.869 8.109 7.869 8.109-3.527 8.109-7.869Zm10.46-14.899c0-4.342-3.623-7.869-8.109-7.869s-8.109 3.527-8.109 7.869c0 4.343 3.623 7.869 8.109 7.869s8.109-3.526 8.109-7.869Zm-20.776-.048a7.71 7.71 0 0 0-1.32-4.318c-1.44-2.135-3.958-3.551-6.79-3.551-4.486 0-8.108 3.527-8.108 7.869 0 4.343 3.622 7.869 8.109 7.869 4.486 0 8.109-3.526 8.109-7.869Zm11.732-15.282c-4.007 0-6.118 3.263-7.222 6.526-1.103 3.262-1.2 6.525-1.2 6.525H84.73s-.383-13.027-8.397-13.051h18.882Z"/>
  <path fill="#000" d="M80.196 180.488c4.558-4.558 4.558-11.396 4.558-11.396l2.04-.024s0 6.982 4.438 11.42"/>
  <path fill="#000" d="M81.108 165.854c4.558 4.558 11.395 4.558 11.395 4.558v2.039s-6.981 0-11.42 4.438"/>
  <path fill="#000" d="M90.248 165.829c-4.558 4.559-11.395 4.559-11.395 4.559v2.039s6.98 0 11.42 4.438"/>
</svg>
