<svg xmlns="http://www.w3.org/2000/svg" width="170" height="246" fill="none" viewBox="0 0 170 246">
  <path fill="#fff" stroke="#000" stroke-width="2.499" d="M2 237.183c0 3.778 3.089 6.867 6.867 6.867h152.789c3.768 0 6.857-3.089 6.857-6.867V8.867c0-3.778-3.089-6.867-6.857-6.867H8.867C5.09 2 2 5.089 2 8.867v228.316Z"/>
  <path fill="#E6180A" d="M11.614 12.74v18.258h-3.86V16.404h-.107l-4.181 2.62v-3.422l4.52-2.862h3.628Zm11.498 18.659c-1.534-.006-2.853-.384-3.958-1.133-1.1-.748-1.947-1.833-2.541-3.253-.588-1.42-.88-3.13-.874-5.126 0-1.991.294-3.688.883-5.09.594-1.403 1.441-2.47 2.54-3.201 1.106-.737 2.422-1.106 3.95-1.106 1.527 0 2.84.369 3.94 1.106 1.106.737 1.956 1.806 2.55 3.21.594 1.396.888 3.09.883 5.08 0 2.003-.298 3.715-.892 5.136-.588 1.42-1.432 2.505-2.532 3.254-1.1.748-2.416 1.123-3.95 1.123Zm0-3.2c1.046 0 1.88-.527 2.505-1.579.624-1.052.933-2.63.927-4.733 0-1.385-.143-2.538-.428-3.46-.28-.92-.677-1.613-1.194-2.077a2.606 2.606 0 0 0-1.81-.695c-1.04 0-1.872.52-2.496 1.56-.624 1.04-.94 2.597-.945 4.672 0 1.402.14 2.573.419 3.512.285.933.686 1.634 1.203 2.104a2.637 2.637 0 0 0 1.819.695Zm130.656 204.056v-18.257h3.86v14.593h.107l4.181-2.621v3.424l-4.52 2.861h-3.628Zm-11.498-18.659c1.533.006 2.853.384 3.958 1.133 1.1.748 1.947 1.833 2.541 3.254.588 1.42.879 3.129.874 5.126 0 1.991-.295 3.687-.883 5.09-.594 1.403-1.441 2.469-2.541 3.2-1.105.737-2.422 1.106-3.949 1.106-1.527 0-2.841-.369-3.94-1.106-1.106-.737-1.956-1.806-2.55-3.209-.594-1.397-.889-3.09-.883-5.081 0-2.003.298-3.715.892-5.135.588-1.421 1.432-2.505 2.532-3.254 1.099-.749 2.416-1.124 3.949-1.124Zm0 3.201c-1.046 0-1.881.526-2.505 1.578-.624 1.052-.933 2.63-.927 4.734 0 1.384.142 2.537.428 3.459.279.921.677 1.613 1.194 2.077a2.609 2.609 0 0 0 1.81.695c1.04 0 1.872-.52 2.496-1.56.624-1.04.939-2.597.945-4.671 0-1.403-.14-2.574-.419-3.513-.285-.933-.686-1.634-1.203-2.104a2.641 2.641 0 0 0-1.819-.695ZM15.655 52.135h7.677c-.874-.04-1.618-.605-2.321-1.073-1.578-1.19-3.057-2.556-4.224-4.154-.545-.803-1.118-1.707-1.132-2.71m7.677 7.937c-1.11.035-2.057.74-2.903 1.392-1.494 1.255-2.788 2.747-3.88 4.362-.4.67-.872 1.378-.894 2.182v-7.936m0 7.937c-.038-1.182-.758-2.206-1.438-3.12a20.884 20.884 0 0 0-4.226-3.96c-.614-.384-1.266-.839-2.013-.857h7.677m-7.677 0c1.11-.035 2.057-.741 2.903-1.392 1.494-1.256 2.788-2.748 3.88-4.363.4-.67.871-1.378.894-2.183v7.938m140.218 140.784h-7.677c.874.039 1.618.605 2.321 1.072 1.578 1.191 3.057 2.557 4.224 4.154.545.804 1.117 1.707 1.132 2.711m-7.677-7.937c1.109-.035 2.057-.741 2.902-1.393 1.495-1.254 2.788-2.746 3.88-4.362.401-.669.873-1.377.895-2.182v7.937m0-7.937c.038 1.181.757 2.205 1.437 3.119a20.877 20.877 0 0 0 4.227 3.961c.613.383 1.265.838 2.013.857h-7.677m7.677 0c-1.11.035-2.057.741-2.903 1.391-1.495 1.256-2.788 2.748-3.88 4.364-.4.669-.872 1.377-.894 2.182v-7.937M45.848 38.747h18.425c-2.099-.094-3.884-1.452-5.57-2.574-3.789-2.858-7.337-6.135-10.14-9.969-1.307-1.929-2.68-4.098-2.715-6.506m18.425 19.049c-2.663.084-4.937 1.778-6.967 3.342-3.587 3.01-6.691 6.592-9.311 10.47-.962 1.604-2.094 3.305-2.147 5.237v-19.05m0 19.05c-.091-2.836-1.819-5.293-3.45-7.486-2.908-3.622-6.353-6.827-10.144-9.507-1.473-.92-3.037-2.012-4.831-2.056h18.425m-18.425 0c2.663-.084 4.937-1.778 6.967-3.34 3.586-3.013 6.69-6.595 9.31-10.472.963-1.605 2.094-3.306 2.148-5.237v19.049m0 54.136h18.425c-2.099-.094-3.884-1.451-5.57-2.574-3.789-2.858-7.337-6.135-10.14-9.969-1.307-1.928-2.68-4.097-2.715-6.506m18.425 19.049c-2.663.084-4.937 1.778-6.967 3.342-3.587 3.01-6.691 6.593-9.311 10.47-.962 1.605-2.094 3.306-2.147 5.237V92.883m0 19.049c-.091-2.836-1.819-5.293-3.45-7.485-2.908-3.623-6.353-6.828-10.144-9.508-1.473-.919-3.037-2.012-4.831-2.056h18.425m-18.425 0c2.663-.084 4.937-1.778 6.967-3.34 3.586-3.013 6.69-6.595 9.31-10.472.963-1.605 2.094-3.306 2.148-5.237v19.049m0 55.139H27.423c2.098.094 3.884 1.452 5.57 2.574 3.789 2.858 7.337 6.135 10.14 9.969 1.307 1.929 2.68 4.098 2.715 6.506m-18.425-19.049c2.663-.084 4.937-1.778 6.967-3.342 3.587-3.011 6.691-6.592 9.31-10.469.963-1.605 2.095-3.306 2.148-5.238v19.049m0-19.049c.091 2.836 1.819 5.293 3.45 7.486 2.908 3.622 6.353 6.827 10.143 9.507 1.473.919 3.038 2.012 4.832 2.056H45.848m18.425 0c-2.663.084-4.937 1.778-6.967 3.34-3.587 3.013-6.691 6.595-9.31 10.472-.963 1.605-2.094 3.306-2.148 5.237v-19.049m0 54.137H27.423c2.098.093 3.884 1.451 5.57 2.573 3.789 2.858 7.337 6.135 10.14 9.969 1.307 1.929 2.68 4.098 2.715 6.506m-18.425-19.048c2.663-.084 4.937-1.779 6.967-3.342 3.587-3.011 6.691-6.593 9.31-10.47.963-1.605 2.095-3.306 2.148-5.237v19.049m0-19.049c.091 2.835 1.819 5.292 3.45 7.485 2.908 3.622 6.353 6.828 10.143 9.507 1.473.919 3.038 2.012 4.832 2.057H45.848m18.425 0c-2.663.084-4.937 1.777-6.967 3.339-3.587 3.013-6.691 6.595-9.31 10.472-.963 1.605-2.094 3.306-2.148 5.237v-19.048m79.828-163.412h18.425c-2.098-.094-3.884-1.452-5.571-2.574-3.788-2.858-7.336-6.135-10.138-9.969-1.308-1.929-2.682-4.098-2.716-6.506m18.425 19.049c-2.663.084-4.937 1.778-6.967 3.342-3.587 3.01-6.691 6.592-9.311 10.47-.962 1.604-2.094 3.305-2.147 5.237v-19.05m0 19.05c-.091-2.836-1.819-5.293-3.45-7.486-2.908-3.622-6.353-6.827-10.143-9.507-1.473-.92-3.038-2.012-4.832-2.056h18.425m-18.425 0c2.663-.084 4.937-1.778 6.967-3.34 3.586-3.013 6.691-6.595 9.311-10.472.962-1.605 2.093-3.306 2.147-5.237v19.049m0 54.136h18.425c-2.098-.094-3.884-1.451-5.571-2.574-3.788-2.858-7.336-6.135-10.138-9.969-1.308-1.928-2.682-4.097-2.716-6.506m18.425 19.049c-2.663.084-4.937 1.778-6.967 3.342-3.587 3.01-6.691 6.593-9.311 10.47-.962 1.605-2.094 3.306-2.147 5.237V92.883m0 19.049c-.091-2.836-1.819-5.293-3.45-7.485-2.908-3.623-6.353-6.828-10.143-9.508-1.473-.919-3.038-2.012-4.832-2.056h18.425m-18.425 0c2.663-.084 4.937-1.778 6.967-3.34 3.586-3.013 6.691-6.595 9.311-10.472.962-1.605 2.093-3.306 2.147-5.237v19.049m0 55.139h-18.425c2.098.094 3.884 1.452 5.571 2.574 3.788 2.858 7.336 6.135 10.138 9.969 1.308 1.929 2.682 4.098 2.716 6.506m-18.425-19.049c2.663-.084 4.937-1.778 6.967-3.342 3.587-3.011 6.691-6.592 9.311-10.469.962-1.605 2.094-3.306 2.147-5.238v19.049m0-19.049c.091 2.836 1.819 5.293 3.45 7.486 2.908 3.622 6.353 6.827 10.143 9.507 1.474.919 3.038 2.012 4.832 2.056h-18.425m18.425 0c-2.663.084-4.937 1.778-6.967 3.34-3.586 3.013-6.691 6.595-9.311 10.472-.962 1.605-2.093 3.306-2.147 5.237v-19.049m0 54.137h-18.425c2.098.093 3.884 1.451 5.571 2.573 3.788 2.858 7.336 6.135 10.138 9.969 1.308 1.929 2.682 4.098 2.716 6.506m-18.425-19.048c2.663-.084 4.937-1.779 6.967-3.342 3.587-3.011 6.691-6.593 9.311-10.47.962-1.605 2.094-3.306 2.147-5.237v19.049m0-19.049c.091 2.835 1.819 5.292 3.45 7.485 2.908 3.622 6.353 6.828 10.143 9.507 1.474.919 3.038 2.012 4.832 2.057h-18.425m18.425 0c-2.663.084-4.937 1.777-6.967 3.339-3.586 3.013-6.691 6.595-9.311 10.472-.962 1.605-2.093 3.306-2.147 5.237v-19.048M85.762 65.815h18.425c-2.098-.094-3.884-1.452-5.57-2.574-3.789-2.858-7.337-6.135-10.14-9.969-1.307-1.929-2.68-4.097-2.715-6.506m18.425 19.049c-2.663.084-4.937 1.778-6.967 3.342-3.587 3.01-6.691 6.593-9.31 10.47-.963 1.605-2.095 3.306-2.148 5.237v-19.05m0 19.05c-.091-2.836-1.819-5.293-3.45-7.485-2.908-3.623-6.353-6.828-10.144-9.508-1.473-.919-3.037-2.012-4.831-2.056h18.425m-18.425 0c2.663-.084 4.937-1.778 6.967-3.34 3.586-3.013 6.69-6.595 9.31-10.472.963-1.605 2.094-3.306 2.148-5.237v19.049m0 109.275H67.337c2.098.094 3.884 1.452 5.57 2.574 3.789 2.858 7.337 6.135 10.14 9.969 1.307 1.929 2.68 4.098 2.715 6.506M67.337 175.09c2.663-.084 4.937-1.778 6.967-3.342 3.587-3.01 6.691-6.592 9.31-10.469.963-1.605 2.095-3.306 2.148-5.237v19.048m0-19.048c.091 2.835 1.819 5.292 3.45 7.485 2.908 3.622 6.353 6.828 10.143 9.507 1.473.919 3.038 2.012 4.832 2.056H85.762m18.425 0c-2.663.084-4.937 1.778-6.967 3.34-3.587 3.013-6.69 6.595-9.31 10.472-.963 1.605-2.094 3.306-2.148 5.237V175.09"/>
</svg>
