<svg xmlns="http://www.w3.org/2000/svg" width="158" height="226" fill="none" viewBox="0 0 158 226">
  <path fill="#fff" stroke="#000" stroke-width="2.499" d="M2.114 218.155c0 3.482 2.851 6.329 6.338 6.329h141.009c3.478 0 6.329-2.847 6.329-6.329V7.763c0-3.482-2.851-6.328-6.329-6.328H8.452c-3.487 0-6.338 2.846-6.338 6.328v210.392Z"/>
  <path fill="#E6180A" d="M13.559 6.21v18.257h-3.86V9.874h-.107l-4.181 2.62V9.072L9.93 6.21h3.628Zm-.785 48.658c-1.533-.006-2.853-.383-3.958-1.132-1.1-.749-1.946-1.833-2.54-3.254-.59-1.42-.88-3.129-.874-5.126 0-1.99.294-3.688.882-5.09.595-1.403 1.441-2.47 2.541-3.2 1.105-.738 2.422-1.106 3.95-1.106 1.527 0 2.84.368 3.94 1.105 1.105.737 1.955 1.807 2.55 3.21.594 1.397.888 3.09.882 5.081 0 2.003-.297 3.715-.892 5.135-.588 1.42-1.432 2.505-2.531 3.254-1.1.749-2.416 1.123-3.95 1.123Zm0-3.2c1.046 0 1.881-.526 2.505-1.578.624-1.052.933-2.63.927-4.734 0-1.385-.142-2.538-.427-3.459-.28-.92-.678-1.613-1.195-2.077a2.605 2.605 0 0 0-1.81-.695c-1.04 0-1.872.52-2.496 1.56-.624 1.04-.939 2.597-.945 4.671 0 1.403.14 2.574.42 3.513.284.933.686 1.634 1.203 2.104a2.638 2.638 0 0 0 1.818.695Zm130.527 167.903v-18.258h3.86v14.594h.107l4.181-2.621v3.423l-4.52 2.862h-3.628Zm.784-48.659c1.533.006 2.853.383 3.958 1.132 1.1.749 1.947 1.833 2.541 3.254.588 1.42.88 3.129.874 5.126 0 1.991-.294 3.688-.883 5.09-.594 1.403-1.441 2.47-2.541 3.201-1.105.737-2.421 1.105-3.949 1.105-1.527 0-2.841-.368-3.94-1.105-1.106-.737-1.956-1.807-2.55-3.21-.594-1.396-.888-3.09-.882-5.081 0-2.003.297-3.715.891-5.135.588-1.42 1.432-2.505 2.532-3.254 1.099-.749 2.416-1.123 3.949-1.123Zm0 3.2c-1.046 0-1.881.526-2.505 1.578-.624 1.052-.933 2.63-.927 4.734 0 1.385.143 2.538.428 3.459.279.921.677 1.614 1.194 2.077a2.606 2.606 0 0 0 1.81.695c1.04 0 1.872-.52 2.496-1.56.624-1.04.939-2.597.945-4.671 0-1.403-.139-2.573-.419-3.512-.285-.934-.686-1.635-1.203-2.104a2.637 2.637 0 0 0-1.819-.696Z"/>
  <path fill="#E6180A" d="M21.793 44.012c-.01 4.339-5.453 7.499-7.049 10.934C13.13 51.52 7.677 48.389 7.64 44.05c-.009-2.045 1.578-3.712 3.525-3.712 1.955 0 3.551 1.649 3.551 3.694 0-2.054 1.578-3.712 3.525-3.712 1.955-.01 3.542 1.648 3.552 3.693Zm115.255 136.975c.01-4.339 5.453-7.499 7.049-10.935 1.614 3.427 7.067 6.559 7.103 10.898.01 2.045-1.577 3.712-3.524 3.712-1.956 0-3.552-1.649-3.552-3.694 0 2.054-1.577 3.712-3.524 3.712-1.956.01-3.542-1.648-3.552-3.693ZM59.564 26.608c-.022 10.413-13.086 17.996-16.916 26.242-3.875-8.224-16.96-15.74-17.05-26.153-.021-4.908 3.787-8.91 8.459-8.91 4.694 0 8.524 3.957 8.524 8.865 0-4.93 3.787-8.909 8.458-8.909 4.694-.022 8.503 3.957 8.525 8.865Zm0 49.886c-.022 10.413-13.086 17.996-16.916 26.242-3.875-8.224-16.96-15.74-17.05-26.153-.021-4.908 3.787-8.91 8.459-8.91 4.694 0 8.524 3.957 8.524 8.865 0-4.93 3.787-8.909 8.458-8.909 4.694-.022 8.503 3.957 8.525 8.865ZM25.6 144.683c.021-10.412 13.085-17.995 16.915-26.242 3.875 8.224 16.96 15.741 17.05 26.154.021 4.908-3.787 8.909-8.459 8.909-4.694 0-8.524-3.957-8.524-8.865 0 4.93-3.787 8.91-8.458 8.91-4.694.022-8.503-3.958-8.525-8.866Zm0 49.887c.021-10.413 13.085-17.996 16.915-26.242 3.875 8.224 16.96 15.74 17.05 26.153.021 4.908-3.787 8.91-8.459 8.91-4.694 0-8.524-3.958-8.524-8.866 0 4.93-3.787 8.91-8.458 8.91-4.694.022-8.503-3.958-8.525-8.865ZM133.238 26.608c-.022 10.413-13.086 17.996-16.916 26.242-3.875-8.224-16.96-15.74-17.05-26.153-.021-4.908 3.787-8.91 8.459-8.91 4.694 0 8.524 3.957 8.524 8.865 0-4.93 3.786-8.909 8.458-8.909 4.694-.022 8.503 3.957 8.525 8.865Zm0 49.886c-.022 10.413-13.086 17.996-16.916 26.242-3.875-8.224-16.96-15.74-17.05-26.153-.021-4.908 3.787-8.91 8.459-8.91 4.694 0 8.524 3.957 8.524 8.865 0-4.93 3.786-8.909 8.458-8.909 4.694-.022 8.503 3.957 8.525 8.865Zm-33.965 68.189c.022-10.412 13.086-17.995 16.916-26.242 3.875 8.224 16.96 15.741 17.049 26.154.022 4.908-3.786 8.909-8.458 8.909-4.694 0-8.525-3.957-8.525-8.865 0 4.93-3.786 8.91-8.458 8.91-4.694.022-8.502-3.958-8.524-8.866Zm0 49.887c.022-10.413 13.086-17.996 16.916-26.242 3.875 8.224 16.96 15.74 17.049 26.153.022 4.908-3.786 8.91-8.458 8.91-4.694 0-8.525-3.958-8.525-8.866 0 4.93-3.786 8.91-8.458 8.91-4.694.022-8.502-3.958-8.524-8.865ZM96.4 51.552c-.021 10.413-13.085 17.996-16.915 26.242-3.875-8.224-16.96-15.74-17.05-26.153-.021-4.908 3.787-8.91 8.459-8.91 4.694 0 8.524 3.958 8.524 8.865 0-4.93 3.786-8.909 8.458-8.909 4.694-.022 8.503 3.957 8.525 8.865ZM62.436 169.625c.022-10.412 13.086-17.995 16.916-26.241 3.875 8.224 16.96 15.74 17.05 26.153.021 4.908-3.787 8.909-8.459 8.909-4.694 0-8.524-3.957-8.524-8.865 0 4.93-3.787 8.91-8.459 8.91-4.694.022-8.502-3.958-8.524-8.866Z"/>
</svg>
