<svg xmlns="http://www.w3.org/2000/svg" width="157" height="227" fill="none" viewBox="0 0 157 227">
  <path fill="#fff" stroke="#000" stroke-width="2.499" d="M2 218.688c0 3.482 2.85 6.328 6.338 6.328h141.009c3.478 0 6.329-2.846 6.329-6.328V8.296c0-3.482-2.851-6.328-6.329-6.328H8.337C4.85 1.968 2 4.814 2 8.296v210.392Z"/>
  <path fill="#E6180A" d="M13.444 6.742V25h-3.86V10.406h-.107l-4.18 2.621V9.604l4.52-2.862h3.627Zm11.498 18.66c-1.533-.007-2.852-.384-3.958-1.133-1.1-.749-1.946-1.833-2.54-3.254-.589-1.42-.88-3.13-.874-5.126 0-1.991.294-3.688.882-5.09.595-1.403 1.442-2.47 2.541-3.2 1.106-.738 2.422-1.106 3.95-1.106 1.527 0 2.84.368 3.94 1.105 1.105.737 1.955 1.807 2.55 3.21.594 1.396.888 3.09.882 5.081 0 2.003-.297 3.715-.891 5.135-.589 1.42-1.433 2.505-2.532 3.254-1.1.749-2.416 1.123-3.95 1.123Zm0-3.201c1.046 0 1.881-.526 2.506-1.578.624-1.052.933-2.63.927-4.734 0-1.385-.143-2.538-.428-3.459-.28-.921-.678-1.614-1.195-2.077a2.605 2.605 0 0 0-1.81-.695c-1.04 0-1.872.52-2.496 1.56-.624 1.04-.939 2.597-.945 4.671 0 1.403.14 2.573.42 3.512.285.934.686 1.635 1.203 2.104a2.638 2.638 0 0 0 1.818.696ZM143.463 219.79v-18.257h3.86v14.593h.107l4.181-2.621v3.424l-4.52 2.861h-3.628Zm-11.498-18.658c1.533.005 2.853.383 3.958 1.132 1.099.749 1.946 1.833 2.541 3.254.588 1.42.879 3.129.873 5.126 0 1.991-.294 3.687-.882 5.09-.595 1.403-1.441 2.47-2.541 3.201-1.105.736-2.422 1.105-3.949 1.105-1.528 0-2.841-.369-3.941-1.105-1.105-.737-1.955-1.807-2.549-3.21-.595-1.396-.889-3.09-.883-5.081 0-2.003.297-3.715.892-5.135.588-1.421 1.432-2.505 2.531-3.254 1.1-.749 2.416-1.123 3.95-1.123Zm0 3.2c-1.046 0-1.881.526-2.505 1.578-.624 1.052-.933 2.63-.927 4.734 0 1.384.142 2.537.427 3.459.28.921.678 1.613 1.195 2.077a2.607 2.607 0 0 0 1.81.695c1.04 0 1.872-.52 2.496-1.56.624-1.04.939-2.597.945-4.671 0-1.403-.14-2.574-.419-3.513-.285-.933-.687-1.634-1.204-2.104a2.639 2.639 0 0 0-1.818-.695ZM21.678 44.545c-.009 4.339-5.452 7.498-7.048 10.934-1.615-3.426-7.067-6.558-7.104-10.897-.01-2.045 1.578-3.712 3.524-3.712 1.956 0 3.552 1.649 3.552 3.694 0-2.055 1.578-3.713 3.524-3.713 1.956-.009 3.543 1.65 3.552 3.694Zm115.256 136.974c.009-4.338 5.452-7.498 7.048-10.934 1.615 3.427 7.067 6.559 7.104 10.897.009 2.045-1.578 3.713-3.524 3.713-1.956 0-3.552-1.649-3.552-3.694 0 2.054-1.578 3.712-3.524 3.712-1.956.009-3.543-1.649-3.552-3.694Z"/>
  <path fill="#E6180A" d="M59.45 27.14c-.022 10.414-13.086 17.997-16.916 26.243-3.875-8.224-16.96-15.74-17.05-26.154-.021-4.908 3.787-8.91 8.459-8.91 4.694 0 8.524 3.958 8.524 8.866 0-4.93 3.787-8.91 8.459-8.91 4.694-.021 8.502 3.958 8.524 8.866Zm0 49.887c-.022 10.413-13.086 17.996-16.916 26.242-3.875-8.224-16.96-15.74-17.05-26.154-.021-4.908 3.787-8.91 8.459-8.91 4.694 0 8.524 3.958 8.524 8.866 0-4.93 3.787-8.91 8.459-8.91 4.694-.021 8.502 3.958 8.524 8.866Zm-33.965 68.189c.022-10.413 13.086-17.996 16.916-26.242 3.875 8.224 16.96 15.741 17.049 26.154.022 4.908-3.786 8.909-8.458 8.909-4.694 0-8.525-3.957-8.525-8.865 0 4.93-3.786 8.909-8.458 8.909-4.694.022-8.502-3.957-8.524-8.865Zm0 49.886c.022-10.412 13.086-17.995 16.916-26.242 3.875 8.224 16.96 15.741 17.049 26.154.022 4.908-3.786 8.909-8.458 8.909-4.694 0-8.525-3.957-8.525-8.865 0 4.93-3.786 8.909-8.458 8.909-4.694.023-8.502-3.957-8.524-8.865ZM133.124 27.14c-.022 10.414-13.086 17.997-16.916 26.243-3.875-8.224-16.96-15.74-17.05-26.154-.021-4.908 3.787-8.91 8.459-8.91 4.694 0 8.524 3.958 8.524 8.866 0-4.93 3.786-8.91 8.458-8.91 4.694-.021 8.503 3.958 8.525 8.866Zm0 49.887c-.022 10.413-13.086 17.996-16.916 26.242-3.875-8.224-16.96-15.74-17.05-26.154-.021-4.908 3.787-8.91 8.459-8.91 4.694 0 8.524 3.958 8.524 8.866 0-4.93 3.786-8.91 8.458-8.91 4.694-.021 8.503 3.958 8.525 8.866Zm-33.965 68.189c.022-10.413 13.085-17.996 16.916-26.242 3.875 8.224 16.96 15.741 17.049 26.154.022 4.908-3.786 8.909-8.458 8.909-4.694 0-8.525-3.957-8.525-8.865 0 4.93-3.786 8.909-8.458 8.909-4.694.022-8.502-3.957-8.524-8.865Zm0 49.886c.022-10.412 13.085-17.995 16.916-26.242 3.875 8.224 16.96 15.741 17.049 26.154.022 4.908-3.786 8.909-8.458 8.909-4.694 0-8.525-3.957-8.525-8.865 0 4.93-3.786 8.909-8.458 8.909-4.694.023-8.502-3.957-8.524-8.865ZM96.287 52.085C96.265 62.498 83.2 70.081 79.37 78.327c-3.875-8.224-16.96-15.74-17.05-26.154-.021-4.907 3.787-8.909 8.459-8.909 4.694 0 8.524 3.957 8.524 8.865 0-4.93 3.787-8.91 8.458-8.91 4.694-.021 8.503 3.958 8.525 8.866ZM62.322 170.158c.022-10.413 13.085-17.996 16.916-26.242 3.875 8.224 16.96 15.741 17.049 26.154.022 4.908-3.786 8.909-8.458 8.909-4.694 0-8.525-3.957-8.525-8.865 0 4.93-3.786 8.909-8.458 8.909-4.694.022-8.502-3.957-8.524-8.865Z"/>
</svg>
