<svg xmlns="http://www.w3.org/2000/svg" width="158" height="227" fill="none" viewBox="0 0 158 227">
  <path fill="#fff" stroke="#000" stroke-width="2.499" d="M2.125 218.679c0 3.482 2.85 6.328 6.338 6.328h141.009c3.478 0 6.328-2.846 6.328-6.328V8.287c0-3.482-2.85-6.329-6.328-6.329H8.462c-3.487 0-6.337 2.847-6.337 6.329v210.392Z"/>
  <path fill="#000" d="M13.569 11.298v18.257h-3.86V14.962h-.107l-4.181 2.62V14.16l4.52-2.861h3.628Zm-.785 48.659c-1.533-.007-2.852-.384-3.958-1.133-1.1-.749-1.946-1.833-2.54-3.254-.589-1.42-.88-3.129-.874-5.126 0-1.99.294-3.688.882-5.09.595-1.403 1.442-2.47 2.541-3.2 1.106-.738 2.422-1.106 3.95-1.106 1.527 0 2.84.368 3.94 1.105 1.105.737 1.955 1.807 2.55 3.21.594 1.397.888 3.09.882 5.081 0 2.003-.297 3.715-.891 5.135-.589 1.42-1.433 2.505-2.532 3.254-1.1.749-2.416 1.123-3.95 1.123Zm0-3.201c1.046 0 1.881-.526 2.506-1.578.624-1.052.933-2.63.927-4.734 0-1.385-.143-2.538-.428-3.459-.28-.92-.678-1.613-1.195-2.077a2.605 2.605 0 0 0-1.81-.695c-1.04 0-1.872.52-2.496 1.56-.624 1.04-.939 2.597-.945 4.671 0 1.403.14 2.574.42 3.513.285.933.686 1.634 1.203 2.104a2.637 2.637 0 0 0 1.819.695Zm130.527 161.452v-18.257h3.86v14.593h.107l4.181-2.621v3.424l-4.52 2.861h-3.628Zm.784-48.658c1.534.005 2.853.383 3.959 1.132 1.099.749 1.946 1.833 2.54 3.254.589 1.42.88 3.129.874 5.126 0 1.991-.294 3.687-.883 5.09-.594 1.403-1.441 2.469-2.54 3.2-1.106.737-2.422 1.106-3.95 1.106-1.527 0-2.84-.369-3.94-1.106-1.105-.736-1.955-1.806-2.55-3.209-.594-1.397-.888-3.09-.882-5.081 0-2.003.297-3.715.891-5.135.589-1.421 1.433-2.505 2.532-3.254 1.1-.749 2.416-1.123 3.949-1.123Zm0 3.2c-1.046 0-1.881.526-2.505 1.578-.624 1.052-.933 2.63-.927 4.734 0 1.384.143 2.537.428 3.459.279.921.678 1.613 1.195 2.077a2.606 2.606 0 0 0 1.809.695c1.04 0 1.873-.52 2.497-1.56.624-1.04.939-2.597.945-4.671 0-1.403-.14-2.574-.419-3.513-.286-.933-.687-1.634-1.204-2.104a2.64 2.64 0 0 0-1.819-.695Z"/>
  <path fill="#000" d="M11.11 55.462c1.54 0 2.353-1.64 2.777-3.28.424-1.64.461-3.279.461-3.279l.784-.009s.148 6.568 3.23 6.568H11.11Z"/>
  <path fill="#000" d="M8.5 48.894c.009-3.196 4.815-5.518 6.227-8.041 1.411 2.533 6.218 4.854 6.227 8.041 0 1.51-1.393 2.736-3.118 2.736-1.716 0-3.11-1.225-3.11-2.736 0 1.51-1.392 2.736-3.118 2.736-1.725 0-3.109-1.225-3.109-2.736Zm139.251 121.691c-1.541 0-2.353 1.64-2.777 3.28-.424 1.639-.461 3.279-.461 3.279l-.785.009s-.147-6.568-3.228-6.568h7.251Z"/>
  <path fill="#000" d="M150.361 177.153c-.009 3.196-4.815 5.518-6.227 8.042-1.411-2.533-6.218-4.855-6.227-8.042 0-1.511 1.393-2.736 3.118-2.736 1.716 0 3.109 1.225 3.109 2.736 0-1.511 1.393-2.736 3.118-2.736 1.725 0 3.109 1.225 3.109 2.736ZM33.912 53.351c3.698 0 5.646-3.935 6.665-7.87 1.018-3.935 1.107-7.87 1.107-7.87l1.882-.022s.354 15.762 7.75 15.762H33.911Z"/>
  <path fill="#000" d="M27.647 37.589c.022-7.672 11.557-13.243 14.945-19.3 3.388 6.08 14.924 11.65 14.946 19.3 0 3.625-3.344 6.566-7.484 6.566-4.119 0-7.462-2.94-7.462-6.566 0 3.625-3.343 6.566-7.484 6.566-4.14 0-7.461-2.94-7.461-6.566Zm6.265 65.648c3.698 0 5.646-3.935 6.665-7.87 1.018-3.935 1.107-7.87 1.107-7.87l1.882-.022s.354 15.762 7.75 15.762H33.911Z"/>
  <path fill="#000" d="M27.647 87.475c.022-7.672 11.557-13.243 14.945-19.3 3.388 6.08 14.924 11.65 14.946 19.3 0 3.625-3.344 6.566-7.484 6.566-4.119 0-7.462-2.94-7.462-6.566 0 3.625-3.343 6.566-7.484 6.566-4.14 0-7.461-2.94-7.461-6.566Zm23.625 31.512c-3.698 0-5.646 3.935-6.665 7.87-1.018 3.936-1.107 7.871-1.107 7.871l-1.882.022s-.354-15.763-7.75-15.763h17.404Z"/>
  <path fill="#000" d="M57.538 134.75c-.022 7.671-11.558 13.242-14.945 19.3-3.388-6.08-14.924-11.651-14.946-19.3 0-3.626 3.343-6.566 7.484-6.566 4.118 0 7.462 2.94 7.462 6.566 0-3.626 3.343-6.566 7.483-6.566s7.462 2.94 7.462 6.566Zm-6.266 34.123c-3.698 0-5.646 3.935-6.665 7.87-1.018 3.936-1.107 7.871-1.107 7.871l-1.882.022s-.354-15.763-7.75-15.763h17.404Z"/>
  <path fill="#000" d="M57.538 184.636c-.022 7.671-11.558 13.242-14.945 19.3-3.388-6.08-14.924-11.651-14.946-19.3 0-3.626 3.343-6.566 7.484-6.566 4.118 0 7.462 2.94 7.462 6.566 0-3.626 3.343-6.566 7.483-6.566s7.462 2.94 7.462 6.566Zm50.049-131.285c3.697 0 5.646-3.935 6.664-7.87 1.019-3.935 1.107-7.87 1.107-7.87l1.882-.022s.354 15.762 7.75 15.762h-17.403Z"/>
  <path fill="#000" d="M101.32 37.589c.023-7.672 11.558-13.243 14.946-19.3 3.388 6.08 14.923 11.65 14.945 19.3 0 3.625-3.343 6.566-7.483 6.566-4.119 0-7.462-2.94-7.462-6.566 0 3.625-3.343 6.566-7.484 6.566-4.14 0-7.462-2.94-7.462-6.566Zm6.267 65.648c3.697 0 5.646-3.935 6.664-7.87 1.019-3.935 1.107-7.87 1.107-7.87l1.882-.022s.354 15.762 7.75 15.762h-17.403Z"/>
  <path fill="#000" d="M101.32 87.475c.023-7.672 11.558-13.243 14.946-19.3 3.388 6.08 14.923 11.65 14.945 19.3 0 3.625-3.343 6.566-7.483 6.566-4.119 0-7.462-2.94-7.462-6.566 0 3.625-3.343 6.566-7.484 6.566-4.14 0-7.462-2.94-7.462-6.566Zm23.625 31.512c-3.697 0-5.646 3.935-6.664 7.87-1.019 3.936-1.107 7.871-1.107 7.871l-1.882.022s-.355-15.763-7.75-15.763h17.403Z"/>
  <path fill="#000" d="M131.211 134.75c-.022 7.671-11.558 13.242-14.945 19.3-3.388-6.08-14.924-11.651-14.946-19.3 0-3.626 3.344-6.566 7.484-6.566 4.118 0 7.462 2.94 7.462 6.566 0-3.626 3.343-6.566 7.484-6.566 4.14 0 7.461 2.94 7.461 6.566Zm-6.266 34.123c-3.697 0-5.646 3.935-6.664 7.87-1.019 3.936-1.107 7.871-1.107 7.871l-1.882.022s-.355-15.763-7.75-15.763h17.403Z"/>
  <path fill="#000" d="M131.211 184.636c-.022 7.671-11.558 13.242-14.945 19.3-3.388-6.08-14.924-11.651-14.946-19.3 0-3.626 3.344-6.566 7.484-6.566 4.118 0 7.462 2.94 7.462 6.566 0-3.626 3.343-6.566 7.484-6.566 4.14 0 7.461 2.94 7.461 6.566ZM70.75 78.295c3.697 0 5.645-3.935 6.664-7.87 1.018-3.935 1.107-7.87 1.107-7.87l1.882-.023s.354 15.763 7.75 15.763H70.748Z"/>
  <path fill="#000" d="M64.484 62.532c.022-7.671 11.557-13.242 14.945-19.3 3.388 6.08 14.923 11.651 14.945 19.3 0 3.626-3.343 6.566-7.483 6.566-4.119 0-7.462-2.94-7.462-6.566 0 3.626-3.343 6.566-7.484 6.566-4.14 0-7.461-2.94-7.461-6.566Zm23.624 81.397c-3.697 0-5.646 3.935-6.664 7.87-1.019 3.936-1.107 7.871-1.107 7.871l-1.882.022s-.355-15.763-7.75-15.763h17.403Z"/>
  <path fill="#000" d="M94.374 159.692c-.022 7.671-11.557 13.242-14.945 19.3-3.388-6.08-14.924-11.651-14.946-19.3 0-3.626 3.344-6.566 7.484-6.566 4.119 0 7.462 2.94 7.462 6.566 0-3.626 3.343-6.566 7.484-6.566 4.14 0 7.461 2.94 7.461 6.566Z"/>
</svg>
