<svg xmlns="http://www.w3.org/2000/svg" width="158" height="227" fill="none" viewBox="0 0 158 227">
  <path fill="#fff" stroke="#000" stroke-width="2.499" d="M2.125 218.679c0 3.482 2.85 6.328 6.338 6.328h141.009c3.478 0 6.328-2.846 6.328-6.328V8.287c0-3.482-2.85-6.329-6.328-6.329H8.462c-3.487 0-6.337 2.847-6.337 6.329v210.392Z"/>
  <path fill="#000" d="M11.653 10.01v14.545H8.578V12.93h-.085l-3.331 2.088V12.29l3.6-2.28h2.891Zm9.16 14.865c-1.221-.005-2.272-.305-3.153-.902-.876-.597-1.55-1.46-2.024-2.592-.47-1.132-.701-2.493-.696-4.084 0-1.586.234-2.938.703-4.056.473-1.117 1.148-1.967 2.024-2.55.88-.587 1.93-.88 3.146-.88 1.217 0 2.264.293 3.14.88.88.588 1.557 1.44 2.03 2.557.474 1.113.709 2.463.704 4.049 0 1.595-.237 2.96-.71 4.09-.47 1.132-1.142 1.996-2.017 2.593-.876.597-1.925.895-3.147.895Zm0-2.55c.834 0 1.499-.419 1.996-1.257.497-.838.743-2.095.739-3.771 0-1.103-.114-2.022-.341-2.756-.223-.734-.54-1.285-.952-1.655a2.075 2.075 0 0 0-1.442-.554c-.828 0-1.491.415-1.988 1.243-.497.829-.748 2.07-.753 3.722 0 1.117.111 2.05.334 2.798.227.743.547 1.302.958 1.676a2.1 2.1 0 0 0 1.45.554Zm124.68 197.22V205h3.075v11.626h.085l3.331-2.088v2.728l-3.6 2.279h-2.891Zm-9.16-14.865c1.221.005 2.272.306 3.153.902.876.597 1.551 1.461 2.024 2.593.469 1.131.701 2.493.696 4.084 0 1.586-.234 2.937-.703 4.055-.473 1.117-1.148 1.967-2.024 2.55-.881.587-1.929.88-3.146.88-1.217 0-2.264-.293-3.139-.88-.881-.587-1.558-1.44-2.032-2.557-.473-1.113-.708-2.462-.703-4.048 0-1.596.237-2.96.71-4.091.469-1.132 1.141-1.996 2.017-2.593.876-.596 1.925-.895 3.147-.895Zm0 2.55c-.834 0-1.499.419-1.996 1.257-.497.838-.743 2.095-.739 3.772 0 1.103.114 2.021.341 2.755.223.734.54 1.286.952 1.655.407.369.888.554 1.442.554.828 0 1.491-.414 1.988-1.243.498-.828.748-2.069.753-3.721 0-1.118-.111-2.051-.334-2.799-.227-.743-.546-1.302-.958-1.676a2.103 2.103 0 0 0-1.449-.554ZM11.11 55.462c1.54 0 2.353-1.64 2.777-3.28.424-1.64.461-3.279.461-3.279l.784-.009s.148 6.568 3.23 6.568H11.11Z"/>
  <path fill="#000" d="M8.5 48.894c.009-3.196 4.815-5.518 6.227-8.041 1.411 2.533 6.218 4.854 6.227 8.041 0 1.51-1.393 2.736-3.118 2.736-1.716 0-3.11-1.225-3.11-2.736 0 1.51-1.392 2.736-3.118 2.736-1.725 0-3.109-1.225-3.109-2.736Zm139.251 121.691c-1.541 0-2.353 1.64-2.777 3.28-.424 1.639-.461 3.279-.461 3.279l-.785.009s-.147-6.568-3.228-6.568h7.251Z"/>
  <path fill="#000" d="M150.361 177.153c-.009 3.196-4.815 5.518-6.227 8.042-1.411-2.533-6.218-4.855-6.227-8.042 0-1.511 1.393-2.736 3.118-2.736 1.716 0 3.109 1.225 3.109 2.736 0-1.511 1.393-2.736 3.118-2.736 1.725 0 3.109 1.225 3.109 2.736ZM33.912 53.351c3.698 0 5.646-3.935 6.665-7.87 1.018-3.935 1.107-7.87 1.107-7.87l1.882-.022s.354 15.762 7.75 15.762H33.911Z"/>
  <path fill="#000" d="M27.647 37.589c.022-7.672 11.557-13.243 14.945-19.3 3.388 6.08 14.924 11.65 14.946 19.3 0 3.625-3.344 6.566-7.484 6.566-4.119 0-7.462-2.94-7.462-6.566 0 3.625-3.343 6.566-7.484 6.566-4.14 0-7.461-2.94-7.461-6.566Zm6.265 65.648c3.698 0 5.646-3.935 6.665-7.87 1.018-3.935 1.107-7.87 1.107-7.87l1.882-.022s.354 15.762 7.75 15.762H33.911Z"/>
  <path fill="#000" d="M27.647 87.475c.022-7.672 11.557-13.243 14.945-19.3 3.388 6.08 14.924 11.65 14.946 19.3 0 3.625-3.344 6.566-7.484 6.566-4.119 0-7.462-2.94-7.462-6.566 0 3.625-3.343 6.566-7.484 6.566-4.14 0-7.461-2.94-7.461-6.566Zm23.625 31.512c-3.698 0-5.646 3.935-6.665 7.87-1.018 3.936-1.107 7.871-1.107 7.871l-1.882.022s-.354-15.763-7.75-15.763h17.404Z"/>
  <path fill="#000" d="M57.538 134.75c-.022 7.671-11.558 13.242-14.945 19.3-3.388-6.08-14.924-11.651-14.946-19.3 0-3.626 3.343-6.566 7.484-6.566 4.118 0 7.462 2.94 7.462 6.566 0-3.626 3.343-6.566 7.483-6.566s7.462 2.94 7.462 6.566Zm-6.266 34.123c-3.698 0-5.646 3.935-6.665 7.87-1.018 3.936-1.107 7.871-1.107 7.871l-1.882.022s-.354-15.763-7.75-15.763h17.404Z"/>
  <path fill="#000" d="M57.538 184.636c-.022 7.671-11.558 13.242-14.945 19.3-3.388-6.08-14.924-11.651-14.946-19.3 0-3.626 3.343-6.566 7.484-6.566 4.118 0 7.462 2.94 7.462 6.566 0-3.626 3.343-6.566 7.483-6.566s7.462 2.94 7.462 6.566Zm50.049-131.285c3.697 0 5.646-3.935 6.664-7.87 1.019-3.935 1.107-7.87 1.107-7.87l1.882-.022s.354 15.762 7.75 15.762h-17.403Z"/>
  <path fill="#000" d="M101.32 37.589c.023-7.672 11.558-13.243 14.946-19.3 3.388 6.08 14.923 11.65 14.945 19.3 0 3.625-3.343 6.566-7.483 6.566-4.119 0-7.462-2.94-7.462-6.566 0 3.625-3.343 6.566-7.484 6.566-4.14 0-7.462-2.94-7.462-6.566Zm6.267 65.648c3.697 0 5.646-3.935 6.664-7.87 1.019-3.935 1.107-7.87 1.107-7.87l1.882-.022s.354 15.762 7.75 15.762h-17.403Z"/>
  <path fill="#000" d="M101.32 87.475c.023-7.672 11.558-13.243 14.946-19.3 3.388 6.08 14.923 11.65 14.945 19.3 0 3.625-3.343 6.566-7.483 6.566-4.119 0-7.462-2.94-7.462-6.566 0 3.625-3.343 6.566-7.484 6.566-4.14 0-7.462-2.94-7.462-6.566Zm23.625 31.512c-3.697 0-5.646 3.935-6.664 7.87-1.019 3.936-1.107 7.871-1.107 7.871l-1.882.022s-.355-15.763-7.75-15.763h17.403Z"/>
  <path fill="#000" d="M131.211 134.75c-.022 7.671-11.558 13.242-14.945 19.3-3.388-6.08-14.924-11.651-14.946-19.3 0-3.626 3.344-6.566 7.484-6.566 4.118 0 7.462 2.94 7.462 6.566 0-3.626 3.343-6.566 7.484-6.566 4.14 0 7.461 2.94 7.461 6.566Zm-6.266 34.123c-3.697 0-5.646 3.935-6.664 7.87-1.019 3.936-1.107 7.871-1.107 7.871l-1.882.022s-.355-15.763-7.75-15.763h17.403Z"/>
  <path fill="#000" d="M131.211 184.636c-.022 7.671-11.558 13.242-14.945 19.3-3.388-6.08-14.924-11.651-14.946-19.3 0-3.626 3.344-6.566 7.484-6.566 4.118 0 7.462 2.94 7.462 6.566 0-3.626 3.343-6.566 7.484-6.566 4.14 0 7.461 2.94 7.461 6.566ZM70.75 78.295c3.697 0 5.645-3.935 6.664-7.87 1.018-3.935 1.107-7.87 1.107-7.87l1.882-.023s.354 15.763 7.75 15.763H70.748Z"/>
  <path fill="#000" d="M64.484 62.532c.022-7.671 11.557-13.242 14.945-19.3 3.388 6.08 14.923 11.651 14.945 19.3 0 3.626-3.343 6.566-7.483 6.566-4.119 0-7.462-2.94-7.462-6.566 0 3.626-3.343 6.566-7.484 6.566-4.14 0-7.461-2.94-7.461-6.566Zm23.624 81.397c-3.697 0-5.646 3.935-6.664 7.87-1.019 3.936-1.107 7.871-1.107 7.871l-1.882.022s-.355-15.763-7.75-15.763h17.403Z"/>
  <path fill="#000" d="M94.374 159.692c-.022 7.671-11.557 13.242-14.945 19.3-3.388-6.08-14.924-11.651-14.946-19.3 0-3.626 3.344-6.566 7.484-6.566 4.119 0 7.462 2.94 7.462 6.566 0-3.626 3.343-6.566 7.484-6.566 4.14 0 7.461 2.94 7.461 6.566Z"/>
</svg>
