<svg xmlns="http://www.w3.org/2000/svg" width="170" height="246" fill="none" viewBox="0 0 170 246">
  <path fill="#fff" stroke="#000" stroke-width="2.499" d="M2 237.183c0 3.778 3.089 6.867 6.867 6.867h152.789c3.768 0 6.857-3.089 6.857-6.867V8.867c0-3.778-3.089-6.867-6.857-6.867H8.867C5.09 2 2 5.089 2 8.867v228.316Z"/>
  <path fill="#000" d="M7.958 34.688v-3.68l8.597-7.96a32.502 32.502 0 0 0 1.84-1.91c.503-.567.884-1.121 1.144-1.664.26-.55.389-1.144.389-1.78 0-.708-.161-1.317-.483-1.828a3.175 3.175 0 0 0-1.321-1.192c-.559-.283-1.191-.424-1.9-.424-.738 0-1.383.15-1.933.448-.55.299-.975.727-1.274 1.285-.299.559-.448 1.223-.448 1.994H7.722c0-1.58.358-2.953 1.073-4.116.716-1.164 1.718-2.064 3.007-2.701 1.29-.637 2.776-.955 4.458-.955 1.73 0 3.236.306 4.517.92 1.29.605 2.292 1.446 3.008 2.523.715 1.078 1.073 2.312 1.073 3.704 0 .912-.181 1.812-.543 2.7-.354.889-.987 1.875-1.899 2.96-.912 1.078-2.197 2.37-3.856 3.88l-3.526 3.456v.165h10.142v4.175H7.958Zm156.084 177v3.679l-8.597 7.961a32.332 32.332 0 0 0-1.84 1.91c-.503.566-.884 1.121-1.144 1.663a4.132 4.132 0 0 0-.389 1.781c0 .708.161 1.317.484 1.828a3.17 3.17 0 0 0 1.32 1.191c.559.283 1.192.425 1.899.425.739 0 1.384-.15 1.934-.448a3.09 3.09 0 0 0 1.274-1.286c.299-.558.448-1.222.448-1.993h4.847c0 1.58-.358 2.952-1.073 4.116-.716 1.164-1.718 2.064-3.007 2.701-1.29.636-2.776.955-4.458.955-1.73 0-3.236-.307-4.517-.92-1.29-.605-2.292-1.447-3.007-2.524-.716-1.077-1.074-2.311-1.074-3.703 0-.912.181-1.812.543-2.701.354-.888.987-1.875 1.899-2.96.912-1.077 2.197-2.37 3.856-3.88l3.526-3.455v-.165h-10.142v-4.175h17.218ZM12.296 47.476c0 1.81 1.51 3.279 3.379 3.279 1.87 0 3.379-1.47 3.379-3.279 0-1.81-1.51-3.279-3.379-3.279-1.87 0-3.379 1.47-3.379 3.28Zm-4.358 6.208c0 1.81 1.51 3.279 3.379 3.279s3.378-1.47 3.378-3.28c0-1.809-1.51-3.278-3.378-3.278-1.87 0-3.38 1.47-3.38 3.279Zm8.657.02c0 .66.2 1.28.55 1.8a3.411 3.411 0 0 0 2.828 1.479c1.87 0 3.38-1.47 3.38-3.28 0-1.809-1.51-3.278-3.38-3.278-1.869 0-3.378 1.47-3.378 3.279Zm-4.889 6.367c1.67 0 2.55-1.36 3.009-2.719.46-1.36.5-2.719.5-2.719h.86s.16 5.428 3.498 5.438h-7.867Z"/>
  <path fill="#000" d="M17.964 49.885c-1.9 1.9-1.9 4.748-1.9 4.748l-.85.01s0-2.909-1.848-4.758"/>
  <path fill="#000" d="M17.584 55.983c-1.9-1.9-4.748-1.9-4.748-1.9v-.85s2.909 0 4.758-1.848"/>
  <path fill="#000" d="M13.776 55.993c1.899-1.9 4.748-1.9 4.748-1.9v-.85s-2.909 0-4.758-1.848m145.45 146.182c0-1.809-1.509-3.279-3.378-3.279-1.87 0-3.379 1.47-3.379 3.279 0 1.81 1.509 3.279 3.379 3.279 1.869 0 3.378-1.469 3.378-3.279Zm4.359-6.207c0-1.81-1.51-3.279-3.379-3.279s-3.379 1.469-3.379 3.279c0 1.809 1.51 3.278 3.379 3.278s3.379-1.469 3.379-3.278Zm-8.657-.02c0-.66-.2-1.28-.55-1.8a3.41 3.41 0 0 0-2.829-1.479c-1.869 0-3.378 1.469-3.378 3.279 0 1.809 1.509 3.278 3.378 3.278 1.87 0 3.379-1.469 3.379-3.278Zm4.889-6.368c-1.67 0-2.55 1.359-3.009 2.719-.46 1.359-.5 2.719-.5 2.719h-.86s-.16-5.428-3.499-5.438h7.868Z"/>
  <path fill="#000" d="M153.549 195.168c1.899-1.899 1.899-4.748 1.899-4.748l.85-.01s0 2.909 1.849 4.758"/>
  <path fill="#000" d="M153.928 189.07c1.9 1.9 4.749 1.9 4.749 1.9v.849s-2.909 0-4.759 1.85"/>
  <path fill="#000" d="M157.737 189.06c-1.899 1.9-4.748 1.9-4.748 1.9v.849s2.909 0 4.758 1.85m-63.955 19.679c0-4.343-3.623-7.869-8.109-7.869s-8.109 3.526-8.109 7.869c0 4.342 3.623 7.869 8.11 7.869 4.486 0 8.108-3.527 8.108-7.869Zm10.461-14.899c0-4.342-3.623-7.869-8.11-7.869-4.486 0-8.108 3.527-8.108 7.869 0 4.343 3.622 7.869 8.109 7.869 4.486 0 8.109-3.526 8.109-7.869Zm-20.777-.048c0-1.583-.48-3.071-1.32-4.318-1.439-2.135-3.958-3.551-6.789-3.551-4.486 0-8.109 3.527-8.109 7.869 0 4.343 3.623 7.869 8.11 7.869 4.486 0 8.108-3.526 8.108-7.869Zm11.732-15.282c-4.006 0-6.118 3.263-7.221 6.526-1.104 3.262-1.2 6.525-1.2 6.525h-2.063s-.384-13.027-8.397-13.051h18.881Z"/>
  <path fill="#000" d="M80.19 207.556c4.558-4.558 4.558-11.396 4.558-11.396l2.039-.024s0 6.982 4.438 11.42"/>
  <path fill="#000" d="M81.101 192.921c4.558 4.559 11.396 4.559 11.396 4.559v2.039s-6.981 0-11.42 4.438"/>
  <path fill="#000" d="M90.242 192.897c-4.558 4.559-11.396 4.559-11.396 4.559v2.039s6.982 0 11.42 4.438M77.718 27.567c0 4.342 3.623 7.868 8.11 7.868 4.485 0 8.108-3.526 8.108-7.869 0-4.342-3.623-7.869-8.109-7.869s-8.109 3.527-8.109 7.87Zm-10.46 14.898c0 4.342 3.623 7.87 8.11 7.87 4.485 0 8.108-3.528 8.108-7.87 0-4.342-3.623-7.869-8.109-7.869s-8.109 3.527-8.109 7.869Zm20.776.048c0 1.583.48 3.07 1.32 4.318 1.44 2.136 3.959 3.551 6.79 3.551 4.486 0 8.108-3.527 8.108-7.869s-3.622-7.87-8.108-7.87c-4.487 0-8.11 3.528-8.11 7.87ZM76.303 57.795c4.006 0 6.117-3.263 7.22-6.525 1.105-3.263 1.2-6.526 1.2-6.526h2.064s.384 13.027 8.397 13.051H76.303Z"/>
  <path fill="#000" d="M91.321 33.348c-4.558 4.559-4.558 11.396-4.558 11.396l-2.04.024s0-6.981-4.438-11.42"/>
  <path fill="#000" d="M90.41 47.983c-4.559-4.558-11.396-4.558-11.396-4.558v-2.04s6.981 0 11.42-4.438"/>
  <path fill="#000" d="M81.269 48.007c4.558-4.558 11.396-4.558 11.396-4.558v-2.04s-6.982 0-11.42-4.438"/>
</svg>
