<svg xmlns="http://www.w3.org/2000/svg" width="170" height="246" fill="none" viewBox="0 0 170 246">
  <path fill="#fff" stroke="#000" stroke-width="2.499" d="M2 237.185c0 3.779 3.089 6.867 6.867 6.867h152.789c3.768 0 6.857-3.088 6.857-6.867V8.87c0-3.779-3.089-6.868-6.857-6.868H8.867C5.09 2.002 2 5.092 2 8.87v228.315Z"/>
  <path fill="#E6180A" d="M7.245 33v-3.68l8.598-7.96a32.503 32.503 0 0 0 1.84-1.91c.503-.567.884-1.121 1.143-1.663.26-.55.39-1.145.39-1.781 0-.708-.162-1.317-.484-1.828a3.175 3.175 0 0 0-1.32-1.191c-.559-.284-1.192-.425-1.9-.425-.739 0-1.383.15-1.934.448-.55.299-.975.727-1.273 1.286-.3.558-.448 1.222-.448 1.993H7.009c0-1.58.358-2.953 1.074-4.116.715-1.164 1.718-2.064 3.007-2.7 1.29-.638 2.775-.956 4.458-.956 1.73 0 3.235.306 4.517.92 1.29.605 2.292 1.446 3.007 2.524.716 1.077 1.073 2.311 1.073 3.703 0 .912-.18 1.812-.542 2.7-.354.889-.987 1.875-1.899 2.96-.912 1.078-2.198 2.371-3.856 3.88L14.32 28.66v.165h10.143V33H7.245ZM161.33 212v3.68l-8.598 7.96a32.58 32.58 0 0 0-1.839 1.911c-.503.566-.885 1.12-1.144 1.663a4.11 4.11 0 0 0-.389 1.78c0 .708.161 1.317.483 1.828.322.519.763.916 1.321 1.191.558.283 1.191.425 1.899.425.739 0 1.383-.149 1.934-.448.55-.299.975-.727 1.274-1.286.298-.558.448-1.222.448-1.993h4.847c0 1.581-.358 2.953-1.073 4.116-.716 1.164-1.718 2.064-3.008 2.701-1.289.637-2.775.955-4.458.955-1.729 0-3.235-.307-4.517-.92-1.289-.605-2.291-1.446-3.007-2.524-.715-1.077-1.073-2.311-1.073-3.703 0-.912.181-1.812.542-2.7.354-.889.987-1.876 1.899-2.961.912-1.077 2.198-2.37 3.857-3.88l3.526-3.455v-.165h-10.142V212h17.218ZM15.645 52.137h7.677c-.874-.04-1.618-.605-2.32-1.073-1.58-1.19-3.058-2.556-4.225-4.153-.545-.804-1.118-1.708-1.132-2.711m7.677 7.937c-1.11.035-2.057.74-2.903 1.392-1.494 1.255-2.788 2.747-3.88 4.362-.4.67-.872 1.378-.894 2.183v-7.937m0 7.937c-.038-1.182-.758-2.205-1.437-3.12a20.885 20.885 0 0 0-4.227-3.96c-.614-.383-1.265-.839-2.013-.857h7.677m-7.677 0c1.11-.035 2.057-.741 2.903-1.392 1.494-1.255 2.788-2.748 3.88-4.363.4-.669.872-1.378.894-2.182v7.937m140.223 140.784h-7.678c.875.039 1.619.605 2.322 1.073 1.578 1.191 3.056 2.556 4.224 4.153.545.804 1.117 1.708 1.132 2.711m-7.678-7.937c1.11-.035 2.058-.741 2.903-1.392 1.495-1.255 2.788-2.747 3.88-4.362.401-.669.873-1.378.895-2.183v7.937m0-7.937c.038 1.182.757 2.206 1.437 3.119a20.903 20.903 0 0 0 4.226 3.962c.614.383 1.266.838 2.014.856h-7.677m7.677 0c-1.11.035-2.058.741-2.903 1.392-1.495 1.255-2.788 2.748-3.88 4.363-.401.669-.872 1.378-.894 2.182v-7.937m-70.113 9.24H67.33c2.099.093 3.884 1.451 5.57 2.573 3.789 2.858 7.337 6.135 10.14 9.969 1.307 1.929 2.68 4.098 2.715 6.507M67.33 202.161c2.663-.084 4.937-1.779 6.967-3.342 3.587-3.011 6.691-6.593 9.311-10.47.962-1.605 2.094-3.306 2.147-5.237v19.049m0-19.049c.091 2.836 1.819 5.292 3.45 7.485 2.908 3.623 6.353 6.828 10.144 9.508 1.473.919 3.037 2.011 4.831 2.056H85.755m18.425 0c-2.663.084-4.937 1.777-6.967 3.339-3.586 3.014-6.69 6.595-9.31 10.472-.963 1.605-2.094 3.306-2.148 5.238v-19.049m0-163.411h18.426c-2.099-.094-3.884-1.452-5.571-2.575-3.788-2.857-7.337-6.135-10.139-9.968-1.307-1.93-2.68-4.098-2.716-6.507m18.426 19.05c-2.663.083-4.938 1.778-6.967 3.341-3.587 3.011-6.692 6.593-9.311 10.47-.962 1.605-2.095 3.306-2.148 5.237V38.75m0 19.05c-.09-2.837-1.818-5.293-3.45-7.486-2.907-3.623-6.352-6.828-10.143-9.508-1.473-.919-3.037-2.011-4.832-2.056h18.425m-18.425 0c2.663-.084 4.938-1.778 6.967-3.34 3.587-3.013 6.692-6.595 9.311-10.471.962-1.605 2.093-3.306 2.147-5.238v19.05"/>
</svg>
