<svg xmlns="http://www.w3.org/2000/svg" width="157" height="228" fill="none" viewBox="0 0 157 228">
  <path fill="#fff" stroke="#000" stroke-width="2.499" d="M1.345 220.139c0 3.482 2.85 6.328 6.338 6.328h141.009c3.478 0 6.329-2.846 6.329-6.328V9.746c0-3.482-2.851-6.328-6.329-6.328H7.683c-3.487 0-6.338 2.846-6.338 6.328V220.14Z"/>
  <path fill="#E6180A" d="M6.337 32.607v-3.68l8.597-7.96a32.503 32.503 0 0 0 1.84-1.91c.503-.566.884-1.12 1.144-1.663.26-.55.389-1.144.389-1.78 0-.709-.161-1.318-.484-1.829a3.174 3.174 0 0 0-1.32-1.191c-.559-.283-1.192-.425-1.9-.425-.738 0-1.383.15-1.933.449-.55.298-.975.727-1.274 1.285-.299.558-.448 1.223-.448 1.993H6.1c0-1.58.357-2.952 1.073-4.116.715-1.163 1.718-2.064 3.007-2.7 1.29-.637 2.776-.956 4.458-.956 1.73 0 3.236.307 4.517.92 1.29.606 2.292 1.447 3.007 2.524.716 1.077 1.074 2.312 1.074 3.703 0 .912-.181 1.812-.543 2.7-.354.89-.987 1.876-1.899 2.96-.912 1.078-2.197 2.371-3.856 3.881l-3.526 3.455v.166h10.142v4.174H6.337Zm145.595 162.689v3.68l-8.597 7.96a32.963 32.963 0 0 0-1.84 1.911c-.503.566-.884 1.12-1.144 1.663a4.129 4.129 0 0 0-.389 1.781c0 .707.161 1.317.484 1.828.322.519.762.916 1.321 1.191.558.283 1.191.424 1.898.424.739 0 1.384-.149 1.934-.448a3.089 3.089 0 0 0 1.274-1.285c.299-.558.448-1.223.448-1.993h4.847c0 1.58-.357 2.952-1.073 4.116-.715 1.163-1.718 2.063-3.007 2.7-1.29.637-2.776.956-4.458.956-1.73 0-3.235-.307-4.517-.92-1.289-.606-2.292-1.447-3.007-2.524-.716-1.077-1.074-2.312-1.074-3.703 0-.912.181-1.813.543-2.701.354-.888.987-1.875 1.899-2.96.912-1.077 2.197-2.371 3.856-3.88l3.526-3.456v-.165h-10.142v-4.175h17.218ZM21.014 45.996c-.01 4.338-5.452 7.498-7.048 10.934-1.615-3.427-7.067-6.559-7.104-10.898-.01-2.045 1.578-3.712 3.524-3.712 1.956 0 3.552 1.649 3.552 3.694 0-2.054 1.578-3.712 3.524-3.712 1.956-.01 3.543 1.649 3.552 3.694ZM136.275 182.97c.009-4.339 5.452-7.498 7.048-10.934 1.615 3.426 7.067 6.558 7.104 10.897.009 2.045-1.578 3.712-3.524 3.712-1.956 0-3.552-1.649-3.552-3.694 0 2.055-1.578 3.713-3.524 3.713-1.956.009-3.543-1.649-3.552-3.694Zm-74.613 13.583c.022-10.413 13.085-17.996 16.916-26.242 3.874 8.224 16.96 15.741 17.049 26.153.022 4.908-3.786 8.91-8.458 8.91-4.694 0-8.525-3.958-8.525-8.866 0 4.931-3.786 8.91-8.458 8.91-4.694.022-8.502-3.957-8.524-8.865ZM95.626 28.591c-.022 10.413-13.085 17.996-16.916 26.242-3.874-8.224-16.96-15.74-17.049-26.153-.022-4.908 3.787-8.91 8.458-8.91 4.694 0 8.525 3.957 8.525 8.865 0-4.93 3.786-8.91 8.458-8.91 4.694-.021 8.502 3.958 8.524 8.866Z"/>
</svg>
