<svg xmlns="http://www.w3.org/2000/svg" width="157" height="226" fill="none" viewBox="0 0 157 226">
  <path fill="#fff" stroke="#000" stroke-width="2.499" d="M1.64 218.071c0 3.482 2.85 6.329 6.338 6.329h141.009c3.478 0 6.329-2.847 6.329-6.329V7.679c0-3.482-2.851-6.328-6.329-6.328H7.978c-3.487 0-6.338 2.846-6.338 6.328v210.392Z"/>
  <path fill="#000" d="M7.554 35.105v-3.68l8.598-7.96a32.536 32.536 0 0 0 1.84-1.91c.503-.567.884-1.121 1.143-1.664.26-.55.39-1.144.39-1.78 0-.708-.162-1.317-.484-1.829a3.175 3.175 0 0 0-1.32-1.19c-.559-.284-1.192-.425-1.9-.425-.739 0-1.383.15-1.934.448-.55.299-.975.727-1.273 1.285-.299.559-.448 1.223-.448 1.994H7.319c0-1.58.357-2.953 1.073-4.116.715-1.164 1.718-2.064 3.007-2.701 1.29-.637 2.775-.955 4.458-.955 1.73 0 3.235.306 4.517.92 1.29.605 2.292 1.446 3.007 2.523.716 1.077 1.073 2.312 1.073 3.703a7.1 7.1 0 0 1-.542 2.701c-.354.889-.987 1.875-1.899 2.96-.912 1.077-2.197 2.37-3.856 3.88l-3.527 3.456v.165h10.143v4.175H7.554Zm140.981 157.16v3.679l-8.597 7.961a32.658 32.658 0 0 0-1.84 1.91c-.503.566-.884 1.121-1.144 1.663a4.132 4.132 0 0 0-.389 1.781c0 .708.161 1.317.484 1.828.322.519.762.916 1.321 1.191.558.283 1.191.425 1.898.425.739 0 1.384-.15 1.934-.449a3.083 3.083 0 0 0 1.274-1.285c.299-.558.448-1.223.448-1.993h4.847c0 1.58-.357 2.952-1.073 4.116-.715 1.163-1.718 2.064-3.007 2.701-1.29.636-2.776.955-4.458.955-1.73 0-3.235-.307-4.517-.92-1.289-.606-2.292-1.447-3.007-2.524-.716-1.077-1.074-2.311-1.074-3.703 0-.912.181-1.812.543-2.701.354-.888.987-1.875 1.899-2.96.912-1.077 2.197-2.37 3.856-3.88l3.526-3.455v-.165h-10.142v-4.175h17.218ZM10.617 54.855c1.54 0 2.352-1.64 2.777-3.28.424-1.64.461-3.28.461-3.28l.784-.008s.148 6.568 3.23 6.568h-7.252Z"/>
  <path fill="#000" d="M8.006 48.287c.01-3.197 4.816-5.518 6.227-8.042 1.412 2.533 6.218 4.854 6.227 8.042 0 1.51-1.393 2.736-3.118 2.736-1.716 0-3.109-1.226-3.109-2.736 0 1.51-1.393 2.736-3.118 2.736-1.725 0-3.11-1.226-3.11-2.736Zm139.256 121.691c-1.541 0-2.352 1.639-2.777 3.279-.424 1.64-.461 3.279-.461 3.279l-.784.01s-.148-6.568-3.229-6.568h7.251Z"/>
  <path fill="#000" d="M149.873 176.546c-.009 3.196-4.816 5.517-6.227 8.041-1.412-2.533-6.218-4.854-6.228-8.041 0-1.511 1.394-2.736 3.119-2.736 1.716 0 3.109 1.225 3.109 2.736 0-1.511 1.393-2.736 3.118-2.736 1.725 0 3.109 1.225 3.109 2.736Zm-62.254-8.28c-3.698 0-5.647 3.935-6.665 7.87-1.018 3.935-1.107 7.87-1.107 7.87l-1.882.022s-.354-15.762-7.75-15.762H87.62Z"/>
  <path fill="#000" d="M93.884 184.028c-.022 7.672-11.558 13.243-14.945 19.3-3.388-6.079-14.924-11.65-14.946-19.3 0-3.625 3.343-6.566 7.484-6.566 4.118 0 7.462 2.941 7.462 6.566 0-3.625 3.343-6.566 7.484-6.566 4.14 0 7.461 2.941 7.461 6.566ZM70.259 52.744c3.698 0 5.646-3.935 6.665-7.87 1.018-3.936 1.107-7.871 1.107-7.871l1.882-.022s.354 15.763 7.75 15.763H70.258Z"/>
  <path fill="#000" d="M63.993 36.981c.022-7.671 11.558-13.243 14.945-19.3 3.388 6.08 14.924 11.65 14.946 19.3 0 3.626-3.344 6.566-7.484 6.566-4.118 0-7.462-2.94-7.462-6.566 0 3.626-3.343 6.566-7.484 6.566-4.14 0-7.461-2.94-7.461-6.566Z"/>
</svg>
