<svg xmlns="http://www.w3.org/2000/svg" width="170" height="246" fill="none" viewBox="0 0 170 246">
  <path fill="#fff" stroke="#000" stroke-width="2.499" d="M2 237.183c0 3.778 3.089 6.867 6.867 6.867h152.789c3.768 0 6.857-3.089 6.857-6.867V8.867c0-3.778-3.089-6.867-6.857-6.867H8.867C5.09 2 2 5.089 2 8.867v228.316Z"/>
  <path fill="#000" d="M15.885 36.018c-1.76 0-3.33-.303-4.705-.908-1.368-.613-2.45-1.454-3.243-2.524-.787-1.077-1.192-2.32-1.215-3.726h5.142a2.68 2.68 0 0 0 .578 1.556c.361.44.84.782 1.438 1.026s1.27.366 2.017.366c.778 0 1.466-.138 2.064-.413.598-.275 1.065-.656 1.403-1.144.338-.487.508-1.05.508-1.686 0-.645-.181-1.215-.543-1.71-.354-.504-.865-.897-1.533-1.18-.66-.283-1.447-.424-2.359-.424h-2.252V21.5h2.252c.77 0 1.45-.134 2.04-.402.598-.267 1.062-.636 1.392-1.108.33-.48.495-1.038.495-1.675 0-.605-.145-1.136-.436-1.592a2.88 2.88 0 0 0-1.203-1.085c-.511-.26-1.109-.39-1.793-.39-.691 0-1.324.127-1.898.378a3.32 3.32 0 0 0-1.38 1.05c-.346.456-.53.99-.554 1.604H7.205c.024-1.392.421-2.618 1.191-3.68.771-1.061 1.809-1.89 3.114-2.488 1.313-.606 2.795-.908 4.446-.908 1.667 0 3.125.302 4.375.908 1.25.605 2.221 1.423 2.913 2.453.7 1.022 1.046 2.17 1.038 3.443.008 1.353-.413 2.481-1.262 3.385-.84.904-1.938 1.478-3.29 1.722v.189c1.777.228 3.13.845 4.057 1.851.936.999 1.4 2.249 1.392 3.75.007 1.377-.39 2.6-1.192 3.668-.794 1.07-1.89 1.91-3.29 2.524-1.4.614-3.003.92-4.812.92Zm139.23 175.34c1.761 0 3.329.302 4.705.908 1.368.613 2.449 1.454 3.243 2.524.787 1.077 1.192 2.319 1.215 3.726h-5.142a2.676 2.676 0 0 0-.578-1.556c-.361-.441-.841-.783-1.438-1.027-.598-.243-1.27-.365-2.017-.365-.778 0-1.466.137-2.064.413-.597.275-1.065.656-1.403 1.144-.338.487-.507 1.049-.507 1.686 0 .645.18 1.215.542 1.71.354.503.865.896 1.533 1.179.661.284 1.447.425 2.359.425h2.252v3.75h-2.252c-.771 0-1.451.134-2.04.401-.598.268-1.062.637-1.392 1.109-.33.479-.495 1.038-.495 1.675 0 .605.145 1.136.436 1.592.283.464.684.825 1.203 1.085.511.259 1.108.389 1.793.389.691 0 1.324-.126 1.898-.378a3.313 3.313 0 0 0 1.38-1.049c.346-.456.531-.991.554-1.604h4.895c-.024 1.392-.421 2.618-1.192 3.679-.77 1.062-1.808 1.891-3.113 2.489-1.313.605-2.795.908-4.446.908-1.667 0-3.125-.303-4.375-.908-1.251-.605-2.222-1.423-2.913-2.453-.7-1.022-1.046-2.17-1.038-3.444-.008-1.352.413-2.48 1.262-3.385.841-.904 1.938-1.478 3.29-1.721v-.189c-1.777-.228-3.129-.845-4.057-1.852-.936-.998-1.399-2.248-1.392-3.75-.007-1.376.39-2.598 1.192-3.668.794-1.069 1.89-1.91 3.29-2.523 1.399-.614 3.003-.92 4.812-.92ZM12.296 47.476c0 1.81 1.51 3.279 3.379 3.279 1.87 0 3.379-1.47 3.379-3.279 0-1.81-1.51-3.279-3.379-3.279-1.87 0-3.379 1.47-3.379 3.28Zm-4.358 6.208c0 1.81 1.51 3.279 3.379 3.279s3.378-1.47 3.378-3.28c0-1.809-1.51-3.278-3.378-3.278-1.87 0-3.38 1.47-3.38 3.279Zm8.657.02c0 .66.2 1.28.55 1.8a3.411 3.411 0 0 0 2.828 1.479c1.87 0 3.38-1.47 3.38-3.28 0-1.809-1.51-3.278-3.38-3.278-1.869 0-3.378 1.47-3.378 3.279Zm-4.889 6.367c1.67 0 2.55-1.36 3.009-2.719.46-1.36.5-2.719.5-2.719h.86s.16 5.428 3.498 5.438h-7.867Z"/>
  <path fill="#000" d="M17.964 49.885c-1.9 1.9-1.9 4.748-1.9 4.748l-.85.01s0-2.909-1.848-4.758"/>
  <path fill="#000" d="M17.584 55.983c-1.9-1.9-4.748-1.9-4.748-1.9v-.85s2.909 0 4.758-1.848"/>
  <path fill="#000" d="M13.776 55.993c1.899-1.9 4.748-1.9 4.748-1.9v-.85s-2.909 0-4.758-1.848m145.45 146.182c0-1.809-1.509-3.279-3.378-3.279-1.87 0-3.379 1.47-3.379 3.279 0 1.81 1.509 3.279 3.379 3.279 1.869 0 3.378-1.469 3.378-3.279Zm4.359-6.207c0-1.81-1.51-3.279-3.379-3.279s-3.379 1.469-3.379 3.279c0 1.809 1.51 3.278 3.379 3.278s3.379-1.469 3.379-3.278Zm-8.657-.02c0-.66-.2-1.28-.55-1.8a3.41 3.41 0 0 0-2.829-1.479c-1.869 0-3.378 1.469-3.378 3.279 0 1.809 1.509 3.278 3.378 3.278 1.87 0 3.379-1.469 3.379-3.278Zm4.889-6.368c-1.67 0-2.55 1.359-3.009 2.719-.46 1.359-.5 2.719-.5 2.719h-.86s-.16-5.428-3.499-5.438h7.868Z"/>
  <path fill="#000" d="M153.549 195.168c1.899-1.899 1.899-4.748 1.899-4.748l.85-.01s0 2.909 1.849 4.758"/>
  <path fill="#000" d="M153.928 189.07c1.9 1.9 4.749 1.9 4.749 1.9v.849s-2.909 0-4.759 1.85"/>
  <path fill="#000" d="M157.737 189.06c-1.899 1.9-4.748 1.9-4.748 1.9v.849s2.909 0 4.758 1.85m-63.954 19.679c0-4.343-3.623-7.869-8.109-7.869s-8.109 3.526-8.109 7.869c0 4.342 3.623 7.869 8.11 7.869 4.486 0 8.108-3.527 8.108-7.869Zm10.46-14.899c0-4.342-3.623-7.869-8.109-7.869s-8.109 3.527-8.109 7.869c0 4.343 3.623 7.869 8.11 7.869 4.485 0 8.108-3.526 8.108-7.869Zm-20.776-.048c0-1.583-.48-3.071-1.32-4.318-1.44-2.135-3.958-3.551-6.79-3.551-4.486 0-8.108 3.527-8.108 7.869 0 4.343 3.622 7.869 8.109 7.869 4.486 0 8.109-3.526 8.109-7.869Zm11.732-15.282c-4.007 0-6.118 3.263-7.222 6.526-1.103 3.262-1.2 6.525-1.2 6.525h-2.063s-.383-13.027-8.396-13.051h18.88Z"/>
  <path fill="#000" d="M80.19 207.556c4.558-4.558 4.558-11.396 4.558-11.396l2.04-.024s0 6.982 4.438 11.42"/>
  <path fill="#000" d="M81.102 192.921c4.558 4.559 11.395 4.559 11.395 4.559v2.039s-6.981 0-11.42 4.438"/>
  <path fill="#000" d="M90.242 192.897c-4.558 4.559-11.395 4.559-11.395 4.559v2.039s6.981 0 11.42 4.438m-12.548-99.454c0 4.343 3.622 7.869 8.109 7.869 4.486 0 8.108-3.526 8.108-7.869 0-4.342-3.622-7.869-8.109-7.869-4.486 0-8.108 3.527-8.108 7.869Zm-10.46 14.899c0 4.342 3.622 7.869 8.109 7.869 4.486 0 8.109-3.527 8.109-7.869 0-4.343-3.623-7.869-8.11-7.869-4.486 0-8.108 3.526-8.108 7.869Zm20.776.048c0 1.583.48 3.071 1.32 4.318 1.439 2.135 3.958 3.551 6.789 3.551 4.486 0 8.109-3.527 8.109-7.869 0-4.343-3.623-7.869-8.11-7.869-4.485 0-8.108 3.526-8.108 7.869Zm-11.732 15.282c4.007 0 6.118-3.263 7.221-6.526 1.104-3.262 1.2-6.525 1.2-6.525h2.063s.384 13.027 8.397 13.051h-18.88Z"/>
  <path fill="#000" d="M91.322 110.261c-4.559 4.558-4.559 11.396-4.559 11.396l-2.039.024s0-6.981-4.438-11.42"/>
  <path fill="#000" d="M90.41 124.896c-4.558-4.559-11.396-4.559-11.396-4.559v-2.039s6.982 0 11.42-4.438"/>
  <path fill="#000" d="M81.27 124.92c4.558-4.559 11.395-4.559 11.395-4.559v-2.039s-6.981 0-11.42-4.438m-3.526-86.317c0 4.342 3.622 7.868 8.109 7.868 4.486 0 8.108-3.526 8.108-7.869 0-4.342-3.622-7.869-8.109-7.869-4.486 0-8.108 3.527-8.108 7.87Zm-10.46 14.898c0 4.342 3.622 7.87 8.109 7.87 4.486 0 8.109-3.528 8.109-7.87 0-4.342-3.623-7.869-8.11-7.869-4.486 0-8.108 3.527-8.108 7.869Zm20.776.048c0 1.583.48 3.07 1.32 4.318 1.439 2.136 3.958 3.551 6.789 3.551 4.486 0 8.109-3.527 8.109-7.869s-3.623-7.87-8.11-7.87c-4.485 0-8.108 3.528-8.108 7.87ZM76.303 57.795c4.007 0 6.118-3.263 7.221-6.525 1.104-3.263 1.2-6.526 1.2-6.526h2.063s.384 13.027 8.397 13.051h-18.88Z"/>
  <path fill="#000" d="M91.322 33.348c-4.559 4.559-4.559 11.396-4.559 11.396l-2.039.024s0-6.981-4.438-11.42"/>
  <path fill="#000" d="M90.41 47.983c-4.558-4.558-11.396-4.558-11.396-4.558v-2.04s6.982 0 11.42-4.438"/>
  <path fill="#000" d="M81.27 48.007c4.558-4.558 11.395-4.558 11.395-4.558v-2.04s-6.981 0-11.42-4.438"/>
</svg>
