<svg xmlns="http://www.w3.org/2000/svg" width="170" height="246" fill="none" viewBox="0 0 170 246">
  <path fill="#fff" stroke="#000" stroke-width="2.499" d="M2 237.185c0 3.779 3.089 6.867 6.867 6.867h152.789c3.768 0 6.857-3.088 6.857-6.867V8.87c0-3.779-3.089-6.868-6.857-6.868H8.867C5.09 2.002 2 5.092 2 8.87v228.315Z"/>
  <path fill="#E6180A" d="M15.66 34.33c-1.76 0-3.33-.302-4.705-.908-1.368-.613-2.45-1.454-3.244-2.524-.786-1.077-1.19-2.319-1.214-3.726h5.142a2.68 2.68 0 0 0 .578 1.556c.361.44.84.783 1.438 1.026.598.244 1.27.366 2.017.366.778 0 1.466-.138 2.064-.413.597-.275 1.065-.656 1.403-1.144.338-.487.507-1.05.507-1.686a2.82 2.82 0 0 0-.542-1.71c-.354-.504-.865-.897-1.533-1.18-.66-.283-1.447-.424-2.359-.424H12.96v-3.75h2.252c.77 0 1.45-.134 2.04-.401.598-.268 1.062-.637 1.392-1.109.33-.48.495-1.038.495-1.675 0-.605-.145-1.136-.436-1.592a2.88 2.88 0 0 0-1.203-1.085c-.511-.26-1.109-.389-1.793-.389-.692 0-1.324.126-1.898.377a3.32 3.32 0 0 0-1.38 1.05c-.346.456-.53.99-.555 1.604H6.98c.024-1.392.42-2.618 1.191-3.68.77-1.061 1.809-1.89 3.114-2.488 1.313-.605 2.795-.908 4.446-.908 1.667 0 3.125.303 4.375.908s2.221 1.423 2.913 2.453c.7 1.022 1.046 2.17 1.038 3.444.008 1.352-.413 2.48-1.262 3.384-.841.904-1.938 1.479-3.29 1.722v.189c1.777.228 3.13.845 4.057 1.851.935.999 1.4 2.25 1.391 3.75.008 1.377-.389 2.6-1.19 3.669-.795 1.069-1.892 1.91-3.291 2.523-1.4.614-3.004.92-4.812.92Zm140.23 177.34c1.761 0 3.329.302 4.705.908 1.368.613 2.449 1.454 3.243 2.524.787 1.077 1.191 2.319 1.215 3.726h-5.142a2.676 2.676 0 0 0-.578-1.556c-.361-.441-.841-.783-1.439-1.026-.597-.244-1.269-.366-2.016-.366-.779 0-1.467.138-2.064.413-.598.275-1.065.656-1.403 1.144-.339.487-.508 1.049-.508 1.686 0 .645.181 1.215.543 1.71.354.503.865.897 1.533 1.18.66.283 1.447.424 2.359.424h2.252v3.75h-2.252c-.771 0-1.451.134-2.041.401-.597.268-1.061.637-1.391 1.109-.33.48-.495 1.038-.495 1.675 0 .605.145 1.136.436 1.592.283.464.684.825 1.203 1.085.511.259 1.108.389 1.792.389a4.69 4.69 0 0 0 1.899-.377 3.323 3.323 0 0 0 1.38-1.05c.346-.456.531-.991.554-1.604h4.895c-.024 1.392-.421 2.618-1.192 3.68-.77 1.061-1.808 1.891-3.113 2.488-1.313.605-2.795.908-4.446.908-1.667 0-3.125-.303-4.376-.908-1.25-.605-2.221-1.423-2.913-2.453-.699-1.022-1.045-2.17-1.037-3.444-.008-1.352.412-2.48 1.262-3.384.841-.905 1.938-1.478 3.29-1.722v-.189c-1.777-.228-3.129-.845-4.057-1.851-.936-.999-1.399-2.249-1.392-3.751-.007-1.376.39-2.598 1.192-3.668.794-1.069 1.89-1.91 3.29-2.523 1.399-.614 3.003-.92 4.812-.92ZM15.645 52.137h7.677c-.874-.04-1.618-.605-2.32-1.073-1.58-1.19-3.058-2.556-4.225-4.153-.545-.804-1.118-1.708-1.132-2.711m7.677 7.937c-1.11.035-2.057.74-2.903 1.392-1.494 1.255-2.788 2.747-3.88 4.362-.4.67-.872 1.378-.894 2.183v-7.937m0 7.937c-.038-1.182-.758-2.205-1.437-3.12a20.885 20.885 0 0 0-4.227-3.96c-.614-.383-1.265-.839-2.013-.857h7.677m-7.677 0c1.11-.035 2.057-.741 2.903-1.392 1.494-1.255 2.788-2.748 3.88-4.363.4-.669.872-1.378.894-2.182v7.937m140.223 140.784h-7.678c.875.039 1.619.605 2.322 1.073 1.578 1.191 3.056 2.556 4.224 4.153.545.804 1.117 1.708 1.132 2.711m-7.678-7.937c1.11-.035 2.058-.741 2.903-1.392 1.495-1.255 2.788-2.747 3.88-4.362.401-.669.873-1.378.895-2.183v7.937m0-7.937c.038 1.182.757 2.206 1.437 3.119a20.903 20.903 0 0 0 4.226 3.962c.614.383 1.266.838 2.014.856h-7.677m7.677 0c-1.11.035-2.058.741-2.903 1.392-1.495 1.255-2.788 2.748-3.88 4.363-.401.669-.872 1.378-.894 2.182v-7.937m-70.112 9.24H67.33c2.098.093 3.884 1.451 5.57 2.573 3.788 2.858 7.337 6.135 10.139 9.969 1.307 1.929 2.681 4.098 2.716 6.507M67.33 202.161c2.663-.084 4.937-1.779 6.967-3.342 3.586-3.011 6.69-6.593 9.31-10.47.963-1.605 2.095-3.306 2.148-5.237v19.049m0-19.049c.09 2.836 1.818 5.292 3.45 7.485 2.907 3.623 6.352 6.828 10.143 9.508 1.473.919 3.037 2.011 4.832 2.056H85.756m18.425 0c-2.663.084-4.938 1.777-6.967 3.339-3.587 3.014-6.691 6.595-9.311 10.472-.962 1.605-2.093 3.306-2.147 5.238v-19.049m-.001-86.499h18.426c-2.099-.094-3.884-1.452-5.571-2.574-3.788-2.858-7.337-6.135-10.139-9.969-1.307-1.929-2.68-4.097-2.716-6.506m18.426 19.049c-2.663.084-4.938 1.778-6.967 3.342-3.587 3.011-6.692 6.592-9.311 10.469-.962 1.605-2.095 3.306-2.148 5.238v-19.049m0 19.049c-.09-2.836-1.818-5.293-3.45-7.486-2.907-3.622-6.352-6.827-10.143-9.507-1.473-.919-3.037-2.012-4.832-2.056h18.425m-18.425 0c2.663-.084 4.938-1.778 6.967-3.34 3.587-3.013 6.692-6.595 9.311-10.472.962-1.605 2.093-3.306 2.147-5.237v19.049m0-76.912h18.426c-2.099-.094-3.884-1.452-5.571-2.575-3.788-2.857-7.337-6.135-10.139-9.968-1.307-1.93-2.68-4.098-2.716-6.507m18.426 19.05c-2.663.083-4.938 1.778-6.967 3.341-3.587 3.011-6.692 6.593-9.311 10.47-.962 1.605-2.095 3.306-2.148 5.237V38.75m0 19.05c-.09-2.837-1.818-5.293-3.45-7.486-2.907-3.623-6.352-6.828-10.143-9.508-1.473-.919-3.037-2.011-4.832-2.056h18.425m-18.425 0c2.663-.084 4.938-1.778 6.967-3.34 3.587-3.013 6.692-6.595 9.311-10.471.962-1.605 2.093-3.306 2.147-5.238v19.05"/>
</svg>
