<svg xmlns="http://www.w3.org/2000/svg" width="157" height="228" fill="none" viewBox="0 0 157 228">
  <path fill="#fff" stroke="#000" stroke-width="2.499" d="M1.62 219.453c0 3.482 2.851 6.328 6.339 6.328h141.009c3.478 0 6.329-2.846 6.329-6.328V9.061c0-3.482-2.851-6.329-6.329-6.329H7.958c-3.487 0-6.337 2.847-6.337 6.329v210.392Z"/>
  <path fill="#E6180A" d="M15.066 33.173c-1.76 0-3.33-.303-4.705-.908-1.368-.613-2.45-1.454-3.243-2.524-.787-1.077-1.191-2.319-1.215-3.726h5.142c.031.59.224 1.108.578 1.556.362.44.841.783 1.439 1.026.597.244 1.27.366 2.016.366.779 0 1.467-.138 2.064-.413.598-.275 1.066-.656 1.404-1.144.338-.487.507-1.05.507-1.686 0-.645-.181-1.215-.543-1.71-.354-.503-.865-.897-1.533-1.18-.66-.283-1.447-.424-2.359-.424h-2.252v-3.75h2.252c.77 0 1.45-.134 2.04-.401.598-.268 1.062-.637 1.392-1.109.33-.48.495-1.038.495-1.675 0-.605-.145-1.136-.436-1.592a2.881 2.881 0 0 0-1.203-1.085c-.51-.26-1.108-.389-1.792-.389-.692 0-1.325.126-1.9.377a3.32 3.32 0 0 0-1.379 1.05c-.346.456-.53.99-.554 1.604H6.387c.023-1.392.42-2.618 1.19-3.68.771-1.061 1.809-1.89 3.114-2.488 1.313-.605 2.795-.908 4.446-.908 1.667 0 3.125.303 4.376.908 1.25.605 2.22 1.423 2.913 2.453.7 1.022 1.045 2.17 1.037 3.444.008 1.352-.412 2.48-1.262 3.384-.84.905-1.938 1.479-3.29 1.722v.189c1.777.228 3.13.845 4.057 1.851.936.999 1.4 2.25 1.392 3.75.008 1.377-.39 2.6-1.191 3.669-.794 1.069-1.891 1.91-3.29 2.523-1.4.614-3.004.92-4.813.92Zm127.741 158.343c1.761 0 3.329.302 4.705.908 1.368.613 2.449 1.454 3.243 2.524.787 1.077 1.191 2.319 1.215 3.726h-5.142a2.676 2.676 0 0 0-.578-1.556c-.361-.441-.841-.783-1.439-1.026-.597-.244-1.269-.366-2.016-.366-.779 0-1.467.138-2.064.413-.598.275-1.065.656-1.403 1.144-.339.487-.508 1.049-.508 1.686 0 .645.181 1.215.543 1.71.354.503.865.897 1.533 1.18.66.283 1.447.424 2.359.424h2.252v3.75h-2.252c-.771 0-1.451.134-2.041.401-.597.268-1.061.637-1.391 1.109-.33.48-.495 1.038-.495 1.675 0 .605.145 1.136.436 1.592.283.464.684.825 1.203 1.085.511.259 1.108.389 1.792.389a4.69 4.69 0 0 0 1.899-.377 3.323 3.323 0 0 0 1.38-1.05c.346-.456.531-.991.554-1.604h4.895c-.024 1.392-.421 2.618-1.192 3.68-.77 1.061-1.808 1.89-3.113 2.488-1.313.605-2.795.908-4.446.908-1.667 0-3.125-.303-4.376-.908-1.25-.605-2.221-1.423-2.913-2.453-.699-1.022-1.045-2.17-1.037-3.444-.008-1.352.412-2.48 1.262-3.384.841-.905 1.938-1.479 3.29-1.722v-.189c-1.777-.228-3.129-.845-4.057-1.852-.936-.998-1.399-2.248-1.392-3.75-.007-1.376.39-2.598 1.191-3.668.795-1.069 1.891-1.91 3.291-2.523 1.399-.614 3.003-.92 4.812-.92ZM21.29 45.31c-.01 4.338-5.453 7.498-7.049 10.934-1.614-3.427-7.067-6.559-7.104-10.897-.009-2.045 1.578-3.713 3.525-3.713 1.955 0 3.551 1.65 3.551 3.694 0-2.054 1.578-3.712 3.525-3.712 1.956-.01 3.542 1.649 3.552 3.694Zm115.26 136.974c.009-4.339 5.452-7.498 7.048-10.934 1.615 3.427 7.067 6.558 7.104 10.897.009 2.045-1.578 3.712-3.524 3.712-1.956 0-3.552-1.648-3.552-3.693 0 2.054-1.578 3.712-3.524 3.712-1.956.009-3.543-1.649-3.552-3.694Zm-74.613 13.583c.022-10.413 13.085-17.996 16.916-26.242 3.874 8.224 16.96 15.741 17.049 26.153.022 4.908-3.787 8.91-8.459 8.91-4.694 0-8.524-3.957-8.524-8.865 0 4.93-3.786 8.909-8.458 8.909-4.694.022-8.502-3.957-8.524-8.865ZM95.901 98.78c-.022 10.413-13.085 17.996-16.916 26.242-3.874-8.224-16.96-15.74-17.049-26.153-.022-4.908 3.786-8.91 8.458-8.91 4.694 0 8.525 3.958 8.525 8.866 0-4.93 3.786-8.91 8.458-8.91 4.694-.022 8.502 3.958 8.524 8.865Zm0-70.875c-.022 10.413-13.085 17.996-16.916 26.242-3.874-8.224-16.96-15.74-17.049-26.153-.022-4.908 3.786-8.91 8.458-8.91 4.694 0 8.525 3.958 8.525 8.866 0-4.93 3.786-8.91 8.458-8.91 4.694-.022 8.502 3.957 8.524 8.865Z"/>
</svg>
