<svg xmlns="http://www.w3.org/2000/svg" width="157" height="228" fill="none" viewBox="0 0 157 228">
  <path fill="#fff" stroke="#000" stroke-width="2.499" d="M2.065 218.768c0 3.482 2.85 6.328 6.338 6.328h141.009c3.478 0 6.329-2.846 6.329-6.328V8.375c0-3.481-2.851-6.328-6.329-6.328H8.402c-3.486 0-6.337 2.847-6.337 6.328v210.393Z"/>
  <path fill="#000" d="M16.434 34.289c-1.762 0-3.33-.303-4.706-.909-1.368-.613-2.449-1.454-3.243-2.523-.786-1.077-1.191-2.32-1.215-3.727h5.142c.032.59.224 1.109.578 1.557.362.44.841.782 1.439 1.026.597.243 1.27.365 2.016.365.779 0 1.467-.137 2.064-.412.598-.276 1.066-.657 1.404-1.144.338-.488.507-1.05.507-1.687 0-.645-.181-1.215-.543-1.71-.354-.503-.864-.896-1.533-1.18-.66-.282-1.447-.424-2.359-.424h-2.252v-3.75h2.252c.771 0 1.451-.134 2.04-.401.598-.267 1.062-.637 1.392-1.109.33-.48.496-1.037.496-1.674 0-.606-.146-1.136-.437-1.592a2.881 2.881 0 0 0-1.203-1.085c-.51-.26-1.108-.39-1.792-.39-.692 0-1.325.126-1.899.378a3.319 3.319 0 0 0-1.38 1.05c-.346.455-.53.99-.554 1.603H7.754c.023-1.391.42-2.618 1.19-3.68.771-1.06 1.81-1.89 3.114-2.488 1.313-.605 2.795-.908 4.446-.908 1.667 0 3.126.303 4.376.908 1.25.606 2.22 1.423 2.913 2.453.7 1.022 1.045 2.17 1.038 3.444.007 1.352-.413 2.48-1.262 3.385-.842.904-1.938 1.478-3.29 1.722v.188c1.776.228 3.128.846 4.056 1.852.936.998 1.4 2.248 1.392 3.75.008 1.376-.39 2.599-1.191 3.668-.794 1.07-1.891 1.91-3.29 2.524-1.4.613-3.004.92-4.812.92Zm126.817 161.107c1.761 0 3.33.302 4.705.908 1.369.613 2.45 1.454 3.244 2.523.786 1.078 1.191 2.32 1.214 3.727h-5.142a2.687 2.687 0 0 0-.577-1.557c-.362-.44-.842-.782-1.439-1.026-.598-.243-1.27-.365-2.017-.365-.778 0-1.466.137-2.064.413-.597.275-1.065.656-1.403 1.144-.338.487-.507 1.049-.507 1.686 0 .645.181 1.215.542 1.71.354.503.865.896 1.533 1.179.661.283 1.447.425 2.359.425h2.253v3.75h-2.253c-.77 0-1.451.134-2.04.401-.598.268-1.062.637-1.392 1.109-.33.479-.495 1.038-.495 1.675 0 .605.145 1.136.436 1.592.283.464.684.825 1.203 1.085.511.259 1.109.389 1.793.389.692 0 1.325-.126 1.898-.378a3.313 3.313 0 0 0 1.38-1.049c.346-.456.531-.991.555-1.604h4.894c-.024 1.392-.421 2.618-1.191 3.679-.771 1.062-1.809 1.891-3.114 2.489-1.313.605-2.795.908-4.446.908-1.667 0-3.125-.303-4.375-.908-1.25-.606-2.221-1.423-2.913-2.453-.7-1.022-1.046-2.17-1.038-3.444-.008-1.352.413-2.48 1.262-3.385.841-.904 1.938-1.478 3.29-1.721v-.189c-1.777-.228-3.129-.845-4.057-1.852-.935-.998-1.399-2.248-1.391-3.75-.008-1.376.389-2.598 1.191-3.668.794-1.069 1.891-1.91 3.29-2.523 1.4-.614 3.004-.92 4.812-.92ZM11.042 55.55c1.54 0 2.352-1.639 2.777-3.278.424-1.64.46-3.28.46-3.28l.785-.01s.148 6.569 3.229 6.569h-7.251Z"/>
  <path fill="#000" d="M8.43 48.983c.01-3.196 4.816-5.518 6.228-8.042 1.412 2.533 6.218 4.855 6.227 8.042 0 1.51-1.393 2.736-3.118 2.736-1.716 0-3.109-1.225-3.109-2.736 0 1.51-1.393 2.736-3.118 2.736-1.725 0-3.11-1.225-3.11-2.736Zm139.257 121.691c-1.541 0-2.353 1.64-2.777 3.28-.424 1.639-.461 3.279-.461 3.279l-.784.009s-.148-6.568-3.229-6.568h7.251Z"/>
  <path fill="#000" d="M150.298 177.242c-.009 3.197-4.816 5.518-6.227 8.042-1.412-2.533-6.219-4.855-6.228-8.042 0-1.511 1.393-2.736 3.119-2.736 1.715 0 3.109 1.225 3.109 2.736 0-1.511 1.393-2.736 3.118-2.736 1.725 0 3.109 1.225 3.109 2.736Zm-62.255-8.28c-3.697 0-5.646 3.935-6.664 7.871-1.019 3.935-1.107 7.87-1.107 7.87l-1.882.022s-.355-15.763-7.75-15.763h17.403Z"/>
  <path fill="#000" d="M94.309 184.725c-.022 7.671-11.558 13.242-14.945 19.3-3.388-6.08-14.924-11.651-14.946-19.3 0-3.626 3.343-6.566 7.484-6.566 4.118 0 7.462 2.94 7.462 6.566 0-3.626 3.343-6.566 7.483-6.566s7.462 2.94 7.462 6.566Zm-23.625-60.41c3.698 0 5.646-3.935 6.665-7.87 1.018-3.935 1.107-7.87 1.107-7.87l1.882-.022s.354 15.762 7.75 15.762H70.683Z"/>
  <path fill="#000" d="M64.418 108.553c.022-7.672 11.558-13.243 14.946-19.3 3.387 6.08 14.923 11.65 14.945 19.3 0 3.625-3.343 6.566-7.484 6.566-4.118 0-7.461-2.941-7.461-6.566 0 3.625-3.344 6.566-7.484 6.566-4.14 0-7.462-2.941-7.462-6.566Zm6.266-55.113c3.698 0 5.646-3.935 6.665-7.87 1.018-3.935 1.107-7.87 1.107-7.87l1.882-.023s.354 15.763 7.75 15.763H70.683Z"/>
  <path fill="#000" d="M64.418 37.677c.022-7.671 11.558-13.242 14.946-19.3 3.387 6.08 14.923 11.651 14.945 19.3 0 3.626-3.343 6.566-7.484 6.566-4.118 0-7.461-2.94-7.461-6.566 0 3.626-3.344 6.566-7.484 6.566-4.14 0-7.462-2.94-7.462-6.566Z"/>
</svg>
