<svg xmlns="http://www.w3.org/2000/svg" width="170" height="246" fill="none" viewBox="0 0 170 246">
  <path fill="#fff" stroke="#000" stroke-width="2.499" d="M2 237.183c0 3.778 3.089 6.867 6.867 6.867h152.789c3.768 0 6.857-3.089 6.857-6.867V8.867c0-3.778-3.089-6.867-6.857-6.867H8.867C5.09 2 2 5.089 2 8.867v228.316Z"/>
  <path fill="#000" d="M4.592 32.442v-4.021l10.084-15.886h3.467V18.1H16.09L9.733 28.16v.189h14.329v4.092H4.593Zm11.593 4.246v-5.472l.094-1.781v-16.9h4.788v24.153h-4.882Zm150.223 179.245v4.022l-10.083 15.886h-3.468v-5.567h2.052l6.357-10.06v-.188h-14.329v-4.093h19.471Zm-11.593-4.245v5.472l-.094 1.781v16.9h-4.789v-24.153h4.883ZM12.296 47.476c0 1.81 1.51 3.279 3.379 3.279 1.87 0 3.379-1.47 3.379-3.279 0-1.81-1.51-3.279-3.379-3.279-1.87 0-3.379 1.47-3.379 3.28Zm-4.358 6.208c0 1.81 1.51 3.279 3.379 3.279s3.378-1.47 3.378-3.28c0-1.809-1.51-3.278-3.378-3.278-1.87 0-3.38 1.47-3.38 3.279Zm8.657.02c0 .66.2 1.28.55 1.8a3.411 3.411 0 0 0 2.828 1.479c1.87 0 3.38-1.47 3.38-3.28 0-1.809-1.51-3.278-3.38-3.278-1.869 0-3.378 1.47-3.378 3.279Zm-4.889 6.367c1.67 0 2.55-1.36 3.009-2.719.46-1.36.5-2.719.5-2.719h.86s.16 5.428 3.498 5.438h-7.867Z"/>
  <path fill="#000" d="M17.964 49.885c-1.9 1.9-1.9 4.748-1.9 4.748l-.85.01s0-2.909-1.848-4.758"/>
  <path fill="#000" d="M17.584 55.983c-1.9-1.9-4.748-1.9-4.748-1.9v-.85s2.909 0 4.758-1.848"/>
  <path fill="#000" d="M13.776 55.993c1.899-1.9 4.748-1.9 4.748-1.9v-.85s-2.909 0-4.758-1.848m145.45 146.182c0-1.809-1.509-3.279-3.378-3.279-1.87 0-3.379 1.47-3.379 3.279 0 1.81 1.509 3.279 3.379 3.279 1.869 0 3.378-1.469 3.378-3.279Zm4.359-6.207c0-1.81-1.51-3.279-3.379-3.279s-3.379 1.469-3.379 3.279c0 1.809 1.51 3.278 3.379 3.278s3.379-1.469 3.379-3.278Zm-8.657-.02c0-.66-.2-1.28-.55-1.8a3.41 3.41 0 0 0-2.829-1.479c-1.869 0-3.378 1.469-3.378 3.279 0 1.809 1.509 3.278 3.378 3.278 1.87 0 3.379-1.469 3.379-3.278Zm4.889-6.368c-1.67 0-2.55 1.359-3.009 2.719-.46 1.359-.5 2.719-.5 2.719h-.86s-.16-5.428-3.499-5.438h7.868Z"/>
  <path fill="#000" d="M153.549 195.168c1.899-1.899 1.899-4.748 1.899-4.748l.85-.01s0 2.909 1.849 4.758"/>
  <path fill="#000" d="M153.928 189.07c1.9 1.9 4.749 1.9 4.749 1.9v.849s-2.909 0-4.759 1.85"/>
  <path fill="#000" d="M157.737 189.06c-1.899 1.9-4.748 1.9-4.748 1.9v.849s2.909 0 4.758 1.85M37.804 27.567c0 4.342 3.623 7.868 8.11 7.868 4.486 0 8.108-3.526 8.108-7.869 0-4.342-3.622-7.869-8.108-7.869-4.487 0-8.11 3.527-8.11 7.87ZM27.345 42.465c0 4.342 3.622 7.87 8.108 7.87 4.487 0 8.11-3.528 8.11-7.87 0-4.342-3.623-7.869-8.11-7.869-4.486 0-8.109 3.527-8.109 7.869Zm20.775.048c0 1.583.48 3.07 1.32 4.318 1.44 2.136 3.959 3.551 6.79 3.551 4.486 0 8.109-3.527 8.109-7.869s-3.623-7.87-8.11-7.87c-4.485 0-8.108 3.528-8.108 7.87ZM36.389 57.795c4.007 0 6.118-3.263 7.221-6.525 1.104-3.263 1.2-6.526 1.2-6.526h2.063s.384 13.027 8.397 13.051H36.389Z"/>
  <path fill="#000" d="M51.408 33.348c-4.559 4.559-4.559 11.396-4.559 11.396l-2.039.024s0-6.981-4.438-11.42"/>
  <path fill="#000" d="M50.496 47.983C45.938 43.425 39.1 43.425 39.1 43.425v-2.04s6.982 0 11.42-4.438"/>
  <path fill="#000" d="M41.355 48.007c4.559-4.558 11.396-4.558 11.396-4.558v-2.04s-6.981 0-11.42-4.438M53.88 213.338c0-4.343-3.624-7.869-8.11-7.869-4.486 0-8.109 3.526-8.109 7.869 0 4.342 3.623 7.869 8.11 7.869 4.485 0 8.108-3.527 8.108-7.869Zm10.46-14.899c0-4.342-3.624-7.869-8.11-7.869-4.486 0-8.109 3.527-8.109 7.869 0 4.343 3.623 7.869 8.11 7.869 4.485 0 8.108-3.526 8.108-7.869Zm-20.777-.048c0-1.583-.48-3.071-1.32-4.318-1.44-2.135-3.958-3.551-6.79-3.551-4.486 0-8.108 3.527-8.108 7.869 0 4.343 3.622 7.869 8.109 7.869 4.486 0 8.109-3.526 8.109-7.869Zm11.732-15.282c-4.007 0-6.118 3.263-7.222 6.526-1.103 3.262-1.2 6.525-1.2 6.525H44.81s-.383-13.027-8.396-13.051h18.88Z"/>
  <path fill="#000" d="M40.276 207.556c4.558-4.558 4.558-11.396 4.558-11.396l2.04-.024s0 6.982 4.438 11.42"/>
  <path fill="#000" d="M41.188 192.921c4.558 4.559 11.395 4.559 11.395 4.559v2.039s-6.981 0-11.42 4.438"/>
  <path fill="#000" d="M50.328 192.897c-4.558 4.559-11.395 4.559-11.395 4.559v2.039s6.981 0 11.42 4.438m67.28-176.366c0 4.342 3.622 7.868 8.109 7.868 4.486 0 8.109-3.526 8.109-7.869 0-4.342-3.623-7.869-8.109-7.869-4.487 0-8.109 3.527-8.109 7.87Zm-10.46 14.898c0 4.342 3.622 7.87 8.109 7.87 4.486 0 8.109-3.528 8.109-7.87 0-4.342-3.623-7.869-8.109-7.869-4.487 0-8.109 3.527-8.109 7.869Zm20.776.048c0 1.583.48 3.07 1.32 4.318 1.439 2.136 3.958 3.551 6.789 3.551 4.486 0 8.109-3.527 8.109-7.869s-3.623-7.87-8.109-7.87-8.109 3.528-8.109 7.87Zm-11.732 15.282c4.007 0 6.118-3.263 7.221-6.525 1.104-3.263 1.2-6.526 1.2-6.526h2.063s.384 13.027 8.397 13.051h-18.881Z"/>
  <path fill="#000" d="M131.236 33.348c-4.558 4.559-4.558 11.396-4.558 11.396l-2.04.024s0-6.981-4.438-11.42"/>
  <path fill="#000" d="M130.324 47.983c-4.558-4.558-11.396-4.558-11.396-4.558v-2.04s6.982 0 11.42-4.438"/>
  <path fill="#000" d="M121.183 48.007c4.559-4.558 11.396-4.558 11.396-4.558v-2.04s-6.981 0-11.42-4.438m12.548 176.367c0-4.343-3.622-7.869-8.109-7.869-4.486 0-8.109 3.526-8.109 7.869 0 4.342 3.623 7.869 8.109 7.869 4.487 0 8.109-3.527 8.109-7.869Zm10.46-14.899c0-4.342-3.622-7.869-8.109-7.869-4.486 0-8.109 3.527-8.109 7.869 0 4.343 3.623 7.869 8.109 7.869 4.487 0 8.109-3.526 8.109-7.869Zm-20.776-.048c0-1.583-.48-3.071-1.32-4.318-1.439-2.135-3.958-3.551-6.789-3.551-4.486 0-8.109 3.527-8.109 7.869 0 4.343 3.623 7.869 8.109 7.869s8.109-3.526 8.109-7.869Zm11.732-15.282c-4.007 0-6.118 3.263-7.222 6.526-1.103 3.262-1.199 6.525-1.199 6.525h-2.063s-.384-13.027-8.397-13.051h18.881Z"/>
  <path fill="#000" d="M120.104 207.556c4.558-4.558 4.558-11.396 4.558-11.396l2.04-.024s0 6.982 4.438 11.42"/>
  <path fill="#000" d="M121.016 192.921c4.558 4.559 11.395 4.559 11.395 4.559v2.039s-6.981 0-11.419 4.438"/>
  <path fill="#000" d="M130.157 192.897c-4.559 4.559-11.396 4.559-11.396 4.559v2.039s6.981 0 11.419 4.438"/>
</svg>
