<svg xmlns="http://www.w3.org/2000/svg" width="170" height="246" fill="none" viewBox="0 0 170 246">
  <path fill="#fff" stroke="#000" stroke-width="2.499" d="M2 237.183c0 3.778 3.089 6.867 6.867 6.867h152.789c3.768 0 6.857-3.089 6.857-6.867V8.867c0-3.778-3.089-6.867-6.857-6.867H8.867C5.09 2 2 5.089 2 8.867v228.316Z"/>
  <path fill="#E6180A" d="M5.854 32.752V28.73l10.084-15.885h3.467v5.566h-2.052l-6.357 10.06v.189h14.33v4.092H5.853Zm11.593 4.246v-5.473l.095-1.78v-16.9h4.788v24.153h-4.883ZM165.67 214.243v4.022l-10.083 15.885h-3.468v-5.566h2.053l6.356-10.06v-.188h-14.329v-4.093h19.471Zm-11.593-4.245v5.472l-.094 1.781v16.899h-4.788v-24.152h4.882ZM15.645 52.135h7.677c-.874-.04-1.618-.605-2.32-1.073-1.58-1.19-3.058-2.556-4.225-4.154-.545-.803-1.118-1.707-1.132-2.71m7.677 7.937c-1.11.035-2.057.74-2.903 1.392-1.494 1.255-2.788 2.747-3.88 4.362-.4.67-.872 1.378-.894 2.182v-7.936m0 7.937c-.038-1.182-.758-2.206-1.437-3.12a20.888 20.888 0 0 0-4.227-3.96c-.614-.384-1.265-.839-2.013-.857h7.677m-7.677 0c1.11-.035 2.057-.741 2.903-1.392 1.494-1.256 2.788-2.748 3.88-4.363.4-.67.872-1.378.894-2.183v7.938m140.223 140.784h-7.678c.875.039 1.619.605 2.322 1.072 1.578 1.191 3.056 2.557 4.224 4.154.545.804 1.117 1.707 1.132 2.711m-7.678-7.937c1.11-.035 2.058-.741 2.903-1.393 1.495-1.254 2.788-2.746 3.88-4.362.401-.669.873-1.377.895-2.182v7.937m0-7.937c.038 1.181.757 2.205 1.437 3.119a20.898 20.898 0 0 0 4.226 3.961c.614.383 1.266.838 2.014.857h-7.677m7.677 0c-1.11.035-2.058.741-2.903 1.391-1.495 1.256-2.788 2.748-3.88 4.364-.401.669-.872 1.377-.894 2.182v-7.937M45.842 38.747h18.425c-2.098-.094-3.884-1.452-5.57-2.574-3.789-2.858-7.337-6.135-10.14-9.969-1.307-1.929-2.68-4.098-2.715-6.506m18.425 19.049c-2.663.084-4.937 1.778-6.967 3.342-3.587 3.01-6.691 6.592-9.31 10.47-.963 1.604-2.095 3.305-2.148 5.237v-19.05m0 19.05c-.091-2.836-1.819-5.293-3.45-7.486-2.908-3.622-6.353-6.827-10.143-9.507-1.474-.92-3.038-2.012-4.832-2.056h18.425m-18.425 0c2.663-.084 4.937-1.778 6.967-3.34 3.587-3.013 6.69-6.595 9.31-10.472.963-1.605 2.094-3.306 2.148-5.237v19.049m0 163.412H27.417c2.098.093 3.884 1.451 5.57 2.573 3.788 2.858 7.337 6.135 10.139 9.969 1.307 1.929 2.681 4.098 2.716 6.506m-18.425-19.048c2.662-.084 4.937-1.779 6.966-3.342 3.587-3.011 6.692-6.593 9.311-10.47.962-1.605 2.095-3.306 2.148-5.237v19.049m0-19.049c.09 2.835 1.818 5.292 3.45 7.485 2.907 3.622 6.352 6.828 10.143 9.507 1.473.919 3.037 2.012 4.832 2.057H45.842m18.425 0c-2.663.084-4.938 1.777-6.967 3.339-3.587 3.013-6.691 6.595-9.311 10.472-.962 1.605-2.093 3.306-2.147 5.237v-19.048M125.67 38.747h18.425c-2.099-.094-3.884-1.452-5.571-2.574-3.788-2.858-7.336-6.135-10.139-9.969-1.307-1.929-2.681-4.098-2.715-6.506m18.425 19.049c-2.663.084-4.938 1.778-6.967 3.342-3.587 3.01-6.691 6.592-9.311 10.47-.962 1.604-2.095 3.305-2.147 5.237v-19.05m0 19.05c-.092-2.836-1.819-5.293-3.45-7.486-2.908-3.622-6.353-6.827-10.144-9.507-1.473-.92-3.037-2.012-4.832-2.056h18.426m-18.426 0c2.663-.084 4.938-1.778 6.967-3.34 3.587-3.013 6.692-6.595 9.311-10.472.962-1.605 2.094-3.306 2.148-5.237v19.049m0 163.412h-18.425c2.098.093 3.884 1.451 5.57 2.573 3.789 2.858 7.337 6.135 10.139 9.969 1.307 1.929 2.681 4.098 2.716 6.506m-18.425-19.048c2.663-.084 4.937-1.779 6.967-3.342 3.586-3.011 6.691-6.593 9.311-10.47.962-1.605 2.094-3.306 2.147-5.237v19.049m0-19.049c.091 2.835 1.818 5.292 3.45 7.485 2.907 3.622 6.353 6.828 10.143 9.507 1.473.919 3.037 2.012 4.832 2.057H125.67m18.425 0c-2.663.084-4.937 1.777-6.967 3.339-3.587 3.013-6.691 6.595-9.311 10.472-.962 1.605-2.093 3.306-2.147 5.237v-19.048"/>
</svg>
