<svg xmlns="http://www.w3.org/2000/svg" width="158" height="227" fill="none" viewBox="0 0 158 227">
  <path fill="#fff" stroke="#000" stroke-width="2.499" d="M2.122 218.721c0 3.482 2.85 6.328 6.338 6.328h141.01c3.478 0 6.329-2.846 6.329-6.328V8.328c0-3.482-2.851-6.328-6.329-6.328H8.46C4.973 2 2.122 4.846 2.122 8.328v210.393Z"/>
  <path fill="#E6180A" d="M5.802 31.551V27.53l10.083-15.886h3.467v5.566H17.3l-6.357 10.06v.189h14.33v4.092H5.802Zm11.593 4.246v-5.472l.094-1.781v-16.9h4.788v24.153h-4.883Zm133.811 160.484v4.021l-10.084 15.886h-3.467v-5.566h2.052l6.357-10.06v-.189h-14.329v-4.092h19.471Zm-11.593-4.246v5.472l-.095 1.781v16.9h-4.788v-24.153h4.883ZM21.791 44.578c-.01 4.338-5.452 7.498-7.048 10.934-1.615-3.427-7.067-6.559-7.104-10.897-.01-2.045 1.577-3.713 3.524-3.713 1.956 0 3.552 1.65 3.552 3.694 0-2.054 1.578-3.712 3.524-3.712 1.956-.01 3.543 1.649 3.552 3.694Zm115.261 136.974c.009-4.339 5.452-7.498 7.048-10.934 1.615 3.426 7.067 6.558 7.104 10.897.009 2.045-1.578 3.712-3.524 3.712-1.956 0-3.552-1.649-3.552-3.694 0 2.055-1.578 3.713-3.524 3.713-1.956.009-3.543-1.649-3.552-3.694ZM59.567 27.173C59.545 37.586 46.48 45.17 42.65 53.415c-3.875-8.224-16.96-15.74-17.05-26.153-.021-4.908 3.787-8.91 8.459-8.91 4.694 0 8.524 3.957 8.524 8.865 0-4.93 3.787-8.91 8.458-8.91 4.694-.021 8.503 3.958 8.525 8.866ZM25.602 195.135c.022-10.413 13.086-17.996 16.916-26.242 3.875 8.224 16.96 15.741 17.05 26.153.021 4.908-3.787 8.91-8.459 8.91-4.694 0-8.524-3.958-8.524-8.865 0 4.93-3.787 8.909-8.459 8.909-4.693.022-8.502-3.957-8.524-8.865ZM133.24 27.173c-.022 10.413-13.085 17.996-16.916 26.242-3.875-8.224-16.96-15.74-17.049-26.153-.022-4.908 3.786-8.91 8.458-8.91 4.694 0 8.525 3.957 8.525 8.865 0-4.93 3.786-8.91 8.458-8.91 4.694-.021 8.502 3.958 8.524 8.866Z"/>
  <path fill="#E6180A" d="M99.275 195.135c.022-10.413 13.086-17.996 16.917-26.242 3.874 8.224 16.96 15.741 17.048 26.153.023 4.908-3.786 8.91-8.458 8.91-4.694 0-8.524-3.958-8.524-8.865 0 4.93-3.786 8.909-8.458 8.909-4.694.022-8.502-3.957-8.525-8.865Z"/>
</svg>
