<svg xmlns="http://www.w3.org/2000/svg" width="158" height="227" fill="none" viewBox="0 0 158 227">
  <path fill="#fff" stroke="#000" stroke-width="2.499" d="M2.186 218.768c0 3.482 2.85 6.328 6.338 6.328h141.009c3.478 0 6.329-2.846 6.329-6.328V8.376c0-3.482-2.851-6.329-6.329-6.329H8.524c-3.487 0-6.338 2.847-6.338 6.329v210.392Z"/>
  <path fill="#000" d="M4.02 27.87v-4.022L14.102 7.962h3.467v5.567h-2.052L9.16 23.589v.188h14.33v4.093H4.018Zm11.592 4.245v-5.472l.095-1.78v-16.9h4.788v24.152h-4.883Zm135.657 166.013v4.022l-10.084 15.886h-3.467v-5.567h2.052l6.357-10.06v-.188h-14.329v-4.093h19.471Zm-11.593-4.245v5.472l-.095 1.781v16.9h-4.788v-24.153h4.883ZM11.162 55.551c1.54 0 2.353-1.64 2.777-3.28.425-1.639.461-3.279.461-3.279l.785-.009s.147 6.568 3.229 6.568h-7.252Z"/>
  <path fill="#000" d="M8.552 48.983c.009-3.196 4.816-5.517 6.227-8.041 1.412 2.533 6.218 4.854 6.227 8.041 0 1.511-1.393 2.736-3.118 2.736-1.716 0-3.109-1.225-3.109-2.736 0 1.511-1.393 2.736-3.118 2.736-1.725 0-3.11-1.225-3.11-2.736Zm139.256 121.691c-1.541 0-2.353 1.64-2.777 3.28-.424 1.639-.461 3.279-.461 3.279l-.784.009s-.148-6.568-3.229-6.568h7.251Z"/>
  <path fill="#000" d="M150.418 177.242c-.009 3.197-4.815 5.518-6.227 8.042-1.411-2.533-6.218-4.855-6.227-8.042 0-1.511 1.393-2.736 3.118-2.736 1.716 0 3.109 1.225 3.109 2.736 0-1.511 1.393-2.736 3.118-2.736 1.726 0 3.109 1.225 3.109 2.736ZM33.968 53.44c3.697 0 5.646-3.935 6.664-7.87 1.019-3.935 1.108-7.87 1.108-7.87l1.882-.022s.354 15.762 7.75 15.762H33.967Z"/>
  <path fill="#000" d="M27.702 37.678c.022-7.672 11.558-13.243 14.946-19.3 3.387 6.08 14.923 11.65 14.945 19.3 0 3.625-3.343 6.566-7.484 6.566-4.118 0-7.461-2.94-7.461-6.566 0 3.625-3.344 6.566-7.484 6.566-4.14 0-7.462-2.94-7.462-6.566Zm23.626 131.284c-3.698 0-5.647 3.935-6.665 7.871-1.019 3.935-1.107 7.87-1.107 7.87l-1.882.022s-.354-15.763-7.75-15.763h17.404Z"/>
  <path fill="#000" d="M57.593 184.725c-.022 7.671-11.558 13.242-14.945 19.3-3.388-6.08-14.924-11.651-14.946-19.3 0-3.626 3.343-6.566 7.484-6.566 4.118 0 7.462 2.94 7.462 6.566 0-3.626 3.343-6.566 7.483-6.566 4.141 0 7.462 2.94 7.462 6.566ZM107.642 53.44c3.697 0 5.646-3.935 6.664-7.87 1.019-3.935 1.107-7.87 1.107-7.87l1.882-.022s.355 15.762 7.75 15.762h-17.403Z"/>
  <path fill="#000" d="M101.376 37.678c.022-7.672 11.558-13.243 14.946-19.3 3.387 6.08 14.923 11.65 14.945 19.3 0 3.625-3.343 6.566-7.484 6.566-4.118 0-7.461-2.94-7.461-6.566 0 3.625-3.344 6.566-7.484 6.566-4.141 0-7.462-2.94-7.462-6.566Zm23.625 131.284c-3.698 0-5.646 3.935-6.665 7.871-1.018 3.935-1.107 7.87-1.107 7.87l-1.882.022s-.354-15.763-7.749-15.763h17.403Z"/>
  <path fill="#000" d="M131.267 184.725c-.023 7.671-11.558 13.242-14.946 19.3-3.388-6.08-14.923-11.651-14.946-19.3 0-3.626 3.344-6.566 7.484-6.566 4.119 0 7.462 2.94 7.462 6.566 0-3.626 3.343-6.566 7.484-6.566 4.14 0 7.462 2.94 7.462 6.566Z"/>
</svg>
