<svg xmlns="http://www.w3.org/2000/svg" width="170" height="246" fill="none" viewBox="0 0 170 246">
  <path fill="#fff" stroke="#000" stroke-width="2.499" d="M2 237.185c0 3.779 3.089 6.867 6.867 6.867h152.789c3.768 0 6.857-3.088 6.857-6.867V8.87c0-3.779-3.089-6.868-6.857-6.868H8.867C5.09 2.002 2 5.092 2 8.87v228.315Z"/>
  <path fill="#E6180A" d="M15.529 34.33c-1.667 0-3.153-.306-4.458-.92-1.297-.613-2.327-1.458-3.09-2.535-.763-1.077-1.16-2.312-1.191-3.703h4.953c.055.935.448 1.694 1.18 2.276.73.582 1.6.872 2.606.872.802 0 1.51-.176 2.122-.53a3.798 3.798 0 0 0 1.451-1.498c.354-.645.53-1.384.53-2.217 0-.85-.18-1.596-.542-2.24a3.835 3.835 0 0 0-1.474-1.51c-.629-.362-1.348-.547-2.158-.555-.708 0-1.396.146-2.064.437-.66.29-1.175.688-1.545 1.19l-4.54-.813L8.453 9.847h14.765v4.175H12.663l-.625 6.05h.141c.425-.598 1.066-1.093 1.923-1.486s1.816-.59 2.877-.59c1.455 0 2.752.342 3.892 1.026a7.388 7.388 0 0 1 2.7 2.819c.661 1.187.987 2.555.98 4.104.008 1.628-.37 3.074-1.132 4.34-.755 1.258-1.813 2.249-3.173 2.972-1.352.715-2.925 1.073-4.717 1.073ZM155.97 211.67c1.667 0 3.153.306 4.458.92 1.298.613 2.327 1.458 3.09 2.535.763 1.077 1.16 2.312 1.191 3.703h-4.953c-.055-.935-.448-1.694-1.179-2.276-.732-.582-1.6-.872-2.607-.872-.802 0-1.509.176-2.122.53a3.795 3.795 0 0 0-1.451 1.498c-.354.645-.531 1.384-.531 2.217 0 .849.181 1.596.543 2.241a3.827 3.827 0 0 0 1.474 1.509c.629.362 1.348.547 2.158.555.708 0 1.396-.146 2.064-.437.66-.29 1.175-.688 1.545-1.191l4.54.814-1.144 12.737h-14.765v-4.175h10.555l.625-6.05h-.141c-.425.598-1.066 1.093-1.923 1.486s-1.816.59-2.877.59c-1.455 0-2.752-.342-3.892-1.026a7.395 7.395 0 0 1-2.701-2.819c-.66-1.187-.986-2.555-.979-4.104-.007-1.628.37-3.074 1.133-4.34.754-1.258 1.812-2.249 3.172-2.972 1.352-.715 2.925-1.073 4.717-1.073ZM15.645 52.137h7.677c-.874-.04-1.618-.605-2.32-1.073-1.58-1.19-3.058-2.556-4.225-4.153-.545-.804-1.118-1.708-1.132-2.711m7.677 7.937c-1.11.035-2.057.74-2.903 1.392-1.494 1.255-2.788 2.747-3.88 4.362-.4.67-.872 1.378-.894 2.183v-7.937m0 7.937c-.038-1.182-.758-2.205-1.437-3.12a20.885 20.885 0 0 0-4.227-3.96c-.614-.383-1.265-.839-2.013-.857h7.677m-7.677 0c1.11-.035 2.057-.741 2.903-1.392 1.494-1.255 2.788-2.748 3.88-4.363.4-.669.872-1.378.894-2.182v7.937m140.223 140.784h-7.678c.875.039 1.619.605 2.322 1.073 1.578 1.191 3.056 2.556 4.224 4.153.545.804 1.117 1.708 1.132 2.711m-7.678-7.937c1.11-.035 2.058-.741 2.903-1.392 1.495-1.255 2.788-2.747 3.88-4.362.401-.669.873-1.378.895-2.183v7.937m0-7.937c.038 1.182.757 2.206 1.437 3.119a20.903 20.903 0 0 0 4.226 3.962c.614.383 1.266.838 2.014.856h-7.677m7.677 0c-1.11.035-2.058.741-2.903 1.392-1.495 1.255-2.788 2.748-3.88 4.363-.401.669-.872 1.378-.894 2.182v-7.937M45.842 38.75h18.425c-2.098-.094-3.884-1.452-5.57-2.575-3.789-2.857-7.337-6.135-10.14-9.968-1.307-1.93-2.68-4.098-2.715-6.507m18.425 19.05c-2.663.083-4.937 1.778-6.967 3.341-3.587 3.011-6.691 6.593-9.31 10.47-.963 1.605-2.095 3.306-2.148 5.237V38.75m0 19.05c-.091-2.837-1.819-5.293-3.45-7.486-2.908-3.623-6.353-6.828-10.143-9.508-1.474-.919-3.038-2.011-4.832-2.056h18.425m-18.425 0c2.663-.084 4.937-1.778 6.967-3.34 3.587-3.013 6.69-6.595 9.31-10.471.963-1.605 2.094-3.306 2.148-5.238v19.05m0 163.41H27.417c2.098.093 3.884 1.451 5.57 2.573 3.789 2.858 7.337 6.135 10.14 9.969 1.307 1.929 2.68 4.098 2.715 6.507m-18.425-19.049c2.663-.084 4.937-1.779 6.967-3.342 3.587-3.011 6.691-6.593 9.31-10.47.963-1.605 2.095-3.306 2.148-5.237v19.049m0-19.049c.091 2.836 1.819 5.292 3.45 7.485 2.908 3.623 6.353 6.828 10.143 9.508 1.473.919 3.038 2.011 4.832 2.056H45.842m18.425 0c-2.663.084-4.937 1.777-6.967 3.339-3.586 3.014-6.69 6.595-9.31 10.472-.963 1.605-2.094 3.306-2.148 5.238v-19.049M125.67 38.75h18.425c-2.098-.094-3.884-1.452-5.571-2.575-3.788-2.857-7.336-6.135-10.138-9.968-1.308-1.93-2.681-4.098-2.716-6.507m18.425 19.05c-2.663.083-4.937 1.778-6.967 3.341-3.586 3.011-6.691 6.593-9.311 10.47-.962 1.605-2.094 3.306-2.147 5.237V38.75m0 19.05c-.091-2.837-1.818-5.293-3.45-7.486-2.908-3.623-6.353-6.828-10.143-9.508-1.473-.919-3.038-2.011-4.832-2.056h18.425m-18.425 0c2.663-.084 4.937-1.778 6.967-3.34 3.587-3.013 6.691-6.595 9.311-10.471.962-1.605 2.093-3.306 2.147-5.238v19.05m0 163.41h-18.425c2.099.093 3.884 1.451 5.571 2.573 3.788 2.858 7.336 6.135 10.138 9.969 1.308 1.929 2.682 4.098 2.716 6.507m-18.425-19.049c2.663-.084 4.937-1.779 6.967-3.342 3.587-3.011 6.691-6.593 9.311-10.47.962-1.605 2.094-3.306 2.147-5.237v19.049m0-19.049c.091 2.836 1.819 5.292 3.45 7.485 2.908 3.623 6.353 6.828 10.144 9.508 1.473.919 3.037 2.011 4.831 2.056H125.67m18.425 0c-2.663.084-4.937 1.777-6.967 3.339-3.586 3.014-6.691 6.595-9.311 10.472-.962 1.605-2.093 3.306-2.147 5.238v-19.049m-39.914-86.499h18.425c-2.098-.094-3.884-1.452-5.57-2.574-3.789-2.858-7.337-6.135-10.14-9.969-1.307-1.929-2.68-4.097-2.715-6.506m18.425 19.049c-2.663.084-4.937 1.778-6.967 3.342-3.587 3.011-6.691 6.592-9.31 10.469-.963 1.605-2.095 3.306-2.148 5.238v-19.049m0 19.049c-.091-2.836-1.819-5.293-3.45-7.486-2.908-3.622-6.353-6.827-10.143-9.507-1.473-.919-3.038-2.012-4.832-2.056h18.425m-18.425 0c2.663-.084 4.937-1.778 6.967-3.34 3.587-3.013 6.691-6.595 9.31-10.472.963-1.605 2.094-3.306 2.148-5.237v19.049"/>
</svg>
