<svg xmlns="http://www.w3.org/2000/svg" width="157" height="227" fill="none" viewBox="0 0 157 227">
  <path fill="#fff" stroke="#000" stroke-width="2.499" d="M1.624 218.453c0 3.482 2.85 6.328 6.338 6.328h141.009c3.478 0 6.329-2.846 6.329-6.328V8.061c0-3.482-2.851-6.329-6.329-6.329H7.962c-3.487 0-6.338 2.847-6.338 6.329v210.392Z"/>
  <path fill="#E6180A" d="M15.863 34.016c-1.667 0-3.153-.306-4.458-.92-1.297-.613-2.327-1.458-3.09-2.535-.762-1.077-1.16-2.312-1.19-3.703h4.953c.055.935.448 1.694 1.179 2.276.731.582 1.6.872 2.606.872.802 0 1.51-.176 2.123-.53a3.798 3.798 0 0 0 1.45-1.498c.354-.645.531-1.384.531-2.217 0-.85-.18-1.596-.542-2.24a3.834 3.834 0 0 0-1.474-1.51c-.63-.362-1.349-.547-2.159-.555a5.12 5.12 0 0 0-2.063.437c-.66.29-1.176.688-1.545 1.19l-4.54-.813L8.786 9.533h14.765v4.175H12.997l-.625 6.05h.142c.424-.598 1.065-1.093 1.922-1.486s1.816-.59 2.878-.59c1.454 0 2.752.342 3.892 1.026a7.39 7.39 0 0 1 2.7 2.819c.66 1.187.987 2.555.98 4.104.007 1.628-.37 3.074-1.133 4.34-.755 1.258-1.812 2.249-3.172 2.972-1.353.715-2.925 1.073-4.718 1.073Zm127.03 158.343c1.666 0 3.152.306 4.458.92 1.297.613 2.327 1.458 3.089 2.535.763 1.077 1.16 2.312 1.192 3.703h-4.954c-.055-.935-.448-1.694-1.179-2.276-.731-.582-1.6-.872-2.606-.872-.802 0-1.51.176-2.123.53a3.801 3.801 0 0 0-1.451 1.498c-.354.645-.53 1.384-.53 2.217 0 .849.18 1.596.542 2.241a3.827 3.827 0 0 0 1.474 1.509c.629.362 1.349.547 2.158.555.708 0 1.396-.146 2.064-.437.661-.291 1.176-.688 1.545-1.191l4.541.814-1.144 12.737h-14.766v-4.175h10.555l.626-6.05h-.142c-.425.598-1.065 1.093-1.922 1.486s-1.816.59-2.878.59c-1.454 0-2.752-.342-3.892-1.026a7.385 7.385 0 0 1-2.7-2.819c-.661-1.187-.987-2.555-.979-4.104-.008-1.628.369-3.074 1.132-4.34.755-1.258 1.812-2.249 3.172-2.972 1.353-.716 2.925-1.073 4.718-1.073ZM21.293 44.31c-.01 4.338-5.452 7.498-7.048 10.934-1.615-3.427-7.067-6.559-7.104-10.897-.01-2.045 1.577-3.713 3.524-3.713 1.956 0 3.552 1.65 3.552 3.694 0-2.054 1.577-3.712 3.524-3.712 1.956-.01 3.543 1.649 3.552 3.694Zm115.261 136.974c.009-4.339 5.452-7.498 7.048-10.934 1.615 3.427 7.067 6.558 7.104 10.897.009 2.045-1.578 3.712-3.524 3.712-1.956 0-3.552-1.648-3.552-3.693 0 2.054-1.578 3.712-3.524 3.712-1.956.009-3.543-1.649-3.552-3.694ZM59.069 26.905c-.022 10.413-13.086 17.996-16.916 26.242-3.875-8.224-16.96-15.74-17.05-26.153-.021-4.908 3.787-8.91 8.459-8.91 4.694 0 8.524 3.958 8.524 8.866 0-4.93 3.787-8.91 8.458-8.91 4.694-.022 8.503 3.957 8.525 8.865ZM25.104 194.867c.022-10.413 13.085-17.996 16.916-26.242 3.874 8.224 16.96 15.741 17.049 26.153.022 4.908-3.787 8.91-8.459 8.91-4.694 0-8.524-3.957-8.524-8.865 0 4.93-3.786 8.909-8.458 8.909-4.694.022-8.502-3.957-8.524-8.865ZM132.743 26.905c-.022 10.413-13.086 17.996-16.916 26.242-3.875-8.224-16.96-15.74-17.05-26.153-.022-4.908 3.787-8.91 8.459-8.91 4.694 0 8.524 3.958 8.524 8.866 0-4.93 3.786-8.91 8.458-8.91 4.694-.022 8.503 3.957 8.525 8.865ZM98.777 194.867c.022-10.413 13.086-17.996 16.916-26.242 3.875 8.224 16.961 15.741 17.049 26.153.023 4.908-3.786 8.91-8.458 8.91-4.694 0-8.524-3.957-8.524-8.865 0 4.93-3.786 8.909-8.458 8.909-4.694.022-8.503-3.957-8.525-8.865ZM95.906 97.78c-.022 10.413-13.086 17.996-16.916 26.242-3.875-8.224-16.96-15.74-17.05-26.153-.021-4.908 3.787-8.91 8.459-8.91 4.694 0 8.524 3.958 8.524 8.866 0-4.93 3.786-8.91 8.458-8.91 4.694-.022 8.503 3.958 8.525 8.865Z"/>
</svg>
