<svg xmlns="http://www.w3.org/2000/svg" width="158" height="226" fill="none" viewBox="0 0 158 226">
  <path fill="#fff" stroke="#000" stroke-width="2.499" d="M2.15 218.071c0 3.482 2.851 6.329 6.338 6.329h141.01c3.478 0 6.328-2.847 6.328-6.329V7.679c0-3.482-2.85-6.328-6.328-6.328H8.488c-3.487 0-6.338 2.846-6.338 6.328v210.392Z"/>
  <path fill="#000" d="M16.39 35.435c-1.667 0-3.153-.307-4.458-.92-1.298-.613-2.328-1.458-3.09-2.535-.763-1.078-1.16-2.312-1.191-3.704h4.953c.055.936.448 1.695 1.18 2.277.73.581 1.6.872 2.606.872.802 0 1.51-.177 2.122-.53a3.796 3.796 0 0 0 1.45-1.498c.355-.645.532-1.384.532-2.217 0-.85-.181-1.596-.543-2.241a3.834 3.834 0 0 0-1.474-1.51c-.629-.361-1.348-.546-2.158-.554-.708 0-1.396.145-2.064.436-.66.291-1.176.688-1.545 1.192l-4.54-.814 1.143-12.737H24.08v4.175H13.524l-.625 6.05h.141c.425-.598 1.066-1.093 1.923-1.486s1.816-.59 2.877-.59c1.455 0 2.752.342 3.892 1.026a7.388 7.388 0 0 1 2.7 2.819c.661 1.187.987 2.555.98 4.104.007 1.627-.37 3.074-1.133 4.34-.755 1.258-1.812 2.248-3.172 2.972-1.352.715-2.925 1.073-4.717 1.073Zm126.107 156.499c1.667 0 3.152.307 4.458.92 1.297.614 2.327 1.459 3.089 2.536.763 1.077 1.16 2.311 1.192 3.703h-4.954c-.055-.936-.448-1.694-1.179-2.276-.731-.582-1.6-.873-2.606-.873-.802 0-1.51.177-2.123.531a3.801 3.801 0 0 0-1.451 1.498c-.354.644-.53 1.383-.53 2.217 0 .849.18 1.596.542 2.241a3.84 3.84 0 0 0 1.474 1.509c.629.362 1.349.547 2.158.554.708 0 1.396-.145 2.064-.436.661-.291 1.176-.688 1.545-1.191l4.541.814-1.144 12.737h-14.766v-4.175h10.555l.626-6.05h-.142c-.425.597-1.065 1.093-1.922 1.486s-1.816.589-2.878.589c-1.454 0-2.752-.342-3.892-1.026a7.383 7.383 0 0 1-2.7-2.818c-.661-1.188-.987-2.556-.979-4.104-.008-1.628.369-3.075 1.132-4.34.755-1.258 1.812-2.249 3.172-2.972 1.353-.716 2.925-1.074 4.718-1.074ZM11.127 54.855c1.54 0 2.353-1.64 2.777-3.28.424-1.64.461-3.28.461-3.28l.784-.008s.148 6.568 3.23 6.568h-7.252Z"/>
  <path fill="#000" d="M8.516 48.287c.01-3.197 4.816-5.518 6.227-8.042 1.412 2.533 6.219 4.854 6.228 8.042 0 1.51-1.393 2.736-3.119 2.736-1.715 0-3.109-1.226-3.109-2.736 0 1.51-1.393 2.736-3.118 2.736-1.725 0-3.109-1.226-3.109-2.736Zm139.256 121.691c-1.54 0-2.352 1.639-2.777 3.279-.424 1.64-.461 3.279-.461 3.279l-.784.01s-.148-6.568-3.229-6.568h7.251Z"/>
  <path fill="#000" d="M150.383 176.546c-.009 3.196-4.816 5.517-6.227 8.041-1.412-2.533-6.219-4.854-6.228-8.041 0-1.511 1.393-2.736 3.118-2.736 1.716 0 3.11 1.225 3.11 2.736 0-1.511 1.393-2.736 3.118-2.736 1.725 0 3.109 1.225 3.109 2.736ZM33.933 52.744c3.697 0 5.646-3.935 6.664-7.87 1.019-3.936 1.107-7.871 1.107-7.871l1.882-.022s.355 15.763 7.75 15.763H33.933Z"/>
  <path fill="#000" d="M27.667 36.981c.022-7.671 11.558-13.243 14.946-19.3C46 23.76 57.536 29.33 57.558 36.98c0 3.626-3.343 6.566-7.484 6.566-4.118 0-7.461-2.94-7.461-6.566 0 3.626-3.344 6.566-7.484 6.566-4.14 0-7.462-2.94-7.462-6.566Zm23.625 131.285c-3.698 0-5.646 3.935-6.665 7.87-1.018 3.935-1.107 7.87-1.107 7.87l-1.882.022s-.354-15.762-7.75-15.762h17.404Z"/>
  <path fill="#000" d="M57.558 184.028c-.022 7.672-11.558 13.243-14.946 19.3-3.387-6.079-14.923-11.65-14.945-19.3 0-3.625 3.343-6.566 7.484-6.566 4.118 0 7.461 2.941 7.461 6.566 0-3.625 3.344-6.566 7.484-6.566 4.14 0 7.462 2.941 7.462 6.566Zm50.049-131.284c3.697 0 5.646-3.935 6.664-7.87 1.019-3.936 1.107-7.871 1.107-7.871l1.882-.022s.355 15.763 7.75 15.763h-17.403Z"/>
  <path fill="#000" d="M101.341 36.981c.022-7.671 11.558-13.243 14.945-19.3 3.388 6.08 14.924 11.65 14.946 19.3 0 3.626-3.343 6.566-7.484 6.566-4.118 0-7.462-2.94-7.462-6.566 0 3.626-3.343 6.566-7.483 6.566-4.141 0-7.462-2.94-7.462-6.566Zm23.625 131.285c-3.698 0-5.646 3.935-6.665 7.87-1.018 3.935-1.107 7.87-1.107 7.87l-1.882.022s-.354-15.762-7.75-15.762h17.404Z"/>
  <path fill="#000" d="M131.232 184.028c-.022 7.672-11.558 13.243-14.946 19.3-3.387-6.079-14.923-11.65-14.945-19.3 0-3.625 3.343-6.566 7.484-6.566 4.118 0 7.461 2.941 7.461 6.566 0-3.625 3.344-6.566 7.484-6.566 4.141 0 7.462 2.941 7.462 6.566ZM70.77 123.619c3.698 0 5.646-3.935 6.665-7.87 1.018-3.936 1.107-7.871 1.107-7.871l1.882-.022s.354 15.763 7.75 15.763H70.77Z"/>
  <path fill="#000" d="M64.504 107.856c.022-7.671 11.558-13.242 14.945-19.3 3.388 6.08 14.924 11.651 14.946 19.3 0 3.626-3.343 6.566-7.484 6.566-4.118 0-7.462-2.94-7.462-6.566 0 3.626-3.343 6.566-7.483 6.566s-7.462-2.94-7.462-6.566Z"/>
</svg>
