<svg xmlns="http://www.w3.org/2000/svg" width="170" height="246" fill="none" viewBox="0 0 170 246">
  <path fill="#fff" stroke="#000" stroke-width="2.499" d="M2 236.495c0 3.778 3.089 6.867 6.867 6.867h152.789c3.768 0 6.857-3.089 6.857-6.867V8.18c0-3.779-3.089-6.868-6.857-6.868H8.867C5.09 1.312 2 4.401 2 8.18v228.315Z"/>
  <path fill="#000" d="M15.227 33.33a10.917 10.917 0 0 1-3.597-.625c-1.148-.409-2.178-1.073-3.09-1.993-.912-.92-1.635-2.139-2.17-3.656-.526-1.517-.79-3.38-.79-5.59.008-2.028.24-3.84.696-5.437.464-1.604 1.124-2.964 1.981-4.08.865-1.117 1.9-1.966 3.102-2.548 1.203-.59 2.551-.884 4.045-.884 1.612 0 3.035.314 4.27.943 1.234.621 2.224 1.467 2.971 2.536a7.707 7.707 0 0 1 1.368 3.597h-5.035c-.197-.841-.61-1.502-1.239-1.981-.629-.48-1.407-.72-2.335-.72-1.572 0-2.767.684-3.585 2.052-.81 1.368-1.223 3.228-1.238 5.579h.165a5.614 5.614 0 0 1 1.462-1.828 6.672 6.672 0 0 1 2.111-1.168 7.62 7.62 0 0 1 2.512-.413c1.431 0 2.705.338 3.821 1.014a7.192 7.192 0 0 1 2.642 2.76c.645 1.172.967 2.512.967 4.022 0 1.635-.381 3.09-1.144 4.363-.755 1.274-1.812 2.273-3.172 2.996-1.353.715-2.925 1.07-4.718 1.061Zm-.023-4.01c.786 0 1.49-.188 2.11-.566a4.03 4.03 0 0 0 1.463-1.533c.354-.645.53-1.368.53-2.17 0-.802-.176-1.521-.53-2.158a3.994 3.994 0 0 0-1.439-1.521c-.613-.378-1.313-.566-2.099-.566-.59 0-1.136.11-1.64.33-.495.22-.93.527-1.308.92-.37.393-.66.849-.873 1.368a4.23 4.23 0 0 0-.318 1.639c0 .778.177 1.49.53 2.135.362.644.85 1.16 1.463 1.545.62.385 1.325.578 2.11.578Zm140.569 184.35c1.242.008 2.441.216 3.597.625 1.148.409 2.178 1.073 3.09 1.993.912.92 1.635 2.138 2.17 3.656.526 1.517.79 3.381.79 5.59-.008 2.028-.24 3.841-.696 5.437-.464 1.604-1.124 2.964-1.981 4.08-.865 1.117-1.899 1.966-3.102 2.548-1.203.589-2.551.884-4.045.884-1.612 0-3.035-.314-4.269-.943-1.235-.621-2.225-1.467-2.972-2.536a7.7 7.7 0 0 1-1.368-3.597h5.035c.197.841.61 1.502 1.239 1.981.629.48 1.407.72 2.335.72 1.572 0 2.767-.684 3.585-2.052.81-1.368 1.223-3.228 1.238-5.579h-.165a5.599 5.599 0 0 1-1.462 1.828 6.668 6.668 0 0 1-2.111 1.168 7.624 7.624 0 0 1-2.512.413c-1.431 0-2.705-.338-3.821-1.015a7.19 7.19 0 0 1-2.642-2.759c-.645-1.172-.967-2.512-.967-4.022 0-1.635.381-3.09 1.144-4.363.755-1.274 1.812-2.272 3.172-2.996 1.353-.715 2.925-1.069 4.718-1.061Zm.023 4.01c-.786 0-1.49.188-2.111.566a4.026 4.026 0 0 0-1.462 1.533c-.354.644-.531 1.368-.531 2.17 0 .802.177 1.521.531 2.158a3.984 3.984 0 0 0 1.439 1.521c.613.378 1.313.566 2.099.566.59 0 1.136-.11 1.639-.33.495-.22.932-.527 1.309-.92.37-.393.661-.849.873-1.368a4.233 4.233 0 0 0 .318-1.639c0-.778-.177-1.49-.53-2.135a4.255 4.255 0 0 0-1.463-1.545c-.621-.385-1.325-.577-2.111-.577ZM12.296 46.788c0 1.81 1.51 3.279 3.379 3.279 1.87 0 3.379-1.47 3.379-3.279 0-1.81-1.51-3.278-3.379-3.278-1.87 0-3.379 1.469-3.379 3.278Zm-4.358 6.208c0 1.81 1.51 3.279 3.379 3.279s3.378-1.47 3.378-3.28c0-1.808-1.51-3.278-3.378-3.278-1.87 0-3.38 1.47-3.38 3.279Zm8.657.02c0 .66.2 1.28.55 1.8a3.411 3.411 0 0 0 2.828 1.479c1.87 0 3.38-1.47 3.38-3.28 0-1.808-1.51-3.278-3.38-3.278-1.869 0-3.378 1.47-3.378 3.279Zm-4.889 6.367c1.67 0 2.55-1.359 3.009-2.718.46-1.36.5-2.72.5-2.72h.86s.16 5.428 3.498 5.438h-7.867Z"/>
  <path fill="#000" d="M17.964 49.197c-1.9 1.9-1.9 4.749-1.9 4.749l-.85.01s0-2.91-1.848-4.759"/>
  <path fill="#000" d="M17.584 55.295c-1.9-1.9-4.748-1.9-4.748-1.9v-.849s2.909 0 4.758-1.85"/>
  <path fill="#000" d="M13.776 55.305c1.899-1.9 4.748-1.9 4.748-1.9v-.849s-2.909 0-4.758-1.85m145.45 146.183c0-1.809-1.509-3.278-3.378-3.278-1.87 0-3.379 1.469-3.379 3.278 0 1.81 1.509 3.279 3.379 3.279 1.869 0 3.378-1.469 3.378-3.279Zm4.359-6.207c0-1.809-1.51-3.279-3.379-3.279s-3.379 1.47-3.379 3.279 1.51 3.279 3.379 3.279 3.379-1.47 3.379-3.279Zm-8.657-.02c0-.66-.2-1.28-.55-1.799a3.409 3.409 0 0 0-2.829-1.48c-1.869 0-3.378 1.47-3.378 3.279s1.509 3.279 3.378 3.279c1.87 0 3.379-1.47 3.379-3.279Zm4.889-6.368c-1.67 0-2.55 1.36-3.009 2.719a10.56 10.56 0 0 0-.5 2.719h-.86s-.16-5.428-3.499-5.438h7.868Z"/>
  <path fill="#000" d="M153.549 194.48c1.899-1.899 1.899-4.748 1.899-4.748l.85-.01s0 2.909 1.849 4.758"/>
  <path fill="#000" d="M153.928 188.383c1.9 1.899 4.749 1.899 4.749 1.899v.85s-2.909 0-4.759 1.849"/>
  <path fill="#000" d="M157.737 188.373c-1.899 1.899-4.748 1.899-4.748 1.899v.85s2.909 0 4.758 1.849M37.806 26.879c0 4.342 3.622 7.869 8.108 7.869 4.487 0 8.11-3.527 8.11-7.87 0-4.342-3.623-7.868-8.11-7.868-4.486 0-8.108 3.526-8.108 7.869ZM27.345 41.777c0 4.343 3.623 7.87 8.109 7.87s8.109-3.527 8.109-7.87c0-4.342-3.623-7.869-8.109-7.869s-8.109 3.527-8.109 7.87Zm20.776.048a7.71 7.71 0 0 0 1.32 4.319c1.44 2.135 3.958 3.55 6.79 3.55 4.486 0 8.108-3.527 8.108-7.869s-3.622-7.869-8.109-7.869c-4.486 0-8.109 3.527-8.109 7.87ZM36.39 57.107c4.007 0 6.118-3.262 7.221-6.525 1.104-3.263 1.2-6.526 1.2-6.526h2.063s.384 13.027 8.397 13.051H36.39Z"/>
  <path fill="#000" d="M51.408 32.66c-4.558 4.56-4.558 11.397-4.558 11.397l-2.04.024s0-6.981-4.438-11.42"/>
  <path fill="#000" d="M50.496 47.295c-4.558-4.558-11.395-4.558-11.395-4.558v-2.04s6.981 0 11.42-4.438"/>
  <path fill="#000" d="M41.356 47.32c4.558-4.56 11.395-4.56 11.395-4.56v-2.038s-6.98 0-11.42-4.439m-3.525 67.508c0 4.343 3.622 7.869 8.108 7.869 4.487 0 8.11-3.526 8.11-7.869 0-4.342-3.623-7.869-8.11-7.869-4.486 0-8.108 3.527-8.108 7.869ZM27.345 118.69c0 4.342 3.623 7.869 8.109 7.869s8.109-3.527 8.109-7.869-3.623-7.869-8.109-7.869-8.109 3.527-8.109 7.869Zm20.776.048c0 1.583.48 3.071 1.32 4.318 1.44 2.135 3.958 3.551 6.79 3.551 4.486 0 8.108-3.527 8.108-7.869 0-4.343-3.622-7.869-8.109-7.869-4.486 0-8.109 3.526-8.109 7.869ZM36.39 134.02c4.007 0 6.118-3.263 7.221-6.525 1.104-3.263 1.2-6.526 1.2-6.526h2.063s.384 13.027 8.397 13.051H36.39Z"/>
  <path fill="#000" d="M51.408 109.573c-4.558 4.559-4.558 11.396-4.558 11.396l-2.04.024s0-6.981-4.438-11.42"/>
  <path fill="#000" d="M50.496 124.208c-4.558-4.559-11.395-4.559-11.395-4.559v-2.039s6.981 0 11.42-4.438"/>
  <path fill="#000" d="M41.356 124.232c4.558-4.558 11.395-4.558 11.395-4.558v-2.04s-6.98 0-11.42-4.438M53.88 212.65c0-4.342-3.623-7.869-8.11-7.869-4.486 0-8.108 3.527-8.108 7.869s3.622 7.869 8.109 7.869c4.486 0 8.109-3.527 8.109-7.869Zm10.46-14.898c0-4.343-3.623-7.87-8.11-7.87-4.486 0-8.108 3.527-8.108 7.87 0 4.342 3.622 7.869 8.109 7.869 4.486 0 8.109-3.527 8.109-7.869Zm-20.777-.048a7.71 7.71 0 0 0-1.32-4.319c-1.439-2.135-3.958-3.551-6.789-3.551-4.486 0-8.109 3.527-8.109 7.87 0 4.342 3.623 7.869 8.11 7.869 4.486 0 8.108-3.527 8.108-7.869Zm11.732-15.283c-4.007 0-6.118 3.263-7.221 6.526-1.104 3.263-1.2 6.525-1.2 6.525h-2.063s-.384-13.027-8.397-13.051h18.881Z"/>
  <path fill="#000" d="M40.276 206.868c4.559-4.558 4.559-11.396 4.559-11.396l2.039-.024s0 6.982 4.438 11.42"/>
  <path fill="#000" d="M41.188 192.234c4.558 4.558 11.396 4.558 11.396 4.558v2.039s-6.982 0-11.42 4.439"/>
  <path fill="#000" d="M50.329 192.21c-4.558 4.558-11.396 4.558-11.396 4.558v2.039s6.981 0 11.42 4.438m67.28-176.366c0 4.342 3.623 7.869 8.109 7.869s8.109-3.527 8.109-7.87c0-4.342-3.623-7.868-8.109-7.868s-8.109 3.526-8.109 7.869Zm-10.46 14.898c0 4.343 3.623 7.87 8.109 7.87s8.109-3.527 8.109-7.87c0-4.342-3.623-7.869-8.109-7.869s-8.109 3.527-8.109 7.87Zm20.777.048c0 1.584.479 3.071 1.319 4.319 1.439 2.135 3.959 3.55 6.789 3.55 4.487 0 8.109-3.527 8.109-7.869s-3.622-7.869-8.109-7.869c-4.486 0-8.108 3.527-8.108 7.87Zm-11.732 15.282c4.006 0 6.117-3.262 7.221-6.525 1.104-3.263 1.2-6.526 1.2-6.526h2.063s.384 13.027 8.397 13.051h-18.881Z"/>
  <path fill="#000" d="M131.236 32.66c-4.558 4.559-4.558 11.396-4.558 11.396l-2.039.024s0-6.981-4.439-11.42"/>
  <path fill="#000" d="M130.325 47.295c-4.559-4.558-11.396-4.558-11.396-4.558v-2.04s6.981 0 11.42-4.438"/>
  <path fill="#000" d="M121.184 47.32c4.558-4.56 11.396-4.56 11.396-4.56v-2.038s-6.982 0-11.42-4.439m-3.527 67.508c0 4.343 3.623 7.869 8.109 7.869s8.109-3.526 8.109-7.869c0-4.342-3.623-7.869-8.109-7.869s-8.109 3.527-8.109 7.869Zm-10.46 14.899c0 4.342 3.623 7.869 8.109 7.869s8.109-3.527 8.109-7.869-3.623-7.869-8.109-7.869-8.109 3.527-8.109 7.869Zm20.777.048c0 1.583.479 3.071 1.319 4.318 1.439 2.135 3.959 3.551 6.789 3.551 4.487 0 8.109-3.527 8.109-7.869 0-4.343-3.622-7.869-8.109-7.869-4.486 0-8.108 3.526-8.108 7.869Zm-11.732 15.282c4.006 0 6.117-3.263 7.221-6.525 1.104-3.263 1.2-6.526 1.2-6.526h2.063s.384 13.027 8.397 13.051h-18.881Z"/>
  <path fill="#000" d="M131.236 109.573c-4.558 4.559-4.558 11.396-4.558 11.396l-2.039.024s0-6.981-4.439-11.42"/>
  <path fill="#000" d="M130.325 124.208c-4.559-4.559-11.396-4.559-11.396-4.559v-2.039s6.981 0 11.42-4.438"/>
  <path fill="#000" d="M121.184 124.232c4.558-4.558 11.396-4.558 11.396-4.558v-2.04s-6.982 0-11.42-4.438m12.547 99.454c0-4.342-3.623-7.869-8.109-7.869-4.487 0-8.109 3.527-8.109 7.869s3.622 7.869 8.109 7.869c4.486 0 8.109-3.527 8.109-7.869Zm10.46-14.898c0-4.343-3.622-7.87-8.109-7.87-4.486 0-8.109 3.527-8.109 7.87 0 4.342 3.623 7.869 8.109 7.869 4.487 0 8.109-3.527 8.109-7.869Zm-20.776-.048a7.71 7.71 0 0 0-1.32-4.319c-1.439-2.135-3.958-3.551-6.789-3.551-4.486 0-8.109 3.527-8.109 7.87 0 4.342 3.623 7.869 8.109 7.869s8.109-3.527 8.109-7.869Zm11.731-15.283c-4.006 0-6.118 3.263-7.221 6.526-1.104 3.263-1.2 6.525-1.2 6.525h-2.063s-.384-13.027-8.397-13.051h18.881Z"/>
  <path fill="#000" d="M120.104 206.868c4.558-4.558 4.558-11.396 4.558-11.396l2.04-.024s0 6.982 4.438 11.42"/>
  <path fill="#000" d="M121.016 192.234c4.558 4.558 11.395 4.558 11.395 4.558v2.039s-6.981 0-11.419 4.439"/>
  <path fill="#000" d="M130.157 192.21c-4.559 4.558-11.396 4.558-11.396 4.558v2.039s6.981 0 11.419 4.438"/>
</svg>
