<svg xmlns="http://www.w3.org/2000/svg" width="170" height="246" fill="none" viewBox="0 0 170 246">
  <path fill="#fff" stroke="#000" stroke-width="2.499" d="M2 237.183c0 3.778 3.089 6.867 6.867 6.867h152.789c3.768 0 6.857-3.089 6.857-6.867V8.867c0-3.778-3.089-6.867-6.857-6.867H8.867C5.09 2 2 5.089 2 8.867v228.316Z"/>
  <path fill="#E6180A" d="M16.464 37.328a10.916 10.916 0 0 1-3.597-.625c-1.148-.41-2.178-1.074-3.09-1.993-.912-.92-1.635-2.139-2.17-3.656-.526-1.518-.79-3.381-.79-5.59.008-2.029.24-3.841.696-5.437.464-1.604 1.124-2.964 1.981-4.08.865-1.117 1.899-1.966 3.102-2.548 1.203-.59 2.551-.885 4.045-.885 1.612 0 3.035.315 4.27.944 1.234.621 2.224 1.466 2.971 2.535a7.707 7.707 0 0 1 1.368 3.597h-5.035c-.197-.84-.61-1.501-1.239-1.98-.629-.48-1.407-.72-2.335-.72-1.572 0-2.767.684-3.585 2.052-.81 1.368-1.223 3.227-1.238 5.578h.165a5.615 5.615 0 0 1 1.462-1.828 6.672 6.672 0 0 1 2.111-1.167 7.616 7.616 0 0 1 2.512-.413c1.431 0 2.705.338 3.821 1.014a7.191 7.191 0 0 1 2.642 2.76c.645 1.171.967 2.512.967 4.021 0 1.636-.381 3.09-1.144 4.364-.755 1.273-1.812 2.272-3.172 2.995-1.353.716-2.925 1.07-4.718 1.062Zm-.023-4.01c.786 0 1.49-.189 2.11-.566a4.03 4.03 0 0 0 1.463-1.533c.354-.645.53-1.368.53-2.17 0-.802-.176-1.522-.53-2.158a3.994 3.994 0 0 0-1.439-1.522c-.613-.377-1.313-.566-2.1-.566-.589 0-1.135.11-1.638.33-.496.22-.932.527-1.31.92-.369.393-.66.85-.872 1.368a4.23 4.23 0 0 0-.319 1.64c0 .778.177 1.49.531 2.134.362.645.85 1.16 1.462 1.545.622.385 1.325.578 2.112.578Zm138.568 178.349c1.243.008 2.442.217 3.597.625 1.148.409 2.178 1.074 3.09 1.993.912.92 1.636 2.139 2.17 3.656.527 1.518.79 3.381.79 5.591-.007 2.028-.239 3.84-.695 5.436-.464 1.604-1.125 2.964-1.982 4.081-.864 1.116-1.898 1.965-3.101 2.547-1.203.59-2.552.885-4.045.885-1.612 0-3.035-.315-4.27-.944-1.234-.621-2.225-1.466-2.972-2.535a7.73 7.73 0 0 1-1.368-3.597h5.036c.197.841.61 1.501 1.238 1.981.629.48 1.408.719 2.336.719 1.572 0 2.767-.684 3.585-2.052.81-1.368 1.222-3.227 1.238-5.578h-.165a5.622 5.622 0 0 1-1.462 1.828c-.622.511-1.325.9-2.111 1.168a7.628 7.628 0 0 1-2.512.412c-1.431 0-2.705-.338-3.821-1.014a7.18 7.18 0 0 1-2.642-2.76c-.645-1.171-.967-2.512-.967-4.021 0-1.636.381-3.09 1.144-4.364.754-1.273 1.812-2.272 3.172-2.995 1.352-.716 2.925-1.07 4.717-1.062Zm.024 4.01c-.786 0-1.49.189-2.111.566a4.033 4.033 0 0 0-1.462 1.533c-.354.645-.531 1.368-.531 2.17 0 .802.177 1.522.531 2.159a4.003 4.003 0 0 0 1.438 1.521c.614.377 1.313.566 2.1.566.589 0 1.136-.11 1.639-.33.495-.22.932-.527 1.309-.92.37-.393.66-.849.873-1.368a4.237 4.237 0 0 0 .318-1.639c0-.779-.177-1.49-.531-2.135a4.237 4.237 0 0 0-1.462-1.545c-.621-.385-1.325-.578-2.111-.578ZM15.645 52.135h7.677c-.874-.04-1.618-.605-2.32-1.073-1.58-1.19-3.058-2.556-4.225-4.154-.545-.803-1.118-1.707-1.132-2.71m7.677 7.937c-1.11.035-2.057.74-2.903 1.392-1.494 1.255-2.788 2.747-3.88 4.362-.4.67-.872 1.378-.894 2.182v-7.936m0 7.937c-.038-1.182-.758-2.206-1.437-3.12a20.888 20.888 0 0 0-4.227-3.96c-.614-.384-1.265-.839-2.013-.857h7.677m-7.677 0c1.11-.035 2.057-.741 2.903-1.392 1.494-1.256 2.788-2.748 3.88-4.363.4-.67.872-1.378.894-2.183v7.938m140.223 140.784h-7.678c.875.039 1.619.605 2.322 1.072 1.578 1.191 3.056 2.557 4.224 4.154.545.804 1.117 1.707 1.132 2.711m-7.678-7.937c1.11-.035 2.058-.741 2.903-1.393 1.495-1.254 2.788-2.746 3.88-4.362.401-.669.873-1.377.895-2.182v7.937m0-7.937c.038 1.181.757 2.205 1.437 3.119a20.898 20.898 0 0 0 4.226 3.961c.614.383 1.266.838 2.014.857h-7.677m7.677 0c-1.11.035-2.058.741-2.903 1.391-1.495 1.256-2.788 2.748-3.88 4.364-.401.669-.872 1.377-.894 2.182v-7.937M45.842 38.747h18.426c-2.099-.094-3.885-1.452-5.571-2.574-3.788-2.858-7.337-6.135-10.139-9.969-1.307-1.929-2.681-4.098-2.716-6.506m18.426 19.049c-2.663.084-4.938 1.778-6.967 3.342-3.587 3.01-6.692 6.592-9.311 10.47-.962 1.604-2.095 3.305-2.148 5.237v-19.05m0 19.05c-.09-2.836-1.818-5.293-3.45-7.486-2.907-3.622-6.352-6.827-10.143-9.507-1.473-.92-3.037-2.012-4.832-2.056h18.425m-18.425 0c2.663-.084 4.938-1.778 6.967-3.34 3.587-3.013 6.691-6.595 9.311-10.472.962-1.605 2.093-3.306 2.147-5.237v19.049m0 76.912h18.426c-2.099-.093-3.885-1.451-5.571-2.573-3.788-2.858-7.337-6.135-10.139-9.969-1.307-1.929-2.681-4.098-2.716-6.507m18.426 19.049c-2.663.084-4.938 1.779-6.967 3.342-3.587 3.011-6.692 6.593-9.311 10.47-.962 1.605-2.095 3.306-2.148 5.237v-19.049m0 19.049c-.09-2.835-1.818-5.292-3.45-7.485-2.907-3.623-6.352-6.828-10.143-9.508-1.473-.918-3.037-2.011-4.832-2.056h18.425m-18.425 0c2.663-.084 4.938-1.777 6.967-3.339 3.587-3.013 6.691-6.595 9.311-10.472.962-1.605 2.093-3.306 2.147-5.238v19.049m0 86.5H27.417c2.098.093 3.884 1.451 5.57 2.573 3.789 2.858 7.337 6.135 10.14 9.969 1.307 1.929 2.68 4.098 2.715 6.506m-18.425-19.048c2.663-.084 4.937-1.779 6.967-3.342 3.587-3.011 6.691-6.593 9.31-10.47.963-1.605 2.095-3.306 2.148-5.237v19.049m0-19.049c.091 2.835 1.819 5.292 3.45 7.485 2.908 3.622 6.353 6.828 10.143 9.507 1.473.919 3.038 2.012 4.832 2.057H45.842m18.425 0c-2.663.084-4.937 1.777-6.967 3.339-3.586 3.013-6.69 6.595-9.31 10.472-.963 1.605-2.094 3.306-2.148 5.237v-19.048M125.67 38.747h18.425c-2.098-.094-3.884-1.452-5.571-2.574-3.788-2.858-7.336-6.135-10.138-9.969-1.308-1.929-2.681-4.098-2.716-6.506m18.425 19.049c-2.663.084-4.937 1.778-6.967 3.342-3.586 3.01-6.691 6.592-9.311 10.47-.962 1.604-2.094 3.305-2.147 5.237v-19.05m0 19.05c-.091-2.836-1.818-5.293-3.45-7.486-2.908-3.622-6.353-6.827-10.143-9.507-1.473-.92-3.038-2.012-4.832-2.056h18.425m-18.425 0c2.663-.084 4.937-1.778 6.967-3.34 3.587-3.013 6.691-6.595 9.311-10.472.962-1.605 2.093-3.306 2.147-5.237v19.049m0 76.912h18.425c-2.098-.093-3.884-1.451-5.571-2.573-3.788-2.858-7.336-6.135-10.138-9.969-1.308-1.929-2.681-4.098-2.716-6.507m18.425 19.049c-2.663.084-4.937 1.779-6.967 3.342-3.586 3.011-6.691 6.593-9.311 10.47-.962 1.605-2.094 3.306-2.147 5.237v-19.049m0 19.049c-.091-2.835-1.818-5.292-3.45-7.485-2.908-3.623-6.353-6.828-10.143-9.508-1.473-.918-3.038-2.011-4.832-2.056h18.425m-18.425 0c2.663-.084 4.937-1.777 6.967-3.339 3.587-3.013 6.691-6.595 9.311-10.472.962-1.605 2.093-3.306 2.147-5.238v19.049m0 86.5h-18.425c2.099.093 3.884 1.451 5.571 2.573 3.788 2.858 7.336 6.135 10.138 9.969 1.308 1.929 2.682 4.098 2.716 6.506m-18.425-19.048c2.663-.084 4.937-1.779 6.967-3.342 3.587-3.011 6.691-6.593 9.311-10.47.962-1.605 2.094-3.306 2.147-5.237v19.049m0-19.049c.091 2.835 1.819 5.292 3.45 7.485 2.908 3.622 6.353 6.828 10.144 9.507 1.473.919 3.037 2.012 4.831 2.057H125.67m18.425 0c-2.663.084-4.937 1.777-6.967 3.339-3.586 3.013-6.691 6.595-9.311 10.472-.962 1.605-2.093 3.306-2.147 5.237v-19.048"/>
</svg>
