<svg xmlns="http://www.w3.org/2000/svg" width="157" height="227" fill="none" viewBox="0 0 157 227">
  <path fill="#fff" stroke="#000" stroke-width="2.499" d="M1.668 218.485c0 3.482 2.85 6.329 6.338 6.329h141.009c3.478 0 6.329-2.847 6.329-6.329V8.093c0-3.482-2.851-6.328-6.329-6.328H8.006c-3.487 0-6.338 2.846-6.338 6.328v210.392Z"/>
  <path fill="#E6180A" d="M14.96 35.892a10.916 10.916 0 0 1-3.598-.625c-1.148-.41-2.178-1.074-3.09-1.993-.912-.92-1.635-2.139-2.17-3.656-.526-1.518-.79-3.381-.79-5.59.008-2.029.24-3.841.696-5.437.464-1.604 1.124-2.964 1.981-4.08.865-1.117 1.9-1.966 3.102-2.548 1.203-.59 2.551-.885 4.045-.885 1.612 0 3.035.315 4.27.944 1.234.621 2.224 1.466 2.971 2.535a7.708 7.708 0 0 1 1.368 3.597H18.71c-.197-.84-.61-1.501-1.239-1.98-.629-.48-1.407-.72-2.335-.72-1.572 0-2.767.684-3.585 2.052-.81 1.368-1.223 3.227-1.238 5.578h.165a5.612 5.612 0 0 1 1.462-1.828 6.672 6.672 0 0 1 2.111-1.167 7.617 7.617 0 0 1 2.512-.413c1.431 0 2.705.338 3.821 1.014a7.192 7.192 0 0 1 2.642 2.76c.645 1.171.967 2.512.967 4.021 0 1.636-.381 3.09-1.144 4.364-.755 1.273-1.812 2.272-3.172 2.995-1.353.716-2.925 1.07-4.718 1.062Zm-.024-4.01c.786 0 1.49-.189 2.11-.566a4.03 4.03 0 0 0 1.463-1.533c.354-.645.53-1.368.53-2.17 0-.802-.176-1.522-.53-2.158a3.994 3.994 0 0 0-1.439-1.522c-.613-.377-1.313-.566-2.099-.566-.59 0-1.136.11-1.64.33-.495.22-.93.527-1.308.92-.37.393-.66.85-.873 1.368a4.23 4.23 0 0 0-.318 1.64c0 .778.176 1.49.53 2.134.362.645.85 1.16 1.463 1.545.62.385 1.324.578 2.11.578Zm127.079 160.509a10.91 10.91 0 0 1 3.597.625c1.148.409 2.178 1.073 3.09 1.993.912.92 1.636 2.139 2.17 3.656.527 1.518.79 3.381.79 5.59-.008 2.029-.239 3.841-.695 5.437-.464 1.604-1.125 2.964-1.982 4.081-.865 1.116-1.898 1.965-3.101 2.547-1.203.59-2.552.885-4.046.885-1.611 0-3.034-.315-4.269-.944-1.234-.621-2.225-1.466-2.972-2.535a7.72 7.72 0 0 1-1.368-3.597h5.036c.197.841.609 1.501 1.238 1.981.629.479 1.408.719 2.335.719 1.573 0 2.768-.684 3.586-2.052.809-1.368 1.222-3.227 1.238-5.578h-.165a5.612 5.612 0 0 1-1.463 1.828c-.621.511-1.324.9-2.111 1.167a7.594 7.594 0 0 1-2.512.413c-1.43 0-2.704-.338-3.821-1.014a7.184 7.184 0 0 1-2.641-2.76c-.645-1.171-.967-2.512-.967-4.021 0-1.636.381-3.09 1.144-4.364.754-1.274 1.812-2.272 3.172-2.995 1.352-.716 2.925-1.07 4.717-1.062Zm.024 4.01c-.786 0-1.49.189-2.111.566a4.026 4.026 0 0 0-1.462 1.533c-.354.645-.531 1.368-.531 2.17 0 .802.177 1.522.531 2.158a3.991 3.991 0 0 0 1.438 1.522c.614.377 1.313.566 2.1.566.589 0 1.136-.11 1.639-.33a4.13 4.13 0 0 0 1.309-.92c.369-.393.66-.849.873-1.368a4.238 4.238 0 0 0 .318-1.64 4.36 4.36 0 0 0-.531-2.134 4.237 4.237 0 0 0-1.462-1.545c-.621-.385-1.325-.578-2.111-.578ZM21.337 44.343c-.01 4.338-5.452 7.498-7.048 10.934-1.615-3.427-7.067-6.559-7.104-10.898-.01-2.045 1.577-3.712 3.524-3.712 1.956 0 3.552 1.649 3.552 3.694 0-2.054 1.577-3.712 3.524-3.712 1.956-.01 3.543 1.648 3.552 3.694Zm115.26 136.973c.009-4.338 5.453-7.498 7.049-10.934 1.614 3.427 7.066 6.559 7.103 10.898.01 2.045-1.577 3.712-3.524 3.712-1.956 0-3.552-1.649-3.552-3.694 0 2.054-1.577 3.712-3.524 3.712-1.956.01-3.543-1.649-3.552-3.694ZM59.112 26.938C59.09 37.35 46.027 44.934 42.196 53.18c-3.875-8.224-16.96-15.741-17.049-26.154-.022-4.908 3.786-8.91 8.458-8.91 4.694 0 8.525 3.958 8.525 8.866 0-4.93 3.786-8.91 8.458-8.91 4.694-.022 8.502 3.958 8.524 8.866Zm0 70.875c-.022 10.413-13.085 17.996-16.916 26.242-3.875-8.224-16.96-15.741-17.049-26.154-.022-4.907 3.786-8.909 8.458-8.909 4.694 0 8.525 3.957 8.525 8.865 0-4.93 3.786-8.91 8.458-8.91 4.694-.021 8.502 3.958 8.524 8.866Zm-33.964 97.086c.022-10.412 13.085-17.995 16.916-26.242 3.874 8.225 16.96 15.741 17.048 26.154.023 4.908-3.786 8.909-8.458 8.909-4.694 0-8.524-3.957-8.524-8.865 0 4.93-3.786 8.91-8.458 8.91-4.694.022-8.502-3.958-8.524-8.866ZM132.786 26.938c-.022 10.412-13.085 17.996-16.916 26.242-3.875-8.224-16.96-15.741-17.049-26.154-.022-4.908 3.786-8.91 8.458-8.91 4.694 0 8.525 3.958 8.525 8.866 0-4.93 3.786-8.91 8.458-8.91 4.694-.022 8.502 3.958 8.524 8.866Zm0 70.875c-.022 10.413-13.085 17.996-16.916 26.242-3.875-8.224-16.96-15.741-17.049-26.154-.022-4.907 3.786-8.909 8.458-8.909 4.694 0 8.525 3.957 8.525 8.865 0-4.93 3.786-8.91 8.458-8.91 4.694-.021 8.502 3.958 8.524 8.866Zm-33.965 97.086c.022-10.412 13.086-17.995 16.916-26.242 3.875 8.225 16.961 15.741 17.049 26.154.023 4.908-3.786 8.909-8.458 8.909-4.694 0-8.524-3.957-8.524-8.865 0 4.93-3.786 8.91-8.458 8.91-4.694.022-8.503-3.958-8.525-8.866Z"/>
</svg>
