<svg xmlns="http://www.w3.org/2000/svg" width="157" height="226" fill="none" viewBox="0 0 157 226">
  <path fill="#fff" stroke="#000" stroke-width="2.499" d="M1.652 218.119c0 3.482 2.851 6.329 6.338 6.329H149c3.479 0 6.329-2.847 6.329-6.329V7.727c0-3.482-2.85-6.328-6.329-6.328H7.99c-3.487 0-6.338 2.846-6.338 6.328V218.12Z"/>
  <path fill="#000" d="M14.944 32.718a10.917 10.917 0 0 1-3.597-.625c-1.148-.408-2.178-1.073-3.09-1.993-.912-.92-1.636-2.138-2.17-3.656-.527-1.517-.79-3.38-.79-5.59.007-2.028.24-3.84.695-5.436.464-1.604 1.125-2.964 1.982-4.08.865-1.117 1.898-1.967 3.101-2.548 1.203-.59 2.552-.885 4.046-.885 1.611 0 3.034.315 4.269.944 1.234.62 2.225 1.466 2.972 2.535a7.707 7.707 0 0 1 1.368 3.597h-5.036c-.197-.841-.61-1.502-1.238-1.981-.63-.48-1.408-.72-2.335-.72-1.573 0-2.768.685-3.586 2.053-.81 1.368-1.222 3.227-1.238 5.578h.165a5.614 5.614 0 0 1 1.463-1.828 6.672 6.672 0 0 1 2.11-1.168 7.62 7.62 0 0 1 2.512-.412c1.431 0 2.705.338 3.822 1.014a7.192 7.192 0 0 1 2.641 2.76c.645 1.17.967 2.511.967 4.021 0 1.635-.38 3.09-1.144 4.364-.754 1.273-1.812 2.272-3.172 2.995-1.352.716-2.925 1.07-4.717 1.061Zm-.024-4.01c.786 0 1.49-.188 2.111-.565a4.03 4.03 0 0 0 1.463-1.534c.353-.644.53-1.368.53-2.17 0-.801-.177-1.52-.53-2.158a3.994 3.994 0 0 0-1.44-1.521c-.613-.377-1.312-.566-2.099-.566-.59 0-1.136.11-1.639.33-.495.22-.932.527-1.309.92-.37.393-.66.85-.873 1.368a4.23 4.23 0 0 0-.318 1.64c0 .778.177 1.49.53 2.134.362.645.85 1.16 1.463 1.545.621.385 1.325.578 2.111.578ZM142 189.218c1.242.008 2.441.216 3.597.625 1.148.409 2.178 1.073 3.09 1.993.912.92 1.635 2.139 2.17 3.656.526 1.518.79 3.381.79 5.59-.008 2.029-.24 3.841-.696 5.437-.464 1.604-1.124 2.964-1.981 4.081-.865 1.116-1.899 1.965-3.102 2.547-1.203.59-2.551.884-4.045.884-1.612 0-3.035-.314-4.269-.943-1.235-.621-2.225-1.466-2.972-2.536a7.7 7.7 0 0 1-1.368-3.597h5.035c.197.842.61 1.502 1.239 1.982.629.479 1.407.719 2.335.719 1.572 0 2.767-.684 3.585-2.052.81-1.368 1.223-3.227 1.238-5.578h-.165a5.61 5.61 0 0 1-1.462 1.828c-.621.511-1.325.9-2.111 1.167a7.624 7.624 0 0 1-2.512.413c-1.431 0-2.705-.338-3.821-1.014a7.186 7.186 0 0 1-2.642-2.76c-.645-1.171-.967-2.512-.967-4.021 0-1.636.381-3.09 1.144-4.364.755-1.274 1.812-2.272 3.172-2.995 1.353-.716 2.925-1.07 4.718-1.062Zm.023 4.01c-.786 0-1.49.189-2.111.566a4.026 4.026 0 0 0-1.462 1.533c-.354.645-.531 1.368-.531 2.17 0 .802.177 1.521.531 2.158a3.994 3.994 0 0 0 1.439 1.522c.613.377 1.313.566 2.099.566.59 0 1.136-.11 1.639-.33a4.12 4.12 0 0 0 1.309-.92c.37-.393.661-.849.873-1.368a4.238 4.238 0 0 0 .318-1.64c0-.778-.176-1.49-.53-2.134a4.24 4.24 0 0 0-1.463-1.545c-.621-.385-1.324-.578-2.111-.578ZM10.629 54.902c1.54 0 2.352-1.64 2.777-3.279.424-1.64.46-3.28.46-3.28l.785-.009s.148 6.568 3.229 6.568h-7.251Z"/>
  <path fill="#000" d="M8.018 48.334c.01-3.196 4.816-5.517 6.227-8.041 1.412 2.533 6.218 4.854 6.228 8.041 0 1.511-1.393 2.736-3.119 2.736-1.716 0-3.109-1.225-3.109-2.736 0 1.511-1.393 2.736-3.118 2.736-1.725 0-3.109-1.225-3.109-2.736Zm139.256 121.692c-1.54 0-2.352 1.64-2.777 3.279-.424 1.64-.461 3.28-.461 3.28l-.784.009s-.148-6.568-3.229-6.568h7.251Z"/>
  <path fill="#000" d="M149.885 176.594c-.009 3.196-4.816 5.517-6.228 8.041-1.411-2.533-6.218-4.854-6.227-8.041 0-1.511 1.393-2.736 3.118-2.736 1.716 0 3.109 1.225 3.109 2.736 0-1.511 1.394-2.736 3.119-2.736 1.725 0 3.109 1.225 3.109 2.736ZM33.435 52.792c3.697 0 5.646-3.935 6.664-7.87 1.019-3.936 1.107-7.871 1.107-7.871l1.882-.022s.355 15.763 7.75 15.763H33.435Z"/>
  <path fill="#000" d="M27.169 37.029c.022-7.671 11.558-13.243 14.945-19.3 3.388 6.08 14.924 11.65 14.946 19.3 0 3.626-3.343 6.566-7.484 6.566-4.118 0-7.462-2.94-7.462-6.566 0 3.626-3.343 6.566-7.483 6.566s-7.462-2.94-7.462-6.566Zm6.266 86.638c3.697 0 5.646-3.935 6.664-7.87 1.019-3.936 1.107-7.871 1.107-7.871l1.882-.022s.355 15.763 7.75 15.763H33.435Z"/>
  <path fill="#000" d="M27.169 107.904c.022-7.671 11.558-13.242 14.945-19.3 3.388 6.08 14.924 11.651 14.946 19.3 0 3.626-3.343 6.566-7.484 6.566-4.118 0-7.462-2.94-7.462-6.566 0 3.626-3.343 6.566-7.483 6.566s-7.462-2.94-7.462-6.566Zm23.625 60.41c-3.698 0-5.646 3.935-6.665 7.87-1.018 3.935-1.107 7.87-1.107 7.87l-1.882.023s-.354-15.763-7.75-15.763h17.404Z"/>
  <path fill="#000" d="M57.06 184.077c-.022 7.671-11.558 13.242-14.946 19.3-3.387-6.08-14.923-11.651-14.945-19.3 0-3.626 3.343-6.567 7.484-6.567 4.118 0 7.462 2.941 7.462 6.567 0-3.626 3.343-6.567 7.483-6.567s7.462 2.941 7.462 6.567Zm50.049-131.285c3.698 0 5.646-3.935 6.665-7.87 1.018-3.936 1.107-7.871 1.107-7.871l1.882-.022s.354 15.763 7.749 15.763h-17.403Z"/>
  <path fill="#000" d="M100.843 37.029c.022-7.671 11.558-13.243 14.945-19.3 3.388 6.08 14.924 11.65 14.946 19.3 0 3.626-3.343 6.566-7.484 6.566-4.118 0-7.462-2.94-7.462-6.566 0 3.626-3.343 6.566-7.483 6.566-4.141 0-7.462-2.94-7.462-6.566Zm6.266 86.638c3.698 0 5.646-3.935 6.665-7.87 1.018-3.936 1.107-7.871 1.107-7.871l1.882-.022s.354 15.763 7.749 15.763h-17.403Z"/>
  <path fill="#000" d="M100.843 107.904c.022-7.671 11.558-13.242 14.945-19.3 3.388 6.08 14.924 11.651 14.946 19.3 0 3.626-3.343 6.566-7.484 6.566-4.118 0-7.462-2.94-7.462-6.566 0 3.626-3.343 6.566-7.483 6.566-4.141 0-7.462-2.94-7.462-6.566Zm23.625 60.41c-3.698 0-5.646 3.935-6.665 7.87-1.018 3.935-1.107 7.87-1.107 7.87l-1.882.023s-.354-15.763-7.75-15.763h17.404Z"/>
  <path fill="#000" d="M130.733 184.077c-.022 7.671-11.558 13.242-14.945 19.3-3.388-6.08-14.924-11.651-14.946-19.3 0-3.626 3.344-6.567 7.484-6.567 4.118 0 7.462 2.941 7.462 6.567 0-3.626 3.343-6.567 7.484-6.567 4.14 0 7.461 2.941 7.461 6.567Z"/>
</svg>
