<svg xmlns="http://www.w3.org/2000/svg" width="170" height="247" fill="none" viewBox="0 0 170 247">
  <path fill="#fff" stroke="#000" stroke-width="2.499" d="M2 237.183c0 3.778 3.089 6.867 6.867 6.867h152.789c3.768 0 6.857-3.089 6.857-6.867V8.867c0-3.778-3.089-6.867-6.857-6.867H8.867C5.09 2 2 5.089 2 8.867v228.316Z"/>
  <path fill="#000" d="m8.913 34.688 10.013-19.813v-.165H7.262v-4.175h16.947v4.234L14.185 34.688H8.913Zm153.174 180-10.013 19.813v.165h11.664v4.175h-16.947v-4.234l10.024-19.919h5.272ZM12.296 47.476c0 1.81 1.51 3.279 3.379 3.279 1.87 0 3.379-1.47 3.379-3.279 0-1.81-1.51-3.279-3.379-3.279-1.87 0-3.379 1.47-3.379 3.28Zm-4.358 6.208c0 1.81 1.51 3.279 3.379 3.279s3.378-1.47 3.378-3.28c0-1.809-1.51-3.278-3.378-3.278-1.87 0-3.38 1.47-3.38 3.279Zm8.657.02c0 .66.2 1.28.55 1.8a3.411 3.411 0 0 0 2.828 1.479c1.87 0 3.38-1.47 3.38-3.28 0-1.809-1.51-3.278-3.38-3.278-1.869 0-3.378 1.47-3.378 3.279Zm-4.889 6.367c1.67 0 2.55-1.36 3.009-2.719.46-1.36.5-2.719.5-2.719h.86s.16 5.428 3.498 5.438h-7.867Z"/>
  <path fill="#000" d="M17.964 49.885c-1.9 1.9-1.9 4.748-1.9 4.748l-.85.01s0-2.909-1.848-4.758"/>
  <path fill="#000" d="M17.584 55.983c-1.9-1.9-4.748-1.9-4.748-1.9v-.85s2.909 0 4.758-1.848"/>
  <path fill="#000" d="M13.776 55.993c1.899-1.9 4.748-1.9 4.748-1.9v-.85s-2.909 0-4.758-1.848m145.446 146.182c0-1.809-1.51-3.279-3.379-3.279s-3.379 1.47-3.379 3.279c0 1.81 1.51 3.279 3.379 3.279s3.379-1.469 3.379-3.279Zm4.358-6.207c0-1.81-1.509-3.279-3.379-3.279-1.869 0-3.379 1.469-3.379 3.279 0 1.809 1.51 3.278 3.379 3.278 1.87 0 3.379-1.469 3.379-3.278Zm-8.657-.02c0-.66-.2-1.28-.55-1.8a3.41 3.41 0 0 0-2.828-1.479c-1.87 0-3.379 1.469-3.379 3.279 0 1.809 1.509 3.278 3.379 3.278 1.869 0 3.378-1.469 3.378-3.278Zm4.888-6.368c-1.669 0-2.549 1.359-3.009 2.719-.46 1.359-.5 2.719-.5 2.719h-.859s-.16-5.428-3.499-5.438h7.867Z"/>
  <path fill="#000" d="M153.544 195.168c1.899-1.899 1.899-4.748 1.899-4.748l.85-.01s0 2.909 1.849 4.758"/>
  <path fill="#000" d="M153.924 189.07c1.899 1.9 4.748 1.9 4.748 1.9v.849s-2.909 0-4.758 1.85"/>
  <path fill="#000" d="M157.732 189.06c-1.899 1.9-4.748 1.9-4.748 1.9v.849s2.909 0 4.758 1.85M37.806 27.567c0 4.342 3.622 7.868 8.108 7.868 4.487 0 8.11-3.526 8.11-7.869 0-4.342-3.623-7.869-8.11-7.869-4.486 0-8.108 3.527-8.108 7.87ZM27.345 42.465c0 4.342 3.623 7.87 8.109 7.87s8.109-3.528 8.109-7.87c0-4.342-3.623-7.869-8.109-7.869s-8.109 3.527-8.109 7.869Zm20.776.048c0 1.583.48 3.07 1.32 4.318 1.44 2.136 3.958 3.551 6.79 3.551 4.486 0 8.108-3.527 8.108-7.869s-3.622-7.87-8.109-7.87c-4.486 0-8.109 3.528-8.109 7.87ZM36.39 57.795c4.006 0 6.117-3.263 7.22-6.525 1.104-3.263 1.2-6.526 1.2-6.526h2.064s.383 13.027 8.396 13.051H36.39Z"/>
  <path fill="#000" d="M51.408 33.348c-4.558 4.559-4.558 11.396-4.558 11.396l-2.04.024s0-6.981-4.438-11.42"/>
  <path fill="#000" d="M50.496 47.983c-4.558-4.558-11.395-4.558-11.395-4.558v-2.04s6.981 0 11.42-4.438"/>
  <path fill="#000" d="M41.356 48.007c4.558-4.558 11.396-4.558 11.396-4.558v-2.04s-6.982 0-11.42-4.438m-3.526 67.508c0 4.343 3.622 7.869 8.108 7.869 4.487 0 8.11-3.526 8.11-7.869 0-4.342-3.623-7.869-8.11-7.869-4.486 0-8.108 3.527-8.108 7.869Zm-10.461 14.899c0 4.342 3.623 7.869 8.109 7.869s8.109-3.527 8.109-7.869c0-4.343-3.623-7.869-8.109-7.869s-8.109 3.526-8.109 7.869Zm20.776.048c0 1.583.48 3.071 1.32 4.318 1.44 2.135 3.958 3.551 6.79 3.551 4.486 0 8.108-3.527 8.108-7.869 0-4.343-3.622-7.869-8.109-7.869-4.486 0-8.109 3.526-8.109 7.869ZM36.39 134.708c4.006 0 6.117-3.263 7.22-6.526 1.104-3.262 1.2-6.525 1.2-6.525h2.064s.383 13.027 8.396 13.051H36.39Z"/>
  <path fill="#000" d="M51.408 110.261c-4.558 4.558-4.558 11.396-4.558 11.396l-2.04.024s0-6.981-4.438-11.42"/>
  <path fill="#000" d="M50.496 124.896c-4.558-4.559-11.395-4.559-11.395-4.559v-2.039s6.981 0 11.42-4.438"/>
  <path fill="#000" d="M41.356 124.92c4.558-4.559 11.396-4.559 11.396-4.559v-2.039s-6.982 0-11.42-4.438m12.548 99.454c0-4.343-3.624-7.869-8.11-7.869-4.486 0-8.109 3.526-8.109 7.869 0 4.342 3.623 7.869 8.11 7.869 4.485 0 8.108-3.527 8.108-7.869Zm10.46-14.899c0-4.342-3.623-7.869-8.11-7.869-4.486 0-8.108 3.527-8.108 7.869 0 4.343 3.622 7.869 8.109 7.869 4.486 0 8.109-3.526 8.109-7.869Zm-20.777-.048c0-1.583-.48-3.071-1.32-4.318-1.439-2.135-3.958-3.551-6.789-3.551-4.486 0-8.109 3.527-8.109 7.869 0 4.343 3.623 7.869 8.11 7.869 4.486 0 8.108-3.526 8.108-7.869Zm11.732-15.282c-4.007 0-6.118 3.263-7.221 6.526-1.104 3.262-1.2 6.525-1.2 6.525h-2.063s-.384-13.027-8.397-13.051h18.881Z"/>
  <path fill="#000" d="M40.276 207.556c4.559-4.558 4.559-11.396 4.559-11.396l2.039-.024s0 6.982 4.438 11.42"/>
  <path fill="#000" d="M41.188 192.921c4.558 4.559 11.396 4.559 11.396 4.559v2.039s-6.982 0-11.42 4.438"/>
  <path fill="#000" d="M50.329 192.897c-4.558 4.559-11.396 4.559-11.396 4.559v2.039s6.981 0 11.42 4.438m67.281-176.366c0 4.342 3.622 7.868 8.109 7.868 4.486 0 8.109-3.526 8.109-7.869 0-4.342-3.623-7.869-8.109-7.869-4.487 0-8.109 3.527-8.109 7.87Zm-10.461 14.898c0 4.342 3.623 7.87 8.109 7.87s8.109-3.528 8.109-7.87c0-4.342-3.623-7.869-8.109-7.869s-8.109 3.527-8.109 7.869Zm20.777.048c0 1.583.479 3.07 1.319 4.318 1.439 2.136 3.959 3.551 6.789 3.551 4.487 0 8.109-3.527 8.109-7.869s-3.622-7.87-8.109-7.87c-4.486 0-8.108 3.528-8.108 7.87Zm-11.732 15.282c4.006 0 6.117-3.263 7.221-6.525 1.104-3.263 1.2-6.526 1.2-6.526h2.063s.384 13.027 8.397 13.051h-18.881Z"/>
  <path fill="#000" d="M131.236 33.348c-4.558 4.559-4.558 11.396-4.558 11.396l-2.039.024s0-6.981-4.439-11.42"/>
  <path fill="#000" d="M130.325 47.983c-4.559-4.558-11.396-4.558-11.396-4.558v-2.04s6.981 0 11.42-4.438"/>
  <path fill="#000" d="M121.184 48.007c4.558-4.558 11.396-4.558 11.396-4.558v-2.04s-6.982 0-11.42-4.438m-3.526 67.508c0 4.343 3.622 7.869 8.109 7.869 4.486 0 8.109-3.526 8.109-7.869 0-4.342-3.623-7.869-8.109-7.869-4.487 0-8.109 3.527-8.109 7.869Zm-10.461 14.899c0 4.342 3.623 7.869 8.109 7.869s8.109-3.527 8.109-7.869c0-4.343-3.623-7.869-8.109-7.869s-8.109 3.526-8.109 7.869Zm20.777.048c0 1.583.479 3.071 1.319 4.318 1.439 2.135 3.959 3.551 6.789 3.551 4.487 0 8.109-3.527 8.109-7.869 0-4.343-3.622-7.869-8.109-7.869-4.486 0-8.108 3.526-8.108 7.869Zm-11.732 15.282c4.006 0 6.117-3.263 7.221-6.526 1.104-3.262 1.2-6.525 1.2-6.525h2.063s.384 13.027 8.397 13.051h-18.881Z"/>
  <path fill="#000" d="M131.236 110.261c-4.558 4.558-4.558 11.396-4.558 11.396l-2.039.024s0-6.981-4.439-11.42"/>
  <path fill="#000" d="M130.325 124.896c-4.559-4.559-11.396-4.559-11.396-4.559v-2.039s6.981 0 11.42-4.438"/>
  <path fill="#000" d="M121.184 124.92c4.558-4.559 11.396-4.559 11.396-4.559v-2.039s-6.982 0-11.42-4.438m12.548 99.454c0-4.343-3.623-7.869-8.109-7.869-4.487 0-8.109 3.526-8.109 7.869 0 4.342 3.622 7.869 8.109 7.869 4.486 0 8.109-3.527 8.109-7.869Zm10.46-14.899c0-4.342-3.623-7.869-8.109-7.869-4.487 0-8.109 3.527-8.109 7.869 0 4.343 3.622 7.869 8.109 7.869 4.486 0 8.109-3.526 8.109-7.869Zm-20.777-.048c0-1.583-.48-3.071-1.319-4.318-1.44-2.135-3.959-3.551-6.79-3.551-4.486 0-8.109 3.527-8.109 7.869 0 4.343 3.623 7.869 8.109 7.869 4.487 0 8.109-3.526 8.109-7.869Zm11.732-15.282c-4.006 0-6.118 3.263-7.221 6.526-1.104 3.262-1.2 6.525-1.2 6.525h-2.063s-.384-13.027-8.397-13.051h18.881Z"/>
  <path fill="#000" d="M120.104 207.556c4.559-4.558 4.559-11.396 4.559-11.396l2.039-.024s0 6.982 4.438 11.42"/>
  <path fill="#000" d="M121.016 192.921c4.558 4.559 11.396 4.559 11.396 4.559v2.039s-6.981 0-11.42 4.438"/>
  <path fill="#000" d="M130.157 192.897c-4.558 4.559-11.396 4.559-11.396 4.559v2.039s6.982 0 11.42 4.438M77.72 81.703c0 4.342 3.622 7.869 8.109 7.869 4.486 0 8.109-3.527 8.109-7.87 0-4.342-3.623-7.868-8.11-7.868-4.486 0-8.109 3.526-8.109 7.869ZM67.26 96.601c0 4.343 3.622 7.869 8.108 7.869 4.486 0 8.11-3.526 8.11-7.869 0-4.342-3.624-7.869-8.11-7.869-4.486 0-8.109 3.527-8.109 7.87Zm20.775.049c0 1.582.48 3.07 1.32 4.318 1.44 2.135 3.959 3.55 6.79 3.55 4.486 0 8.108-3.526 8.108-7.869 0-4.342-3.622-7.869-8.109-7.869-4.486 0-8.109 3.527-8.109 7.87Zm-11.731 15.281c4.006 0 6.117-3.262 7.22-6.525 1.105-3.263 1.2-6.526 1.2-6.526h2.064s.384 13.027 8.397 13.051H76.304Z"/>
  <path fill="#000" d="M91.322 87.484c-4.558 4.559-4.558 11.396-4.558 11.396l-2.04.024s0-6.981-4.438-11.42"/>
  <path fill="#000" d="M90.41 102.119c-4.558-4.558-11.395-4.558-11.395-4.558v-2.04s6.981 0 11.42-4.438"/>
  <path fill="#000" d="M81.27 102.143c4.559-4.558 11.396-4.558 11.396-4.558v-2.04s-6.981 0-11.42-4.438"/>
</svg>
