<svg xmlns="http://www.w3.org/2000/svg" width="157" height="227" fill="none" viewBox="0 0 157 227">
  <path fill="#fff" stroke="#000" stroke-width="2.499" d="M1.527 218.672c0 3.482 2.85 6.328 6.338 6.328h141.009c3.478 0 6.329-2.846 6.329-6.328V8.28c0-3.482-2.851-6.329-6.329-6.329H7.865c-3.487 0-6.338 2.847-6.338 6.329v210.392Z"/>
  <path fill="#E6180A" d="m6.031 35.748 10.013-19.813v-.165H4.38v-4.175h16.947v4.234L11.303 35.748H6.03Zm143.685 153.474-10.013 19.813v.165h11.664v4.175H134.42v-4.234l10.024-19.919h5.272ZM21.196 44.529c-.01 4.338-5.452 7.498-7.048 10.934-1.615-3.427-7.067-6.559-7.104-10.898-.01-2.045 1.578-3.712 3.524-3.712 1.956 0 3.552 1.649 3.552 3.694 0-2.054 1.578-3.712 3.524-3.712 1.956-.01 3.543 1.648 3.552 3.694Zm115.256 136.974c.009-4.339 5.452-7.498 7.048-10.934 1.615 3.427 7.067 6.558 7.104 10.897.009 2.045-1.578 3.712-3.524 3.712-1.956 0-3.552-1.648-3.552-3.693 0 2.054-1.578 3.712-3.524 3.712-1.956.009-3.543-1.649-3.552-3.694ZM58.972 27.124C58.95 37.537 45.886 45.12 42.056 53.366c-3.875-8.224-16.96-15.74-17.049-26.153-.022-4.908 3.786-8.91 8.458-8.91 4.694 0 8.525 3.958 8.525 8.866 0-4.93 3.786-8.91 8.458-8.91 4.694-.022 8.502 3.957 8.524 8.865Zm0 70.876c-.022 10.412-13.086 17.995-16.916 26.241-3.875-8.224-16.96-15.74-17.049-26.153-.022-4.908 3.786-8.91 8.458-8.91 4.694 0 8.525 3.958 8.525 8.866 0-4.93 3.786-8.91 8.458-8.91 4.694-.022 8.502 3.958 8.524 8.865Zm-33.965 97.086c.022-10.413 13.085-17.996 16.916-26.242 3.875 8.224 16.96 15.74 17.049 26.153.022 4.908-3.786 8.91-8.458 8.91-4.694 0-8.525-3.958-8.525-8.866 0 4.93-3.786 8.91-8.458 8.91-4.694.022-8.502-3.957-8.524-8.865ZM132.646 27.124c-.022 10.413-13.086 17.996-16.916 26.242-3.875-8.224-16.96-15.74-17.05-26.153-.022-4.908 3.787-8.91 8.459-8.91 4.694 0 8.524 3.958 8.524 8.866 0-4.93 3.786-8.91 8.458-8.91 4.694-.022 8.503 3.957 8.525 8.865Zm0 70.876c-.022 10.412-13.086 17.995-16.916 26.241-3.875-8.224-16.96-15.74-17.05-26.153-.022-4.908 3.787-8.91 8.459-8.91 4.694 0 8.524 3.958 8.524 8.866 0-4.93 3.786-8.91 8.458-8.91 4.694-.022 8.503 3.958 8.525 8.865ZM98.68 195.086c.023-10.413 13.086-17.996 16.917-26.242 3.874 8.224 16.96 15.74 17.048 26.153.023 4.908-3.786 8.91-8.458 8.91-4.694 0-8.524-3.958-8.524-8.866 0 4.93-3.786 8.91-8.458 8.91-4.694.022-8.502-3.957-8.525-8.865ZM95.81 77.01c-.023 10.413-13.087 17.996-16.917 26.242-3.875-8.224-16.96-15.74-17.049-26.153-.022-4.908 3.786-8.91 8.458-8.91 4.694 0 8.524 3.958 8.524 8.866 0-4.93 3.787-8.91 8.459-8.91 4.694-.022 8.502 3.957 8.524 8.865Z"/>
</svg>
