<svg xmlns="http://www.w3.org/2000/svg" width="157" height="226" fill="none" viewBox="0 0 157 226">
  <path fill="#fff" stroke="#000" stroke-width="2.499" d="M1.773 218.061c0 3.482 2.85 6.329 6.338 6.329H149.12c3.478 0 6.329-2.847 6.329-6.329V7.669c0-3.482-2.851-6.328-6.329-6.328H8.111c-3.487 0-6.338 2.846-6.338 6.328v210.392Z"/>
  <path fill="#000" d="m8.122 33.252 10.013-19.813v-.165H6.471V9.099H23.42v4.234L13.394 33.252H8.122Zm141.84 159.003-10.013 19.813v.165h11.664v4.175h-16.948v-4.234l10.025-19.919h5.272ZM10.75 54.844c1.54 0 2.352-1.64 2.777-3.279.424-1.64.46-3.28.46-3.28l.785-.008s.148 6.567 3.229 6.567H10.75Z"/>
  <path fill="#000" d="M8.139 48.277c.009-3.197 4.815-5.518 6.227-8.042 1.412 2.533 6.218 4.854 6.227 8.042 0 1.51-1.393 2.736-3.118 2.736-1.716 0-3.109-1.226-3.109-2.736 0 1.51-1.393 2.736-3.118 2.736-1.725 0-3.11-1.226-3.11-2.736Zm139.252 121.691c-1.541 0-2.353 1.64-2.777 3.279a16.32 16.32 0 0 0-.462 3.28l-.784.009s-.147-6.568-3.229-6.568h7.252Z"/>
  <path fill="#000" d="M150.001 176.536c-.009 3.196-4.816 5.518-6.227 8.042-1.412-2.534-6.218-4.855-6.228-8.042 0-1.511 1.393-2.736 3.119-2.736 1.716 0 3.109 1.225 3.109 2.736 0-1.511 1.393-2.736 3.118-2.736 1.725 0 3.109 1.225 3.109 2.736ZM33.556 52.734c3.697 0 5.646-3.936 6.664-7.87 1.019-3.936 1.107-7.871 1.107-7.871l1.883-.022s.354 15.763 7.749 15.763H33.556Z"/>
  <path fill="#000" d="M27.29 36.97c.022-7.67 11.558-13.242 14.946-19.3 3.387 6.08 14.923 11.652 14.945 19.3 0 3.627-3.343 6.567-7.484 6.567-4.118 0-7.461-2.94-7.461-6.566 0 3.626-3.344 6.566-7.484 6.566-4.14 0-7.462-2.94-7.462-6.566Zm6.266 86.639c3.697 0 5.646-3.935 6.664-7.87 1.019-3.935 1.107-7.871 1.107-7.871l1.883-.022s.354 15.763 7.749 15.763H33.556Z"/>
  <path fill="#000" d="M27.29 107.846c.022-7.671 11.558-13.242 14.946-19.3 3.387 6.08 14.923 11.651 14.945 19.3 0 3.626-3.343 6.566-7.484 6.566-4.118 0-7.461-2.94-7.461-6.566 0 3.626-3.344 6.566-7.484 6.566-4.14 0-7.462-2.94-7.462-6.566Zm23.625 60.41c-3.698 0-5.646 3.935-6.665 7.87-1.018 3.935-1.107 7.87-1.107 7.87l-1.882.022s-.354-15.762-7.75-15.762h17.404Z"/>
  <path fill="#000" d="M57.181 184.018c-.022 7.672-11.558 13.243-14.945 19.3-3.388-6.079-14.924-11.65-14.946-19.3 0-3.625 3.343-6.566 7.484-6.566 4.118 0 7.462 2.941 7.462 6.566 0-3.625 3.343-6.566 7.483-6.566s7.462 2.941 7.462 6.566ZM107.23 52.734c3.697 0 5.646-3.936 6.664-7.87 1.019-3.936 1.107-7.871 1.107-7.871l1.882-.022s.355 15.763 7.75 15.763H107.23Z"/>
  <path fill="#000" d="M100.963 36.97c.023-7.67 11.558-13.242 14.946-19.3 3.388 6.08 14.923 11.652 14.945 19.3 0 3.627-3.343 6.567-7.483 6.567-4.119 0-7.462-2.94-7.462-6.566 0 3.626-3.343 6.566-7.484 6.566-4.14 0-7.462-2.94-7.462-6.566Zm6.267 86.639c3.697 0 5.646-3.935 6.664-7.87 1.019-3.935 1.107-7.871 1.107-7.871l1.882-.022s.355 15.763 7.75 15.763H107.23Z"/>
  <path fill="#000" d="M100.963 107.846c.023-7.671 11.558-13.242 14.946-19.3 3.388 6.08 14.923 11.651 14.945 19.3 0 3.626-3.343 6.566-7.483 6.566-4.119 0-7.462-2.94-7.462-6.566 0 3.626-3.343 6.566-7.484 6.566-4.14 0-7.462-2.94-7.462-6.566Zm23.625 60.41c-3.697 0-5.646 3.935-6.664 7.87-1.019 3.935-1.107 7.87-1.107 7.87l-1.882.022s-.355-15.762-7.75-15.762h17.403Z"/>
  <path fill="#000" d="M130.855 184.018c-.022 7.672-11.558 13.243-14.946 19.3-3.387-6.079-14.923-11.65-14.945-19.3 0-3.625 3.343-6.566 7.484-6.566 4.118 0 7.461 2.941 7.461 6.566 0-3.625 3.344-6.566 7.484-6.566 4.141 0 7.462 2.941 7.462 6.566ZM70.393 102.62c3.697 0 5.646-3.935 6.664-7.87 1.019-3.936 1.107-7.87 1.107-7.87l1.882-.023s.355 15.763 7.75 15.763H70.393Z"/>
  <path fill="#000" d="M64.126 86.857c.023-7.671 11.558-13.242 14.946-19.3 3.388 6.08 14.923 11.65 14.946 19.3 0 3.626-3.344 6.566-7.484 6.566-4.119 0-7.462-2.94-7.462-6.566 0 3.626-3.343 6.566-7.484 6.566-4.14 0-7.462-2.94-7.462-6.566Z"/>
</svg>
