<svg xmlns="http://www.w3.org/2000/svg" width="170" height="245" fill="none" viewBox="0 0 170 245">
  <path fill="#fff" stroke="#000" stroke-width="2.499" d="M2 236.495c0 3.778 3.089 6.867 6.867 6.867h152.789c3.768 0 6.857-3.089 6.857-6.867V8.18c0-3.779-3.089-6.868-6.857-6.868H8.867C5.09 1.312 2 4.402 2 8.18v228.315Z"/>
  <path fill="#000" d="M15.968 33.33c-1.816 0-3.432-.295-4.847-.884-1.408-.598-2.512-1.412-3.314-2.441a5.551 5.551 0 0 1-1.203-3.503c0-1.006.228-1.93.684-2.772a6.155 6.155 0 0 1 1.887-2.11 6.22 6.22 0 0 1 2.665-1.086v-.165c-1.29-.26-2.335-.884-3.137-1.875-.802-.998-1.203-2.158-1.203-3.479 0-1.25.366-2.363 1.097-3.338.731-.982 1.734-1.753 3.007-2.311 1.282-.566 2.736-.85 4.364-.85 1.627 0 3.078.284 4.352.85 1.281.566 2.288 1.34 3.019 2.323.731.975 1.1 2.084 1.108 3.326-.008 1.329-.416 2.488-1.226 3.48a5.273 5.273 0 0 1-3.114 1.874v.165a6.12 6.12 0 0 1 2.63 1.085 6.154 6.154 0 0 1 1.887 2.111c.472.842.712 1.765.72 2.772a5.608 5.608 0 0 1-1.215 3.503c-.802 1.03-1.91 1.843-3.326 2.44-1.407.59-3.019.885-4.835.885Zm0-3.75c.81 0 1.517-.145 2.123-.436.605-.3 1.077-.708 1.415-1.227.346-.527.519-1.132.519-1.816 0-.7-.177-1.317-.53-1.852a3.648 3.648 0 0 0-1.44-1.273c-.605-.315-1.3-.472-2.087-.472-.778 0-1.474.157-2.088.472a3.63 3.63 0 0 0-1.45 1.273c-.346.535-.52 1.152-.52 1.852 0 .684.17 1.29.508 1.816.338.519.814.928 1.427 1.227.613.29 1.32.436 2.123.436Zm0-10.791c.676 0 1.277-.138 1.804-.413.527-.275.94-.656 1.239-1.144.298-.487.448-1.05.448-1.686 0-.63-.15-1.18-.448-1.651a3.071 3.071 0 0 0-1.227-1.12c-.519-.276-1.124-.414-1.816-.414-.684 0-1.29.138-1.816.413-.527.268-.94.641-1.239 1.12-.29.472-.436 1.023-.436 1.652 0 .637.15 1.199.448 1.686.299.488.712.869 1.239 1.144.526.275 1.128.413 1.804.413ZM155.032 210.67c1.816 0 3.432.295 4.847.884 1.408.598 2.512 1.412 3.314 2.442a5.548 5.548 0 0 1 1.203 3.502c0 1.007-.228 1.93-.684 2.772a6.166 6.166 0 0 1-1.887 2.111 6.229 6.229 0 0 1-2.665 1.085v.165c1.289.259 2.335.884 3.137 1.875.802.998 1.203 2.158 1.203 3.479 0 1.25-.366 2.363-1.097 3.337-.731.983-1.734 1.754-3.007 2.312-1.282.566-2.736.849-4.364.849-1.627 0-3.078-.283-4.352-.849-1.281-.566-2.288-1.341-3.019-2.323-.731-.975-1.1-2.084-1.108-3.326.008-1.329.416-2.488 1.226-3.479a5.27 5.27 0 0 1 3.114-1.875v-.165a6.13 6.13 0 0 1-2.63-1.085 6.166 6.166 0 0 1-1.887-2.111 5.665 5.665 0 0 1-.72-2.772 5.606 5.606 0 0 1 1.215-3.502c.802-1.03 1.911-1.844 3.326-2.442 1.407-.589 3.019-.884 4.835-.884Zm0 3.75c-.81 0-1.517.146-2.123.436-.605.299-1.077.708-1.415 1.227-.346.527-.519 1.132-.519 1.816 0 .7.177 1.317.531 1.852.354.542.833.967 1.439 1.273.605.315 1.301.472 2.087.472.778 0 1.474-.157 2.088-.472a3.628 3.628 0 0 0 1.45-1.273c.346-.535.519-1.152.519-1.852 0-.684-.169-1.289-.507-1.816-.338-.519-.814-.928-1.427-1.227-.613-.29-1.321-.436-2.123-.436Zm0 10.791c-.676 0-1.277.138-1.804.413-.527.275-.94.656-1.239 1.144-.298.487-.448 1.049-.448 1.686 0 .629.15 1.18.448 1.651.299.48.708.853 1.227 1.121.519.275 1.124.412 1.816.412.684 0 1.29-.137 1.816-.412.527-.268.94-.641 1.239-1.121.291-.471.436-1.022.436-1.651 0-.637-.149-1.199-.448-1.686a3.108 3.108 0 0 0-1.238-1.144c-.527-.275-1.129-.413-1.805-.413ZM12.296 46.788c0 1.81 1.51 3.28 3.379 3.28 1.87 0 3.379-1.47 3.379-3.28 0-1.809-1.51-3.278-3.379-3.278-1.87 0-3.379 1.469-3.379 3.278Zm-4.358 6.208c0 1.81 1.51 3.279 3.379 3.279s3.378-1.47 3.378-3.279c0-1.81-1.51-3.279-3.378-3.279-1.87 0-3.38 1.47-3.38 3.279Zm8.657.02c0 .66.2 1.28.55 1.8a3.411 3.411 0 0 0 2.828 1.479c1.87 0 3.38-1.47 3.38-3.279 0-1.81-1.51-3.279-3.38-3.279-1.869 0-3.378 1.47-3.378 3.279Zm-4.888 6.368c1.669 0 2.549-1.36 3.008-2.72.46-1.359.5-2.718.5-2.718h.86s.16 5.428 3.499 5.438h-7.867Z"/>
  <path fill="#000" d="M17.964 49.197c-1.9 1.9-1.9 4.749-1.9 4.749l-.85.01s0-2.91-1.848-4.759"/>
  <path fill="#000" d="M17.584 55.295c-1.9-1.9-4.748-1.9-4.748-1.9v-.849s2.909 0 4.758-1.85"/>
  <path fill="#000" d="M13.776 55.305c1.899-1.9 4.748-1.9 4.748-1.9v-.849s-2.909 0-4.758-1.85m145.455 146.183c0-1.809-1.509-3.278-3.378-3.278-1.87 0-3.379 1.469-3.379 3.278 0 1.81 1.509 3.279 3.379 3.279 1.869 0 3.378-1.469 3.378-3.279Zm4.359-6.207c0-1.809-1.51-3.279-3.379-3.279s-3.379 1.47-3.379 3.279 1.51 3.279 3.379 3.279 3.379-1.47 3.379-3.279Zm-8.657-.02c0-.66-.2-1.28-.55-1.799a3.41 3.41 0 0 0-2.829-1.48c-1.869 0-3.378 1.47-3.378 3.279s1.509 3.279 3.378 3.279c1.87 0 3.379-1.47 3.379-3.279Zm4.888-6.368c-1.669 0-2.549 1.36-3.009 2.719a10.56 10.56 0 0 0-.5 2.719h-.859s-.16-5.428-3.499-5.438h7.867Z"/>
  <path fill="#000" d="M153.554 194.48c1.899-1.899 1.899-4.748 1.899-4.748l.85-.01s0 2.909 1.849 4.758"/>
  <path fill="#000" d="M153.933 188.383c1.9 1.899 4.749 1.899 4.749 1.899v.85s-2.909 0-4.759 1.849"/>
  <path fill="#000" d="M157.742 188.373c-1.899 1.899-4.748 1.899-4.748 1.899v.85s2.909 0 4.758 1.849M37.81 26.879c0 4.342 3.623 7.869 8.11 7.869 4.486 0 8.109-3.527 8.109-7.87 0-4.342-3.623-7.868-8.11-7.868-4.485 0-8.108 3.526-8.108 7.869ZM27.35 41.777c0 4.343 3.623 7.87 8.11 7.87 4.486 0 8.108-3.527 8.108-7.87 0-4.342-3.622-7.869-8.109-7.869-4.486 0-8.109 3.527-8.109 7.87Zm20.777.048a7.71 7.71 0 0 0 1.32 4.319c1.439 2.135 3.958 3.55 6.789 3.55 4.486 0 8.109-3.526 8.109-7.869 0-4.342-3.623-7.869-8.11-7.869-4.486 0-8.108 3.527-8.108 7.87ZM36.395 57.108c4.006 0 6.118-3.263 7.221-6.526 1.104-3.263 1.2-6.526 1.2-6.526h2.063s.384 13.028 8.397 13.052H36.395Z"/>
  <path fill="#000" d="M51.414 32.66c-4.559 4.559-4.559 11.397-4.559 11.397l-2.039.023s0-6.981-4.438-11.42"/>
  <path fill="#000" d="M50.502 47.295c-4.558-4.558-11.396-4.558-11.396-4.558v-2.04s6.981 0 11.42-4.438"/>
  <path fill="#000" d="M41.362 47.32c4.558-4.56 11.395-4.56 11.395-4.56v-2.038s-6.981 0-11.42-4.439M37.81 81.015c0 4.342 3.623 7.869 8.11 7.869 4.486 0 8.109-3.527 8.109-7.87 0-4.341-3.623-7.868-8.11-7.868-4.485 0-8.108 3.526-8.108 7.869ZM27.35 95.913c0 4.343 3.623 7.869 8.11 7.869 4.486 0 8.108-3.526 8.108-7.869 0-4.342-3.622-7.869-8.109-7.869-4.486 0-8.109 3.527-8.109 7.87Zm20.777.048a7.71 7.71 0 0 0 1.32 4.319c1.439 2.135 3.958 3.55 6.789 3.55 4.486 0 8.109-3.526 8.109-7.869 0-4.342-3.623-7.869-8.11-7.869-4.486 0-8.108 3.527-8.108 7.87Zm-11.732 15.283c4.006 0 6.118-3.263 7.221-6.526 1.104-3.263 1.2-6.526 1.2-6.526h2.063s.384 13.028 8.397 13.052H36.395Z"/>
  <path fill="#000" d="M51.414 86.797c-4.559 4.558-4.559 11.396-4.559 11.396l-2.039.024s0-6.982-4.438-11.42"/>
  <path fill="#000" d="M50.502 101.431c-4.558-4.558-11.396-4.558-11.396-4.558v-2.04s6.981 0 11.42-4.438"/>
  <path fill="#000" d="M41.362 101.455c4.558-4.558 11.395-4.558 11.395-4.558v-2.04s-6.981 0-11.42-4.438m12.548 68.095c0-4.342-3.623-7.869-8.11-7.869-4.486 0-8.108 3.527-8.108 7.869s3.622 7.869 8.108 7.869c4.487 0 8.11-3.527 8.11-7.869Zm10.46-14.899c0-4.342-3.623-7.869-8.11-7.869-4.485 0-8.108 3.527-8.108 7.869 0 4.343 3.623 7.869 8.109 7.869s8.109-3.526 8.109-7.869Zm-20.776-.048a7.71 7.71 0 0 0-1.32-4.318c-1.44-2.135-3.959-3.551-6.79-3.551-4.486 0-8.108 3.527-8.108 7.869 0 4.343 3.622 7.87 8.109 7.87 4.486 0 8.109-3.527 8.109-7.87ZM55.3 128.285c-4.006 0-6.117 3.263-7.22 6.526-1.105 3.263-1.2 6.525-1.2 6.525h-2.064s-.384-13.027-8.397-13.051H55.3Z"/>
  <path fill="#000" d="M40.282 152.732c4.558-4.558 4.558-11.396 4.558-11.396l2.04-.024s0 6.982 4.438 11.42"/>
  <path fill="#000" d="M41.193 138.098c4.559 4.558 11.396 4.558 11.396 4.558v2.039s-6.981 0-11.42 4.438"/>
  <path fill="#000" d="M50.334 138.073c-4.558 4.559-11.396 4.559-11.396 4.559v2.039s6.982 0 11.42 4.438m3.527 63.541c0-4.342-3.623-7.869-8.11-7.869-4.486 0-8.108 3.527-8.108 7.869s3.622 7.869 8.108 7.869c4.487 0 8.11-3.527 8.11-7.869Zm10.46-14.898c0-4.343-3.623-7.87-8.11-7.87-4.485 0-8.108 3.527-8.108 7.87 0 4.342 3.623 7.869 8.109 7.869s8.109-3.527 8.109-7.869Zm-20.776-.048a7.71 7.71 0 0 0-1.32-4.319c-1.44-2.135-3.959-3.551-6.79-3.551-4.486 0-8.108 3.527-8.108 7.87 0 4.342 3.622 7.869 8.109 7.869 4.486 0 8.109-3.527 8.109-7.869ZM55.3 182.421c-4.006 0-6.117 3.263-7.22 6.526-1.105 3.263-1.2 6.525-1.2 6.525h-2.064s-.384-13.027-8.397-13.051H55.3Z"/>
  <path fill="#000" d="M40.282 206.868c4.558-4.558 4.558-11.396 4.558-11.396l2.04-.024s0 6.982 4.438 11.42"/>
  <path fill="#000" d="M41.193 192.234c4.559 4.558 11.396 4.558 11.396 4.558v2.039s-6.981 0-11.42 4.439"/>
  <path fill="#000" d="M50.334 192.21c-4.558 4.558-11.396 4.558-11.396 4.558v2.039s6.982 0 11.42 4.438m67.28-176.366c0 4.342 3.623 7.869 8.109 7.869 4.487 0 8.109-3.527 8.109-7.87 0-4.342-3.622-7.868-8.109-7.868-4.486 0-8.109 3.526-8.109 7.869Zm-10.459 14.898c0 4.343 3.622 7.87 8.108 7.87 4.487 0 8.109-3.527 8.109-7.87 0-4.342-3.622-7.869-8.109-7.869-4.486 0-8.108 3.527-8.108 7.87Zm20.776.048c0 1.584.48 3.071 1.319 4.319 1.44 2.135 3.959 3.55 6.79 3.55 4.486 0 8.109-3.526 8.109-7.869 0-4.342-3.623-7.869-8.109-7.869s-8.109 3.527-8.109 7.87Zm-11.732 15.283c4.007 0 6.118-3.263 7.221-6.526 1.104-3.263 1.2-6.526 1.2-6.526h2.063s.384 13.028 8.397 13.052h-18.881Z"/>
  <path fill="#000" d="M131.242 32.66c-4.559 4.559-4.559 11.397-4.559 11.397l-2.039.023s0-6.981-4.438-11.42"/>
  <path fill="#000" d="M130.33 47.295c-4.558-4.558-11.396-4.558-11.396-4.558v-2.04s6.982 0 11.42-4.438"/>
  <path fill="#000" d="M121.189 47.32c4.559-4.56 11.396-4.56 11.396-4.56v-2.038s-6.981 0-11.42-4.439m-3.527 44.732c0 4.342 3.623 7.869 8.109 7.869 4.487 0 8.109-3.527 8.109-7.87 0-4.341-3.622-7.868-8.109-7.868-4.486 0-8.109 3.526-8.109 7.869Zm-10.459 14.898c0 4.343 3.622 7.869 8.108 7.869 4.487 0 8.109-3.526 8.109-7.869 0-4.342-3.622-7.869-8.109-7.869-4.486 0-8.108 3.527-8.108 7.87Zm20.776.048c0 1.584.48 3.071 1.319 4.319 1.44 2.135 3.959 3.55 6.79 3.55 4.486 0 8.109-3.526 8.109-7.869 0-4.342-3.623-7.869-8.109-7.869s-8.109 3.527-8.109 7.87Zm-11.732 15.283c4.007 0 6.118-3.263 7.221-6.526 1.104-3.263 1.2-6.526 1.2-6.526h2.063s.384 13.028 8.397 13.052h-18.881Z"/>
  <path fill="#000" d="M131.242 86.797c-4.559 4.558-4.559 11.396-4.559 11.396l-2.039.024s0-6.982-4.438-11.42"/>
  <path fill="#000" d="M130.33 101.431c-4.558-4.558-11.396-4.558-11.396-4.558v-2.04s6.982 0 11.42-4.438"/>
  <path fill="#000" d="M121.189 101.455c4.559-4.558 11.396-4.558 11.396-4.558v-2.04s-6.981 0-11.42-4.438m12.548 68.095c0-4.342-3.623-7.869-8.109-7.869-4.487 0-8.109 3.527-8.109 7.869s3.622 7.869 8.109 7.869c4.486 0 8.109-3.527 8.109-7.869Zm10.46-14.899c0-4.342-3.623-7.869-8.109-7.869-4.487 0-8.109 3.527-8.109 7.869 0 4.343 3.622 7.869 8.109 7.869 4.486 0 8.109-3.526 8.109-7.869Zm-20.777-.048c0-1.583-.48-3.07-1.319-4.318-1.44-2.135-3.959-3.551-6.79-3.551-4.486 0-8.109 3.527-8.109 7.869 0 4.343 3.623 7.87 8.109 7.87 4.487 0 8.109-3.527 8.109-7.87Zm11.732-15.282c-4.006 0-6.118 3.263-7.221 6.526-1.104 3.263-1.2 6.525-1.2 6.525h-2.063s-.384-13.027-8.397-13.051h18.881Z"/>
  <path fill="#000" d="M120.109 152.732c4.559-4.558 4.559-11.396 4.559-11.396l2.039-.024s0 6.982 4.438 11.42"/>
  <path fill="#000" d="M121.021 138.098c4.558 4.558 11.396 4.558 11.396 4.558v2.039s-6.982 0-11.42 4.438"/>
  <path fill="#000" d="M130.162 138.073c-4.558 4.559-11.396 4.559-11.396 4.559v2.039s6.982 0 11.42 4.438m3.527 63.541c0-4.342-3.623-7.869-8.109-7.869-4.487 0-8.109 3.527-8.109 7.869s3.622 7.869 8.109 7.869c4.486 0 8.109-3.527 8.109-7.869Zm10.46-14.898c0-4.343-3.623-7.87-8.109-7.87-4.487 0-8.109 3.527-8.109 7.87 0 4.342 3.622 7.869 8.109 7.869 4.486 0 8.109-3.527 8.109-7.869Zm-20.777-.048c0-1.584-.48-3.071-1.319-4.319-1.44-2.135-3.959-3.551-6.79-3.551-4.486 0-8.109 3.527-8.109 7.87 0 4.342 3.623 7.869 8.109 7.869 4.487 0 8.109-3.527 8.109-7.869Zm11.732-15.283c-4.006 0-6.118 3.263-7.221 6.526-1.104 3.263-1.2 6.525-1.2 6.525h-2.063s-.384-13.027-8.397-13.051h18.881Z"/>
  <path fill="#000" d="M120.109 206.868c4.559-4.558 4.559-11.396 4.559-11.396l2.039-.024s0 6.982 4.438 11.42"/>
  <path fill="#000" d="M121.021 192.234c4.558 4.558 11.396 4.558 11.396 4.558v2.039s-6.982 0-11.42 4.439"/>
  <path fill="#000" d="M130.162 192.21c-4.558 4.558-11.396 4.558-11.396 4.558v2.039s6.982 0 11.42 4.438"/>
</svg>
