<svg xmlns="http://www.w3.org/2000/svg" width="170" height="246" fill="none" viewBox="0 0 170 246">
  <path fill="#fff" stroke="#000" stroke-width="2.499" d="M2 237.185c0 3.779 3.089 6.867 6.867 6.867h152.789c3.768 0 6.857-3.088 6.857-6.867V8.87c0-3.779-3.089-6.868-6.857-6.868H8.867C5.09 2.002 2 5.092 2 8.87v228.315Z"/>
  <path fill="#E6180A" d="M16.184 34.33c-1.816 0-3.432-.295-4.847-.884-1.407-.598-2.512-1.412-3.314-2.441a5.551 5.551 0 0 1-1.203-3.503c0-1.006.228-1.93.684-2.772a6.155 6.155 0 0 1 1.887-2.11 6.22 6.22 0 0 1 2.665-1.086v-.165c-1.289-.26-2.335-.884-3.137-1.875-.802-.998-1.202-2.158-1.202-3.479 0-1.25.365-2.363 1.096-3.338.731-.982 1.734-1.753 3.008-2.311 1.281-.566 2.736-.85 4.363-.85 1.628 0 3.078.284 4.352.85 1.281.566 2.288 1.34 3.02 2.323.73.975 1.1 2.084 1.108 3.326-.008 1.329-.417 2.488-1.227 3.48a5.273 5.273 0 0 1-3.113 1.874v.165a6.12 6.12 0 0 1 2.63 1.085 6.154 6.154 0 0 1 1.886 2.111c.472.842.712 1.765.72 2.772a5.608 5.608 0 0 1-1.215 3.503c-.802 1.03-1.91 1.843-3.325 2.44-1.408.59-3.02.885-4.836.885Zm0-3.75c.81 0 1.518-.145 2.123-.436.605-.3 1.077-.708 1.415-1.227.346-.527.52-1.132.52-1.816 0-.7-.178-1.317-.532-1.852a3.648 3.648 0 0 0-1.438-1.273c-.606-.315-1.302-.472-2.088-.472-.778 0-1.474.157-2.087.472a3.63 3.63 0 0 0-1.45 1.273c-.347.535-.52 1.152-.52 1.852 0 .684.17 1.29.507 1.816.338.519.814.928 1.427 1.227.614.29 1.321.436 2.123.436Zm0-10.791c.676 0 1.278-.138 1.805-.413.526-.275.94-.656 1.238-1.144.299-.487.448-1.05.448-1.686 0-.63-.15-1.18-.448-1.651A3.071 3.071 0 0 0 18 13.775c-.518-.276-1.124-.414-1.816-.414-.684 0-1.29.138-1.816.413-.527.268-.94.641-1.238 1.12-.291.472-.437 1.023-.437 1.652 0 .637.15 1.199.449 1.686.298.488.711.869 1.238 1.144.527.275 1.128.413 1.804.413ZM155.248 211.67c1.817 0 3.432.295 4.848.884 1.407.598 2.512 1.412 3.313 2.442a5.548 5.548 0 0 1 1.203 3.502c0 1.007-.228 1.93-.684 2.772a6.145 6.145 0 0 1-1.887 2.111 6.229 6.229 0 0 1-2.665 1.085v.165c1.29.259 2.335.884 3.137 1.875.802.998 1.203 2.158 1.203 3.479 0 1.25-.365 2.363-1.097 3.337-.731.983-1.733 1.754-3.007 2.312-1.282.566-2.736.849-4.364.849-1.627 0-3.078-.283-4.351-.849-1.282-.566-2.288-1.341-3.019-2.323-.732-.975-1.101-2.084-1.109-3.326.008-1.329.417-2.488 1.226-3.479a5.27 5.27 0 0 1 3.114-1.875v-.165a6.13 6.13 0 0 1-2.63-1.085 6.166 6.166 0 0 1-1.887-2.111 5.664 5.664 0 0 1-.719-2.772 5.605 5.605 0 0 1 1.214-3.502c.802-1.03 1.911-1.844 3.326-2.442 1.407-.589 3.019-.884 4.835-.884Zm0 3.75c-.809 0-1.517.146-2.122.436-.606.299-1.078.708-1.416 1.227-.346.527-.518 1.132-.518 1.816 0 .7.176 1.317.53 1.852a3.65 3.65 0 0 0 1.439 1.273c.605.315 1.301.472 2.087.472.779 0 1.475-.157 2.088-.472a3.622 3.622 0 0 0 1.45-1.273c.346-.535.519-1.152.519-1.852 0-.684-.169-1.289-.507-1.816-.338-.519-.813-.928-1.427-1.227-.613-.29-1.321-.436-2.123-.436Zm0 10.791c-.676 0-1.277.138-1.804.413a3.102 3.102 0 0 0-1.238 1.144c-.299.487-.448 1.049-.448 1.686 0 .629.149 1.18.448 1.651.299.48.707.853 1.226 1.121.519.275 1.125.412 1.816.412.684 0 1.29-.137 1.817-.412a3.062 3.062 0 0 0 1.238-1.121c.291-.471.436-1.022.436-1.651 0-.637-.149-1.199-.448-1.686a3.102 3.102 0 0 0-1.238-1.144c-.527-.275-1.128-.413-1.805-.413ZM15.645 52.137h7.677c-.874-.04-1.618-.605-2.32-1.073-1.58-1.19-3.058-2.556-4.225-4.153-.545-.804-1.118-1.708-1.132-2.711m7.677 7.937c-1.11.035-2.057.74-2.903 1.392-1.494 1.255-2.788 2.747-3.88 4.362-.4.67-.872 1.378-.894 2.183v-7.937m0 7.937c-.038-1.182-.758-2.205-1.437-3.12a20.885 20.885 0 0 0-4.227-3.96c-.614-.383-1.265-.839-2.013-.857h7.677m-7.677 0c1.11-.035 2.057-.741 2.903-1.392 1.494-1.255 2.788-2.748 3.88-4.363.4-.669.872-1.378.894-2.182v7.937m140.227 140.784h-7.677c.875.039 1.619.605 2.321 1.073 1.579 1.191 3.057 2.556 4.225 4.153.545.804 1.117 1.708 1.131 2.711m-7.677-7.937c1.11-.035 2.058-.741 2.903-1.392 1.495-1.255 2.788-2.747 3.88-4.362.401-.669.872-1.378.894-2.183v7.937m0-7.937c.038 1.182.758 2.206 1.438 3.119a20.876 20.876 0 0 0 4.226 3.962c.614.383 1.266.838 2.014.856h-7.678m7.678 0c-1.11.035-2.058.741-2.903 1.392-1.495 1.255-2.788 2.748-3.88 4.363-.401.669-.872 1.378-.895 2.182v-7.937M45.847 38.75h18.425c-2.098-.094-3.884-1.452-5.57-2.575-3.788-2.857-7.337-6.135-10.139-9.968-1.307-1.93-2.681-4.098-2.716-6.507m18.425 19.05c-2.663.083-4.937 1.778-6.967 3.341-3.586 3.011-6.69 6.593-9.31 10.47-.962 1.605-2.095 3.306-2.148 5.237V38.75m0 19.05c-.09-2.837-1.818-5.293-3.45-7.486-2.907-3.623-6.352-6.828-10.143-9.508-1.473-.919-3.037-2.011-4.832-2.056h18.425m-18.425 0c2.663-.084 4.937-1.778 6.967-3.34 3.587-3.013 6.691-6.595 9.311-10.471.962-1.605 2.093-3.306 2.147-5.238v19.05m0 54.134h18.425c-2.098-.093-3.884-1.451-5.57-2.573-3.788-2.858-7.337-6.135-10.139-9.97-1.307-1.928-2.681-4.097-2.716-6.505m18.425 19.048c-2.663.084-4.937 1.779-6.967 3.342-3.586 3.011-6.69 6.593-9.31 10.47-.962 1.605-2.095 3.306-2.148 5.237V92.885m0 19.049c-.09-2.835-1.818-5.292-3.45-7.485-2.907-3.623-6.352-6.828-10.143-9.508-1.473-.918-3.037-2.011-4.832-2.056h18.425m-18.425 0c2.663-.084 4.937-1.777 6.967-3.34 3.587-3.012 6.691-6.594 9.311-10.471.962-1.605 2.093-3.306 2.147-5.237v19.048m0 55.14H27.422c2.099.093 3.884 1.451 5.571 2.574 3.788 2.857 7.337 6.135 10.139 9.968 1.307 1.929 2.681 4.098 2.715 6.507m-18.425-19.049c2.663-.084 4.938-1.779 6.967-3.342 3.587-3.011 6.691-6.593 9.311-10.47.962-1.605 2.095-3.306 2.147-5.237v19.049m0-19.049c.092 2.836 1.819 5.292 3.45 7.485 2.908 3.623 6.353 6.828 10.144 9.508 1.473.919 3.037 2.011 4.832 2.056H45.848m18.425 0c-2.663.084-4.938 1.777-6.967 3.339-3.587 3.014-6.691 6.595-9.311 10.472-.962 1.605-2.093 3.306-2.148 5.238v-19.049m0 54.136H27.422c2.099.093 3.884 1.451 5.571 2.573 3.788 2.858 7.337 6.135 10.139 9.969 1.307 1.929 2.681 4.098 2.715 6.507m-18.425-19.049c2.663-.084 4.938-1.779 6.967-3.342 3.587-3.011 6.691-6.593 9.311-10.47.962-1.605 2.095-3.306 2.147-5.237v19.049m0-19.049c.092 2.836 1.819 5.292 3.45 7.485 2.908 3.623 6.353 6.828 10.144 9.508 1.473.919 3.037 2.011 4.832 2.056H45.848m18.425 0c-2.663.084-4.938 1.777-6.967 3.339-3.587 3.014-6.691 6.595-9.311 10.472-.962 1.605-2.093 3.306-2.148 5.238v-19.049M125.675 38.75h18.426c-2.099-.094-3.885-1.452-5.571-2.575-3.788-2.857-7.337-6.135-10.139-9.968-1.307-1.93-2.681-4.098-2.716-6.507m18.426 19.05c-2.663.083-4.938 1.778-6.967 3.341-3.587 3.011-6.692 6.593-9.311 10.47-.962 1.605-2.095 3.306-2.148 5.237V38.75m0 19.05c-.091-2.837-1.818-5.293-3.449-7.486-2.908-3.623-6.353-6.828-10.144-9.508-1.473-.919-3.037-2.011-4.832-2.056h18.425m-18.425 0c2.663-.084 4.938-1.778 6.967-3.34 3.587-3.013 6.691-6.595 9.311-10.471.962-1.605 2.093-3.306 2.147-5.238v19.05m0 54.134h18.426c-2.099-.093-3.885-1.451-5.571-2.573-3.788-2.858-7.337-6.135-10.139-9.97-1.307-1.928-2.681-4.097-2.716-6.505m18.426 19.048c-2.663.084-4.938 1.779-6.967 3.342-3.587 3.011-6.692 6.593-9.311 10.47-.962 1.605-2.095 3.306-2.148 5.237V92.885m0 19.049c-.091-2.835-1.818-5.292-3.449-7.485-2.908-3.623-6.353-6.828-10.144-9.508-1.473-.918-3.037-2.011-4.832-2.056h18.425m-18.425 0c2.663-.084 4.938-1.777 6.967-3.34 3.587-3.012 6.691-6.594 9.311-10.471.962-1.605 2.093-3.306 2.147-5.237v19.048m.001 55.14H107.25c2.099.093 3.885 1.451 5.571 2.574 3.788 2.857 7.337 6.135 10.139 9.968 1.307 1.929 2.681 4.098 2.716 6.507m-18.426-19.049c2.663-.084 4.938-1.779 6.967-3.342 3.587-3.011 6.692-6.593 9.311-10.47.962-1.605 2.095-3.306 2.148-5.237v19.049m0-19.049c.091 2.836 1.818 5.292 3.45 7.485 2.907 3.623 6.352 6.828 10.143 9.508 1.473.919 3.037 2.011 4.832 2.056h-18.425m18.425 0c-2.663.084-4.938 1.777-6.967 3.339-3.587 3.014-6.691 6.595-9.311 10.472-.962 1.605-2.093 3.306-2.147 5.238v-19.049m0 54.136H107.25c2.099.093 3.885 1.451 5.571 2.573 3.788 2.858 7.337 6.135 10.139 9.969 1.307 1.929 2.681 4.098 2.716 6.507m-18.426-19.049c2.663-.084 4.938-1.779 6.967-3.342 3.587-3.011 6.692-6.593 9.311-10.47.962-1.605 2.095-3.306 2.148-5.237v19.049m0-19.049c.091 2.836 1.818 5.292 3.45 7.485 2.907 3.623 6.352 6.828 10.143 9.508 1.473.919 3.037 2.011 4.832 2.056h-18.425m18.425 0c-2.663.084-4.938 1.777-6.967 3.339-3.587 3.014-6.691 6.595-9.311 10.472-.962 1.605-2.093 3.306-2.147 5.238v-19.049"/>
</svg>
