<svg xmlns="http://www.w3.org/2000/svg" width="157" height="227" fill="none" viewBox="0 0 157 227">
  <path fill="#fff" stroke="#000" stroke-width="2.499" d="M1.324 218.189c0 3.482 2.85 6.328 6.338 6.328h141.009c3.478 0 6.329-2.846 6.329-6.328V7.796c0-3.482-2.851-6.328-6.329-6.328H7.662c-3.487 0-6.338 2.846-6.338 6.328V218.19Z"/>
  <path fill="#E6180A" d="M15.26 32.83c-1.816 0-3.432-.294-4.847-.884-1.407-.597-2.512-1.411-3.314-2.441a5.551 5.551 0 0 1-1.203-3.503c0-1.006.228-1.93.684-2.771a6.155 6.155 0 0 1 1.887-2.111 6.221 6.221 0 0 1 2.665-1.085v-.165c-1.289-.26-2.335-.885-3.137-1.875-.802-.999-1.203-2.159-1.203-3.48 0-1.25.366-2.362 1.097-3.337.731-.983 1.734-1.753 3.007-2.312 1.282-.566 2.737-.849 4.364-.849 1.628 0 3.078.283 4.352.85 1.281.566 2.288 1.34 3.019 2.323.731.975 1.1 2.083 1.109 3.325-.008 1.33-.417 2.489-1.227 3.48A5.272 5.272 0 0 1 19.4 19.87v.165a6.12 6.12 0 0 1 2.63 1.085 6.156 6.156 0 0 1 1.886 2.11c.472.842.712 1.766.72 2.772a5.61 5.61 0 0 1-1.215 3.503c-.802 1.03-1.91 1.844-3.326 2.441-1.407.59-3.019.885-4.835.885Zm0-3.75c.81 0 1.518-.145 2.123-.436.605-.299 1.077-.708 1.415-1.226.346-.527.519-1.133.519-1.817 0-.7-.177-1.317-.53-1.851a3.648 3.648 0 0 0-1.44-1.274c-.605-.314-1.3-.472-2.087-.472-.778 0-1.474.158-2.087.472a3.63 3.63 0 0 0-1.45 1.274c-.347.534-.52 1.152-.52 1.851 0 .684.17 1.29.507 1.817.338.518.814.927 1.427 1.226.614.29 1.321.436 2.123.436Zm0-10.79c.676 0 1.278-.138 1.804-.413.527-.275.94-.657 1.239-1.144.299-.488.448-1.05.448-1.687 0-.629-.15-1.18-.448-1.65a3.071 3.071 0 0 0-1.227-1.121c-.519-.275-1.124-.413-1.816-.413-.684 0-1.29.138-1.816.413a3.04 3.04 0 0 0-1.238 1.12c-.291.472-.437 1.022-.437 1.651 0 .637.15 1.2.448 1.687.3.487.712.869 1.239 1.144.527.275 1.128.412 1.804.412Zm126.652 175.648c1.816 0 3.432.294 4.847.884 1.407.598 2.512 1.411 3.314 2.441a5.552 5.552 0 0 1 1.203 3.503 5.72 5.72 0 0 1-.684 2.771 6.147 6.147 0 0 1-1.887 2.111 6.209 6.209 0 0 1-2.665 1.085v.166c1.289.259 2.335.884 3.137 1.875.802.998 1.203 2.158 1.203 3.479 0 1.25-.366 2.362-1.097 3.337-.731.983-1.734 1.754-3.007 2.312-1.282.566-2.737.849-4.364.849-1.627 0-3.078-.283-4.352-.849-1.281-.566-2.288-1.341-3.019-2.323a5.456 5.456 0 0 1-1.108-3.326c.007-1.329.416-2.489 1.226-3.479a5.27 5.27 0 0 1 3.114-1.875v-.166a6.1 6.1 0 0 1-2.63-1.085 6.137 6.137 0 0 1-1.887-2.111 5.66 5.66 0 0 1-.72-2.771 5.611 5.611 0 0 1 1.215-3.503c.802-1.03 1.91-1.843 3.326-2.441 1.407-.59 3.019-.884 4.835-.884Zm0 3.75c-.81 0-1.517.145-2.123.436-.605.299-1.077.708-1.415 1.227-.346.527-.519 1.132-.519 1.816 0 .7.177 1.317.531 1.852.354.542.833.967 1.439 1.273.605.315 1.301.472 2.087.472.778 0 1.474-.157 2.087-.472a3.625 3.625 0 0 0 1.451-1.273c.346-.535.519-1.152.519-1.852 0-.684-.169-1.289-.507-1.816-.338-.519-.814-.928-1.427-1.227-.613-.291-1.321-.436-2.123-.436Zm0 10.791c-.676 0-1.278.137-1.804.413-.527.275-.94.656-1.239 1.144-.298.487-.448 1.049-.448 1.686 0 .629.15 1.179.448 1.651.299.48.708.853 1.227 1.121.519.275 1.124.412 1.816.412.684 0 1.289-.137 1.816-.412.527-.268.94-.641 1.239-1.121.29-.472.436-1.022.436-1.651 0-.637-.15-1.199-.448-1.686a3.105 3.105 0 0 0-1.239-1.144c-.526-.276-1.128-.413-1.804-.413ZM20.993 44.046c-.01 4.339-5.452 7.498-7.048 10.934-1.615-3.427-7.067-6.559-7.104-10.897-.01-2.045 1.577-3.713 3.524-3.713 1.956 0 3.552 1.65 3.552 3.694 0-2.054 1.577-3.712 3.524-3.712 1.956-.01 3.543 1.649 3.552 3.694ZM136.258 181.02c.009-4.339 5.452-7.498 7.048-10.934 1.615 3.427 7.067 6.559 7.104 10.897.009 2.045-1.577 3.712-3.524 3.712-1.956 0-3.552-1.648-3.552-3.693 0 2.054-1.577 3.712-3.524 3.712-1.956.009-3.543-1.649-3.552-3.694ZM58.774 26.641c-.023 10.413-13.086 17.996-16.916 26.242-3.875-8.224-16.96-15.74-17.05-26.153-.021-4.908 3.787-8.91 8.459-8.91 4.694 0 8.524 3.957 8.524 8.865 0-4.93 3.786-8.91 8.458-8.91 4.694-.021 8.502 3.958 8.525 8.866Zm0 49.886C58.75 86.94 45.688 94.523 41.858 102.77c-3.875-8.224-16.96-15.74-17.05-26.153-.021-4.908 3.787-8.91 8.459-8.91 4.694 0 8.524 3.958 8.524 8.866 0-4.93 3.786-8.91 8.458-8.91 4.694-.022 8.502 3.957 8.525 8.865Zm-33.965 68.19c.022-10.413 13.085-17.996 16.916-26.242 3.874 8.224 16.96 15.74 17.049 26.153.022 4.908-3.787 8.91-8.458 8.91-4.694 0-8.525-3.958-8.525-8.866 0 4.93-3.786 8.91-8.458 8.91-4.694.022-8.502-3.958-8.524-8.865Zm0 49.886c.022-10.413 13.085-17.996 16.916-26.242 3.874 8.224 16.96 15.741 17.049 26.153.022 4.908-3.787 8.91-8.458 8.91-4.694 0-8.525-3.958-8.525-8.865 0 4.93-3.786 8.909-8.458 8.909-4.694.022-8.502-3.957-8.524-8.865ZM132.447 26.641c-.022 10.413-13.085 17.996-16.916 26.242-3.875-8.224-16.96-15.74-17.049-26.153-.022-4.908 3.786-8.91 8.458-8.91 4.694 0 8.525 3.957 8.525 8.865 0-4.93 3.786-8.91 8.458-8.91 4.694-.021 8.502 3.958 8.524 8.866Zm0 49.886c-.022 10.413-13.085 17.996-16.916 26.242-3.875-8.224-16.96-15.74-17.049-26.153-.022-4.908 3.786-8.91 8.458-8.91 4.694 0 8.525 3.958 8.525 8.866 0-4.93 3.786-8.91 8.458-8.91 4.694-.022 8.502 3.957 8.524 8.865Zm-33.965 68.19c.023-10.413 13.086-17.996 16.917-26.242 3.874 8.224 16.96 15.74 17.048 26.153.023 4.908-3.786 8.91-8.458 8.91-4.694 0-8.524-3.958-8.524-8.866 0 4.93-3.786 8.91-8.458 8.91-4.694.022-8.502-3.958-8.525-8.865Zm0 49.886c.023-10.413 13.086-17.996 16.917-26.242 3.874 8.224 16.96 15.741 17.048 26.153.023 4.908-3.786 8.91-8.458 8.91-4.694 0-8.524-3.958-8.524-8.865 0 4.93-3.786 8.909-8.458 8.909-4.694.022-8.502-3.957-8.525-8.865Z"/>
</svg>
