<svg xmlns="http://www.w3.org/2000/svg" width="157" height="227" fill="none" viewBox="0 0 157 227">
  <path fill="#fff" stroke="#000" stroke-width="2.499" d="M1.658 218.679c0 3.482 2.85 6.328 6.338 6.328h141.009c3.478 0 6.329-2.846 6.329-6.328V8.287c0-3.482-2.851-6.329-6.329-6.329H7.996c-3.487 0-6.338 2.847-6.338 6.329v210.392Z"/>
  <path fill="#000" d="M15.594 36.043c-1.816 0-3.432-.295-4.847-.885-1.408-.597-2.512-1.411-3.314-2.441a5.551 5.551 0 0 1-1.203-3.503c0-1.006.228-1.93.684-2.771A6.155 6.155 0 0 1 8.8 24.332a6.22 6.22 0 0 1 2.665-1.085v-.165c-1.29-.26-2.335-.885-3.137-1.876-.802-.998-1.203-2.158-1.203-3.479 0-1.25.366-2.362 1.097-3.337.731-.983 1.734-1.753 3.007-2.312 1.282-.566 2.736-.849 4.364-.849 1.627 0 3.078.283 4.352.85 1.281.566 2.287 1.34 3.019 2.323.73.975 1.1 2.083 1.108 3.325-.008 1.33-.416 2.489-1.226 3.48-.81.99-1.848 1.615-3.114 1.875v.165a6.12 6.12 0 0 1 2.63 1.085 6.155 6.155 0 0 1 1.887 2.11c.472.842.712 1.766.72 2.772a5.609 5.609 0 0 1-1.215 3.503c-.802 1.03-1.91 1.844-3.326 2.441-1.407.59-3.019.885-4.835.885Zm0-3.75c.81 0 1.517-.146 2.123-.437.605-.299 1.077-.708 1.415-1.227.346-.526.519-1.132.519-1.816 0-.7-.177-1.317-.53-1.851a3.648 3.648 0 0 0-1.44-1.274c-.605-.314-1.3-.472-2.087-.472-.778 0-1.474.157-2.088.472a3.63 3.63 0 0 0-1.45 1.274c-.346.534-.52 1.151-.52 1.851 0 .684.17 1.29.508 1.816.338.52.814.928 1.427 1.227.613.29 1.32.436 2.123.436Zm0-10.792c.676 0 1.278-.137 1.804-.412.527-.276.94-.657 1.239-1.144.298-.488.448-1.05.448-1.687 0-.629-.15-1.18-.448-1.65a3.071 3.071 0 0 0-1.227-1.121c-.519-.276-1.124-.413-1.816-.413-.684 0-1.29.137-1.816.413-.527.267-.94.64-1.239 1.12-.29.472-.436 1.022-.436 1.651 0 .637.15 1.2.448 1.687.299.487.712.868 1.239 1.144.526.275 1.128.412 1.804.412Zm127.575 167.355c1.816 0 3.432.295 4.847.884 1.407.598 2.512 1.412 3.314 2.442a5.55 5.55 0 0 1 1.203 3.502c0 1.007-.228 1.93-.684 2.772a6.166 6.166 0 0 1-1.887 2.111 6.234 6.234 0 0 1-2.665 1.085v.165c1.289.259 2.335.884 3.137 1.875.802.998 1.203 2.158 1.203 3.479 0 1.25-.366 2.363-1.097 3.338-.731.982-1.734 1.753-3.008 2.311-1.281.566-2.736.849-4.363.849-1.628 0-3.078-.283-4.352-.849-1.281-.566-2.288-1.34-3.019-2.323-.731-.975-1.101-2.084-1.109-3.326.008-1.329.417-2.488 1.227-3.479a5.27 5.27 0 0 1 3.113-1.875v-.165a6.136 6.136 0 0 1-2.63-1.085 6.166 6.166 0 0 1-1.887-2.111 5.675 5.675 0 0 1-.719-2.772 5.608 5.608 0 0 1 1.215-3.502c.802-1.03 1.91-1.844 3.326-2.442 1.407-.589 3.019-.884 4.835-.884Zm0 3.75c-.81 0-1.518.146-2.123.436-.605.299-1.077.708-1.415 1.227-.346.527-.519 1.132-.519 1.816 0 .7.177 1.317.531 1.852a3.64 3.64 0 0 0 1.438 1.273c.606.315 1.302.472 2.088.472.778 0 1.474-.157 2.087-.472a3.625 3.625 0 0 0 1.451-1.273c.346-.535.519-1.152.519-1.852 0-.684-.169-1.289-.507-1.816-.338-.519-.814-.928-1.427-1.227-.614-.29-1.321-.436-2.123-.436Zm0 10.791c-.676 0-1.278.138-1.805.413a3.108 3.108 0 0 0-1.238 1.144c-.299.487-.448 1.049-.448 1.686 0 .629.149 1.18.448 1.651.299.48.708.853 1.227 1.121.519.275 1.124.413 1.816.413.684 0 1.289-.138 1.816-.413.527-.268.94-.641 1.238-1.121.291-.471.437-1.022.437-1.651 0-.637-.15-1.199-.448-1.686a3.105 3.105 0 0 0-1.239-1.144c-.527-.275-1.128-.413-1.804-.413ZM10.635 55.462c1.54 0 2.352-1.64 2.777-3.28.424-1.64.461-3.279.461-3.279l.784-.009s.148 6.568 3.23 6.568h-7.252Z"/>
  <path fill="#000" d="M8.024 48.894c.01-3.196 4.816-5.518 6.227-8.041 1.412 2.533 6.218 4.854 6.228 8.041 0 1.51-1.394 2.736-3.119 2.736-1.716 0-3.109-1.225-3.109-2.736 0 1.51-1.393 2.736-3.118 2.736-1.725 0-3.11-1.225-3.11-2.736Zm139.261 121.691c-1.541 0-2.353 1.64-2.777 3.28-.425 1.639-.462 3.279-.462 3.279l-.784.009s-.147-6.568-3.229-6.568h7.252Z"/>
  <path fill="#000" d="M149.895 177.153c-.009 3.196-4.816 5.518-6.227 8.042-1.412-2.533-6.218-4.855-6.228-8.042 0-1.511 1.393-2.736 3.119-2.736 1.716 0 3.109 1.225 3.109 2.736 0-1.511 1.393-2.736 3.118-2.736 1.725 0 3.109 1.225 3.109 2.736ZM33.445 53.351c3.698 0 5.647-3.935 6.665-7.87 1.019-3.935 1.107-7.87 1.107-7.87l1.882-.022s.354 15.762 7.75 15.762H33.445Z"/>
  <path fill="#000" d="M27.18 37.589c.022-7.672 11.558-13.243 14.945-19.3 3.388 6.08 14.924 11.65 14.946 19.3 0 3.625-3.344 6.566-7.484 6.566-4.118 0-7.462-2.94-7.462-6.566 0 3.625-3.343 6.566-7.484 6.566-4.14 0-7.461-2.94-7.461-6.566Zm6.265 65.648c3.698 0 5.647-3.935 6.665-7.87 1.019-3.935 1.107-7.87 1.107-7.87l1.882-.022s.354 15.762 7.75 15.762H33.445Z"/>
  <path fill="#000" d="M27.18 87.475c.022-7.672 11.558-13.243 14.945-19.3 3.388 6.08 14.924 11.65 14.946 19.3 0 3.625-3.344 6.566-7.484 6.566-4.118 0-7.462-2.94-7.462-6.566 0 3.625-3.343 6.566-7.484 6.566-4.14 0-7.461-2.94-7.461-6.566Zm23.625 31.512c-3.698 0-5.647 3.935-6.665 7.87-1.019 3.936-1.107 7.871-1.107 7.871l-1.882.022s-.354-15.763-7.75-15.763h17.404Z"/>
  <path fill="#000" d="M57.07 134.75c-.021 7.671-11.557 13.242-14.945 19.3-3.387-6.08-14.923-11.651-14.945-19.3 0-3.626 3.343-6.566 7.483-6.566 4.119 0 7.462 2.94 7.462 6.566 0-3.626 3.344-6.566 7.484-6.566 4.14 0 7.462 2.94 7.462 6.566Zm-6.265 34.123c-3.698 0-5.647 3.935-6.665 7.87-1.019 3.936-1.107 7.871-1.107 7.871l-1.882.022s-.354-15.763-7.75-15.763h17.404Z"/>
  <path fill="#000" d="M57.07 184.636c-.021 7.671-11.557 13.242-14.945 19.3-3.387-6.08-14.923-11.651-14.945-19.3 0-3.626 3.343-6.566 7.483-6.566 4.119 0 7.462 2.94 7.462 6.566 0-3.626 3.344-6.566 7.484-6.566 4.14 0 7.462 2.94 7.462 6.566Zm50.049-131.285c3.698 0 5.646-3.935 6.665-7.87 1.018-3.935 1.107-7.87 1.107-7.87l1.882-.022s.354 15.762 7.749 15.762h-17.403Z"/>
  <path fill="#000" d="M100.854 37.589c.022-7.672 11.557-13.243 14.945-19.3 3.388 6.08 14.923 11.65 14.946 19.3 0 3.625-3.344 6.566-7.484 6.566-4.119 0-7.462-2.94-7.462-6.566 0 3.625-3.343 6.566-7.484 6.566-4.14 0-7.461-2.94-7.461-6.566Zm6.265 65.648c3.698 0 5.646-3.935 6.665-7.87 1.018-3.935 1.107-7.87 1.107-7.87l1.882-.022s.354 15.762 7.749 15.762h-17.403Z"/>
  <path fill="#000" d="M100.854 87.475c.022-7.672 11.557-13.243 14.945-19.3 3.388 6.08 14.923 11.65 14.946 19.3 0 3.625-3.344 6.566-7.484 6.566-4.119 0-7.462-2.94-7.462-6.566 0 3.625-3.343 6.566-7.484 6.566-4.14 0-7.461-2.94-7.461-6.566Zm23.624 31.512c-3.697 0-5.646 3.935-6.664 7.87-1.019 3.936-1.107 7.871-1.107 7.871l-1.882.022s-.355-15.763-7.75-15.763h17.403Z"/>
  <path fill="#000" d="M130.745 134.75c-.023 7.671-11.558 13.242-14.946 19.3-3.388-6.08-14.923-11.651-14.945-19.3 0-3.626 3.343-6.566 7.483-6.566 4.119 0 7.462 2.94 7.462 6.566 0-3.626 3.343-6.566 7.484-6.566 4.14 0 7.462 2.94 7.462 6.566Zm-6.267 34.123c-3.697 0-5.646 3.935-6.664 7.87-1.019 3.936-1.107 7.871-1.107 7.871l-1.882.022s-.355-15.763-7.75-15.763h17.403Z"/>
  <path fill="#000" d="M130.745 184.636c-.023 7.671-11.558 13.242-14.946 19.3-3.388-6.08-14.923-11.651-14.945-19.3 0-3.626 3.343-6.566 7.483-6.566 4.119 0 7.462 2.94 7.462 6.566 0-3.626 3.343-6.566 7.484-6.566 4.14 0 7.462 2.94 7.462 6.566Z"/>
</svg>
