<svg xmlns="http://www.w3.org/2000/svg" width="170" height="247" fill="none" viewBox="0 0 170 247">
  <path fill="#fff" stroke="#000" stroke-width="2.499" d="M2 237.183c0 3.778 3.089 6.867 6.867 6.867h152.789c3.768 0 6.857-3.089 6.857-6.867V8.867c0-3.778-3.089-6.867-6.857-6.867H8.867C5.09 2 2 5.089 2 8.867v228.316Z"/>
  <path fill="#000" d="M15.697 10.205c1.242 0 2.437.208 3.585.625a8.258 8.258 0 0 1 3.09 1.993c.912.912 1.631 2.123 2.158 3.632.534 1.502.806 3.346.814 5.531 0 2.052-.232 3.884-.696 5.496-.456 1.604-1.113 2.968-1.97 4.092-.857 1.125-1.89 1.982-3.101 2.571-1.211.582-2.563.873-4.057.873-1.612 0-3.035-.31-4.27-.932-1.234-.629-2.228-1.482-2.983-2.559a7.968 7.968 0 0 1-1.356-3.656h5.035c.197.88.61 1.565 1.239 2.052.629.48 1.407.72 2.335.72 1.572 0 2.767-.684 3.585-2.052.818-1.376 1.23-3.26 1.238-5.65h-.165a5.78 5.78 0 0 1-1.462 1.829 6.81 6.81 0 0 1-2.111 1.167 7.551 7.551 0 0 1-2.512.413c-1.423 0-2.693-.334-3.81-1.003a7.193 7.193 0 0 1-2.641-2.76c-.645-1.17-.967-2.507-.967-4.009-.008-1.62.365-3.062 1.12-4.328.755-1.266 1.808-2.257 3.16-2.972 1.36-.723 2.941-1.081 4.742-1.073Zm.035 4.01c-.794 0-1.502.188-2.123.566a4.18 4.18 0 0 0-1.462 1.52c-.354.638-.527 1.35-.52 2.136 0 .794.174 1.51.52 2.146a4.142 4.142 0 0 0 1.439 1.51c.613.369 1.313.554 2.099.554a4.045 4.045 0 0 0 2.948-1.238c.378-.394.672-.846.885-1.357a4.2 4.2 0 0 0 .318-1.627 4.344 4.344 0 0 0-.542-2.1 4.144 4.144 0 0 0-1.463-1.533c-.62-.385-1.32-.578-2.099-.578Zm140.571 224.956c-1.242 0-2.437-.208-3.585-.625a8.258 8.258 0 0 1-3.09-1.993c-.912-.912-1.631-2.123-2.158-3.633-.535-1.501-.806-3.345-.814-5.531 0-2.052.232-3.884.696-5.495.456-1.604 1.113-2.968 1.97-4.093.857-1.124 1.891-1.981 3.101-2.571 1.211-.582 2.563-.872 4.057-.872 1.612 0 3.035.31 4.269.931 1.235.629 2.229 1.482 2.984 2.559a7.966 7.966 0 0 1 1.356 3.656h-5.035c-.197-.88-.61-1.564-1.239-2.052-.629-.479-1.407-.719-2.335-.719-1.572 0-2.767.684-3.585 2.052-.818 1.376-1.23 3.259-1.238 5.649h.165a5.784 5.784 0 0 1 1.462-1.828 6.841 6.841 0 0 1 2.111-1.168 7.56 7.56 0 0 1 2.512-.412c1.423 0 2.693.334 3.81 1.002a7.184 7.184 0 0 1 2.641 2.76c.645 1.171.967 2.508.967 4.01.008 1.619-.365 3.062-1.12 4.328-.755 1.266-1.808 2.256-3.161 2.972-1.36.723-2.94 1.081-4.741 1.073Zm-.035-4.01c.794 0 1.502-.189 2.123-.566a4.168 4.168 0 0 0 1.462-1.521c.354-.637.527-1.349.519-2.135 0-.794-.173-1.509-.519-2.146a4.137 4.137 0 0 0-1.439-1.51c-.613-.369-1.313-.554-2.099-.554a4.044 4.044 0 0 0-2.948 1.238 4.35 4.35 0 0 0-.885 1.356 4.207 4.207 0 0 0-.318 1.628c.008.763.189 1.462.542 2.099a4.146 4.146 0 0 0 1.463 1.533 3.903 3.903 0 0 0 2.099.578ZM12.296 47.476c0 1.81 1.51 3.279 3.379 3.279 1.87 0 3.379-1.47 3.379-3.279 0-1.81-1.51-3.279-3.379-3.279-1.87 0-3.379 1.47-3.379 3.28Zm-4.358 6.208c0 1.81 1.51 3.279 3.379 3.279s3.378-1.47 3.378-3.28c0-1.809-1.51-3.278-3.378-3.278-1.87 0-3.38 1.47-3.38 3.279Zm8.657.02c0 .66.2 1.28.55 1.8a3.411 3.411 0 0 0 2.828 1.479c1.87 0 3.38-1.47 3.38-3.28 0-1.809-1.51-3.278-3.38-3.278-1.869 0-3.378 1.47-3.378 3.279Zm-4.888 6.367c1.669 0 2.549-1.36 3.008-2.719.46-1.36.5-2.719.5-2.719h.86s.16 5.428 3.499 5.438h-7.867Z"/>
  <path fill="#000" d="M17.964 49.885c-1.9 1.9-1.9 4.748-1.9 4.748l-.85.01s0-2.909-1.848-4.758"/>
  <path fill="#000" d="M17.584 55.983c-1.9-1.9-4.748-1.9-4.748-1.9v-.85s2.909 0 4.758-1.848"/>
  <path fill="#000" d="M13.776 55.993c1.899-1.9 4.748-1.9 4.748-1.9v-.85s-2.909 0-4.758-1.848m145.446 146.182c0-1.809-1.51-3.279-3.379-3.279s-3.379 1.47-3.379 3.279c0 1.81 1.51 3.279 3.379 3.279s3.379-1.469 3.379-3.279Zm4.358-6.207c0-1.81-1.509-3.279-3.379-3.279-1.869 0-3.379 1.469-3.379 3.279 0 1.809 1.51 3.278 3.379 3.278 1.87 0 3.379-1.469 3.379-3.278Zm-8.657-.02c0-.66-.2-1.28-.55-1.8a3.41 3.41 0 0 0-2.828-1.479c-1.87 0-3.379 1.469-3.379 3.279 0 1.809 1.509 3.278 3.379 3.278 1.869 0 3.378-1.469 3.378-3.278Zm4.888-6.368c-1.669 0-2.549 1.359-3.009 2.719-.46 1.359-.5 2.719-.5 2.719h-.859s-.16-5.428-3.499-5.438h7.867Z"/>
  <path fill="#000" d="M153.544 195.168c1.899-1.899 1.899-4.748 1.899-4.748l.85-.01s0 2.909 1.849 4.758"/>
  <path fill="#000" d="M153.924 189.07c1.899 1.9 4.748 1.9 4.748 1.9v.849s-2.909 0-4.758 1.85"/>
  <path fill="#000" d="M157.732 189.06c-1.899 1.9-4.748 1.9-4.748 1.9v.849s2.909 0 4.758 1.85M37.806 27.567c0 4.342 3.623 7.868 8.109 7.868s8.109-3.526 8.109-7.869c0-4.342-3.623-7.869-8.11-7.869-4.485 0-8.108 3.527-8.108 7.87Zm-10.46 14.898c0 4.342 3.623 7.87 8.109 7.87s8.109-3.528 8.109-7.87c0-4.342-3.623-7.869-8.109-7.869s-8.109 3.527-8.109 7.869Zm20.776.048c0 1.583.48 3.07 1.32 4.318 1.44 2.136 3.958 3.551 6.79 3.551 4.486 0 8.108-3.527 8.108-7.869s-3.622-7.87-8.109-7.87c-4.486 0-8.109 3.528-8.109 7.87ZM36.39 57.795c4.007 0 6.118-3.263 7.222-6.525 1.103-3.263 1.2-6.526 1.2-6.526h2.063s.383 13.027 8.397 13.051H36.39Z"/>
  <path fill="#000" d="M51.41 33.348c-4.56 4.559-4.56 11.396-4.56 11.396l-2.038.024s0-6.981-4.439-11.42"/>
  <path fill="#000" d="M50.498 47.983c-4.559-4.558-11.396-4.558-11.396-4.558v-2.04s6.981 0 11.42-4.438"/>
  <path fill="#000" d="M41.357 48.007c4.558-4.558 11.395-4.558 11.395-4.558v-2.04s-6.981 0-11.42-4.438m-3.526 44.732c0 4.342 3.623 7.869 8.109 7.869s8.109-3.527 8.109-7.87c0-4.342-3.623-7.868-8.11-7.868-4.485 0-8.108 3.526-8.108 7.869Zm-10.46 14.898c0 4.343 3.623 7.869 8.109 7.869s8.109-3.526 8.109-7.869c0-4.342-3.623-7.869-8.109-7.869s-8.109 3.527-8.109 7.87Zm20.776.049c0 1.582.48 3.07 1.32 4.318 1.44 2.135 3.958 3.55 6.79 3.55 4.486 0 8.108-3.526 8.108-7.869 0-4.342-3.622-7.869-8.109-7.869-4.486 0-8.109 3.527-8.109 7.87ZM36.39 111.931c4.007 0 6.118-3.262 7.222-6.525 1.103-3.263 1.2-6.526 1.2-6.526h2.063s.383 13.027 8.397 13.051H36.39Z"/>
  <path fill="#000" d="M51.41 87.484c-4.56 4.559-4.56 11.396-4.56 11.396l-2.038.024s0-6.981-4.439-11.42"/>
  <path fill="#000" d="M50.498 102.119c-4.559-4.558-11.396-4.558-11.396-4.558v-2.04s6.981 0 11.42-4.438"/>
  <path fill="#000" d="M41.357 102.143c4.558-4.558 11.395-4.558 11.395-4.558v-2.04s-6.981 0-11.42-4.438m12.548 68.095c0-4.343-3.623-7.869-8.109-7.869s-8.109 3.526-8.109 7.869c0 4.342 3.623 7.869 8.11 7.869 4.485 0 8.108-3.527 8.108-7.869Zm10.46-14.899c0-4.342-3.623-7.869-8.109-7.869s-8.109 3.527-8.109 7.869c0 4.343 3.623 7.869 8.11 7.869 4.485 0 8.108-3.526 8.108-7.869Zm-20.776-.048c0-1.583-.48-3.071-1.32-4.318-1.44-2.135-3.958-3.551-6.79-3.551-4.486 0-8.108 3.527-8.108 7.869 0 4.343 3.622 7.869 8.109 7.869 4.486 0 8.109-3.526 8.109-7.869Zm11.731-15.282c-4.006 0-6.117 3.263-7.22 6.525-1.104 3.263-1.2 6.526-1.2 6.526H44.81s-.383-13.027-8.396-13.051h18.88Z"/>
  <path fill="#000" d="M40.277 153.42c4.558-4.559 4.558-11.396 4.558-11.396l2.04-.024s0 6.981 4.438 11.42"/>
  <path fill="#000" d="M41.188 138.785c4.559 4.559 11.396 4.559 11.396 4.559v2.039s-6.981 0-11.42 4.438"/>
  <path fill="#000" d="M50.33 138.761c-4.559 4.559-11.396 4.559-11.396 4.559v2.039s6.981 0 11.42 4.438m3.526 63.541c0-4.343-3.623-7.869-8.109-7.869s-8.109 3.526-8.109 7.869c0 4.342 3.623 7.869 8.11 7.869 4.485 0 8.108-3.527 8.108-7.869Zm10.46-14.899c0-4.342-3.623-7.869-8.109-7.869s-8.109 3.527-8.109 7.869c0 4.343 3.623 7.869 8.11 7.869 4.485 0 8.108-3.526 8.108-7.869Zm-20.776-.048c0-1.583-.48-3.071-1.32-4.318-1.44-2.135-3.958-3.551-6.79-3.551-4.486 0-8.108 3.527-8.108 7.869 0 4.343 3.622 7.869 8.109 7.869 4.486 0 8.109-3.526 8.109-7.869Zm11.731-15.282c-4.006 0-6.117 3.263-7.22 6.526-1.104 3.262-1.2 6.525-1.2 6.525H44.81s-.383-13.027-8.396-13.051h18.88Z"/>
  <path fill="#000" d="M40.277 207.556c4.558-4.558 4.558-11.396 4.558-11.396l2.04-.024s0 6.982 4.438 11.42"/>
  <path fill="#000" d="M41.188 192.921c4.559 4.559 11.396 4.559 11.396 4.559v2.039s-6.981 0-11.42 4.438"/>
  <path fill="#000" d="M50.33 192.897c-4.559 4.559-11.396 4.559-11.396 4.559v2.039s6.981 0 11.42 4.438m67.28-176.366c0 4.342 3.622 7.868 8.109 7.868 4.486 0 8.109-3.526 8.109-7.869 0-4.342-3.623-7.869-8.109-7.869-4.487 0-8.109 3.527-8.109 7.87Zm-10.46 14.898c0 4.342 3.622 7.87 8.109 7.87 4.486 0 8.109-3.528 8.109-7.87 0-4.342-3.623-7.869-8.109-7.869-4.487 0-8.109 3.527-8.109 7.869Zm20.776.048c0 1.583.48 3.07 1.32 4.318 1.439 2.136 3.958 3.551 6.789 3.551 4.486 0 8.109-3.527 8.109-7.869s-3.623-7.87-8.109-7.87-8.109 3.528-8.109 7.87Zm-11.732 15.282c4.007 0 6.118-3.263 7.221-6.525 1.104-3.263 1.2-6.526 1.2-6.526h2.063s.384 13.027 8.397 13.051h-18.881Z"/>
  <path fill="#000" d="M131.237 33.348c-4.558 4.559-4.558 11.396-4.558 11.396l-2.04.024s0-6.981-4.438-11.42"/>
  <path fill="#000" d="M130.325 47.983c-4.558-4.558-11.396-4.558-11.396-4.558v-2.04s6.982 0 11.42-4.438"/>
  <path fill="#000" d="M121.184 48.007c4.559-4.558 11.396-4.558 11.396-4.558v-2.04s-6.981 0-11.42-4.438m-3.526 44.732c0 4.342 3.622 7.869 8.109 7.869 4.486 0 8.109-3.527 8.109-7.87 0-4.342-3.623-7.868-8.109-7.868-4.487 0-8.109 3.526-8.109 7.869Zm-10.46 14.898c0 4.343 3.622 7.869 8.109 7.869 4.486 0 8.109-3.526 8.109-7.869 0-4.342-3.623-7.869-8.109-7.869-4.487 0-8.109 3.527-8.109 7.87Zm20.776.049c0 1.582.48 3.07 1.32 4.318 1.439 2.135 3.958 3.55 6.789 3.55 4.486 0 8.109-3.526 8.109-7.869 0-4.342-3.623-7.869-8.109-7.869s-8.109 3.527-8.109 7.87Zm-11.732 15.281c4.007 0 6.118-3.262 7.221-6.525 1.104-3.263 1.2-6.526 1.2-6.526h2.063s.384 13.027 8.397 13.051h-18.881Z"/>
  <path fill="#000" d="M131.237 87.484c-4.558 4.559-4.558 11.396-4.558 11.396l-2.04.024s0-6.981-4.438-11.42"/>
  <path fill="#000" d="M130.325 102.119c-4.558-4.558-11.396-4.558-11.396-4.558v-2.04s6.982 0 11.42-4.438"/>
  <path fill="#000" d="M121.184 102.143c4.559-4.558 11.396-4.558 11.396-4.558v-2.04s-6.981 0-11.42-4.438m12.548 68.095c0-4.343-3.622-7.869-8.109-7.869-4.486 0-8.109 3.526-8.109 7.869 0 4.342 3.623 7.869 8.109 7.869 4.487 0 8.109-3.527 8.109-7.869Zm10.46-14.899c0-4.342-3.622-7.869-8.109-7.869-4.486 0-8.109 3.527-8.109 7.869 0 4.343 3.623 7.869 8.109 7.869 4.487 0 8.109-3.526 8.109-7.869Zm-20.776-.048c0-1.583-.48-3.071-1.32-4.318-1.439-2.135-3.958-3.551-6.789-3.551-4.487 0-8.109 3.527-8.109 7.869 0 4.343 3.622 7.869 8.109 7.869 4.486 0 8.109-3.526 8.109-7.869Zm11.732-15.282c-4.007 0-6.118 3.263-7.222 6.525-1.103 3.263-1.199 6.526-1.199 6.526h-2.063s-.384-13.027-8.397-13.051h18.881Z"/>
  <path fill="#000" d="M120.105 153.42c4.558-4.559 4.558-11.396 4.558-11.396l2.04-.024s0 6.981 4.438 11.42"/>
  <path fill="#000" d="M121.017 138.785c4.558 4.559 11.395 4.559 11.395 4.559v2.039s-6.981 0-11.419 4.438"/>
  <path fill="#000" d="M130.157 138.761c-4.558 4.559-11.395 4.559-11.395 4.559v2.039s6.981 0 11.419 4.438m3.527 63.541c0-4.343-3.622-7.869-8.109-7.869-4.486 0-8.109 3.526-8.109 7.869 0 4.342 3.623 7.869 8.109 7.869 4.487 0 8.109-3.527 8.109-7.869Zm10.46-14.899c0-4.342-3.622-7.869-8.109-7.869-4.486 0-8.109 3.527-8.109 7.869 0 4.343 3.623 7.869 8.109 7.869 4.487 0 8.109-3.526 8.109-7.869Zm-20.776-.048c0-1.583-.48-3.071-1.32-4.318-1.439-2.135-3.958-3.551-6.789-3.551-4.487 0-8.109 3.527-8.109 7.869 0 4.343 3.622 7.869 8.109 7.869 4.486 0 8.109-3.526 8.109-7.869Zm11.732-15.282c-4.007 0-6.118 3.263-7.222 6.526-1.103 3.262-1.199 6.525-1.199 6.525h-2.063s-.384-13.027-8.397-13.051h18.881Z"/>
  <path fill="#000" d="M120.105 207.556c4.558-4.558 4.558-11.396 4.558-11.396l2.04-.024s0 6.982 4.438 11.42"/>
  <path fill="#000" d="M121.017 192.921c4.558 4.559 11.395 4.559 11.395 4.559v2.039s-6.981 0-11.419 4.438"/>
  <path fill="#000" d="M130.157 192.897c-4.558 4.559-11.395 4.559-11.395 4.559v2.039s6.981 0 11.419 4.438M77.72 54.635c0 4.342 3.622 7.869 8.109 7.869 4.486 0 8.109-3.527 8.109-7.87 0-4.342-3.623-7.868-8.11-7.868-4.486 0-8.109 3.526-8.109 7.869ZM67.26 69.533c0 4.343 3.622 7.87 8.109 7.87 4.486 0 8.109-3.528 8.109-7.87 0-4.342-3.623-7.869-8.11-7.869-4.486 0-8.108 3.527-8.108 7.87Zm20.776.048a7.71 7.71 0 0 0 1.32 4.319c1.439 2.135 3.958 3.55 6.789 3.55 4.486 0 8.109-3.526 8.109-7.869 0-4.342-3.623-7.869-8.11-7.869-4.485 0-8.108 3.527-8.108 7.87ZM76.304 84.863c4.007 0 6.118-3.262 7.221-6.525 1.104-3.263 1.2-6.526 1.2-6.526h2.063s.384 13.027 8.397 13.051h-18.88Z"/>
  <path fill="#000" d="M91.323 60.416c-4.559 4.559-4.559 11.396-4.559 11.396l-2.039.024s0-6.981-4.438-11.42"/>
  <path fill="#000" d="M90.411 75.051c-4.558-4.558-11.396-4.558-11.396-4.558v-2.04s6.982 0 11.42-4.438"/>
  <path fill="#000" d="M81.27 75.075c4.559-4.558 11.396-4.558 11.396-4.558v-2.04s-6.981 0-11.42-4.438"/>
</svg>
