<svg xmlns="http://www.w3.org/2000/svg" width="170" height="246" fill="none" viewBox="0 0 170 246">
  <path fill="#fff" stroke="#000" stroke-width="2.499" d="M2 237.185c0 3.779 3.089 6.867 6.867 6.867h152.789c3.768 0 6.857-3.088 6.857-6.867V8.87c0-3.779-3.089-6.868-6.857-6.868H8.867C5.09 2.002 2 5.092 2 8.87v228.315Z"/>
  <path fill="#E6180A" d="M16.395 9.517c1.243 0 2.438.208 3.586.625a8.257 8.257 0 0 1 3.09 1.993c.912.912 1.63 2.123 2.158 3.632.534 1.502.806 3.346.813 5.532 0 2.052-.232 3.884-.695 5.495-.457 1.604-1.113 2.968-1.97 4.093-.857 1.124-1.89 1.98-3.102 2.57-1.21.582-2.563.873-4.056.873-1.612 0-3.035-.31-4.27-.931-1.234-.63-2.229-1.483-2.983-2.56a7.969 7.969 0 0 1-1.357-3.656h5.036c.197.881.61 1.565 1.238 2.052.63.48 1.408.72 2.335.72 1.573 0 2.768-.684 3.586-2.052.817-1.376 1.23-3.26 1.238-5.65h-.165a5.782 5.782 0 0 1-1.462 1.829 6.811 6.811 0 0 1-2.112 1.167 7.549 7.549 0 0 1-2.512.413c-1.423 0-2.692-.334-3.809-1.002A7.193 7.193 0 0 1 8.34 21.9c-.644-1.171-.967-2.508-.967-4.01-.007-1.62.366-3.062 1.12-4.328.756-1.266 1.81-2.256 3.161-2.972 1.36-.723 2.94-1.081 4.741-1.073Zm.036 4.01c-.794 0-1.502.188-2.123.566-.613.377-1.1.884-1.463 1.521-.353.637-.526 1.348-.518 2.135 0 .794.173 1.51.518 2.146a4.142 4.142 0 0 0 1.44 1.51c.613.37 1.312.554 2.099.554a4.043 4.043 0 0 0 2.948-1.238 4.35 4.35 0 0 0 .884-1.357 4.2 4.2 0 0 0 .319-1.627 4.344 4.344 0 0 0-.543-2.1 4.145 4.145 0 0 0-1.462-1.533c-.621-.385-1.32-.577-2.1-.577Zm138.571 222.956c-1.242 0-2.437-.208-3.585-.625a8.258 8.258 0 0 1-3.09-1.993c-.912-.912-1.631-2.123-2.158-3.632-.535-1.502-.806-3.346-.814-5.531 0-2.053.232-3.884.696-5.496.456-1.604 1.112-2.968 1.969-4.093.857-1.124 1.891-1.981 3.102-2.571 1.211-.581 2.563-.872 4.057-.872 1.612 0 3.035.31 4.269.931 1.235.629 2.229 1.483 2.984 2.56a7.962 7.962 0 0 1 1.356 3.656h-5.036c-.196-.881-.609-1.565-1.238-2.052-.629-.48-1.407-.72-2.335-.72-1.572 0-2.768.684-3.585 2.052-.818 1.376-1.231 3.259-1.238 5.649h.165a5.781 5.781 0 0 1 1.462-1.828 6.807 6.807 0 0 1 2.111-1.167 7.555 7.555 0 0 1 2.512-.413c1.423 0 2.693.334 3.809 1.002a7.2 7.2 0 0 1 2.642 2.76c.645 1.172.967 2.508.967 4.01.008 1.619-.366 3.062-1.12 4.328-.755 1.266-1.809 2.256-3.161 2.972-1.36.723-2.94 1.081-4.741 1.073Zm-.035-4.01c.794 0 1.501-.188 2.123-.566a4.176 4.176 0 0 0 1.462-1.521c.354-.637.527-1.348.519-2.135 0-.794-.173-1.509-.519-2.146a4.145 4.145 0 0 0-1.439-1.51c-.613-.369-1.313-.554-2.099-.554a4.044 4.044 0 0 0-2.948 1.238 4.337 4.337 0 0 0-.885 1.357 4.202 4.202 0 0 0-.318 1.627c.007.763.188 1.463.542 2.099a4.143 4.143 0 0 0 1.462 1.533c.622.386 1.321.578 2.1.578ZM15.645 52.137h7.677c-.874-.04-1.618-.605-2.32-1.073-1.58-1.19-3.058-2.556-4.225-4.153-.545-.804-1.118-1.708-1.132-2.711m7.677 7.937c-1.11.035-2.057.74-2.903 1.392-1.494 1.255-2.788 2.747-3.88 4.362-.4.67-.872 1.378-.894 2.183v-7.937m0 7.937c-.038-1.182-.758-2.205-1.437-3.12a20.885 20.885 0 0 0-4.227-3.96c-.614-.383-1.265-.839-2.013-.857h7.677m-7.677 0c1.11-.035 2.057-.741 2.903-1.392 1.494-1.255 2.788-2.748 3.88-4.363.4-.669.872-1.378.894-2.182v7.937m140.218 140.784h-7.677c.874.039 1.618.605 2.321 1.073 1.578 1.191 3.057 2.556 4.224 4.153.545.804 1.117 1.708 1.132 2.711m-7.677-7.937c1.109-.035 2.057-.741 2.902-1.392 1.495-1.255 2.788-2.747 3.88-4.362.401-.669.873-1.378.895-2.183v7.937m0-7.937c.038 1.182.757 2.206 1.437 3.119a20.882 20.882 0 0 0 4.227 3.962c.613.383 1.265.838 2.013.856h-7.677m7.677 0c-1.11.035-2.057.741-2.903 1.392-1.495 1.255-2.788 2.748-3.88 4.363-.4.669-.872 1.378-.894 2.182v-7.937M45.843 38.75h18.425c-2.098-.094-3.884-1.452-5.57-2.575-3.789-2.857-7.337-6.135-10.14-9.968-1.307-1.93-2.68-4.098-2.715-6.507m18.425 19.05c-2.663.083-4.937 1.778-6.967 3.341-3.587 3.011-6.691 6.593-9.31 10.47-.963 1.605-2.095 3.306-2.148 5.237V38.75m0 19.05c-.091-2.837-1.819-5.293-3.45-7.486-2.908-3.623-6.353-6.828-10.143-9.508-1.474-.919-3.038-2.011-4.832-2.056h18.425m-18.425 0c2.663-.084 4.937-1.778 6.967-3.34 3.586-3.013 6.69-6.595 9.31-10.471.963-1.605 2.094-3.306 2.148-5.238v19.05m0 54.134h18.425c-2.098-.093-3.884-1.451-5.57-2.573-3.789-2.858-7.337-6.135-10.14-9.97-1.307-1.928-2.68-4.097-2.715-6.505m18.425 19.048c-2.663.084-4.937 1.779-6.967 3.342-3.587 3.011-6.691 6.593-9.31 10.47-.963 1.605-2.095 3.306-2.148 5.237V92.885m0 19.049c-.091-2.835-1.819-5.292-3.45-7.485-2.908-3.623-6.353-6.828-10.143-9.508-1.474-.918-3.038-2.011-4.832-2.056h18.425m-18.425 0c2.663-.084 4.937-1.777 6.967-3.34 3.586-3.012 6.69-6.594 9.31-10.471.963-1.605 2.094-3.306 2.148-5.237v19.048m0 55.14H27.418c2.099.093 3.884 1.451 5.57 2.574 3.789 2.857 7.337 6.135 10.14 9.968 1.307 1.929 2.68 4.098 2.715 6.507m-18.425-19.049c2.663-.084 4.937-1.779 6.967-3.342 3.587-3.011 6.691-6.593 9.31-10.47.963-1.605 2.095-3.306 2.148-5.237v19.049m0-19.049c.091 2.836 1.819 5.292 3.45 7.485 2.908 3.623 6.353 6.828 10.144 9.508 1.473.919 3.037 2.011 4.831 2.056H45.843m18.425 0c-2.663.084-4.937 1.777-6.967 3.339-3.586 3.014-6.69 6.595-9.31 10.472-.963 1.605-2.094 3.306-2.148 5.238v-19.049m0 54.136H27.418c2.099.093 3.884 1.451 5.57 2.573 3.789 2.858 7.337 6.135 10.14 9.969 1.307 1.929 2.68 4.098 2.715 6.507m-18.425-19.049c2.663-.084 4.937-1.779 6.967-3.342 3.587-3.011 6.691-6.593 9.31-10.47.963-1.605 2.095-3.306 2.148-5.237v19.049m0-19.049c.091 2.836 1.819 5.292 3.45 7.485 2.908 3.623 6.353 6.828 10.144 9.508 1.473.919 3.037 2.011 4.831 2.056H45.843m18.425 0c-2.663.084-4.937 1.777-6.967 3.339-3.586 3.014-6.69 6.595-9.31 10.472-.963 1.605-2.094 3.306-2.148 5.238v-19.049M125.671 38.75h18.425c-2.099-.094-3.884-1.452-5.571-2.575-3.788-2.857-7.336-6.135-10.139-9.968-1.307-1.93-2.681-4.098-2.715-6.507m18.425 19.05c-2.663.083-4.938 1.778-6.967 3.341-3.587 3.011-6.691 6.593-9.311 10.47-.962 1.605-2.095 3.306-2.147 5.237V38.75m0 19.05c-.092-2.837-1.819-5.293-3.45-7.486-2.908-3.623-6.353-6.828-10.144-9.508-1.473-.919-3.037-2.011-4.832-2.056h18.426m-18.426 0c2.663-.084 4.938-1.778 6.967-3.34 3.587-3.013 6.692-6.595 9.311-10.471.962-1.605 2.094-3.306 2.148-5.238v19.05m0 54.134h18.425c-2.099-.093-3.884-1.451-5.571-2.573-3.788-2.858-7.336-6.135-10.139-9.97-1.307-1.928-2.681-4.097-2.715-6.505m18.425 19.048c-2.663.084-4.938 1.779-6.967 3.342-3.587 3.011-6.691 6.593-9.311 10.47-.962 1.605-2.095 3.306-2.147 5.237V92.885m0 19.049c-.092-2.835-1.819-5.292-3.45-7.485-2.908-3.623-6.353-6.828-10.144-9.508-1.473-.918-3.037-2.011-4.832-2.056h18.426m-18.426 0c2.663-.084 4.938-1.777 6.967-3.34 3.587-3.012 6.692-6.594 9.311-10.471.962-1.605 2.094-3.306 2.148-5.237v19.048m0 55.14h-18.425c2.099.093 3.884 1.451 5.571 2.574 3.788 2.857 7.336 6.135 10.138 9.968 1.308 1.929 2.682 4.098 2.716 6.507m-18.425-19.049c2.663-.084 4.937-1.779 6.967-3.342 3.587-3.011 6.691-6.593 9.311-10.47.962-1.605 2.094-3.306 2.147-5.237v19.049m0-19.049c.091 2.836 1.819 5.292 3.45 7.485 2.908 3.623 6.353 6.828 10.144 9.508 1.473.919 3.037 2.011 4.831 2.056h-18.425m18.425 0c-2.663.084-4.937 1.777-6.967 3.339-3.586 3.014-6.691 6.595-9.311 10.472-.962 1.605-2.093 3.306-2.147 5.238v-19.049m0 54.136h-18.425c2.099.093 3.884 1.451 5.571 2.573 3.788 2.858 7.336 6.135 10.138 9.969 1.308 1.929 2.682 4.098 2.716 6.507m-18.425-19.049c2.663-.084 4.937-1.779 6.967-3.342 3.587-3.011 6.691-6.593 9.311-10.47.962-1.605 2.094-3.306 2.147-5.237v19.049m0-19.049c.091 2.836 1.819 5.292 3.45 7.485 2.908 3.623 6.353 6.828 10.144 9.508 1.473.919 3.037 2.011 4.831 2.056h-18.425m18.425 0c-2.663.084-4.937 1.777-6.967 3.339-3.586 3.014-6.691 6.595-9.311 10.472-.962 1.605-2.093 3.306-2.147 5.238v-19.049M85.757 65.817h18.425c-2.098-.093-3.884-1.451-5.57-2.574-3.789-2.858-7.337-6.135-10.14-9.968-1.307-1.93-2.68-4.098-2.715-6.507m18.425 19.05c-2.663.083-4.937 1.778-6.967 3.341-3.587 3.01-6.691 6.593-9.31 10.47-.963 1.605-2.095 3.306-2.148 5.237V65.817m0 19.049c-.091-2.836-1.819-5.293-3.45-7.485-2.908-3.623-6.353-6.828-10.143-9.508-1.473-.919-3.038-2.012-4.832-2.056h18.425m-18.425 0c2.663-.084 4.937-1.778 6.967-3.34 3.586-3.013 6.691-6.595 9.31-10.472.963-1.605 2.094-3.306 2.148-5.237v19.05"/>
</svg>
