<svg xmlns="http://www.w3.org/2000/svg" width="157" height="227" fill="none" viewBox="0 0 157 227">
  <path fill="#fff" stroke="#000" stroke-width="2.499" d="M1.853 218.626c0 3.482 2.85 6.329 6.338 6.329H149.2c3.478 0 6.328-2.847 6.328-6.329V8.234c0-3.482-2.85-6.328-6.328-6.328H8.19c-3.487 0-6.337 2.846-6.337 6.328v210.392Z"/>
  <path fill="#E6180A" d="M15.04 9.376c1.242 0 2.437.209 3.585.626a8.258 8.258 0 0 1 3.09 1.993c.912.912 1.63 2.122 2.158 3.632.534 1.502.805 3.345.813 5.531 0 2.052-.232 3.884-.695 5.496-.456 1.604-1.113 2.968-1.97 4.092-.857 1.125-1.89 1.982-3.102 2.571-1.21.582-2.563.873-4.056.873-1.612 0-3.035-.31-4.27-.932C9.36 32.63 8.364 31.776 7.61 30.7a7.969 7.969 0 0 1-1.357-3.656h5.036c.197.88.61 1.565 1.238 2.052.63.48 1.408.72 2.336.72 1.572 0 2.767-.684 3.585-2.053.817-1.375 1.23-3.259 1.238-5.649h-.165a5.782 5.782 0 0 1-1.463 1.828 6.812 6.812 0 0 1-2.11 1.168 7.55 7.55 0 0 1-2.513.413c-1.423 0-2.692-.334-3.809-1.003a7.192 7.192 0 0 1-2.641-2.76c-.645-1.17-.968-2.508-.968-4.01-.007-1.619.366-3.061 1.12-4.327.756-1.266 1.81-2.257 3.161-2.972 1.36-.724 2.94-1.081 4.741-1.074Zm.035 4.01c-.794 0-1.502.189-2.123.566-.613.378-1.1.885-1.462 1.522-.354.636-.527 1.348-.52 2.134 0 .794.174 1.51.52 2.147a4.142 4.142 0 0 0 1.438 1.51c.614.369 1.313.553 2.1.553a4.044 4.044 0 0 0 2.948-1.238c.377-.393.672-.845.884-1.356a4.202 4.202 0 0 0 .319-1.628 4.345 4.345 0 0 0-.543-2.099 4.145 4.145 0 0 0-1.462-1.533c-.621-.385-1.32-.578-2.1-.578Zm127.159 204.881c-1.242 0-2.437-.208-3.585-.625a8.246 8.246 0 0 1-3.09-1.993c-.912-.912-1.631-2.123-2.158-3.632-.535-1.502-.806-3.346-.814-5.531 0-2.052.232-3.884.696-5.496.456-1.604 1.112-2.968 1.969-4.092.857-1.125 1.891-1.982 3.102-2.571 1.211-.582 2.563-.873 4.057-.873 1.612 0 3.035.311 4.269.932 1.235.629 2.229 1.482 2.984 2.559a7.962 7.962 0 0 1 1.356 3.656h-5.036c-.196-.881-.609-1.565-1.238-2.052-.629-.48-1.407-.72-2.335-.72-1.573 0-2.768.684-3.585 2.052-.818 1.376-1.231 3.259-1.239 5.649h.166a5.781 5.781 0 0 1 1.462-1.828 6.807 6.807 0 0 1 2.111-1.167 7.555 7.555 0 0 1 2.512-.413c1.423 0 2.693.334 3.809 1.003a7.19 7.19 0 0 1 2.642 2.759c.645 1.172.967 2.508.967 4.01.008 1.62-.366 3.062-1.12 4.328-.755 1.266-1.809 2.257-3.161 2.972-1.36.723-2.941 1.081-4.741 1.073Zm-.035-4.009c.794 0 1.501-.189 2.122-.567a4.17 4.17 0 0 0 1.463-1.521c.354-.637.527-1.348.519-2.134 0-.795-.173-1.51-.519-2.147a4.143 4.143 0 0 0-1.439-1.509c-.613-.37-1.313-.555-2.099-.555a4.044 4.044 0 0 0-2.949 1.239 4.348 4.348 0 0 0-.884 1.356 4.335 4.335 0 0 0 .224 3.727 4.158 4.158 0 0 0 1.462 1.533 3.907 3.907 0 0 0 2.1.578ZM21.521 44.483c-.009 4.339-5.452 7.499-7.048 10.934C12.86 51.991 7.406 48.86 7.37 44.52c-.009-2.045 1.578-3.712 3.525-3.712 1.955 0 3.551 1.649 3.551 3.694 0-2.054 1.578-3.713 3.525-3.713 1.956-.009 3.542 1.65 3.552 3.694Zm115.256 136.975c.01-4.339 5.453-7.499 7.049-10.935 1.614 3.427 7.067 6.559 7.103 10.898.01 2.045-1.577 3.712-3.524 3.712-1.956 0-3.552-1.649-3.552-3.694 0 2.054-1.577 3.712-3.524 3.712-1.956.01-3.542-1.648-3.552-3.693ZM59.298 27.079c-.022 10.413-13.086 17.996-16.916 26.242-3.875-8.224-16.96-15.74-17.05-26.154-.021-4.908 3.787-8.91 8.459-8.91 4.694 0 8.524 3.958 8.524 8.866 0-4.93 3.787-8.91 8.458-8.91 4.694-.021 8.503 3.958 8.525 8.866Zm0 49.886c-.022 10.413-13.086 17.996-16.916 26.242-3.875-8.224-16.96-15.74-17.05-26.153-.021-4.908 3.787-8.91 8.459-8.91 4.694 0 8.524 3.957 8.524 8.865 0-4.93 3.787-8.91 8.458-8.91 4.694-.021 8.503 3.958 8.525 8.866Zm-33.965 68.189c.022-10.412 13.086-17.995 16.916-26.242 3.875 8.224 16.96 15.741 17.05 26.154.021 4.908-3.787 8.909-8.459 8.909-4.694 0-8.525-3.957-8.525-8.865 0 4.93-3.786 8.909-8.457 8.909-4.694.023-8.503-3.957-8.525-8.865Zm0 49.886c.022-10.413 13.086-17.995 16.916-26.242 3.875 8.224 16.96 15.741 17.05 26.154.021 4.908-3.787 8.909-8.459 8.909-4.694 0-8.525-3.957-8.525-8.865 0 4.93-3.786 8.909-8.457 8.909-4.694.023-8.503-3.957-8.525-8.865ZM132.971 27.079c-.022 10.413-13.085 17.996-16.916 26.242-3.875-8.224-16.96-15.74-17.049-26.154-.022-4.908 3.786-8.91 8.458-8.91 4.694 0 8.525 3.958 8.525 8.866 0-4.93 3.786-8.91 8.458-8.91 4.694-.021 8.502 3.958 8.524 8.866Zm0 49.886c-.022 10.413-13.085 17.996-16.916 26.242-3.875-8.224-16.96-15.74-17.049-26.153-.022-4.908 3.786-8.91 8.458-8.91 4.694 0 8.525 3.957 8.525 8.865 0-4.93 3.786-8.91 8.458-8.91 4.694-.021 8.502 3.958 8.524 8.866Zm-33.964 68.189c.022-10.412 13.085-17.995 16.916-26.242 3.875 8.224 16.96 15.741 17.049 26.154.022 4.908-3.786 8.909-8.458 8.909-4.694 0-8.525-3.957-8.525-8.865 0 4.93-3.786 8.909-8.458 8.909-4.694.023-8.502-3.957-8.524-8.865Zm0 49.886c.022-10.413 13.085-17.995 16.916-26.242 3.875 8.224 16.96 15.741 17.049 26.154.022 4.908-3.786 8.909-8.458 8.909-4.694 0-8.525-3.957-8.525-8.865 0 4.93-3.786 8.909-8.458 8.909-4.694.023-8.502-3.957-8.524-8.865ZM96.135 52.023c-.022 10.413-13.086 17.996-16.916 26.242-3.875-8.224-16.96-15.74-17.05-26.154-.021-4.907 3.787-8.909 8.459-8.909 4.694 0 8.524 3.957 8.524 8.865 0-4.93 3.786-8.91 8.458-8.91 4.694-.021 8.503 3.958 8.525 8.866Z"/>
</svg>
