<svg xmlns="http://www.w3.org/2000/svg" width="157" height="227" fill="none" viewBox="0 0 157 227">
  <path fill="#fff" stroke="#000" stroke-width="2.499" d="M1.468 218.925c0 3.482 2.851 6.328 6.338 6.328h141.009c3.478 0 6.329-2.846 6.329-6.328V8.533c0-3.482-2.851-6.329-6.329-6.329H7.806c-3.487 0-6.338 2.847-6.338 6.329v210.392Z"/>
  <path fill="#000" d="M17.424 8.71c1.242 0 2.438.21 3.585.626a8.256 8.256 0 0 1 3.09 1.993c.912.912 1.632 2.123 2.158 3.632.535 1.502.806 3.346.814 5.531 0 2.052-.232 3.884-.696 5.496-.456 1.604-1.112 2.968-1.97 4.092-.856 1.125-1.89 1.982-3.1 2.571-1.212.582-2.564.873-4.058.873-1.611 0-3.035-.31-4.269-.932-1.234-.629-2.229-1.482-2.984-2.559a7.968 7.968 0 0 1-1.356-3.656h5.036c.196.88.61 1.565 1.238 2.052.63.48 1.408.72 2.335.72 1.573 0 2.768-.684 3.585-2.052.818-1.376 1.23-3.26 1.239-5.65h-.165a5.784 5.784 0 0 1-1.463 1.829 6.81 6.81 0 0 1-2.11 1.167 7.55 7.55 0 0 1-2.513.413c-1.423 0-2.693-.334-3.809-1.003a7.192 7.192 0 0 1-2.642-2.76c-.644-1.17-.967-2.507-.967-4.009-.008-1.62.366-3.062 1.12-4.328.755-1.266 1.809-2.257 3.161-2.972 1.36-.723 2.94-1.081 4.741-1.073Zm.035 4.01c-.793 0-1.501.19-2.122.567a4.175 4.175 0 0 0-1.463 1.52c-.354.638-.526 1.35-.519 2.135 0 .795.173 1.51.52 2.147a4.142 4.142 0 0 0 1.438 1.51c.613.369 1.313.554 2.1.554a4.046 4.046 0 0 0 2.948-1.238c.377-.394.672-.846.884-1.357a4.2 4.2 0 0 0 .319-1.627 4.345 4.345 0 0 0-.543-2.1 4.145 4.145 0 0 0-1.462-1.533c-.621-.385-1.321-.578-2.1-.578Zm127.159 204.881c-1.242 0-2.437-.208-3.585-.625a8.246 8.246 0 0 1-3.09-1.993c-.912-.912-1.631-2.123-2.158-3.632-.535-1.502-.806-3.346-.814-5.531 0-2.052.232-3.884.696-5.496.456-1.604 1.113-2.968 1.97-4.092.857-1.125 1.89-1.982 3.101-2.571 1.211-.582 2.563-.873 4.057-.873 1.612 0 3.035.311 4.269.932 1.235.629 2.229 1.482 2.984 2.559a7.962 7.962 0 0 1 1.356 3.656h-5.035c-.197-.881-.61-1.565-1.239-2.052-.629-.48-1.407-.72-2.335-.72-1.572 0-2.767.684-3.585 2.052-.818 1.376-1.23 3.259-1.238 5.649h.165a5.781 5.781 0 0 1 1.462-1.828 6.807 6.807 0 0 1 2.111-1.167 7.555 7.555 0 0 1 2.512-.413c1.423 0 2.693.334 3.809 1.003a7.183 7.183 0 0 1 2.642 2.759c.645 1.172.967 2.508.967 4.01.008 1.62-.365 3.062-1.12 4.328-.755 1.266-1.808 2.257-3.161 2.972-1.36.723-2.94 1.081-4.741 1.073Zm-.035-4.009c.794 0 1.502-.189 2.123-.567a4.176 4.176 0 0 0 1.462-1.521c.354-.637.527-1.348.519-2.135 0-.794-.173-1.509-.519-2.146a4.135 4.135 0 0 0-1.439-1.509c-.613-.37-1.313-.555-2.099-.555a4.034 4.034 0 0 0-2.948 1.239 4.35 4.35 0 0 0-.885 1.356 4.202 4.202 0 0 0-.318 1.627c.008.763.189 1.463.542 2.1a4.161 4.161 0 0 0 1.463 1.533 3.903 3.903 0 0 0 2.099.578ZM10.445 55.708c1.54 0 2.352-1.64 2.777-3.28.424-1.64.461-3.279.461-3.279l.784-.009s.148 6.568 3.23 6.568h-7.252Z"/>
  <path fill="#000" d="M7.834 49.14c.01-3.196 4.816-5.518 6.227-8.042 1.412 2.534 6.218 4.855 6.228 8.042 0 1.51-1.394 2.736-3.119 2.736-1.716 0-3.109-1.225-3.109-2.736 0 1.51-1.393 2.736-3.118 2.736-1.725 0-3.109-1.225-3.109-2.736Zm139.252 121.692c-1.541 0-2.353 1.639-2.777 3.279-.424 1.64-.461 3.279-.461 3.279l-.785.009s-.147-6.567-3.229-6.567h7.252Z"/>
  <path fill="#000" d="M149.696 177.399c-.009 3.197-4.815 5.518-6.227 8.042-1.412-2.533-6.218-4.855-6.227-8.042 0-1.511 1.393-2.736 3.118-2.736 1.716 0 3.109 1.225 3.109 2.736 0-1.511 1.393-2.736 3.118-2.736 1.725 0 3.109 1.225 3.109 2.736ZM33.252 53.597c3.697 0 5.646-3.935 6.664-7.87 1.019-3.935 1.107-7.87 1.107-7.87l1.882-.023s.355 15.763 7.75 15.763H33.252Z"/>
  <path fill="#000" d="M26.986 37.834c.022-7.671 11.558-13.242 14.945-19.3 3.388 6.08 14.924 11.651 14.946 19.3 0 3.626-3.343 6.566-7.484 6.566-4.118 0-7.462-2.94-7.462-6.566 0 3.626-3.343 6.566-7.483 6.566s-7.462-2.94-7.462-6.566Zm6.266 65.649c3.697 0 5.646-3.935 6.664-7.87 1.019-3.935 1.107-7.87 1.107-7.87l1.882-.022s.355 15.762 7.75 15.762H33.252Z"/>
  <path fill="#000" d="M26.986 87.72c.022-7.67 11.558-13.242 14.945-19.3 3.388 6.08 14.924 11.651 14.946 19.3 0 3.626-3.343 6.567-7.484 6.567-4.118 0-7.462-2.94-7.462-6.566 0 3.625-3.343 6.566-7.483 6.566s-7.462-2.94-7.462-6.566Zm23.624 31.513c-3.697 0-5.645 3.935-6.664 7.87-1.018 3.935-1.107 7.871-1.107 7.871l-1.882.022s-.354-15.763-7.75-15.763h17.404Z"/>
  <path fill="#000" d="M56.877 134.996c-.022 7.671-11.558 13.242-14.946 19.3-3.387-6.08-14.923-11.651-14.945-19.3 0-3.626 3.343-6.566 7.484-6.566 4.118 0 7.461 2.94 7.461 6.566 0-3.626 3.344-6.566 7.484-6.566 4.14 0 7.462 2.94 7.462 6.566Zm-6.267 34.123c-3.697 0-5.645 3.935-6.664 7.871-1.018 3.935-1.107 7.87-1.107 7.87l-1.882.022s-.354-15.763-7.75-15.763h17.404Z"/>
  <path fill="#000" d="M56.877 184.882c-.022 7.671-11.558 13.242-14.946 19.3-3.387-6.08-14.923-11.651-14.945-19.3 0-3.626 3.343-6.566 7.484-6.566 4.118 0 7.461 2.94 7.461 6.566 0-3.626 3.344-6.566 7.484-6.566 4.14 0 7.462 2.94 7.462 6.566Zm50.048-131.285c3.698 0 5.646-3.935 6.665-7.87 1.018-3.935 1.107-7.87 1.107-7.87l1.882-.023s.354 15.763 7.75 15.763h-17.404Z"/>
  <path fill="#000" d="M100.659 37.834c.022-7.671 11.558-13.242 14.946-19.3 3.387 6.08 14.923 11.651 14.945 19.3 0 3.626-3.343 6.566-7.484 6.566-4.118 0-7.461-2.94-7.461-6.566 0 3.626-3.344 6.566-7.484 6.566-4.141 0-7.462-2.94-7.462-6.566Zm6.266 65.649c3.698 0 5.646-3.935 6.665-7.87 1.018-3.935 1.107-7.87 1.107-7.87l1.882-.022s.354 15.762 7.75 15.762h-17.404Z"/>
  <path fill="#000" d="M100.659 87.72c.022-7.67 11.558-13.242 14.946-19.3 3.387 6.08 14.923 11.651 14.945 19.3 0 3.626-3.343 6.567-7.484 6.567-4.118 0-7.461-2.94-7.461-6.566 0 3.625-3.344 6.566-7.484 6.566-4.141 0-7.462-2.94-7.462-6.566Zm23.626 31.513c-3.698 0-5.647 3.935-6.665 7.87-1.019 3.935-1.107 7.871-1.107 7.871l-1.882.022s-.354-15.763-7.75-15.763h17.404Z"/>
  <path fill="#000" d="M130.551 134.996c-.022 7.671-11.558 13.242-14.946 19.3-3.387-6.08-14.923-11.651-14.945-19.3 0-3.626 3.343-6.566 7.483-6.566 4.119 0 7.462 2.94 7.462 6.566 0-3.626 3.344-6.566 7.484-6.566 4.14 0 7.462 2.94 7.462 6.566Zm-6.266 34.123c-3.698 0-5.647 3.935-6.665 7.871-1.019 3.935-1.107 7.87-1.107 7.87l-1.882.022s-.354-15.763-7.75-15.763h17.404Z"/>
  <path fill="#000" d="M130.551 184.882c-.022 7.671-11.558 13.242-14.946 19.3-3.387-6.08-14.923-11.651-14.945-19.3 0-3.626 3.343-6.566 7.483-6.566 4.119 0 7.462 2.94 7.462 6.566 0-3.626 3.344-6.566 7.484-6.566 4.14 0 7.462 2.94 7.462 6.566ZM70.089 78.541c3.698 0 5.646-3.935 6.665-7.87 1.018-3.935 1.107-7.87 1.107-7.87l1.882-.023s.354 15.763 7.75 15.763H70.088Z"/>
  <path fill="#000" d="M63.823 62.779c.022-7.672 11.558-13.243 14.945-19.3 3.388 6.079 14.924 11.65 14.946 19.3 0 3.625-3.343 6.565-7.484 6.565-4.118 0-7.462-2.94-7.462-6.565 0 3.625-3.343 6.565-7.484 6.565-4.14 0-7.461-2.94-7.461-6.565Z"/>
</svg>
