<svg xmlns="http://www.w3.org/2000/svg" width="170" height="245" fill="none" viewBox="0 0 170 245">
  <path fill="#fff" stroke="#000" stroke-width="2.499" d="M2 236.495c0 3.778 3.089 6.867 6.867 6.867h152.789c3.768 0 6.857-3.089 6.857-6.867V8.18c0-3.779-3.089-6.868-6.857-6.868H8.867C5.09 1.312 2 4.401 2 8.18v228.315Z"/>
  <path fill="#000" d="M10.262 33H4.79l8.338-24.153h6.58L28.036 33h-5.472l-6.05-18.634h-.189L10.262 33Zm-.342-9.494h12.926v3.986H9.92v-3.986ZM160.738 211h5.472l-8.338 24.153h-6.581L142.965 211h5.472l6.05 18.634h.189L160.738 211Zm.342 9.494h-12.926v-3.986h12.926v3.986ZM12.296 46.788c0 1.81 1.51 3.279 3.379 3.279 1.87 0 3.379-1.47 3.379-3.279 0-1.81-1.51-3.278-3.379-3.278-1.87 0-3.379 1.469-3.379 3.278Zm-4.358 6.208c0 1.81 1.51 3.279 3.379 3.279s3.378-1.47 3.378-3.28c0-1.808-1.51-3.278-3.378-3.278-1.87 0-3.38 1.47-3.38 3.279Zm8.657.02c0 .66.2 1.28.55 1.8a3.411 3.411 0 0 0 2.828 1.479c1.87 0 3.38-1.47 3.38-3.28 0-1.808-1.51-3.278-3.38-3.278-1.869 0-3.378 1.47-3.378 3.279Zm-4.889 6.367c1.67 0 2.55-1.359 3.009-2.718.46-1.36.5-2.72.5-2.72h.86s.16 5.428 3.498 5.438h-7.867Z"/>
  <path fill="#000" d="M17.964 49.197c-1.9 1.9-1.9 4.749-1.9 4.749l-.85.01s0-2.91-1.848-4.759"/>
  <path fill="#000" d="M17.584 55.295c-1.9-1.9-4.748-1.9-4.748-1.9v-.849s2.909 0 4.758-1.85"/>
  <path fill="#000" d="M13.776 55.305c1.899-1.9 4.748-1.9 4.748-1.9v-.849s-2.909 0-4.758-1.85m145.45 146.183c0-1.809-1.509-3.278-3.378-3.278-1.87 0-3.379 1.469-3.379 3.278 0 1.81 1.509 3.279 3.379 3.279 1.869 0 3.378-1.469 3.378-3.279Zm4.359-6.207c0-1.809-1.51-3.279-3.379-3.279s-3.379 1.47-3.379 3.279 1.51 3.279 3.379 3.279 3.379-1.47 3.379-3.279Zm-8.657-.02c0-.66-.2-1.28-.55-1.799a3.409 3.409 0 0 0-2.829-1.48c-1.869 0-3.378 1.47-3.378 3.279s1.509 3.279 3.378 3.279c1.87 0 3.379-1.47 3.379-3.279Zm4.889-6.368c-1.67 0-2.55 1.36-3.009 2.719a10.56 10.56 0 0 0-.5 2.719h-.86s-.16-5.428-3.499-5.438h7.868Z"/>
  <path fill="#000" d="M153.549 194.48c1.899-1.899 1.899-4.748 1.899-4.748l.85-.01s0 2.909 1.849 4.758"/>
  <path fill="#000" d="M153.928 188.383c1.9 1.899 4.749 1.899 4.749 1.899v.85s-2.909 0-4.759 1.849"/>
  <path fill="#000" d="M157.737 188.373c-1.899 1.899-4.748 1.899-4.748 1.899v.85s2.909 0 4.758 1.849m-80.027-89.18c0 4.343 3.622 7.869 8.109 7.869 4.486 0 8.109-3.526 8.109-7.869 0-4.342-3.623-7.869-8.11-7.869-4.486 0-8.109 3.527-8.109 7.869ZM67.26 118.69c0 4.342 3.622 7.869 8.108 7.869 4.486 0 8.11-3.527 8.11-7.869s-3.624-7.869-8.11-7.869c-4.486 0-8.109 3.527-8.109 7.869Zm20.775.048c0 1.583.48 3.071 1.32 4.318 1.44 2.135 3.959 3.551 6.79 3.551 4.486 0 8.108-3.527 8.108-7.869 0-4.343-3.622-7.869-8.109-7.869-4.486 0-8.109 3.526-8.109 7.869ZM76.304 134.02c4.006 0 6.117-3.263 7.22-6.525 1.105-3.263 1.2-6.526 1.2-6.526h2.064s.384 13.027 8.397 13.051H76.304Z"/>
  <path fill="#000" d="M91.322 109.573c-4.558 4.559-4.558 11.396-4.558 11.396l-2.04.024s0-6.981-4.438-11.42"/>
  <path fill="#000" d="M90.41 124.208c-4.558-4.559-11.395-4.559-11.395-4.559v-2.039s6.981 0 11.42-4.438"/>
  <path fill="#000" d="M81.27 124.232c4.558-4.558 11.395-4.558 11.395-4.558v-2.04s-6.98 0-11.42-4.438"/>
  <path fill="#000" d="M96.264 151.041c1.158.474-.046 1.142 0 0Zm-16.007 0c1.344.295 0 1.753 0 0Zm2.274-1.112c.705-.015 1.83.893.612 1.2-.796.2-1.717-.985-.612-1.2Zm5.773 1.2c.549-2.58-2.33-.74 0 0Zm-8.222-1.837c.441.924.715 2.541 2.012 2.536-.5-.7-.918-.939-1.05-1.836.269.21 1.58 1.434 1.447 1.741-.67 1.542-2.46-.007-3.109-.591-1.676-1.507-1.848-1.52.7-1.85Zm-3.044-.126c.245.492-.11.633 0 0Zm15.377-.574a.612.612 0 0 1-.437.35.45.45 0 0 1 .437-.35Zm-.875.088a.996.996 0 0 0-.7-.088c.213.199.33.433.35.7h-.437c.34 1.193.307 2.075-.772 2.912-.438.339-1.127.833-1.352.237.38-.582 1.537-6.023 2.911-3.761Zm-14.87.262c-.22 1.477-2.678.113-2.623-.875.868.389 1.701.471 2.624.875Zm13.209-.875c-.208.5-.544.892-1.05 1.05-.027-.537.366-1.404 1.05-1.05Zm-12.858-.175c.48.644-.651.819 0 0Zm4.985 1.05c.02.28-4.236.413-4.11-.525 1.01.256.64-.764 1.76-.462.466.126 1.037.092 1.463.287.419.429.303.695.887.7Zm18.369-.875c.421.015.827-.099 1.224-.262a1.712 1.712 0 0 0-1.224.262Zm-8.047-.35.087.088c-.114.469-.815.62-.087-.088Zm-8.047-.524c.344.438.67 1.044 1.05 1.312.27-.534-.383-1.67-1.05-1.312Zm.962 2.361c-.81-.202-2.565-1.958-1.58-2.648 1.588-1.111 2.345.961 2.57 2.022.117.548 2.43 3.45 1.283 3.574-.646.047-2.887-2.359-2.273-2.948Zm13.645-3.411c.12.038.185.48.437 0-.184-.097-.28.028-.437 0Zm-27.465-1.487c-.1.472-.071.939.087 1.399-.563-.347-1.685-1.912-.087-1.399Zm24.316-.262c.55 2.49-3.448.88-3.411 2.886-1.359-1.753 1.601-3.399 1.224-1.749.744-.331 1.43-.807 2.187-1.137Zm-28.515-1.05c.987.762 2.235 1.081 3.056 2.027.143.163.929.992.006.859-.314.083-.62-.649-.707-.728-.848-.486-2.147-1.201-2.355-2.158Zm26.94 1.225c-.466-.084-.917-.622-.612-1.136.567-.952 1.154.416.612 1.136Zm-4.723-1.837-.087.874c-.359-.279-.281-.648.087-.874Zm-.787-.175c.031.421-.008.875 0 1.312-.38-.34-.367-.931 0-1.312Zm11.546-.525c-.082.209-.175.372-.175.612.231-.069.377-.244.437-.525-.004-.007-.264-.167-.262-.087Zm-33.675 0c.383.301.613.652.612 1.137-.478-.203-.729-.64-.612-1.137Zm34.987-.875-.175.7c.309-.286.19-.823.175-.7Zm1.399-.524c-.453 1.334-2.178 2.144-2.449 3.236a9.881 9.881 0 0 1 2.362-.35c-.348-.269-.823-.18-1.312-.175.459-.673 1.278-.792 1.836-1.225h-.349a1.71 1.71 0 0 0 .524-.787l-.437.088c-.043-2.01.016-.234-.175-.787Zm11.283-.875c-.112 1.179-.69 3.268-2.323 3.087-1.427-.158-2.151 2.462-3.56.815-.647-.16-2.011.485-2.295-.141-.452-.997 3.467-.93 3.893-.787-.719-1.021 1.008-.949 1.574-.7.124-1.181 1.776-1.679 2.711-2.274Zm-44.695-.787c.17.51.628 1.017.437 1.574-.438-.08-.877-.138-1.312-.087.738 1.287 2.025.202 2.624 1.661-.833.032-1.165-.467-2.012-.437.22.263.449.204.787.263-.268.417-.502.315-.612.699.89-.043 2.603-.348 3.149.613-.481.077-.883.05-1.225.349.502.006.997-.042 1.487-.144.723.465 1.41.994 2.187 1.369-.298-.374-.618-.885-.612-1.4-.832.031-.75-.021-1.026-.851-.522-1.573-1.266-1.987-.549-.023-1.538-.22-2.084-2.86-3.323-3.586Zm29.826 6.035c.143-.68-.781.65.175-.787-.79.378-1.727.324-2.45.787.326-.312.488-.66.526-1.137-.873.337-1.398 1.375-.35 1.662-.15.834-1.07.817-1.717 1.044-.802.282-1.769 1.39-2.482 1.492.713-1.386 1.467-1.315 2.616-2.391.28-.263 1.468-3.068.49-2.567-.54.275-1.646-.066-1.4-.896.506-1.459 1.552.295 2.143.169.524.339.833.716 1.487.461 1.181-.461.703-2.451 1.749-2.861.334-.131.746.452 1.181.361.882-.185 1.023-1.75 1.793-1.842.751-.262.663.776 1.225 1.04.793.374 1.507-.859 2.055.129.273.491-.038.803-.308 1.2-1.228.9-1.018.896-1.177 2.299-.269.729-2.207 2.736-3.019 2.763-.955-.411-.964-.73-1.875-.127-.39.67-1.122 1.912-1.984 1.083-.544-1.498-.156-1.771 1.322-1.882Zm13.557-5.073a.687.687 0 0 1-.087-.35c-.527.493-.773 1.231-1.574 1.487.063-.337.012-.681.174-1.05-.442.704-.531 1.516-1.486 1.662a1.203 1.203 0 0 1 .262-1.049c-.824.831-1.065 1.981-1.487.349-.32.165-1.035 2.482-2.099 1.643-.799-.629.858-2.657 1.487-2.987 1.299.09 1.565-.825 2.536-1.288.753-.358 1.392.136 2.266-.167.6-.208 1.675-.38 1.668.525-.006.8-1.102.878-1.66 1.225Zm-55.279-2.537c-.16.455.17.978.437 1.312-.762-.345-1.512-.943-2.274-1.137.49.744 1.287 1.132 1.837 1.749-.244.049-.32.081-.525.088v.175c1.812.067 3.103 1.223 4.898 1.662-.583-.845-1.411-1.907-2.274-2.449.163.519.564.888.787 1.399-1.639-.428-1.835-1.991-2.886-2.799Zm18.28 8.397c-1.342-.417-3.513.008-3.848-1.837-2.455.812-2.555-.331-4.419-1.528-.2-.311-.221-.594-.374-.921.191-.999-1.188-1.48-.979-2.187.187-.635.207-.47.965-.518 1.032-.065 1.075-.533 1.452-1.45 1.144-.719 1.747.74 1.976 1.618.688.655 1.709.169 2.329.769.555.536.163 1.347.713 1.914 1.028 1.059 1.182-.043 1.103 1.559-.026.53.48.62.789 1.012.2.443.142 1.093.294 1.569Zm35.862-9.097c-.032 1.849-2.429.775 0 0Zm1.75-1.399c.046.878-.563.688 0 0Zm-5.598 1.924c-.936-.137-1.432-1.832-.263-1.829 1.926.731-.007.754.263 1.829Zm-45.746-2.011c-.48.297-1.656.072-1.4-.786.073-.722 1.628-.398 1.4.786Zm50.994-1.662c-.023.459-.077.73-.438.787-.022-.344.112-.7.438-.787Zm-4.037-.263c.981.705.714 2.451-.73 1.918-1.095-.404.063-1.724.73-1.918Zm9.022-.406c1.388.087.517 1.221-.146 1.644-1.518.973-.756-1.325.146-1.644Zm-3.761-.031c.423.71.31 1.857-.437 2.274.074-.676-.22-1.86.437-2.274Zm-52.48-.962c.852 3.302-2.69.801 0 0Zm53.617-.525a1.082 1.082 0 0 1-.174.525c-.33-.083-.489-.076-.438-.35l.612-.175Zm-59.477-.437c.586.31.79 1.514.874 2.099-.547-.1-.895-1.564-.874-2.099Zm-4.636-1.528c.992.076 1.704 1.148.437 1.439-1.136.115-1.83-1.075-.437-1.439Zm4.11.478c.444-1.103-.679-.765 0 0Zm-4.722-2.099c-.17.583.158.567.612.787-.804 2.293-2.273-.873-.612-.787Zm2.186-2.799c.562.536 1.119 1.059 1.575 1.662-.802.222-1.427-1.122-1.575-1.662Zm61.752-.525c.189 1.169.327 2.632-.262 3.674.003-.238-.119-.401-.35-.438.017.195 0 1.977.466 1.709.347-.199 1.174-2.12 1.283-2.583a4.48 4.48 0 0 0-.699.787c-.261-1.045.269-1.739.524-2.712-.419.471-.659.195-.699-.437h-.263Zm4.986-.087-.35 2.186c.411-.477.647-1.811.35-2.186Zm-.175-1.925c.017.33.068 1.656-.7 1.225.141-.497.317-.997.7-1.225Zm-68.05-.874c.974.839.905 1.16.438 2.274-.648-.53-1.115-1.623-.438-2.274Zm67.525 6.735c.282-.398.662-.447 1.137-.613-1.335-.437.813-1.809 1.487-2.011-1.14-.278.849-2.2 1.225-2.712-.647.318-.934 1.056-1.575 1.4.02-.451.108-.888.263-1.312-.648.681-.876 1.933-1.349 2.814-.595 1.109-1.386 2.06-2.15 3.046.53.62-.35 1.001-.925 1.195-1.926.647-.295-.788.187-1.424.418-.552 1.195-1.421 1.195-2.133-.349-.607-.712-1.262-.337-1.906.281-.482.749-.444 1.279-.562.648-.479.395-.546.557-1.428.366-1.996 1.591-.691 2.898-.925 1.543-.276 1.794.589.641 1.76-.212.777.426 1.44.227 2.173-.171.634-1.388.472-1.874.681-1.791 1.378-.135 2.005-2.886 1.957Zm-.787-7.523c.114.251.062.494-.175.613-.003-.212.06-.432.175-.613Zm-65.426-.349c.152 1.208.592 2.876 2.012 2.798-.13.672-2.08 1.747-2.223.642-.056-.435.272-.816.194-1.254-.32-1.079-1.066-1.244.017-2.186Zm65.951-.175c.259.217.28.44 0 .612-.133-.235-.133-.439 0-.612Zm-65.251 1.049c-.145-.471-.225-.93-.087-1.399.686.15.74 1.212.087 1.399Zm61.752-2.162c1.063-.114 1.626 1.203.525 1.2-.726.077-1.205-.875-.525-1.2Zm2.974-.287c.269.4.444.837.525 1.312-.422-.277-.696-.833-.525-1.312Zm-65.25-.7c2.596.871-.543 1.918 0 0Zm65.337-.787-.087.35a.95.95 0 0 0 .787-.087c.017.444.012.884-.087 1.312-.476-.355-1.217-1.213-.613-1.575Zm-66.125 0c.119.4.178.807.175 1.225-.61-.067-.375-.926-.175-1.225Zm69.187-.207c.682.142 1.731 1.547.525 1.738-.92.145-1.023-1.289-.525-1.738Zm-5.511 1.432c-1.623.874-1.341-1.281-.673-1.346 1.083-.106.311.653.673 1.346Zm-60.352.175c-.75-4.031-2.563.803 0 0Zm-.088-1.837c1.864-2.293-1.927-.319 0 0Zm-2.886-1.575c.669.368.603 1.289.7 1.925-.663-.418-.96-1.197-.7-1.925Zm-1.662 6.211c-.683-.418-.354-1.416-.087-2.1-1.133 1.184-.85-.91-.613-1.836-.17.176-.241.077-.437.349-.673-.956-1.421-2.233-.7.175-.282.111-.575.082-.874-.087.579.704 1.266 1.357 1.399 2.362-.37-.121-.818-.259-1.225-.263.294.39.892.786 1.4.612.352.931.666 1.674 1.137 2.537-.571.162-1.135.186-1.509-.262-.268-1.289-1.089-1.065-1.48-2.1-.096-.252.072-.606.107-.822.13-.812-.513-.92-.817-1.551-.434-.9.803-1.53.569-2.55-.663-2.886 1.705.363 2.518.637.783.762.315.871.705 1.881.172.447.876.585.998 1.008.167.621-.708 1.604-1.091 2.01Zm1.574-7.523c.156.28.332.386.175.613-.376-.112-.294-.354-.437-.613h.262Zm66.388 2.712c-.582-.337-.532-.765-.525-1.487-.445-.806-.741-.656-.532-1.546.664-2.824 1.037 2.645 1.057 3.033Zm-65.688-2.712c1.795-1.697-.607-3.973 0 0Zm65.163-3.848c.065.513.104 1.05.088 1.574-.61-.466-.751-1.154-.088-1.574Zm-65.6-.175c.245.575.182 1.224 0 1.837-.735-.515-.356-1.386 0-1.837Zm63.064-.175a3.817 3.817 0 0 1-.437 1.487c-.637-.198-.824-.602-1.225-.175.371.129 1.291.834 1.707.62.344-.177.498-1.824-.045-1.932Zm-61.752 1.05c-.58-.376-1.196-1.409-1.225-2.1.728.39 1.114 1.293 1.225 2.1Zm-3.936-3.324c-.096.518-.098 2.15-1.17 1.008-.76-.809.482-1.066 1.17-1.008Zm72.773.7c-.585.049-1.917.711-1.52-.613 1.3-1.746 1.105-.127 1.52.613Zm-5.073-1.487c.028.108.002.196-.088.262-.216-.192-.218-.297.088-.262Zm-64.726-1.05c.423.574.369 1.213.087 1.837-.644-.392-.564-1.306-.087-1.837Zm-2.974-.525a1.095 1.095 0 0 0-.175.525c.955-.063-.422 1.667-1.079 1.274-.806-.482.372-2.716 1.254-1.799Zm66.388 7.785c.318.916.873 1.722 1.224 2.624-1.63-.206-1.438-1.792-2.843-2.053-1.415-.262-.908-1.439-1.53-2.407-.289-.45-1.039-.564-.941-1.226.85-1.701 1.618-.562 2.778.174.152-.628.808-2.57.175-2.886-.079.432-.139.882-.175 1.312-.657-.777-.416-1.964-.788-2.799-.176 1.214.2 2.394.35 3.586-1.085-.615-2.955-1.81-1.962-3.195 1.039-.782.841-1.137 1.025-2.216.168-.989 1.697-.218 1.849.426.143.608-.187 1.175.443 1.617.482.338.581.758.291 1.268-.562.992.555 1.136.873 1.924.268.664-.624 1.15-.558 1.837.411.669.972 1.82-.211 2.014Zm-62.54-8.834c-.378-.134-.547-.484-.437-.875.373.137.443.427.437.875Zm3.936-1.75c.376.787.73.486 1.312.263a2.81 2.81 0 0 1-.18 1.399c.106.458.42.825.4 1.312-.013.285-.492.43-.638.709-.185.356-.001.908.012 1.303-.615 1.063-1.256.279-1.524 1.749-.712.539-1.228.492-2.094.612 0-.438.213-.46.35-.85 1.077-.964.395-.101.635-.986.143-.527.636-.756.938-1.165.15-1.18.894-2.135 1.488-3.121-.6.222-.855.819-1.4 1.224-.637-.775-.399 1.426-.961 1.837-.067-.495-.125-.99-.175-1.487-.453.459-.434 1.327.175 1.575-.465 1.012-1.096 2.529-1.837 3.236-.371-1.093 1.837-2.876.525-3.236v.962c-.893-.576-.52-.891-.35-1.534.73-.482.468-1.048.77-1.788.387-.517.91-.362 1.503-.599.499-.321.623-1.042 1.051-1.415Zm58.429 1.4c1.023-2.839-1.637-.375 0 0Zm-.7-2.537c-.288-.1-.447-.316-.437-.612.382.058.552.245.437.612Zm-59.74-.612c-.036.254-.182.429-.438.525-.121-.35.163-.344.438-.525Zm58.166-1.225v.175h-.175c-.003-.103.067-.156.175-.175Zm.349-.525c-.031.21-.075.34-.262.438.065-.326-.025-.494.262-.438Zm-55.804 1.138c-.662.038-1.252-.483-1.11-1.181.35-1.715 1.839-.487 1.11 1.181Zm55.28-2.1c1.659-.368.286 1.728 0 0Zm-54.143 1.05c-.92-.164-.72-1.55.127-1.697 1.999-.345.136 1.32-.127 1.697Zm53.18-2.012c.237.379.23.881.088 1.312-.565-.267-.409-.8-.088-1.312Zm-4.635-.437c.472 1.028.37 1.904 1.282 2.748.575.533.806 1.551 1.692 1.625.009-.79-.332-1.79-1.225-1.808-.88-.72-1.122-.89-.525-2.04a10.397 10.397 0 0 0-1.224-.525Zm3.673-.088c.064.192.003.352-.175.438.008-.196.023-.32.175-.438Zm4.286-1.399c.278 1.058.898 2.205.7 3.324a4.695 4.695 0 0 0-1.137-.875c.469.78 1.221 1.43 1.662 2.274.382.068 1.068-2.052 1.224-2.361a1.22 1.22 0 0 0-.962.437c-.044-.715.92-2.112-.175-2.362-.108.397-.169.82-.175 1.225-.448-.493-.727-1.324-1.137-1.662ZM60.227 93.75c1.74.34-.205 1.202 0 0Zm48.544-.612c.098.422.055.782.35.962-.013-.499-.005-.79-.35-.962Zm-1.399-.963c.078.378.224.728.437 1.05.108-.397-.081-.832-.437-1.05Zm7.085 1.4c.195-.941.441-1.076 1.185-.963.432.066.636.777.789 1.138.573.595 1.161.434 1.874.62.315.236.317.414.573.692-.205 1.311.961.802 1.208 1.75.11.416-.427.885-.588 1.224-.128.77.794 1.331.394 2.041-.485.862-.931 1.022-.599 2.07-.259.77-1.337 1.248-.899 2.187.491-.573 1.26-1.195 1.509-1.925.061-1.045.804-1.865.711-2.843-.063-.656-.564-1.188-.18-1.787.302-.473.421-1.084.086-1.554-.757-1.06-1.061-1.881-2.126-2.551-1.339-.012-1.645-1.328-2.968-1.62-1.288-.283-1.52.534-.969 1.521Zm-10.496-2.012c.185.116-.012.184.35.175a.42.42 0 0 0-.35-.175Zm1.749-.175c.062.109.339.927.263.787-.486.12-1.016-.345-1.487-.437.868.656 1.849 1.277 2.799 1.837-.463-.745-1.096-1.427-1.575-2.187Zm-49.419 1.837c-.087-.068-.375-.287-.525-.35-.014.945-.009 1.818-.437 2.712-.382-.434-.328-2.034-.921-1.925-.166.031.27 3.249.134 3.674-.328-.363-.45-.99-1.05-.7.68 1.087.664 2.212.787 3.412.3-.328.482-1.09.612-1.66.408-.628 1.26-.948 1.776-1.511 1.525-1.669-1.244.525-1.513.722.205-1.609 1.78-2.402 2.536-3.673-.585-.05-.99.647-1.399.962.482-1.454 1.342-5.453 0-1.663Zm5.773-.262c1.46-.158 2.781.508 4.198.7-.21-.243-.52-.454-.787-.613 1.05-.472 1.575.35 2.537.35-.185-.248-.343-.69-.525-.875.614-.128 1.213.055 1.837.088-.32-.412-.232-.703.262-.875-1.527-.354-1.09.216-2.537.542-.7.176-1.026-.349-1.924.267-.354.068-.55-.327-.876-.284a4.578 4.578 0 0 1-2.448.304c-.387.307-.544.507-1.05.483.467-.384.97-.964 1.56-1.233.45-.205.928.01 1.327-.198 1.033-.539.851-1.853 2.183-1.102.768.433.716.388 1.63.029 1.327-.52.917.105 2.091.264.295.04 2.224-.336 1.658.737-.33.623-.885.767-1.373 1.282-.35.37-.549 1.274-1.03 1.477-.742.313-1.46-.308-2.191.238-.83.62-1.392-.475-2.224-.553-.962-.089-2.036.339-2.318-1.028Zm-5.336-3.032c.526.015.82.409 1.083.845.019.929.973 1.405.991 2.187.02.813-.693 1.178-.586 2.08.195 1.638-1.338 3.037-2.624 3.787-.622.955-.456 1.418-1.574 2.005-.578-.001-.634-1.146-.812-1.521-.263-.555-.83-.984-.85-1.628-.016-.507.508-.808.556-1.312-.727-2.251.015-1.002.999-2.624.642-1.06-.166-1.346 1.382-1.929 1.15-.433.425-1.48 1.435-1.89Zm51.781 5.743c-.54-.1-1.424-.73-2.187-.928-.884.327-1.534.248-1.976-.55-.446-.804-1.018-.169-1.674-.67-.371-.284-1.446-2.31-1.361-2.575.373-1.15 2.236-.457 3.087-.787.123.747 1.062.559 1.662.7-.514-1.941-2.337-.761-3.761-.939-2.238.46-1.113 1.491-.621 2.748.585 1.494 1.596 1.427 2.815 2.31.622.45 1.272.323 2.003.12.541.285 1.36.975 2.013.571Zm2.362-6.472c-.261.55-.744.434-1.225.145-.147-.088-.185-.298-.119-.43.242-.477 1.038.222 1.344.285Zm-45.658-.35c1.585-.076.006-1.733 0 0Zm-3.237-1.487a4.37 4.37 0 0 1-.175 2.099c-.445-.564-.428-1.757.175-2.1Zm5.598-.875c-.051.373-.255.704-.612.787-.082-.386.217-.644.612-.787Zm42.159-.284c.689.596.806 2.537-.583 2.1-.81-.255-.365-2.074.583-2.1Zm-45.22-1.203c-.264 1.134-.48 2.495-1.487 3.237.07-.975.722-2.617 1.487-3.237Zm29.739-.35c-.525.036-.787-.22-.962.263 1.032.159 2.779.892 1.531-.82-.494-.176-.507.124-.57.557Zm-20.817.613c.719.423 1.313.273 2.096.49.959.264 1.838.749 2.802.996-.498-1.243 1.614.139 2.011.35-.178-1.19 1.264-.791 1.837-1.05-1.127-.067-2.309.241-3.41-.174.195-.353.621-.504 1.049-.7-1.011.014-1.936.926-2.887.438.072-.324.276-.558.613-.7-.615.26-2.787 1.024-3.264.175-.735-1.31 3.474-1.068 3.486-1.073.748-.275.626-.315 1.347.002.742.325 1.906-.433 2.424-.011.578.98.5.992 1.604 1.286.222.193.635.497.6.845-.091.884-1.045.743-1.643 1.118-.41.258-.733.8-1.231.88-.49.076-.902-.379-1.4-.303-1.378.207-.785 1.094-2.016.083-.825-.678-1.663-.4-2.526-1.18-.486-.441-1.289-.953-1.492-1.472Zm19.067-1.662c-.01.352.02.702.088 1.05-.687-.324-.925.156-.787.874.064-.062 2.787-1.678.7-1.924Zm6.736-.175v.175h.7a.875.875 0 0 0-.7-.175Zm-8.572.087c-1.168-.9-.997.687-.438.787a.676.676 0 0 0 .088-.35c.563.185 1.058.443 1.662.438-.257-.632-1.205-2.275-1.312-.875Zm10.408-1.4c.02.268.137.501.35.7.245-.439-.106-.436-.35-.7Zm-1.049 0c-.41.015-.066.2-.875.088.422.406 1.315.613 1.05 1.312.914-.056 1.498-.146 1.049.7a4.04 4.04 0 0 0 1.487 0c-.761-.973-1.759-1.345-2.711-2.1Zm-29.39-.437c-.12.854-.021 1.826-.874 2.275.021-.836-1.63-1.558-.763-2.501.506-.55 1.164.002 1.638.226Zm22.655.088c.155.4.333 1.006.7 1.318.764.267 1.465 1.076 2.142 1.253.544.141 2.051.24.93 1.141-.722.58-1.266.367-2.11.465-.665.613-.626.856-1.453.35-1.297-.791-.434.185-1.784.02-1.255-.415-1.02-.922-2.298-.531-1.213.37-1.116-.542-1.033-1.393-.354-.806-.943-.524-1.654-.945-1.18-.701 1.058-2.036 1.4-2.729.37.13 1.357.77 1.73.752.16-.007.375-.782.716-.664.579.201.616.942 1.313 1.26.53.146.905-.183 1.4-.297Zm2.274 0c.375-.953 1.713 1.21 1.54 1.859-.215.806-2.876-2.03-3.186-2.272-.45-.352-2.277.375-1.996-.541.536-1.75 3.177.58 3.642.954Zm-13.47-1.662v.175c.28.119.542.119.787 0a1.105 1.105 0 0 0-.787-.175Zm21.254 4.81h-.437v.176c1.633 0 .018-1.354.485-2.005.29-1.037 1.817 1.964 1.856 2.355-.636 1.643-.153 1.018-1.991 1.266-.381-.131-.632-.131-.894-.478-.743-.987-1.439.15-2.375-.439-.65-1.215-1.412-.453-2.099-1.4-.318-1.247-.331-1.895-1.262-2.907-.34-.37-.8-.69-.28-1.148.427-.378 1.412.056 1.837.17 1.307-.602 1.631-.324 2.711.432.516.241 1.101.076 1.457.545.536.705 1.055 2.492.992 3.434Zm-22.829-5.86c-.996 1.783-2.902 2.74.875 2.187-.899-.014-1.006-.131-.875-.787-.305.24-.626.327-.962.262.442-.435 1.146-1.314.962-1.662Zm1.313-.7a4.443 4.443 0 0 0-.7 1.663c.205.001.436-.075.612-.175-.163-.544.386-1.262.088-1.487Zm-13.383 7.348c.42-.144.789-.477 1.137-.787.584-.286 1.093.064 1.662-.438a6.99 6.99 0 0 1-1.137.088c.357-1.66 1.67-.996 2.624-1.75-2.19.145-.108-1.114.7-1.312-.842-.285-.496-.398-.263-1.224-.314.426-1 1.21-.874 0-.28.41-.547 2.362-1.225 2.362-.732 0 .234-3.146.35-3.5 1.104.694 1.395-.166 2.361-.649.81-.405 1.605.044 1.452.938-.24 1.392.133 2.776-1.398 3.574-.391.822-.442 1.313-1.386 1.654-.577.209-.776.073-1.021.607-.307.67-.86.712-1.52.879-1.274.322-1.542 1.07-1.892-.237-.543-2.027 2.157-2.23.43-.205Zm15.832-7.61a.674.674 0 0 0-.175.35c.188-.056.26-.18.175-.35Zm6.385 1.662c.272-.176.765-1.385 1.295-.92.286.253-.341 1.46.629.745.06 1.582-3.395.212-3.27-1.134.06-.659.936-1.167 1.517-.787.711.467-.38 1.5-.171 2.096Zm-2.1-2.274c.33.521 1.387 2.579 1.065 3.061-.285.428-1.343-.188-1.72-.14-.694.086-1.132.942-1.52 1.43-1.025 1.284-.309 1.878 1.116 2.23.296.423-.132.856.064 1.379.482.966 1.093.968 1.952.758.842-.206.601-.15 1.247.342.714.543 1.226.34 2.082.094.594.06 1.114.777 1.794.418.466-.245.7-.593 1.181-.772 1.414.207 2.159-1.403 3.315-.928.408.167.4.866.884 1.095 1.564.438 1.453-.712 2.536.917-1.371-.363-2.162.19-3.467.393-1.011.156-2.413-.11-3.18.569 1.01-.303 3.014-.068 1.574 1.312.625-.624 1.358-1.02 2.132-1.442 1.452-.792 2.366-.034 3.817-.479.555.431 1.393.484 1.885.901.489.909.754 2.136 1.876 2.072.545.378 1.085.853 1.662 1.223.975.178 1.07-.213 1.351.83.179.665-.023 1.478.123 1.969.435.73.87 1.085.538 1.924-.672-.425-1.016-1.525-1.837-1.574.475.699.92 1.42 1.448 2.08.502.63.538 1.677 1.351 1.331-.065.47.147.774.613.875a4.835 4.835 0 0 0-.438 1.137c.401-.046.751.071 1.05.35-.387-.814.101-1.705.787-2.187-.18.528.27 1.2-.35 1.312.09.673.143.381.263.7.221-.083.426-.2.612-.35-.138.763-.401 1.47-1.137.612.451 2.205 1.213-.26 1.749-.087-.28 1.167-.35 1.74-1.399 2.559-.277.535-.397.904-.305 1.552-.192.453-.679.703-.949 1.146-.928 1.523.363 1.385.466 2.44.105 1.069-1.613 1.282-.343 2.45.821.756.613 1.701 1.305 2.623.489.412 1.26.425 1.783.789.202 1.033 1.061 1.243 1.883 1.749.351.578.239 1.324.217 1.988-.042 1.213.059 4.559-.647 5.183-.126-.737-.26-1.477-.26-2.228 0-.969.569-1.624.297-2.61-.31-1.122-1.236-1.641-1.699-2.597-1.133.87-1.685 3.847-.064 4.648.261.13.708.026.909.218.386.366.39 2.212.38 2.656-.999-.702-1.88-1.95-2.948-.418-.565.811.097 1.535-.698 2.266-.087.515.279 1.361.064 1.738-.395.692-1.494 1.319-.852 2.219.495.693 1.076.749 1.372 1.63.045.493-.551 1.204-.699 1.662.606-.58 1.158-1.318 1.662-2.012-.432-.158-2.01-1.231-2.13-1.749-.091-.392.117-.622.293-.95.75-.603 1.009-.639.721-1.54-.161-.505.25-2.596.572-3.113.489-.785 1.075-.657 1.615.017.297.903 1.278 1.241 1.45 2.088-.288 1.147-.812 1.637.103 2.537-.113.782-.397 1.255-1.224 1.486.021-.099.094-.681.087-.612-1.243 1.08.171 1.651-1.148 2.472-2.197 1.369-2.763 4.177-4.713 5.663a6.025 6.025 0 0 1 .138-2.624 4.5 4.5 0 0 1-.313-2.1c-1.152.76-4.258 3.345-3.121 4.983 1.913 2.755-3.201.734-4.139 1.204-.378.311-.997 1.645-1.533 1.503-.488-.13-.707-.44-1.266-.27-.762.599-1.188 2.909-2.1 2.84-.684-.052-.734-.447-.523-1.075-1.542.086-3.62-.072-4.287 1.704-.659 1.755-2.424 5.543-4.898 4.506.97-1.379 3.526-2.488 2.29-4.435-.816-1.285-2.516-.898-3.798-.864-1.605.043-3.031-.209-4.595-.524-4.898-.987-3.591 4.356.33 4.773-.788-.846-2.092-1.224-2.894-2.274-.422-.725-.468-2.035.62-2.031 1.212.004 3.05-.371 4.032.621.428.432.093 1.138.692 1.322.065-1.323.04-1.981.874-.612.134-1.158.652-.85.963.175.37-.027.227-.761.612-1.049 0 .416.058.824.175 1.224.49-.307.07-.94.525-1.224.161.741-.272 1.664.087 2.011-.346.554-.842 1.03-1.05 1.575.603-.507 1.35-1.128 2.1-1.4.358.995-1.49 2.561-2.362 2.638-.32.028-1.116-.684-1.42-.818-1.317-.581-1.89-1.006-2.691-2.257 1.543.268 3.172.662 4.723.262-1.442-.229-6.298-1.92-7.26-.437 1.12 0 .83-.378 1.462.534.486.703 1.076.547 1.597 1.111.798.864-.268 1.075-.697 1.766.334.018.558.203.612.525-1.374-.33-3.051-.227-4.326-.814-1.001-.462-1.233-1.062-2.146-.935.512-.508.119-2.094-.172-2.751-.612-1.387-.128-1.625-1.49-2.672-.603-1.046-1.526-2.477-2.974-2.218-.679-.437-.878-1.266-1.636-1.693-1.59-.896-1.812.684-2.825 1.296-.7-.058-1.581.057-1.793.865-.267 1.018 1.052 1.182 1.006 2.012-.788-.362-1.838-.93-2.482-1.574-.49-1.192-1.562-1.711-2.004-2.931-.281-.773 1.124-1.6 1.258-2.533.2-1.384-.856-2.448-1.495-3.545-.209.485-.536.857-.886 1.276-.709.848-.584 2.444-1.65 1.435.283.857.57 1.725 1.023 2.512.376.654 1.076 1.072 1.42 1.692.268.486-.227.685-.695.693a.702.702 0 0 0-.437-.437c-.148 1.116.68 1.253 1.617 1.235.721-.014.854.283 1.276.898.724 1.058.706 1.611 2.004 2.065-.194.171-.31.375-.35.613-.898-.452-1.56-1.091-2.274-1.662.118.895 1.108 1.251.613 2.012 1.306-.383 2.67.626 3.498 1.574 1.475-.537-1.195.494-.962.437h.875c-1.003.56.268 1.249.262 2.274.389-.301 2.36-1.357 1.947.088-.445 1.559-4.581-.29-3.784-2.274-.586.179-1.109.03-1.574.262.72.032.756.43.817 1.05.44.893 1.328 1.497 2.285 1.714 1.013.229 2.07.096 2.694-.771.74-1.03 1.51-.739 2.688-.418-.039-.431-.14-.984-.174-1.312.687.401 3.47 1.24 4.023.349.142.515-.094.899-.7.875.03.348.204.64.525.875-.626-.061-2.675.099-2.187-1.137-.442-.147-.925.217-1.137.525a3.2 3.2 0 0 0 .7.699c-.24.078-.236.066-.437.088 1.397 1.591-.907 1.462-.438.087-.538-.007-.915.329-.77.831.09.306.394.546.683.694 1.329.188 2.362-.287 3.576.637.863.658-1.683 1.254-.908 1.858.774.605 2.6.998 3.367.354-.769.019-1.937.3-1.137-.7-.422.172-.86.288-1.312.35-.126-2.722 2.754-1.104 3.617-.027 1.846 2.305 3.348-.9 4.999-1.399.639-.193 1.407 1.439 1.733 1.836 1.14 1.052 2.697.783 3.92.044.424-.257 1.096-1.227 1.63-.826.814.613 1.053 1.957 2.383 1.597-1.082-.17-2.699-1.771-1.05-2.449.183.666 1.995 3.064 2.45 2.012-1.084-.147-2.043-1.142-2.013-2.274.675.285 2.559 2.069 3.324 1.805.792-.274.496-1.107-.09-1.4-1.22-.607-3.064.286-4.022-1.386-.185-.324.055-.204.09-.491.28-.186.589-.275.925-.268.404-.286.149-.864.649-1.234-.032.454.18.77.612.874-.135-1.634 1.214-1.673 2.21-.925 2.087 1.567 4.851 1.471 7.324 1.363-1.23-.376-2.019.01-3.263-.226-1.194-.226-3.14-.133-1.77-1.309.346-.298.55-1.023 1.01-1.156.319-.092.91.456 1.402.44 1.139-.035 1.823.319 2.878-.35.333.049.363-.044.602.283.245.336.457.987.628 1.373.069.155.583.106.628.422-.064.448-.446.482-.803.643a7.985 7.985 0 0 0-.792.842c-.838.197-1.374-.179-2.2.158-1.449.592-2.147-.953-3.655.074-1.38.167-1.775-2.754-3.761-2.419.61.631 1.594.788 2.18 1.695.214.332.399.819.793 1.017.714.144 1.633-.374 2.203-.231.972 1.619 2.201.345 3.524.39 1.217.041 2.327-.728 3.206-1.54.549-.507.337-.788.134-1.265-.991-.477-1.214-1.734-2.332-1.896-.564-.081-1.34.882-1.759.343-.517-.681.592-1.181.966-1.388.521-.33.375-.451.858-.504.794.883 2.204.112 3.205.394 1.571.443 1.86-.932 3.111-1.036 1.273-.106 1.223-.645 2.282-1.355 1.599-1.071 2.013-5.102-.803-4.162-.282.094-1.595.631-1.492-.215.091-.748.465-1.916 1.153-2.318.017.793-.621 1.487.525 1.487a7.87 7.87 0 0 0 2.711-1.75c1.446-.035 2.217-.495 3.144-1.574.737-1.544-1.378-.809-1.805-.449-1.034.873-2.224 3.264-3.739 3.16 1.529-2.153 1.568-4.296 4.032-5.812 1.126-.692 1.516-1.547 2.916-1.171 1.101-.443 1.057-1.433 1.836-2.073 1.116-.202 2.266-1.007 2.136-2.247-.04-.389-.399-.981-.33-1.336.102-.524.56-.874.684-1.443.004-1.154-1.067-1.233-1.932-1.008-1.027.266-1.633-.319-2.744.046.36-1.513 1.709-1.84 2.886-2.502 1.388-1.14.357-2.625.612-4.058-.757.641-2.077.547-2.449 1.662.844-.437 1.859-1.225 2.274.262-1.075.275-1.344.251-2.449-.087-.489.809-.559 1.584-.119 2.449-.133.66-1.232 1.647-1.63 2.362-.151-1.777.083-3.986.549-5.728.318-1.184.752-2.333 1.075-3.516.366-1.333.803-.366 1.349-1.34-.641.05-2.487-.864-1.662-1.746.522-.835 2.126.688 2.099 1.396 1.453-.915.748-3.513.7-4.898-.69.247-2.313 1.784-2.703 2.392-.66 1.029-.536 1.833-.075 2.943-.048.37-.182.705-.4 1.007-.74.515-.547 1.118-.933 1.88-1.435-2.413-1.524-6.576-1.049-9.272-.774.055-1.222.094-1.472-.962.453-1.228-.287-1.761-.793-2.792-.269-.55-1.001-.615-1.184-1.231-.173-.588.558-1.119.106-1.657-1.48-1.253-.352-1.237-.856-2.804-.388.277-.613.863-.787 1.4-1.339-.938-.398-1.974-.787-3.325.363-1.622-.551-1.808-1.021-3.204-.346-1.029-.232-2.594-.834-3.484-.379-.56-1.265-.72-1.819-1.009-.321 1.587-.743 4.242 1.574 4.516 1.352 1.144.74 2.642 1.312 4.145-.928.168-.871-2.634-1.924-3.15.103 2.079-1.707-1.248-1.945-1.76-.839-1.81-.851-.411-1.903-.076 1.104-3.531-.641-5.856-3.178-8.058-1.498-1.299-2.955-.904-4.607-.885-1.072-.472-2.514-.142-2.537 1.158-.77-.541-1.551-1.063-2.324-1.599-.334-.43-.28-1.005-.59-1.462-1.046-1.153-2.78-1.01-4.17-.789Zm-6.122 2.012c.32-.205 2.363-3.882 3.032-1.921.129.377-.158.592-.357.894-.381.58.15 1.101-.224 1.624-.27.379-.945.416-1.284.58-.242.17-.192.575-.37.795-.51.63-1.913.375-2.611.712-.767.37-1.718.484-2.21-.236-.431-1.692.867-1.377.648-2.974.614-.778 1.164-.55 1.904-1.242.35-.212.364-1.168.963-.512 1.038 1.138.721.562.509 2.28Zm-20.118 11.37c-.426-2.02 2.545-4.443 2.974-6.472-1.618-.698-2.022 2.466-2.711 2.886-.037-.962.307-2.094-.875-2.186-.265 1.888-.434 3.788-.621 5.686-.117 1.184-.703 1.056-.866 2.01-1.255-1.305-3.569-5.296-4.728-1.705-.21.65-1.472.663-1.866 1.27-.794 1.221-.12 1.228-1.578 2.21-.411.694.09 1.268.038 1.987-.785 1.615.299 2.7.923 4.198.66 1.583-.44 3.865-.72 5.46a75.758 75.758 0 0 0-.816 6.086c-.132-.399-.243-1.035-.573-1.399-.434-.226-.928-.538-.94-1.091-.011-.535.533-.599.849-.947.674-.746.377-1.584.13-2.453-.21-.739-.634-2.25-1.354-2.642-.376-.204-1.076 1.437-1.223 1.745-1.177 2.464.869 3.588 1.538 5.737-.495-.103-.831-.351-1.312-.349.774 1.094 2.154.783 2.528 2.451.285 1.267.849 2.176.883 3.584-.813-.884-1.808-1.678-2.745-2.381-.617-.464-1.594-.417-2 .282-.112.192-.084.485-.153.699.342 1.125-.104 1.48-.5 2.537-.002.519.059.623.404 1.112.62.88.125.776.216 1.687.083.834 1.08.983 1.5 1.576.45.637.209.924 1.004 1.35 1.386-.233 2.619 1.565 3.387 2.485 1.219 1.457 1.696 3.416 2.298 5.172-1.403-.322.474 1.144.612 1.312-1.723.347-3.06-1.598-2.904-3.061-.438-2.237-1.793-1.968-3.154-3.061-.756.231-.573 2.739-.159 3.5.459.841 1.34 1.247 2.28 1.077.898.348 1.802 1.086 2.6 1.643.946.662 4.178 3.05 1.256 3.346-1.047.106-1.277.217-1.836 1.05-.574.854.67 1.459.892 2.11.328.961.16 1.671 1.2 2.265 1.088.316 1.463.292 2.508.834.946.491 1.405-.402 2.215-.188.95.548 1.167 1.245 2.361.982-.824-.743-2.118-1.656-3.273-1.126-1.082.497-1.643-.759-2.67-.881-1.224-.146-1.256-.666-1.585-1.792-.203-.693-1.434-1.536-1.04-2.218.458-.793.838-.381 1.746-.514 1.18-.328 1.087-1.068 2.034.409.832.413.767-.004 1.727-.088-.785-.389-1.042-.958-1.137-1.924-.186.141-.274.345-.263.612-.9-.439-1.7-1.165-2.099-2.099.576.482.955-.177 1.05-.437.112.692.04 1.334.437 1.662 0-1.48.012-1.487-.395-2.408-.545-.8-1.343-1.591-1.749-2.403-.273-.548.409-.714-.184-1.311-.426-.429-.997-.248-1.263-.963-.136-.53.558-.892.497-1.4-.937-1.624-.199-1.359.346-2.755.25-.638-.396-1.162.154-1.646.96-.845 1.753 1.053 2.42 1.468 1.98-.304 1.227.808 1.57 1.884.196.613.696.799.825 1.399.038.177-.352.428-.34.612.061.218.512 1.216.415 1.4-.135.258-.524.489-.73.701-.17.357.174.704.105 1.092-.029.165-.173.609-.446.523-.735-.23-.247-2.44-.088-2.928a3.101 3.101 0 0 0-.524.524c-.434-1.07-.248-1.913.174-2.974-.408-.047-.768.392-.962.7-.27-.827.014-1.205.088-2.012-.242.02-.313.186-.438.35-.3-.417-.503-1.556-1.137-1.399.17.459.316.925.438 1.399-.3-.175-.62-.292-.962-.35.51.86 1.31 1.361 1.574 2.362-.442-.187-1.558-.979-1.924-.437 1.152.328 2.092 1.211 2.449 2.361-.55-.147-.786-.343-1.312-.35.76.846 1.543.978 1.809 2.191.187.854.245 1.953.727 2.62.351-1.852 2.393-3.395 1.856-5.335.13-.945.646-.935.07-1.811-.544-.83-.782-2.149-1.414-2.802-.503-.52-.964-.396-1.561-.704a3.276 3.276 0 0 0-1.806-1.152c-1.333-.306-2.395.995-2.2-1.489.057-.108.092-.181.175-.263 1.096-.024 1.683-.345 2.178-1.334.61-1.222.204-2.476.166-3.741-.562.932-1.967.91-2.862 1.596-.936-.262-.126-2.428.196-2.996-.02-.758.022-1.752.529-2.361.69-.83 1.634-.395 2.502-.814.637-.307.753-.494.83-1.11.538-.527 1.2-.637 1.414-1.474.182-.712.792-1.022.923-1.676.132-.662-.07-1.326.011-2.009.102-.856-.053-1.16-.832-1.66-.465-.158-1.88-.548-2.316-.225-.48 1.647-.54 1.224-1.532 1.894-.601.407-.728.139-.947 1.003-.148.581-.097.963-.715 1.084.811-2.033 2.05-3.86 2.974-5.86 2.307 2.078 4.05-1.03 4.723-2.887-1.299-.275-2.413.163-3.626.466.092-.884 1.464-1.495 2.261-1.827 1.159-.483.392-.447.98-1.14.347-.411 1.1.344 1.26.446.533.138.73.135 1.32-.02 1.001-.263 1.228.277 2.217.167.862-.096 1.158-.51 2.047-.46.87.05 1.373-.284 1.97-.912.51-.538 2.256-1.403 2.08-2.325-.284-1.473-2.852-1.647-4.124-1.542-1.081.58-1.518.817-2.405-.069-.179-.178-.186-.34-.046-.553.633-.96 2.879-1.757 3.896-2.268 2.025-1.018 3.208-1.727 4.91.068.709.748 1.249.92 2.304.965.377.31.74.718 1.225.817.568.115 1.195-.254 1.662-.552.465.139 1.237.285 1.703.081.54-.236 2.071-1.11 2.467-1.509.306-.308.288-.73.132-1.116-.389-.964-1.485-.707-1.965-1.748-.851-.477-1.287.085-2.162-.026-1.337-.695-1.415-.123-2.755-.11-.427.005-.945-.157-.921-.646.044-.92 1.907.016 2.283-.132 2.599-1.019 5.128-.07 7.074-2.674.476-1.29 1.418-3.852-1.026-3.493-.883.13-1.124.305-1.973.013-.655-.225-.95-.156-1.546.134-.412.147-.894.78-1.422.995-1.396.57-.679 1.446-1.76 2.375-.1.196-.112 1.016-.347 1.081-1.449.406-1.145-1.356-1.26-2.395-.197-1.767-1.882-1.822-3.073-.62-.672.677-1.455-.11-2.076.53-.413.424-.478 1.065-.966 1.39-.74.492-1.646.565-1.779 1.65.142.734.758 1.287.092 1.894-.517.47-.994.42-1.02 1.212-.072 2.255-3.94 3.752-5.019 5.731Z"/>
</svg>
