<svg xmlns="http://www.w3.org/2000/svg" width="170" height="246" fill="none" viewBox="0 0 170 246">
  <path fill="#fff" stroke="#000" stroke-width="2.499" d="M2 237.185c0 3.779 3.089 6.867 6.867 6.867h152.789c3.768 0 6.857-3.088 6.857-6.867V8.87c0-3.779-3.089-6.868-6.857-6.868H8.867C5.09 2.002 2 5.092 2 8.87v228.315Z"/>
  <path fill="#E6180A" d="M10.063 32H4.59l8.338-24.153h6.581L27.835 32h-5.472l-6.05-18.634h-.189L10.063 32Zm-.342-9.494h12.925v3.986H9.721v-3.986ZM162.538 212h5.472l-8.338 24.153h-6.581L144.765 212h5.472l6.05 18.634h.189L162.538 212Zm.342 9.494h-12.926v-3.986h12.926v3.986ZM15.645 52.137h7.677c-.874-.04-1.618-.605-2.32-1.072-1.58-1.191-3.058-2.557-4.225-4.154-.545-.804-1.118-1.708-1.132-2.711m7.677 7.937c-1.11.035-2.057.741-2.903 1.392-1.494 1.255-2.788 2.747-3.88 4.363-.4.668-.872 1.377-.894 2.182v-7.937m0 7.937c-.038-1.182-.758-2.205-1.437-3.119a20.888 20.888 0 0 0-4.227-3.961c-.614-.383-1.265-.839-2.013-.857h7.677m-7.677 0c1.11-.035 2.057-.74 2.903-1.392 1.494-1.255 2.788-2.747 3.88-4.363.4-.669.872-1.377.894-2.182v7.937m140.223 140.784h-7.678c.875.039 1.619.605 2.322 1.073 1.578 1.191 3.056 2.556 4.224 4.153.545.804 1.117 1.708 1.132 2.711m-7.678-7.937c1.11-.035 2.058-.741 2.903-1.392 1.495-1.255 2.788-2.747 3.88-4.362.401-.669.873-1.378.895-2.183v7.937m0-7.937c.038 1.182.757 2.206 1.437 3.119a20.903 20.903 0 0 0 4.226 3.962c.614.383 1.266.838 2.014.856h-7.677m7.677 0c-1.11.035-2.058.741-2.903 1.392-1.495 1.255-2.788 2.748-3.88 4.363-.401.669-.872 1.378-.894 2.182v-7.937m-70.111-77.259h18.425c-2.099-.094-3.885-1.452-5.571-2.574-3.788-2.858-7.337-6.135-10.139-9.969-1.307-1.929-2.681-4.097-2.715-6.506m18.425 19.049c-2.663.084-4.938 1.778-6.967 3.342-3.587 3.011-6.692 6.592-9.311 10.469-.962 1.605-2.095 3.306-2.147 5.238v-19.049m0 19.049c-.092-2.836-1.819-5.293-3.45-7.486-2.908-3.622-6.353-6.827-10.144-9.507-1.473-.919-3.037-2.012-4.832-2.056h18.425m-18.425 0c2.663-.084 4.938-1.778 6.967-3.34 3.587-3.013 6.692-6.595 9.311-10.472.962-1.605 2.094-3.306 2.148-5.237v19.049"/>
</svg>
