<svg xmlns="http://www.w3.org/2000/svg" width="157" height="226" fill="none" viewBox="0 0 157 226">
  <path fill="#fff" stroke="#000" stroke-width="2.499" d="M2 218.139c0 3.482 2.85 6.328 6.338 6.328h141.009c3.478 0 6.329-2.846 6.329-6.328V7.747c0-3.482-2.851-6.329-6.329-6.329H8.338C4.851 1.418 2 4.265 2 7.747v210.392Z"/>
  <path fill="#E6180A" d="M11.77 32.45H6.296l8.338-24.152h6.58l8.327 24.152H24.07l-6.05-18.633h-.189L11.769 32.45Zm-.343-9.493h12.926v3.986H11.427v-3.986Zm133.636 169.418h5.473l-8.338 24.153h-6.581l-8.326-24.153h5.472l6.05 18.634h.189l6.061-18.634Zm.342 9.494H132.48v-3.986h12.925v3.986ZM21.669 43.996c-.01 4.338-5.452 7.498-7.048 10.934-1.615-3.427-7.067-6.559-7.104-10.897-.01-2.045 1.577-3.713 3.524-3.713 1.956 0 3.552 1.65 3.552 3.694 0-2.054 1.578-3.712 3.524-3.712 1.956-.01 3.543 1.649 3.552 3.694Zm115.26 136.974c.009-4.339 5.453-7.498 7.049-10.934 1.614 3.427 7.066 6.559 7.103 10.897.01 2.045-1.577 3.712-3.524 3.712-1.956 0-3.552-1.648-3.552-3.693 0 2.054-1.577 3.712-3.524 3.712-1.956.009-3.543-1.649-3.552-3.694ZM96.282 97.467c-.022 10.412-13.086 17.995-16.916 26.241-3.875-8.224-16.96-15.74-17.05-26.153-.022-4.908 3.787-8.91 8.459-8.91 4.694 0 8.524 3.958 8.524 8.866 0-4.93 3.786-8.91 8.458-8.91 4.694-.022 8.503 3.958 8.525 8.866Z"/>
</svg>
