<svg xmlns="http://www.w3.org/2000/svg" width="158" height="227" fill="none" viewBox="0 0 158 227">
  <path fill="#fff" stroke="#000" stroke-width="2.499" d="M2.14 218.798c0 3.482 2.851 6.329 6.339 6.329h141.009c3.478 0 6.329-2.847 6.329-6.329V8.406c0-3.482-2.851-6.328-6.329-6.328H8.478c-3.487 0-6.337 2.846-6.337 6.328v210.392Z"/>
  <path fill="#000" d="M11.91 35.832H6.438l8.338-24.153h6.58l8.326 24.153H24.21l-6.05-18.634h-.188L11.91 35.832Zm-.342-9.494h12.925v3.986H11.568v-3.986Zm136.405 167.575h5.472l-8.338 24.153h-6.58l-8.327-24.153h5.473l6.05 18.634h.188l6.062-18.634Zm.342 9.494h-12.926v-3.986h12.926v3.986ZM11.117 55.581c1.541 0 2.353-1.64 2.777-3.279.425-1.64.461-3.28.461-3.28l.785-.008s.147 6.567 3.229 6.567h-7.252Z"/>
  <path fill="#000" d="M8.506 49.014c.01-3.197 4.816-5.518 6.228-8.042 1.411 2.533 6.218 4.855 6.227 8.042 0 1.51-1.393 2.735-3.118 2.735-1.716 0-3.11-1.225-3.11-2.735 0 1.51-1.392 2.735-3.118 2.735-1.725 0-3.109-1.225-3.109-2.735Zm139.257 121.691c-1.541 0-2.353 1.639-2.777 3.279a16.315 16.315 0 0 0-.462 3.279l-.784.01s-.147-6.568-3.229-6.568h7.252Z"/>
  <path fill="#000" d="M150.373 177.273c-.009 3.196-4.816 5.517-6.227 8.041-1.412-2.533-6.218-4.854-6.228-8.041 0-1.511 1.394-2.736 3.119-2.736 1.716 0 3.109 1.225 3.109 2.736 0-1.511 1.393-2.736 3.118-2.736 1.725 0 3.109 1.225 3.109 2.736ZM70.76 124.346c3.697 0 5.646-3.935 6.664-7.87 1.019-3.936 1.107-7.871 1.107-7.871l1.883-.022s.354 15.763 7.75 15.763H70.76Z"/>
  <path fill="#000" d="M64.494 108.583c.022-7.671 11.558-13.242 14.946-19.3 3.387 6.08 14.923 11.651 14.945 19.3 0 3.626-3.343 6.566-7.484 6.566-4.118 0-7.461-2.94-7.461-6.566 0 3.626-3.344 6.566-7.484 6.566-4.14 0-7.462-2.94-7.462-6.566Z"/>
</svg>
