<svg xmlns="http://www.w3.org/2000/svg" width="157" height="227" fill="none" viewBox="0 0 157 227">
  <path fill="#fff" stroke="#000" stroke-width="2.499" d="M2.025 218.714c0 3.482 2.851 6.329 6.338 6.329h141.01c3.478 0 6.328-2.847 6.328-6.329V8.322c0-3.482-2.85-6.328-6.328-6.328H8.363c-3.487 0-6.338 2.846-6.338 6.328v210.392Z"/>
  <path fill="#000" d="M146.429 8.038H11.371c-1.617 0-2.928 1.46-2.928 3.263V215.93c0 1.802 1.31 3.263 2.928 3.263h135.058c1.617 0 2.928-1.461 2.928-3.263V11.301c0-1.802-1.311-3.263-2.928-3.263Z"/>
  <path fill="#000" stroke="#fff" stroke-linejoin="round" stroke-width="1.501" d="M140.797 13.32H17.012c-1.617 0-2.928 1.462-2.928 3.264v194.07c0 1.803 1.31 3.264 2.928 3.264h123.785c1.617 0 2.928-1.461 2.928-3.264V16.584c0-1.802-1.311-3.263-2.928-3.263Z"/>
  <path fill="#000" stroke="#fff" stroke-linejoin="round" stroke-width="1.251" d="M133.77 23.098H24.041v181.038H133.77V23.098Z"/>
  <path fill="#000" stroke="#fff" stroke-linejoin="round" stroke-width="1.251" d="M129.381 27.623H28.431V199.61h100.95V27.623Z"/>
  <path fill="#fff" fill-rule="evenodd" d="M36.528 53.078a2.042 2.042 0 0 0-2.048 2.045c0 1.123.913 2.045 2.048 2.045a2.046 2.046 0 0 0 0-4.09Zm-.028 1.05 1.024 1.013-.978.976-1.024-1.022.978-.967Zm6.571-1.05a2.042 2.042 0 0 0-2.048 2.045c0 1.123.913 2.045 2.048 2.045a2.046 2.046 0 0 0 0-4.09Zm-.028 1.05 1.024 1.013-.977.976-1.025-1.022.978-.967Zm6.571-1.05a2.042 2.042 0 0 0-2.048 2.045c0 1.123.913 2.045 2.048 2.045a2.046 2.046 0 0 0 0-4.09Zm-.028 1.05 1.024 1.013-.977.976-1.025-1.022.978-.967Zm-6.515-7.584a2.042 2.042 0 0 0-2.048 2.045c0 1.124.913 2.045 2.048 2.045a2.046 2.046 0 0 0 0-4.09Zm-.028 1.05 1.024 1.014-.977.976-1.025-1.022.978-.968Zm6.571-7.583a2.042 2.042 0 0 0-2.048 2.045c0 1.124.914 2.045 2.048 2.045a2.046 2.046 0 0 0 0-4.09Zm-.027 1.05 1.024 1.014-.978.976-1.024-1.022.978-.968Zm.027 5.483a2.042 2.042 0 0 0-2.048 2.045c0 1.124.914 2.045 2.048 2.045a2.046 2.046 0 0 0 0-4.09Zm-.027 1.05 1.024 1.014-.978.976-1.024-1.022.978-.968Zm6.571-14.116a2.042 2.042 0 0 0-2.048 2.045c0 1.124.913 2.045 2.048 2.045a2.046 2.046 0 0 0 0-4.09Zm-.028 1.05 1.024 1.013-.978.977-1.024-1.023.978-.967Zm6.57-1.05a2.042 2.042 0 0 0-2.047 2.045c0 1.124.913 2.045 2.048 2.045a2.046 2.046 0 0 0 0-4.09Zm-.027 1.05 1.024 1.013-.978.977-1.024-1.023.978-.967Zm6.571-1.05a2.042 2.042 0 0 0-2.048 2.045c0 1.124.914 2.045 2.048 2.045a2.046 2.046 0 0 0 0-4.09Zm-.027 1.05 1.024 1.013-.978.977-1.024-1.023.978-.967Zm6.57-1.05a2.042 2.042 0 0 0-2.048 2.045c0 1.124.913 2.045 2.048 2.045a2.046 2.046 0 0 0 0-4.09Zm-.028 1.05 1.024 1.013-.978.977-1.024-1.023.978-.967Zm-19.601 5.483a2.042 2.042 0 0 0-2.048 2.045c0 1.124.913 2.045 2.048 2.045a2.046 2.046 0 0 0 0-4.09Zm-.028 1.05 1.024 1.014-.978.976-1.024-1.022.978-.967Zm6.57-1.05a2.042 2.042 0 0 0-2.047 2.045c0 1.124.913 2.045 2.048 2.045a2.046 2.046 0 0 0 0-4.09Zm-.027 1.05 1.024 1.014-.978.976-1.024-1.022.978-.967Zm6.571-1.05a2.042 2.042 0 0 0-2.048 2.045c0 1.124.914 2.045 2.048 2.045a2.046 2.046 0 0 0 0-4.09Zm-.027 1.05 1.024 1.014-.978.976-1.024-1.022.978-.967Zm6.57-1.05a2.042 2.042 0 0 0-2.048 2.045c0 1.124.913 2.045 2.048 2.045a2.046 2.046 0 0 0 0-4.09Zm-.028 1.05 1.024 1.014-.978.976-1.024-1.022.978-.967Zm-19.601 5.484a2.042 2.042 0 0 0-2.048 2.045c0 1.123.913 2.045 2.048 2.045a2.046 2.046 0 0 0 0-4.09Zm-.028 1.05 1.024 1.013-.978.977-1.024-1.023.978-.967Zm6.57-1.05a2.042 2.042 0 0 0-2.047 2.045c0 1.123.913 2.045 2.048 2.045a2.046 2.046 0 0 0 0-4.09Zm-.027 1.05 1.024 1.013-.978.977-1.024-1.023.978-.967Zm6.571-1.05a2.042 2.042 0 0 0-2.048 2.045c0 1.123.914 2.045 2.048 2.045a2.046 2.046 0 0 0 0-4.09Zm-.027 1.05 1.024 1.013-.978.977-1.024-1.023.978-.967Zm6.57-1.05a2.042 2.042 0 0 0-2.048 2.045c0 1.123.913 2.045 2.048 2.045a2.046 2.046 0 0 0 0-4.09Zm-.028 1.05 1.024 1.013-.978.977-1.024-1.023.978-.967Zm-19.601 5.483a2.042 2.042 0 0 0-2.048 2.045c0 1.124.913 2.045 2.048 2.045a2.046 2.046 0 0 0 0-4.09Zm-.028 1.05 1.024 1.013-.978.977-1.024-1.023.978-.967Zm6.57-1.05a2.042 2.042 0 0 0-2.047 2.045c0 1.124.913 2.045 2.048 2.045a2.046 2.046 0 0 0 0-4.09Zm-.027 1.05 1.024 1.013-.978.977-1.024-1.023.978-.967Zm6.571-1.05a2.042 2.042 0 0 0-2.048 2.045c0 1.124.914 2.045 2.048 2.045a2.046 2.046 0 0 0 0-4.09Zm-.027 1.05 1.024 1.013-.978.977-1.024-1.023.978-.967Zm6.57-1.05a2.042 2.042 0 0 0-2.048 2.045c0 1.124.913 2.045 2.048 2.045a2.046 2.046 0 0 0 0-4.09Zm-.028 1.05 1.024 1.013-.978.977-1.024-1.023.978-.967Zm-19.601 5.483a2.042 2.042 0 0 0-2.048 2.045c0 1.124.913 2.045 2.048 2.045a2.046 2.046 0 0 0 0-4.09Zm-.028 1.05 1.024 1.014-.978.976-1.024-1.022.978-.968Zm6.57-1.05a2.042 2.042 0 0 0-2.047 2.045c0 1.124.913 2.045 2.048 2.045a2.046 2.046 0 0 0 0-4.09Zm-.027 1.05 1.024 1.014-.978.976-1.024-1.022.978-.968Zm6.571-1.05a2.042 2.042 0 0 0-2.048 2.045c0 1.124.914 2.045 2.048 2.045a2.046 2.046 0 0 0 0-4.09Zm-.027 1.05 1.024 1.014-.978.976-1.024-1.022.978-.968Zm6.57-1.05a2.042 2.042 0 0 0-2.048 2.045c0 1.124.913 2.045 2.048 2.045a2.046 2.046 0 0 0 0-4.09Zm-.028 1.05 1.024 1.014-.978.976-1.024-1.022.978-.968Zm-19.601 5.483a2.042 2.042 0 0 0-2.048 2.045c0 1.124.913 2.046 2.048 2.046a2.046 2.046 0 0 0 0-4.09Zm-.028 1.05 1.024 1.014-.978.976-1.024-1.022.978-.967Zm6.57-1.05a2.042 2.042 0 0 0-2.047 2.045c0 1.124.913 2.046 2.048 2.046a2.046 2.046 0 0 0 0-4.09Zm-.027 1.05 1.024 1.014-.978.976-1.024-1.022.978-.967Zm6.571-1.05a2.042 2.042 0 0 0-2.048 2.045c0 1.124.914 2.046 2.048 2.046a2.046 2.046 0 0 0 0-4.09Zm-.027 1.05 1.024 1.014-.978.976-1.024-1.022.978-.967Zm6.57-1.05a2.042 2.042 0 0 0-2.048 2.045c0 1.124.913 2.046 2.048 2.046a2.046 2.046 0 0 0 0-4.09Zm-.028 1.05 1.024 1.014-.978.976-1.024-1.022.978-.967Zm-19.601 5.484a2.042 2.042 0 0 0-2.048 2.045c0 1.124.913 2.045 2.048 2.045a2.046 2.046 0 0 0 0-4.09Zm-.028 1.05 1.024 1.013-.978.977-1.024-1.023.978-.967Zm6.57-1.05a2.042 2.042 0 0 0-2.047 2.045c0 1.124.913 2.045 2.048 2.045a2.046 2.046 0 0 0 0-4.09Zm-.027 1.05 1.024 1.013-.978.977-1.024-1.023.978-.967Zm6.571-1.05a2.042 2.042 0 0 0-2.048 2.045c0 1.124.914 2.045 2.048 2.045a2.046 2.046 0 0 0 0-4.09Zm-.027 1.05 1.024 1.013-.978.977-1.024-1.023.978-.967Zm6.57-1.05a2.042 2.042 0 0 0-2.048 2.045c0 1.124.913 2.045 2.048 2.045a2.046 2.046 0 0 0 0-4.09Zm-.028 1.05 1.024 1.013-.978.977-1.024-1.023.978-.967Zm-19.601 5.483a2.042 2.042 0 0 0-2.048 2.045c0 1.124.913 2.045 2.048 2.045a2.046 2.046 0 0 0 0-4.09Zm-.028 1.05 1.024 1.014-.978.976-1.024-1.023.978-.967Zm6.57-1.05a2.042 2.042 0 0 0-2.047 2.045c0 1.124.913 2.045 2.048 2.045a2.046 2.046 0 0 0 0-4.09Zm-.027 1.05 1.024 1.014-.978.976-1.024-1.023.978-.967Zm6.571-1.05a2.042 2.042 0 0 0-2.048 2.045c0 1.124.914 2.045 2.048 2.045a2.046 2.046 0 0 0 0-4.09Zm-.027 1.05 1.024 1.014-.978.976-1.024-1.023.978-.967Zm6.57-1.05a2.042 2.042 0 0 0-2.048 2.045c0 1.124.913 2.045 2.048 2.045a2.046 2.046 0 0 0 0-4.09Zm-.028 1.05 1.024 1.014-.978.976-1.024-1.023.978-.967Zm-39.231 5.483a2.042 2.042 0 0 0-2.048 2.045c0 1.124.913 2.045 2.048 2.045a2.046 2.046 0 0 0 0-4.09Zm-.028 1.05 1.025 1.014-.978.976-1.024-1.022.977-.968Zm6.571-1.05a2.042 2.042 0 0 0-2.048 2.045c0 1.124.913 2.045 2.048 2.045a2.046 2.046 0 0 0 0-4.09Zm-.028 1.05 1.024 1.014-.977.976-1.025-1.022.978-.968Zm6.571-1.05a2.042 2.042 0 0 0-2.048 2.045c0 1.124.914 2.045 2.048 2.045a2.046 2.046 0 0 0 0-4.09Zm-.027 1.05 1.024 1.014-.978.976-1.024-1.022.978-.968Zm6.57-1.05a2.042 2.042 0 0 0-2.048 2.045c0 1.124.914 2.045 2.048 2.045a2.046 2.046 0 0 0 0-4.09Zm-.027 1.05 1.024 1.014-.978.976-1.024-1.022.978-.968Zm-19.602 5.484a2.042 2.042 0 0 0-2.048 2.044c0 1.124.913 2.046 2.048 2.046a2.046 2.046 0 0 0 0-4.09Zm-.028 1.05 1.025 1.013-.978.976-1.024-1.022.977-.967Zm6.571-1.05a2.042 2.042 0 0 0-2.048 2.044c0 1.124.913 2.046 2.048 2.046a2.046 2.046 0 0 0 0-4.09Zm-.028 1.05 1.024 1.013-.977.976-1.025-1.022.978-.967Zm6.571-1.05a2.042 2.042 0 0 0-2.048 2.044c0 1.124.914 2.046 2.048 2.046a2.046 2.046 0 0 0 0-4.09Zm-.027 1.05 1.024 1.013-.978.976-1.024-1.022.978-.967Zm6.57-1.05a2.042 2.042 0 0 0-2.048 2.044c0 1.124.914 2.046 2.048 2.046a2.046 2.046 0 0 0 0-4.09Zm-.027 1.05 1.024 1.013-.978.976-1.024-1.022.978-.967Zm-19.602 5.483a2.042 2.042 0 0 0-2.048 2.045c0 1.124.913 2.045 2.048 2.045a2.046 2.046 0 0 0 0-4.09Zm-.028 1.05 1.025 1.013-.978.977-1.024-1.023.977-.967Zm6.571-1.05a2.042 2.042 0 0 0-2.048 2.045c0 1.124.913 2.045 2.048 2.045a2.046 2.046 0 0 0 0-4.09Zm-.028 1.05 1.024 1.013-.977.977-1.025-1.023.978-.967Zm6.571-1.05a2.042 2.042 0 0 0-2.048 2.045c0 1.124.914 2.045 2.048 2.045a2.046 2.046 0 0 0 0-4.09Zm-.027 1.05 1.024 1.013-.978.977-1.024-1.023.978-.967Zm6.57-1.05a2.042 2.042 0 0 0-2.048 2.045c0 1.124.914 2.045 2.048 2.045a2.046 2.046 0 0 0 0-4.09Zm-.027 1.05 1.024 1.013-.978.977-1.024-1.023.978-.967Zm-19.602 5.483a2.042 2.042 0 0 0-2.048 2.045c0 1.124.913 2.045 2.048 2.045a2.046 2.046 0 0 0 0-4.09Zm-.028 1.05 1.025 1.014-.978.976-1.024-1.022.977-.968Zm6.571-1.05a2.042 2.042 0 0 0-2.048 2.045c0 1.124.913 2.045 2.048 2.045a2.046 2.046 0 0 0 0-4.09Zm-.028 1.05 1.024 1.014-.977.976-1.025-1.022.978-.968Zm6.571-1.05a2.042 2.042 0 0 0-2.048 2.045c0 1.124.914 2.045 2.048 2.045a2.046 2.046 0 0 0 0-4.09Zm-.027 1.05 1.024 1.014-.978.976-1.024-1.022.978-.968Zm6.57-1.05a2.042 2.042 0 0 0-2.048 2.045c0 1.124.914 2.045 2.048 2.045a2.046 2.046 0 0 0 0-4.09Zm-.027 1.05 1.024 1.014-.978.976-1.024-1.022.978-.968Zm-19.602 5.483a2.042 2.042 0 0 0-2.048 2.045c0 1.124.913 2.045 2.048 2.045a2.046 2.046 0 0 0 0-4.09Zm-.028 1.051 1.025 1.013-.978.976-1.024-1.022.977-.967Zm6.571-1.051a2.042 2.042 0 0 0-2.048 2.045c0 1.124.913 2.045 2.048 2.045a2.046 2.046 0 0 0 0-4.09Zm-.028 1.051 1.024 1.013-.977.976-1.025-1.022.978-.967Zm6.571-1.051a2.042 2.042 0 0 0-2.048 2.045c0 1.124.914 2.045 2.048 2.045a2.046 2.046 0 0 0 0-4.09Zm-.027 1.051 1.024 1.013-.978.976-1.024-1.022.978-.967Zm6.57-1.051a2.042 2.042 0 0 0-2.048 2.045c0 1.124.914 2.045 2.048 2.045a2.046 2.046 0 0 0 0-4.09Zm-.027 1.051 1.024 1.013-.978.976-1.024-1.022.978-.967Zm13.105-23.096a2.042 2.042 0 0 0 2.048-2.045 2.048 2.048 0 0 0-2.048-2.045 2.046 2.046 0 0 0 0 4.09Zm.027-1.05-1.024-1.013.978-.977 1.024 1.023-.978.967Zm-6.571 7.583a2.042 2.042 0 0 0 2.048-2.045 2.048 2.048 0 0 0-2.048-2.045 2.046 2.046 0 0 0 0 4.09Zm.028-1.05-1.024-1.013.978-.977 1.024 1.023-.978.967Zm-.028-5.483a2.042 2.042 0 0 0 2.048-2.045 2.048 2.048 0 0 0-2.048-2.045 2.046 2.046 0 0 0 0 4.09Zm.028-1.05-1.024-1.013.978-.977 1.024 1.023-.978.967ZM36.528 59.611a2.042 2.042 0 0 0-2.048 2.045c0 1.124.913 2.045 2.048 2.045a2.046 2.046 0 0 0 0-4.09Zm-.028 1.05 1.024 1.014-.978.976-1.024-1.023.978-.967Zm6.571-1.05a2.042 2.042 0 0 0-2.048 2.045c0 1.124.913 2.045 2.048 2.045a2.046 2.046 0 0 0 0-4.09Zm-.028 1.05 1.024 1.014-.977.976-1.025-1.023.978-.967Zm6.571-1.05a2.042 2.042 0 0 0-2.048 2.045c0 1.124.913 2.045 2.048 2.045a2.046 2.046 0 0 0 0-4.09Zm-.028 1.05 1.024 1.014-.977.976-1.025-1.023.978-.967Zm-13.058 5.483a2.042 2.042 0 0 0-2.048 2.045c0 1.124.913 2.045 2.048 2.045a2.046 2.046 0 0 0 0-4.09Zm-.028 1.05 1.024 1.013-.978.977-1.024-1.023.978-.967Zm6.571-1.05a2.042 2.042 0 0 0-2.048 2.045c0 1.124.913 2.045 2.048 2.045a2.046 2.046 0 0 0 0-4.09Zm-.028 1.05 1.024 1.013-.977.977-1.025-1.023.978-.967Zm6.571-1.05a2.042 2.042 0 0 0-2.048 2.045c0 1.124.913 2.045 2.048 2.045a2.046 2.046 0 0 0 0-4.09Zm-.028 1.05 1.024 1.013-.977.977-1.025-1.023.978-.967Zm-13.058 5.483a2.042 2.042 0 0 0-2.048 2.045c0 1.124.913 2.045 2.048 2.045a2.046 2.046 0 0 0 0-4.09Zm-.028 1.05 1.024 1.014-.978.976-1.024-1.022.978-.967Zm6.571-1.05a2.042 2.042 0 0 0-2.048 2.045c0 1.124.913 2.045 2.048 2.045a2.046 2.046 0 0 0 0-4.09Zm-.028 1.05 1.024 1.014-.977.976-1.025-1.022.978-.967Zm6.571-1.05a2.042 2.042 0 0 0-2.048 2.045c0 1.124.913 2.045 2.048 2.045a2.046 2.046 0 0 0 0-4.09Zm-.028 1.05 1.024 1.014-.977.976-1.025-1.022.978-.967ZM36.528 79.21a2.042 2.042 0 0 0-2.048 2.046c0 1.123.913 2.045 2.048 2.045a2.046 2.046 0 0 0 0-4.09Zm-.028 1.05 1.024 1.014-.978.977-1.024-1.023.978-.967Zm6.571-1.05a2.042 2.042 0 0 0-2.048 2.046c0 1.123.913 2.045 2.048 2.045a2.046 2.046 0 0 0 0-4.09Zm-.028 1.05 1.024 1.014-.977.977-1.025-1.023.978-.967Zm6.571-1.05a2.042 2.042 0 0 0-2.048 2.046c0 1.123.913 2.045 2.048 2.045a2.046 2.046 0 0 0 0-4.09Zm-.028 1.05 1.024 1.014-.977.977-1.025-1.023.978-.967Z" clip-rule="evenodd"/>
  <path fill="#000" d="M59.917 111.446H33.716v6.079h26.2v-6.079Z"/>
  <path fill="#fff" fill-rule="evenodd" d="M36.528 174.765a2.042 2.042 0 0 1-2.048-2.045c0-1.124.913-2.045 2.048-2.045a2.046 2.046 0 0 1 0 4.09Zm-.028-1.05 1.024-1.013-.978-.977-1.024 1.023.978.967Zm6.571 1.05a2.042 2.042 0 0 1-2.048-2.045c0-1.124.913-2.045 2.048-2.045a2.046 2.046 0 0 1 0 4.09Zm-.028-1.05 1.024-1.013-.977-.977-1.025 1.023.978.967Zm6.571 1.05a2.042 2.042 0 0 1-2.048-2.045c0-1.124.913-2.045 2.048-2.045a2.046 2.046 0 0 1 0 4.09Zm-.028-1.05 1.024-1.013-.977-.977-1.025 1.023.978.967Zm-6.515 7.583a2.042 2.042 0 0 1-2.048-2.045c0-1.124.913-2.045 2.048-2.045a2.046 2.046 0 0 1 0 4.09Zm-.028-1.05 1.024-1.013-.977-.977-1.025 1.023.978.967Zm6.571 7.583a2.042 2.042 0 0 1-2.048-2.045c0-1.123.914-2.045 2.048-2.045 1.126 0 2.04.922 2.04 2.045a2.04 2.04 0 0 1-2.04 2.045Zm-.027-1.05 1.024-1.013-.978-.977-1.024 1.023.978.967Zm.027-5.483a2.042 2.042 0 0 1-2.048-2.045c0-1.124.914-2.045 2.048-2.045a2.046 2.046 0 0 1 0 4.09Zm-.027-1.05 1.024-1.013-.978-.977-1.024 1.023.978.967Zm6.571 14.116a2.042 2.042 0 0 1-2.048-2.045c0-1.123.913-2.045 2.048-2.045 1.125 0 2.039.922 2.039 2.045a2.04 2.04 0 0 1-2.039 2.045Zm-.028-1.05 1.024-1.013-.978-.977-1.024 1.023.978.967Zm6.57 1.05a2.042 2.042 0 0 1-2.047-2.045c0-1.123.913-2.045 2.048-2.045 1.125 0 2.039.922 2.039 2.045a2.04 2.04 0 0 1-2.04 2.045Zm-.027-1.05 1.024-1.013-.978-.977-1.024 1.023.978.967Zm6.571 1.05a2.042 2.042 0 0 1-2.048-2.045c0-1.123.914-2.045 2.048-2.045 1.126 0 2.04.922 2.04 2.045a2.04 2.04 0 0 1-2.04 2.045Zm-.027-1.05 1.024-1.013-.978-.977-1.024 1.023.978.967Zm6.57 1.05a2.042 2.042 0 0 1-2.048-2.045c0-1.123.913-2.045 2.048-2.045 1.125 0 2.039.922 2.039 2.045a2.04 2.04 0 0 1-2.04 2.045Zm-.028-1.05 1.024-1.013-.978-.977-1.024 1.023.978.967Zm-19.601-5.483a2.042 2.042 0 0 1-2.048-2.045c0-1.124.913-2.045 2.048-2.045a2.046 2.046 0 0 1 0 4.09Zm-.028-1.05 1.024-1.014-.978-.976-1.024 1.022.978.968Zm6.57 1.05a2.042 2.042 0 0 1-2.047-2.045c0-1.124.913-2.045 2.048-2.045a2.046 2.046 0 0 1 0 4.09Zm-.027-1.05 1.024-1.014-.978-.976-1.024 1.022.978.968Zm6.571 1.05a2.042 2.042 0 0 1-2.048-2.045c0-1.124.914-2.045 2.048-2.045a2.046 2.046 0 0 1 0 4.09Zm-.027-1.05 1.024-1.014-.978-.976-1.024 1.022.978.968Zm6.57 1.05a2.042 2.042 0 0 1-2.048-2.045c0-1.124.913-2.045 2.048-2.045a2.046 2.046 0 0 1 0 4.09Zm-.028-1.05 1.024-1.014-.978-.976-1.024 1.022.978.968Zm-19.601-5.483a2.042 2.042 0 0 1-2.048-2.045c0-1.124.913-2.045 2.048-2.045a2.046 2.046 0 0 1 0 4.09Zm-.028-1.05 1.024-1.014-.978-.976-1.024 1.022.978.968Zm6.57 1.05a2.042 2.042 0 0 1-2.047-2.045c0-1.124.913-2.045 2.048-2.045a2.046 2.046 0 0 1 0 4.09Zm-.027-1.05 1.024-1.014-.978-.976-1.024 1.022.978.968Zm6.571 1.05a2.042 2.042 0 0 1-2.048-2.045c0-1.124.914-2.045 2.048-2.045a2.046 2.046 0 0 1 0 4.09Zm-.027-1.05 1.024-1.014-.978-.976-1.024 1.022.978.968Zm6.57 1.05a2.042 2.042 0 0 1-2.048-2.045c0-1.124.913-2.045 2.048-2.045a2.046 2.046 0 0 1 0 4.09Zm-.028-1.05 1.024-1.014-.978-.976-1.024 1.022.978.968Zm-19.601-5.484a2.042 2.042 0 0 1-2.048-2.045c0-1.123.913-2.045 2.048-2.045 1.125 0 2.039.922 2.039 2.045a2.04 2.04 0 0 1-2.039 2.045Zm-.028-1.05 1.024-1.013-.978-.976-1.024 1.022.978.967Zm6.57 1.05a2.042 2.042 0 0 1-2.047-2.045c0-1.123.913-2.045 2.048-2.045 1.125 0 2.039.922 2.039 2.045a2.04 2.04 0 0 1-2.04 2.045Zm-.027-1.05 1.024-1.013-.978-.976-1.024 1.022.978.967Zm6.571 1.05a2.042 2.042 0 0 1-2.048-2.045c0-1.123.914-2.045 2.048-2.045 1.126 0 2.04.922 2.04 2.045a2.04 2.04 0 0 1-2.04 2.045Zm-.027-1.05 1.024-1.013-.978-.976-1.024 1.022.978.967Zm6.57 1.05a2.042 2.042 0 0 1-2.048-2.045c0-1.123.913-2.045 2.048-2.045 1.125 0 2.039.922 2.039 2.045a2.04 2.04 0 0 1-2.04 2.045Zm-.028-1.05 1.024-1.013-.978-.976-1.024 1.022.978.967Zm-19.601-5.483a2.042 2.042 0 0 1-2.048-2.045c0-1.124.913-2.045 2.048-2.045a2.046 2.046 0 0 1 0 4.09Zm-.028-1.05 1.024-1.013-.978-.977-1.024 1.023.978.967Zm6.57 1.05a2.042 2.042 0 0 1-2.047-2.045c0-1.124.913-2.045 2.048-2.045a2.046 2.046 0 0 1 0 4.09Zm-.027-1.05 1.024-1.013-.978-.977-1.024 1.023.978.967Zm6.571 1.05a2.042 2.042 0 0 1-2.048-2.045c0-1.124.914-2.045 2.048-2.045a2.046 2.046 0 0 1 0 4.09Zm-.027-1.05 1.024-1.013-.978-.977-1.024 1.023.978.967Zm6.57 1.05a2.042 2.042 0 0 1-2.048-2.045c0-1.124.913-2.045 2.048-2.045a2.046 2.046 0 0 1 0 4.09Zm-.028-1.05 1.024-1.013-.978-.977-1.024 1.023.978.967Zm-19.601-5.483a2.042 2.042 0 0 1-2.048-2.045c0-1.124.913-2.045 2.048-2.045a2.046 2.046 0 0 1 0 4.09Zm-.028-1.05 1.024-1.013-.978-.977-1.024 1.023.978.967Zm6.57 1.05a2.042 2.042 0 0 1-2.047-2.045c0-1.124.913-2.045 2.048-2.045a2.046 2.046 0 0 1 0 4.09Zm-.027-1.05 1.024-1.013-.978-.977-1.024 1.023.978.967Zm6.571 1.05a2.042 2.042 0 0 1-2.048-2.045c0-1.124.914-2.045 2.048-2.045a2.046 2.046 0 0 1 0 4.09Zm-.027-1.05 1.024-1.013-.978-.977-1.024 1.023.978.967Zm6.57 1.05a2.042 2.042 0 0 1-2.048-2.045c0-1.124.913-2.045 2.048-2.045a2.046 2.046 0 0 1 0 4.09Zm-.028-1.05 1.024-1.013-.978-.977-1.024 1.023.978.967Zm-19.601-5.483a2.042 2.042 0 0 1-2.048-2.045c0-1.124.913-2.045 2.048-2.045a2.046 2.046 0 0 1 0 4.09Zm-.028-1.051 1.024-1.013-.978-.976-1.024 1.022.978.967Zm6.57 1.051a2.042 2.042 0 0 1-2.047-2.045c0-1.124.913-2.045 2.048-2.045a2.046 2.046 0 0 1 0 4.09Zm-.027-1.051 1.024-1.013-.978-.976-1.024 1.022.978.967Zm6.571 1.051a2.042 2.042 0 0 1-2.048-2.045c0-1.124.914-2.045 2.048-2.045a2.046 2.046 0 0 1 0 4.09Zm-.027-1.051 1.024-1.013-.978-.976-1.024 1.022.978.967Zm6.57 1.051a2.042 2.042 0 0 1-2.048-2.045c0-1.124.913-2.045 2.048-2.045a2.046 2.046 0 0 1 0 4.09Zm-.028-1.051 1.024-1.013-.978-.976-1.024 1.022.978.967Zm-19.601-5.483a2.042 2.042 0 0 1-2.048-2.045c0-1.123.913-2.045 2.048-2.045 1.125 0 2.039.922 2.039 2.045a2.04 2.04 0 0 1-2.039 2.045Zm-.028-1.05 1.024-1.013-.978-.976-1.024 1.022.978.967Zm6.57 1.05a2.042 2.042 0 0 1-2.047-2.045c0-1.123.913-2.045 2.048-2.045 1.125 0 2.039.922 2.039 2.045a2.04 2.04 0 0 1-2.04 2.045Zm-.027-1.05 1.024-1.013-.978-.976-1.024 1.022.978.967Zm6.571 1.05a2.042 2.042 0 0 1-2.048-2.045c0-1.123.914-2.045 2.048-2.045 1.126 0 2.04.922 2.04 2.045a2.04 2.04 0 0 1-2.04 2.045Zm-.027-1.05 1.024-1.013-.978-.976-1.024 1.022.978.967Zm6.57 1.05a2.042 2.042 0 0 1-2.048-2.045c0-1.123.913-2.045 2.048-2.045 1.125 0 2.039.922 2.039 2.045a2.04 2.04 0 0 1-2.04 2.045Zm-.028-1.05 1.024-1.013-.978-.976-1.024 1.022.978.967Zm-39.231-5.483a2.042 2.042 0 0 1-2.048-2.045c0-1.124.913-2.045 2.048-2.045a2.046 2.046 0 0 1 0 4.09Zm-.028-1.05 1.025-1.013-.978-.977-1.024 1.023.977.967Zm6.571 1.05a2.042 2.042 0 0 1-2.048-2.045c0-1.124.913-2.045 2.048-2.045a2.046 2.046 0 0 1 0 4.09Zm-.028-1.05 1.024-1.013-.977-.977-1.025 1.023.978.967Zm6.571 1.05a2.042 2.042 0 0 1-2.048-2.045c0-1.124.914-2.045 2.048-2.045a2.046 2.046 0 0 1 0 4.09Zm-.027-1.05 1.024-1.013-.978-.977-1.024 1.023.978.967Zm6.57 1.05a2.042 2.042 0 0 1-2.048-2.045c0-1.124.914-2.045 2.048-2.045a2.046 2.046 0 0 1 0 4.09Zm-.027-1.05 1.024-1.013-.978-.977-1.024 1.023.978.967Zm-19.602-5.483a2.042 2.042 0 0 1-2.048-2.045c0-1.124.913-2.045 2.048-2.045a2.046 2.046 0 0 1 0 4.09Zm-.028-1.05 1.025-1.014-.978-.976-1.024 1.022.977.968Zm6.571 1.05a2.042 2.042 0 0 1-2.048-2.045c0-1.124.913-2.045 2.048-2.045a2.046 2.046 0 0 1 0 4.09Zm-.028-1.05 1.024-1.014-.977-.976-1.025 1.022.978.968Zm6.571 1.05a2.042 2.042 0 0 1-2.048-2.045c0-1.124.914-2.045 2.048-2.045a2.046 2.046 0 0 1 0 4.09Zm-.027-1.05 1.024-1.014-.978-.976-1.024 1.022.978.968Zm6.57 1.05a2.042 2.042 0 0 1-2.048-2.045c0-1.124.914-2.045 2.048-2.045a2.046 2.046 0 0 1 0 4.09Zm-.027-1.05 1.024-1.014-.978-.976-1.024 1.022.978.968Zm-19.602-5.484a2.041 2.041 0 0 1-2.048-2.044c0-1.124.913-2.045 2.048-2.045a2.046 2.046 0 0 1 0 4.089Zm-.028-1.05 1.025-1.013-.978-.976-1.024 1.022.977.967Zm6.571 1.05a2.041 2.041 0 0 1-2.048-2.044c0-1.124.913-2.045 2.048-2.045a2.046 2.046 0 0 1 0 4.089Zm-.028-1.05 1.024-1.013-.977-.976-1.025 1.022.978.967Zm6.571 1.05a2.041 2.041 0 0 1-2.048-2.044c0-1.124.914-2.045 2.048-2.045 1.126 0 2.04.921 2.04 2.045a2.04 2.04 0 0 1-2.04 2.044Zm-.027-1.05 1.024-1.013-.978-.976-1.024 1.022.978.967Zm6.57 1.05a2.041 2.041 0 0 1-2.048-2.044c0-1.124.914-2.045 2.048-2.045a2.046 2.046 0 0 1 0 4.089Zm-.027-1.05 1.024-1.013-.978-.976-1.024 1.022.978.967Zm-19.602-5.483a2.042 2.042 0 0 1-2.048-2.045c0-1.123.913-2.045 2.048-2.045 1.126 0 2.039.922 2.039 2.045a2.04 2.04 0 0 1-2.039 2.045Zm-.028-1.05 1.025-1.013-.978-.977-1.024 1.023.977.967Zm6.571 1.05a2.042 2.042 0 0 1-2.048-2.045c0-1.123.913-2.045 2.048-2.045 1.126 0 2.039.922 2.039 2.045a2.04 2.04 0 0 1-2.039 2.045Zm-.028-1.05 1.024-1.013-.977-.977-1.025 1.023.978.967Zm6.571 1.05a2.042 2.042 0 0 1-2.048-2.045c0-1.123.914-2.045 2.048-2.045 1.126 0 2.04.922 2.04 2.045a2.04 2.04 0 0 1-2.04 2.045Zm-.027-1.05 1.024-1.013-.978-.977-1.024 1.023.978.967Zm6.57 1.05a2.042 2.042 0 0 1-2.048-2.045c0-1.123.914-2.045 2.048-2.045 1.126 0 2.04.922 2.04 2.045a2.04 2.04 0 0 1-2.04 2.045Zm-.027-1.05 1.024-1.013-.978-.977-1.024 1.023.978.967Zm-19.602-5.483a2.042 2.042 0 0 1-2.048-2.045c0-1.124.913-2.045 2.048-2.045a2.046 2.046 0 0 1 0 4.09Zm-.028-1.05 1.025-1.014-.978-.976-1.024 1.023.977.967Zm6.571 1.05a2.042 2.042 0 0 1-2.048-2.045c0-1.124.913-2.045 2.048-2.045a2.046 2.046 0 0 1 0 4.09Zm-.028-1.05 1.024-1.014-.977-.976-1.025 1.023.978.967Zm6.571 1.05a2.042 2.042 0 0 1-2.048-2.045c0-1.124.914-2.045 2.048-2.045a2.046 2.046 0 0 1 0 4.09Zm-.027-1.05 1.024-1.014-.978-.976-1.024 1.023.978.967Zm6.57 1.05a2.042 2.042 0 0 1-2.048-2.045c0-1.124.914-2.045 2.048-2.045a2.046 2.046 0 0 1 0 4.09Zm-.027-1.05 1.024-1.014-.978-.976-1.024 1.023.978.967Zm13.105 23.095c1.134 0 2.048.912 2.048 2.045a2.048 2.048 0 0 1-2.048 2.045 2.046 2.046 0 0 1 0-4.09Zm.027 1.051-1.024 1.013.978.976 1.024-1.022-.978-.967Zm-6.571-7.584c1.135 0 2.048.912 2.048 2.045a2.048 2.048 0 0 1-2.048 2.045 2.046 2.046 0 0 1 0-4.09Zm.028 1.05-1.024 1.014.978.976 1.024-1.022-.978-.968Zm-.028 5.483c1.135 0 2.048.912 2.048 2.045a2.048 2.048 0 0 1-2.048 2.045 2.046 2.046 0 0 1 0-4.09Zm.028 1.051-1.024 1.013.978.976 1.024-1.022-.978-.967Zm-26.191 29.17a2.041 2.041 0 0 1-2.048-2.044c0-1.124.913-2.045 2.048-2.045a2.046 2.046 0 0 1 0 4.089Zm-.028-1.05 1.024-1.013-.978-.976-1.024 1.022.978.967Zm6.571 1.05a2.041 2.041 0 0 1-2.048-2.044c0-1.124.913-2.045 2.048-2.045a2.046 2.046 0 0 1 0 4.089Zm-.028-1.05 1.024-1.013-.977-.976-1.025 1.022.978.967Zm6.571 1.05a2.041 2.041 0 0 1-2.048-2.044c0-1.124.913-2.045 2.048-2.045 1.126 0 2.039.921 2.039 2.045a2.04 2.04 0 0 1-2.039 2.044Zm-.028-1.05 1.024-1.013-.977-.976-1.025 1.022.978.967Zm-13.058-5.483a2.042 2.042 0 0 1-2.048-2.045c0-1.124.913-2.045 2.048-2.045a2.046 2.046 0 0 1 0 4.09Zm-.028-1.05 1.024-1.013-.978-.977-1.024 1.023.978.967Zm6.571 1.05a2.042 2.042 0 0 1-2.048-2.045c0-1.124.913-2.045 2.048-2.045a2.046 2.046 0 0 1 0 4.09Zm-.028-1.05 1.024-1.013-.977-.977-1.025 1.023.978.967Zm6.571 1.05a2.042 2.042 0 0 1-2.048-2.045c0-1.124.913-2.045 2.048-2.045a2.046 2.046 0 0 1 0 4.09Zm-.028-1.05 1.024-1.013-.977-.977-1.025 1.023.978.967Zm-13.058-5.483a2.042 2.042 0 0 1-2.048-2.045c0-1.124.913-2.045 2.048-2.045a2.046 2.046 0 0 1 0 4.09Zm-.028-1.05 1.024-1.013-.978-.977-1.024 1.023.978.967Zm6.571 1.05a2.042 2.042 0 0 1-2.048-2.045c0-1.124.913-2.045 2.048-2.045a2.046 2.046 0 0 1 0 4.09Zm-.028-1.05 1.024-1.013-.977-.977-1.025 1.023.978.967Zm6.571 1.05a2.042 2.042 0 0 1-2.048-2.045c0-1.124.913-2.045 2.048-2.045a2.046 2.046 0 0 1 0 4.09Zm-.028-1.05 1.024-1.013-.977-.977-1.025 1.023.978.967Zm-13.058-5.483a2.042 2.042 0 0 1-2.048-2.045c0-1.124.913-2.045 2.048-2.045a2.046 2.046 0 0 1 0 4.09Zm-.028-1.05 1.024-1.014-.978-.976-1.024 1.022.978.968Zm6.571 1.05a2.042 2.042 0 0 1-2.048-2.045c0-1.124.913-2.045 2.048-2.045a2.046 2.046 0 0 1 0 4.09Zm-.028-1.05 1.024-1.014-.977-.976-1.025 1.022.978.968Zm6.571 1.05a2.042 2.042 0 0 1-2.048-2.045c0-1.124.913-2.045 2.048-2.045a2.046 2.046 0 0 1 0 4.09Zm-.028-1.05 1.024-1.014-.977-.976-1.025 1.022.978.968Zm71.995-94.504c1.135 0 2.048.912 2.048 2.045a2.048 2.048 0 0 1-2.048 2.045 2.046 2.046 0 0 1-2.039-2.045 2.04 2.04 0 0 1 2.039-2.045Zm.028 1.05-1.024 1.013.978.976 1.024-1.022-.978-.967Zm-6.571-1.05c1.135 0 2.048.912 2.048 2.045a2.048 2.048 0 0 1-2.048 2.045 2.046 2.046 0 0 1 0-4.09Zm.028 1.05-1.025 1.013.978.976 1.024-1.022-.977-.967Zm-6.571-1.05c1.135 0 2.048.912 2.048 2.045a2.048 2.048 0 0 1-2.048 2.045 2.046 2.046 0 0 1 0-4.09Zm.028 1.05-1.025 1.013.978.976 1.024-1.022-.977-.967Zm6.515-7.584c1.135 0 2.048.912 2.048 2.045a2.048 2.048 0 0 1-2.048 2.045 2.046 2.046 0 0 1 0-4.09Zm.028 1.05-1.025 1.014.978.976 1.024-1.022-.977-.968Zm-6.572-7.583c1.135 0 2.048.912 2.048 2.045a2.048 2.048 0 0 1-2.048 2.045 2.045 2.045 0 0 1 0-4.09Zm.028 1.05-1.024 1.014.978.976 1.024-1.022-.978-.968Zm-.028 5.483c1.135 0 2.048.912 2.048 2.045a2.048 2.048 0 0 1-2.048 2.045 2.045 2.045 0 0 1 0-4.09Zm.028 1.05-1.024 1.014.978.976 1.024-1.022-.978-.968Zm-6.571-14.116c1.135 0 2.049.912 2.049 2.045a2.048 2.048 0 0 1-2.049 2.045 2.046 2.046 0 0 1 0-4.09Zm.028 1.05-1.024 1.013.978.977 1.024-1.023-.978-.967Zm-6.571-1.05c1.135 0 2.048.912 2.048 2.045a2.048 2.048 0 0 1-2.048 2.045 2.046 2.046 0 0 1 0-4.09Zm.028 1.05-1.024 1.013.977.977 1.025-1.023-.978-.967Zm-6.571-1.05c1.134 0 2.048.912 2.048 2.045a2.048 2.048 0 0 1-2.048 2.045 2.046 2.046 0 0 1 0-4.09Zm.027 1.05-1.024 1.013.978.977 1.024-1.023-.978-.967Zm-6.57-1.05c1.134 0 2.048.912 2.048 2.045a2.048 2.048 0 0 1-2.049 2.045 2.046 2.046 0 0 1 0-4.09Zm.027 1.05-1.024 1.013.978.977 1.024-1.023-.978-.967Zm19.602 5.483c1.135 0 2.049.912 2.049 2.045a2.048 2.048 0 0 1-2.049 2.045 2.046 2.046 0 0 1 0-4.09Zm.028 1.05-1.024 1.014.978.976 1.024-1.022-.978-.967Zm-6.571-1.05c1.135 0 2.048.912 2.048 2.045a2.048 2.048 0 0 1-2.048 2.045 2.046 2.046 0 0 1 0-4.09Zm.028 1.05-1.024 1.014.977.976 1.025-1.022-.978-.967Zm-6.571-1.05c1.134 0 2.048.912 2.048 2.045a2.048 2.048 0 0 1-2.048 2.045 2.046 2.046 0 0 1 0-4.09Zm.027 1.05-1.024 1.014.978.976 1.024-1.022-.978-.967Zm-6.57-1.05c1.134 0 2.048.912 2.048 2.045a2.048 2.048 0 0 1-2.049 2.045 2.046 2.046 0 0 1 0-4.09Zm.027 1.05-1.024 1.014.978.976 1.024-1.022-.978-.967Zm19.602 5.484c1.135 0 2.049.912 2.049 2.045a2.048 2.048 0 0 1-2.049 2.045 2.046 2.046 0 0 1 0-4.09Zm.028 1.05-1.024 1.013.978.977 1.024-1.023-.978-.967Zm-6.571-1.05c1.135 0 2.048.912 2.048 2.045a2.048 2.048 0 0 1-2.048 2.045 2.046 2.046 0 0 1 0-4.09Zm.028 1.05-1.024 1.013.977.977 1.025-1.023-.978-.967Zm-6.571-1.05c1.134 0 2.048.912 2.048 2.045a2.048 2.048 0 0 1-2.048 2.045 2.046 2.046 0 0 1 0-4.09Zm.027 1.05-1.024 1.013.978.977 1.024-1.023-.978-.967Zm-6.57-1.05c1.134 0 2.048.912 2.048 2.045a2.048 2.048 0 0 1-2.049 2.045 2.046 2.046 0 0 1 0-4.09Zm.027 1.05-1.024 1.013.978.977 1.024-1.023-.978-.967Zm19.602 5.483c1.135 0 2.049.912 2.049 2.045a2.048 2.048 0 0 1-2.049 2.045 2.046 2.046 0 0 1 0-4.09Zm.028 1.05-1.024 1.013.978.977 1.024-1.023-.978-.967Zm-6.571-1.05c1.135 0 2.048.912 2.048 2.045a2.048 2.048 0 0 1-2.048 2.045 2.046 2.046 0 0 1 0-4.09Zm.028 1.05-1.024 1.013.977.977 1.025-1.023-.978-.967Zm-6.571-1.05c1.134 0 2.048.912 2.048 2.045a2.048 2.048 0 0 1-2.048 2.045 2.046 2.046 0 0 1 0-4.09Zm.027 1.05-1.024 1.013.978.977 1.024-1.023-.978-.967Zm-6.57-1.05c1.134 0 2.048.912 2.048 2.045a2.048 2.048 0 0 1-2.049 2.045 2.046 2.046 0 0 1 0-4.09Zm.027 1.05-1.024 1.013.978.977 1.024-1.023-.978-.967Zm19.602 5.483c1.135 0 2.049.912 2.049 2.045a2.048 2.048 0 0 1-2.049 2.045 2.046 2.046 0 0 1 0-4.09Zm.028 1.05-1.024 1.014.978.976 1.024-1.022-.978-.968Zm-6.571-1.05c1.135 0 2.048.912 2.048 2.045a2.048 2.048 0 0 1-2.048 2.045 2.046 2.046 0 0 1 0-4.09Zm.028 1.05-1.024 1.014.977.976 1.025-1.022-.978-.968Zm-6.571-1.05c1.134 0 2.048.912 2.048 2.045a2.048 2.048 0 0 1-2.048 2.045 2.046 2.046 0 0 1 0-4.09Zm.027 1.05-1.024 1.014.978.976 1.024-1.022-.978-.968Zm-6.57-1.05c1.134 0 2.048.912 2.048 2.045a2.048 2.048 0 0 1-2.049 2.045 2.046 2.046 0 0 1 0-4.09Zm.027 1.05-1.024 1.014.978.976 1.024-1.022-.978-.968Zm19.602 5.483c1.135 0 2.049.912 2.049 2.045a2.048 2.048 0 0 1-2.049 2.046 2.046 2.046 0 0 1 0-4.09Zm.028 1.05-1.024 1.014.978.976 1.024-1.022-.978-.967Zm-6.571-1.05c1.135 0 2.048.912 2.048 2.045a2.048 2.048 0 0 1-2.048 2.046 2.046 2.046 0 0 1 0-4.09Zm.028 1.05-1.024 1.014.977.976 1.025-1.022-.978-.967Zm-6.571-1.05c1.134 0 2.048.912 2.048 2.045a2.048 2.048 0 0 1-2.048 2.046 2.046 2.046 0 0 1 0-4.09Zm.027 1.05-1.024 1.014.978.976 1.024-1.022-.978-.967Zm-6.57-1.05c1.134 0 2.048.912 2.048 2.045a2.048 2.048 0 0 1-2.049 2.046 2.046 2.046 0 0 1 0-4.09Zm.027 1.05-1.024 1.014.978.976 1.024-1.022-.978-.967Zm19.602 5.484c1.135 0 2.049.912 2.049 2.045a2.048 2.048 0 0 1-2.049 2.045 2.046 2.046 0 0 1 0-4.09Zm.028 1.05-1.024 1.013.978.977 1.024-1.023-.978-.967Zm-6.571-1.05c1.135 0 2.048.912 2.048 2.045a2.048 2.048 0 0 1-2.048 2.045 2.046 2.046 0 0 1 0-4.09Zm.028 1.05-1.024 1.013.977.977 1.025-1.023-.978-.967Zm-6.571-1.05c1.134 0 2.048.912 2.048 2.045a2.048 2.048 0 0 1-2.048 2.045 2.046 2.046 0 0 1 0-4.09Zm.027 1.05-1.024 1.013.978.977 1.024-1.023-.978-.967Zm-6.57-1.05c1.134 0 2.048.912 2.048 2.045a2.048 2.048 0 0 1-2.049 2.045 2.046 2.046 0 0 1 0-4.09Zm.027 1.05-1.024 1.013.978.977 1.024-1.023-.978-.967Zm19.602 5.483c1.135 0 2.049.912 2.049 2.045a2.048 2.048 0 0 1-2.049 2.045 2.046 2.046 0 0 1 0-4.09Zm.028 1.05-1.024 1.014.978.976 1.024-1.023-.978-.967Zm-6.571-1.05c1.135 0 2.048.912 2.048 2.045a2.048 2.048 0 0 1-2.048 2.045 2.046 2.046 0 0 1 0-4.09Zm.028 1.05-1.024 1.014.977.976 1.025-1.023-.978-.967Zm-6.571-1.05c1.134 0 2.048.912 2.048 2.045a2.048 2.048 0 0 1-2.048 2.045 2.046 2.046 0 0 1 0-4.09Zm.027 1.05-1.024 1.014.978.976 1.024-1.023-.978-.967Zm-6.57-1.05c1.134 0 2.048.912 2.048 2.045a2.048 2.048 0 0 1-2.049 2.045 2.046 2.046 0 0 1 0-4.09Zm.027 1.05-1.024 1.014.978.976 1.024-1.023-.978-.967Zm39.232 5.483c1.135 0 2.048.912 2.048 2.045a2.048 2.048 0 0 1-2.048 2.045 2.046 2.046 0 0 1 0-4.09Zm.027 1.05-1.024 1.014.978.976 1.024-1.022-.978-.968Zm-6.57-1.05c1.135 0 2.048.912 2.048 2.045a2.048 2.048 0 0 1-2.048 2.045 2.046 2.046 0 0 1 0-4.09Zm.028 1.05-1.025 1.014.978.976 1.024-1.022-.977-.968Zm-6.572-1.05c1.135 0 2.048.912 2.048 2.045a2.048 2.048 0 0 1-2.048 2.045 2.045 2.045 0 0 1 0-4.09Zm.028 1.05-1.024 1.014.978.976 1.024-1.022-.978-.968Zm-6.571-1.05c1.135 0 2.049.912 2.049 2.045a2.048 2.048 0 0 1-2.049 2.045 2.046 2.046 0 0 1 0-4.09Zm.028 1.05-1.024 1.014.978.976 1.024-1.022-.978-.968Zm19.602 5.484a2.04 2.04 0 0 1 2.048 2.044 2.048 2.048 0 0 1-2.048 2.046 2.046 2.046 0 0 1 0-4.09Zm.027 1.05-1.024 1.013.978.976 1.024-1.022-.978-.967Zm-6.57-1.05a2.04 2.04 0 0 1 2.048 2.044 2.048 2.048 0 0 1-2.048 2.046 2.046 2.046 0 0 1 0-4.09Zm.028 1.05-1.025 1.013.978.976 1.024-1.022-.977-.967Zm-6.572-1.05a2.04 2.04 0 0 1 2.048 2.044 2.048 2.048 0 0 1-2.048 2.046 2.045 2.045 0 0 1 0-4.09Zm.028 1.05-1.024 1.013.978.976 1.024-1.022-.978-.967Zm-6.571-1.05c1.135 0 2.049.911 2.049 2.044a2.048 2.048 0 0 1-2.049 2.046 2.046 2.046 0 0 1 0-4.09Zm.028 1.05-1.024 1.013.978.976 1.024-1.022-.978-.967Zm19.602 5.483c1.135 0 2.048.912 2.048 2.045a2.047 2.047 0 0 1-2.048 2.045 2.046 2.046 0 0 1 0-4.09Zm.027 1.05-1.024 1.013.978.977 1.024-1.023-.978-.967Zm-6.57-1.05c1.135 0 2.048.912 2.048 2.045a2.047 2.047 0 0 1-2.048 2.045 2.046 2.046 0 0 1 0-4.09Zm.028 1.05-1.025 1.013.978.977 1.024-1.023-.977-.967Zm-6.572-1.05c1.135 0 2.048.912 2.048 2.045a2.047 2.047 0 0 1-2.048 2.045 2.045 2.045 0 0 1 0-4.09Zm.028 1.05-1.024 1.013.978.977 1.024-1.023-.978-.967Zm-6.571-1.05c1.135 0 2.049.912 2.049 2.045a2.048 2.048 0 0 1-2.049 2.045 2.046 2.046 0 0 1 0-4.09Zm.028 1.05-1.024 1.013.978.977 1.024-1.023-.978-.967Zm19.602 5.483c1.135 0 2.048.912 2.048 2.045a2.047 2.047 0 0 1-2.048 2.045 2.046 2.046 0 0 1 0-4.09Zm.027 1.05-1.024 1.014.978.976 1.024-1.022-.978-.968Zm-6.57-1.05c1.135 0 2.048.912 2.048 2.045a2.047 2.047 0 0 1-2.048 2.045 2.046 2.046 0 0 1 0-4.09Zm.028 1.05-1.025 1.014.978.976 1.024-1.022-.977-.968Zm-6.572-1.05c1.135 0 2.048.912 2.048 2.045a2.047 2.047 0 0 1-2.048 2.045 2.045 2.045 0 0 1 0-4.09Zm.028 1.05-1.024 1.014.978.976 1.024-1.022-.978-.968Zm-6.571-1.05c1.135 0 2.049.912 2.049 2.045a2.048 2.048 0 0 1-2.049 2.045 2.046 2.046 0 0 1 0-4.09Zm.028 1.05-1.024 1.014.978.976 1.024-1.022-.978-.968Zm19.602 5.483c1.135 0 2.048.912 2.048 2.045a2.047 2.047 0 0 1-2.048 2.045 2.046 2.046 0 0 1 0-4.09Zm.027 1.051-1.024 1.013.978.976 1.024-1.022-.978-.967Zm-6.57-1.051c1.135 0 2.048.912 2.048 2.045a2.047 2.047 0 0 1-2.048 2.045 2.046 2.046 0 0 1 0-4.09Zm.028 1.051-1.025 1.013.978.976 1.024-1.022-.977-.967Zm-6.572-1.051c1.135 0 2.048.912 2.048 2.045a2.047 2.047 0 0 1-2.048 2.045 2.045 2.045 0 0 1 0-4.09Zm.028 1.051-1.024 1.013.978.976 1.024-1.022-.978-.967Zm-6.571-1.051c1.135 0 2.049.912 2.049 2.045a2.048 2.048 0 0 1-2.049 2.045 2.046 2.046 0 0 1 0-4.09Zm.028 1.051-1.024 1.013.978.976 1.024-1.022-.978-.967ZM88.874 89.832a2.042 2.042 0 0 1-2.048-2.045c0-1.124.914-2.045 2.048-2.045a2.046 2.046 0 0 1 0 4.09Zm-.027-1.05 1.024-1.013-.978-.977-1.024 1.023.978.967Zm6.571 7.583a2.042 2.042 0 0 1-2.048-2.045c0-1.123.913-2.045 2.048-2.045a2.046 2.046 0 0 1 0 4.09Zm-.028-1.05 1.024-1.013-.978-.977-1.024 1.023.978.967Zm.028-5.483a2.042 2.042 0 0 1-2.048-2.045c0-1.124.913-2.045 2.048-2.045a2.046 2.046 0 0 1 0 4.09Zm-.028-1.05 1.024-1.013-.978-.977-1.024 1.023.978.967Zm26.191-29.171c1.135 0 2.048.912 2.048 2.045a2.048 2.048 0 0 1-2.048 2.045 2.046 2.046 0 0 1-2.039-2.045 2.04 2.04 0 0 1 2.039-2.045Zm.028 1.05-1.024 1.014.978.976 1.024-1.023-.978-.967Zm-6.571-1.05c1.135 0 2.048.912 2.048 2.045a2.048 2.048 0 0 1-2.048 2.045 2.046 2.046 0 0 1 0-4.09Zm.028 1.05-1.025 1.014.978.976 1.024-1.023-.977-.967Zm-6.571-1.05c1.135 0 2.048.912 2.048 2.045a2.048 2.048 0 0 1-2.048 2.045 2.046 2.046 0 0 1 0-4.09Zm.028 1.05-1.025 1.014.978.976 1.024-1.023-.977-.967Zm13.058 5.483c1.135 0 2.048.912 2.048 2.045a2.048 2.048 0 0 1-2.048 2.045 2.046 2.046 0 0 1-2.039-2.045 2.04 2.04 0 0 1 2.039-2.045Zm.028 1.05-1.024 1.013.978.977 1.024-1.023-.978-.967Zm-6.571-1.05c1.135 0 2.048.912 2.048 2.045a2.048 2.048 0 0 1-2.048 2.045 2.046 2.046 0 0 1 0-4.09Zm.028 1.05-1.025 1.013.978.977 1.024-1.023-.977-.967Zm-6.571-1.05c1.135 0 2.048.912 2.048 2.045a2.048 2.048 0 0 1-2.048 2.045 2.046 2.046 0 0 1 0-4.09Zm.028 1.05-1.025 1.013.978.977 1.024-1.023-.977-.967Zm13.058 5.483c1.135 0 2.048.912 2.048 2.045a2.048 2.048 0 0 1-2.048 2.045 2.046 2.046 0 0 1-2.039-2.045 2.04 2.04 0 0 1 2.039-2.044Zm.028 1.05-1.024 1.014.978.976 1.024-1.022-.978-.967Zm-6.571-1.05c1.135 0 2.048.912 2.048 2.045a2.048 2.048 0 0 1-2.048 2.045 2.046 2.046 0 0 1 0-4.09Zm.028 1.05-1.025 1.014.978.976 1.024-1.022-.977-.967Zm-6.571-1.05c1.135 0 2.048.912 2.048 2.045a2.048 2.048 0 0 1-2.048 2.045 2.046 2.046 0 0 1 0-4.09Zm.028 1.05-1.025 1.014.978.976 1.024-1.022-.977-.967Zm13.058 5.483c1.135 0 2.048.913 2.048 2.046a2.048 2.048 0 0 1-2.048 2.045 2.046 2.046 0 0 1-2.039-2.045 2.04 2.04 0 0 1 2.039-2.045Zm.028 1.05-1.024 1.014.978.977 1.024-1.023-.978-.967Zm-6.571-1.05c1.135 0 2.048.913 2.048 2.046a2.048 2.048 0 0 1-2.048 2.045 2.046 2.046 0 0 1 0-4.09Zm.028 1.05-1.025 1.014.978.977 1.024-1.023-.977-.967Zm-6.571-1.05c1.135 0 2.048.913 2.048 2.046a2.048 2.048 0 0 1-2.048 2.045 2.046 2.046 0 0 1 0-4.09Zm.028 1.05-1.025 1.014.978.977 1.024-1.023-.977-.967Z" clip-rule="evenodd"/>
  <path fill="#000" d="M125.234 110.893H99.033v6.079h26.201v-6.079Z"/>
  <path fill="#fff" fill-rule="evenodd" d="M121.581 174.765a2.042 2.042 0 0 0 2.048-2.045 2.047 2.047 0 0 0-2.048-2.045 2.046 2.046 0 0 0 0 4.09Zm.028-1.05-1.024-1.013.978-.977 1.024 1.023-.978.967Zm-6.571 1.05a2.042 2.042 0 0 0 2.048-2.045 2.047 2.047 0 0 0-2.048-2.045 2.046 2.046 0 0 0 0 4.09Zm.028-1.05-1.025-1.013.978-.977 1.024 1.023-.977.967Zm-6.571 1.05a2.042 2.042 0 0 0 2.048-2.045 2.047 2.047 0 0 0-2.048-2.045 2.046 2.046 0 0 0 0 4.09Zm.028-1.05-1.025-1.013.978-.977 1.024 1.023-.977.967Zm6.515 7.583a2.042 2.042 0 0 0 2.048-2.045 2.047 2.047 0 0 0-2.048-2.045 2.046 2.046 0 0 0 0 4.09Zm.028-1.05-1.025-1.013.978-.977 1.024 1.023-.977.967Zm-6.572 7.583a2.042 2.042 0 0 0 2.048-2.045 2.048 2.048 0 0 0-2.048-2.045 2.046 2.046 0 0 0 0 4.09Zm.028-1.05-1.024-1.013.978-.977 1.024 1.023-.978.967Zm-.028-5.483a2.042 2.042 0 0 0 2.048-2.045 2.047 2.047 0 0 0-2.048-2.045 2.045 2.045 0 0 0 0 4.09Zm.028-1.05-1.024-1.013.978-.977 1.024 1.023-.978.967Zm-6.571 14.116a2.043 2.043 0 0 0 2.049-2.045 2.049 2.049 0 0 0-2.049-2.045 2.046 2.046 0 0 0-2.038 2.045 2.04 2.04 0 0 0 2.038 2.045Zm.028-1.05-1.024-1.013.978-.977 1.024 1.023-.978.967Zm-6.571 1.05a2.042 2.042 0 0 0 2.048-2.045 2.048 2.048 0 0 0-2.048-2.045 2.046 2.046 0 0 0-2.039 2.045 2.04 2.04 0 0 0 2.039 2.045Zm.028-1.05-1.024-1.013.977-.977 1.025 1.023-.978.967Zm-6.571 1.05a2.042 2.042 0 0 0 2.048-2.045 2.048 2.048 0 0 0-2.048-2.045 2.046 2.046 0 0 0-2.04 2.045 2.04 2.04 0 0 0 2.04 2.045Zm.027-1.05-1.024-1.013.978-.977 1.024 1.023-.978.967Zm-6.57 1.05a2.042 2.042 0 0 0 2.048-2.045 2.048 2.048 0 0 0-2.049-2.045 2.046 2.046 0 0 0-2.038 2.045 2.04 2.04 0 0 0 2.038 2.045Zm.027-1.05-1.024-1.013.978-.977 1.024 1.023-.978.967Zm19.602-5.483a2.043 2.043 0 0 0 2.049-2.045 2.048 2.048 0 0 0-2.049-2.045 2.046 2.046 0 0 0 0 4.09Zm.028-1.05-1.024-1.014.978-.976 1.024 1.022-.978.968Zm-6.571 1.05a2.042 2.042 0 0 0 2.048-2.045 2.048 2.048 0 0 0-2.048-2.045 2.046 2.046 0 0 0 0 4.09Zm.028-1.05-1.024-1.014.977-.976 1.025 1.022-.978.968Zm-6.571 1.05a2.042 2.042 0 0 0 2.048-2.045 2.048 2.048 0 0 0-2.048-2.045 2.046 2.046 0 0 0 0 4.09Zm.027-1.05-1.024-1.014.978-.976 1.024 1.022-.978.968Zm-6.57 1.05a2.042 2.042 0 0 0 2.048-2.045 2.048 2.048 0 0 0-2.049-2.045 2.046 2.046 0 0 0 0 4.09Zm.027-1.05-1.024-1.014.978-.976 1.024 1.022-.978.968Zm19.602-5.483a2.043 2.043 0 0 0 2.049-2.045 2.048 2.048 0 0 0-2.049-2.045 2.046 2.046 0 0 0 0 4.09Zm.028-1.05-1.024-1.014.978-.976 1.024 1.022-.978.968Zm-6.571 1.05a2.042 2.042 0 0 0 2.048-2.045 2.048 2.048 0 0 0-2.048-2.045 2.046 2.046 0 0 0 0 4.09Zm.028-1.05-1.024-1.014.977-.976 1.025 1.022-.978.968Zm-6.571 1.05a2.042 2.042 0 0 0 2.048-2.045 2.048 2.048 0 0 0-2.048-2.045 2.046 2.046 0 0 0 0 4.09Zm.027-1.05-1.024-1.014.978-.976 1.024 1.022-.978.968Zm-6.57 1.05a2.042 2.042 0 0 0 2.048-2.045 2.048 2.048 0 0 0-2.049-2.045 2.046 2.046 0 0 0 0 4.09Zm.027-1.05-1.024-1.014.978-.976 1.024 1.022-.978.968Zm19.602-5.484a2.043 2.043 0 0 0 2.049-2.045 2.049 2.049 0 0 0-2.049-2.045 2.046 2.046 0 0 0-2.038 2.045 2.04 2.04 0 0 0 2.038 2.045Zm.028-1.05-1.024-1.013.978-.976 1.024 1.022-.978.967Zm-6.571 1.05a2.042 2.042 0 0 0 2.048-2.045 2.048 2.048 0 0 0-2.048-2.045 2.046 2.046 0 0 0-2.039 2.045 2.04 2.04 0 0 0 2.039 2.045Zm.028-1.05-1.024-1.013.977-.976 1.025 1.022-.978.967Zm-6.571 1.05a2.042 2.042 0 0 0 2.048-2.045 2.048 2.048 0 0 0-2.048-2.045 2.046 2.046 0 0 0-2.04 2.045 2.04 2.04 0 0 0 2.04 2.045Zm.027-1.05-1.024-1.013.978-.976 1.024 1.022-.978.967Zm-6.57 1.05a2.042 2.042 0 0 0 2.048-2.045 2.048 2.048 0 0 0-2.049-2.045 2.046 2.046 0 0 0-2.038 2.045 2.04 2.04 0 0 0 2.038 2.045Zm.027-1.05-1.024-1.013.978-.976 1.024 1.022-.978.967Zm19.602-5.483a2.043 2.043 0 0 0 2.049-2.045 2.048 2.048 0 0 0-2.049-2.045 2.046 2.046 0 0 0 0 4.09Zm.028-1.05-1.024-1.013.978-.977 1.024 1.023-.978.967Zm-6.571 1.05a2.042 2.042 0 0 0 2.048-2.045 2.048 2.048 0 0 0-2.048-2.045 2.046 2.046 0 0 0 0 4.09Zm.028-1.05-1.024-1.013.977-.977 1.025 1.023-.978.967Zm-6.571 1.05a2.042 2.042 0 0 0 2.048-2.045 2.048 2.048 0 0 0-2.048-2.045 2.046 2.046 0 0 0 0 4.09Zm.027-1.05-1.024-1.013.978-.977 1.024 1.023-.978.967Zm-6.57 1.05a2.042 2.042 0 0 0 2.048-2.045 2.048 2.048 0 0 0-2.049-2.045 2.046 2.046 0 0 0 0 4.09Zm.027-1.05-1.024-1.013.978-.977 1.024 1.023-.978.967Zm19.602-5.483a2.043 2.043 0 0 0 2.049-2.045 2.048 2.048 0 0 0-2.049-2.045 2.046 2.046 0 0 0 0 4.09Zm.028-1.05-1.024-1.013.978-.977 1.024 1.023-.978.967Zm-6.571 1.05a2.042 2.042 0 0 0 2.048-2.045 2.048 2.048 0 0 0-2.048-2.045 2.046 2.046 0 0 0 0 4.09Zm.028-1.05-1.024-1.013.977-.977 1.025 1.023-.978.967Zm-6.571 1.05a2.042 2.042 0 0 0 2.048-2.045 2.048 2.048 0 0 0-2.048-2.045 2.046 2.046 0 0 0 0 4.09Zm.027-1.05-1.024-1.013.978-.977 1.024 1.023-.978.967Zm-6.57 1.05a2.042 2.042 0 0 0 2.048-2.045 2.048 2.048 0 0 0-2.049-2.045 2.046 2.046 0 0 0 0 4.09Zm.027-1.05-1.024-1.013.978-.977 1.024 1.023-.978.967Zm19.602-5.483A2.043 2.043 0 0 0 104 153.12a2.048 2.048 0 0 0-2.049-2.045 2.046 2.046 0 0 0 0 4.09Zm.028-1.051-1.024-1.013.978-.976 1.024 1.022-.978.967Zm-6.571 1.051a2.042 2.042 0 0 0 2.048-2.045 2.048 2.048 0 0 0-2.048-2.045 2.046 2.046 0 0 0 0 4.09Zm.028-1.051-1.024-1.013.977-.976 1.025 1.022-.978.967Zm-6.571 1.051a2.042 2.042 0 0 0 2.048-2.045 2.048 2.048 0 0 0-2.048-2.045 2.046 2.046 0 0 0 0 4.09Zm.027-1.051-1.024-1.013.978-.976 1.024 1.022-.978.967Zm-6.57 1.051a2.042 2.042 0 0 0 2.048-2.045 2.048 2.048 0 0 0-2.049-2.045 2.046 2.046 0 0 0 0 4.09Zm.027-1.051-1.024-1.013.978-.976 1.024 1.022-.978.967Zm19.602-5.483a2.043 2.043 0 0 0 2.049-2.045 2.049 2.049 0 0 0-2.049-2.045 2.046 2.046 0 0 0-2.038 2.045 2.04 2.04 0 0 0 2.038 2.045Zm.028-1.05-1.024-1.013.978-.976 1.024 1.022-.978.967Zm-6.571 1.05a2.042 2.042 0 0 0 2.048-2.045 2.048 2.048 0 0 0-2.048-2.045 2.046 2.046 0 0 0-2.039 2.045 2.04 2.04 0 0 0 2.039 2.045Zm.028-1.05-1.024-1.013.977-.976 1.025 1.022-.978.967Zm-6.571 1.05a2.042 2.042 0 0 0 2.048-2.045 2.048 2.048 0 0 0-2.048-2.045 2.046 2.046 0 0 0-2.04 2.045 2.04 2.04 0 0 0 2.04 2.045Zm.027-1.05-1.024-1.013.978-.976 1.024 1.022-.978.967Zm-6.57 1.05a2.042 2.042 0 0 0 2.048-2.045 2.048 2.048 0 0 0-2.049-2.045 2.046 2.046 0 0 0-2.038 2.045 2.04 2.04 0 0 0 2.038 2.045Zm.027-1.05-1.024-1.013.978-.976 1.024 1.022-.978.967Zm39.232-5.483a2.042 2.042 0 0 0 2.048-2.045 2.047 2.047 0 0 0-2.048-2.045 2.046 2.046 0 0 0 0 4.09Zm.027-1.05-1.024-1.013.978-.977 1.024 1.023-.978.967Zm-6.57 1.05a2.042 2.042 0 0 0 2.048-2.045 2.047 2.047 0 0 0-2.048-2.045 2.046 2.046 0 0 0 0 4.09Zm.028-1.05-1.025-1.013.978-.977 1.024 1.023-.977.967Zm-6.572 1.05a2.042 2.042 0 0 0 2.048-2.045 2.047 2.047 0 0 0-2.048-2.045 2.045 2.045 0 0 0 0 4.09Zm.028-1.05-1.024-1.013.978-.977 1.024 1.023-.978.967Zm-6.571 1.05a2.043 2.043 0 0 0 2.049-2.045 2.048 2.048 0 0 0-2.049-2.045 2.046 2.046 0 0 0 0 4.09Zm.028-1.05-1.024-1.013.978-.977 1.024 1.023-.978.967Zm19.602-5.483a2.042 2.042 0 0 0 2.048-2.045 2.047 2.047 0 0 0-2.048-2.045 2.046 2.046 0 0 0 0 4.09Zm.027-1.05-1.024-1.014.978-.976 1.024 1.022-.978.968Zm-6.57 1.05a2.042 2.042 0 0 0 2.048-2.045 2.047 2.047 0 0 0-2.048-2.045 2.046 2.046 0 0 0 0 4.09Zm.028-1.05-1.025-1.014.978-.976 1.024 1.022-.977.968Zm-6.572 1.05a2.042 2.042 0 0 0 2.048-2.045 2.047 2.047 0 0 0-2.048-2.045 2.045 2.045 0 0 0 0 4.09Zm.028-1.05-1.024-1.014.978-.976 1.024 1.022-.978.968Zm-6.571 1.05A2.043 2.043 0 0 0 104 133.52a2.048 2.048 0 0 0-2.049-2.045 2.046 2.046 0 0 0 0 4.09Zm.028-1.05-1.024-1.014.978-.976 1.024 1.022-.978.968Zm19.602-5.484a2.04 2.04 0 0 0 2.048-2.044 2.047 2.047 0 0 0-2.048-2.045 2.046 2.046 0 0 0 0 4.089Zm.027-1.05-1.024-1.013.978-.976 1.024 1.022-.978.967Zm-6.57 1.05a2.04 2.04 0 0 0 2.048-2.044 2.047 2.047 0 0 0-2.048-2.045 2.046 2.046 0 0 0 0 4.089Zm.028-1.05-1.025-1.013.978-.976 1.024 1.022-.977.967Zm-6.572 1.05a2.04 2.04 0 0 0 2.048-2.044 2.047 2.047 0 0 0-2.048-2.045 2.045 2.045 0 0 0 0 4.089Zm.028-1.05-1.024-1.013.978-.976 1.024 1.022-.978.967Zm-6.571 1.05a2.042 2.042 0 0 0 2.049-2.044 2.048 2.048 0 0 0-2.049-2.045 2.046 2.046 0 0 0 0 4.089Zm.028-1.05-1.024-1.013.978-.976 1.024 1.022-.978.967Zm19.602-5.483a2.042 2.042 0 0 0 2.048-2.045 2.048 2.048 0 0 0-2.048-2.045 2.046 2.046 0 0 0 0 4.09Zm.027-1.05-1.024-1.013.978-.977 1.024 1.023-.978.967Zm-6.57 1.05a2.042 2.042 0 0 0 2.048-2.045 2.048 2.048 0 0 0-2.048-2.045 2.046 2.046 0 0 0 0 4.09Zm.028-1.05-1.025-1.013.978-.977 1.024 1.023-.977.967Zm-6.572 1.05a2.042 2.042 0 0 0 2.048-2.045 2.048 2.048 0 0 0-2.048-2.045 2.046 2.046 0 0 0 0 4.09Zm.028-1.05-1.024-1.013.978-.977 1.024 1.023-.978.967Zm-6.571 1.05a2.043 2.043 0 0 0 2.049-2.045 2.049 2.049 0 0 0-2.049-2.045 2.046 2.046 0 0 0-2.038 2.045 2.04 2.04 0 0 0 2.038 2.045Zm.028-1.05-1.024-1.013.978-.977 1.024 1.023-.978.967Zm19.602-5.483a2.042 2.042 0 0 0 2.048-2.045 2.047 2.047 0 0 0-2.048-2.045 2.046 2.046 0 0 0 0 4.09Zm.027-1.05-1.024-1.014.978-.976 1.024 1.023-.978.967Zm-6.57 1.05a2.042 2.042 0 0 0 2.048-2.045 2.047 2.047 0 0 0-2.048-2.045 2.046 2.046 0 0 0 0 4.09Zm.028-1.05-1.025-1.014.978-.976 1.024 1.023-.977.967Zm-6.572 1.05a2.042 2.042 0 0 0 2.048-2.045 2.047 2.047 0 0 0-2.048-2.045 2.045 2.045 0 0 0 0 4.09Zm.028-1.05-1.024-1.014.978-.976 1.024 1.023-.978.967Zm-6.571 1.05A2.043 2.043 0 0 0 104 113.92a2.048 2.048 0 0 0-2.049-2.045 2.046 2.046 0 0 0 0 4.09Zm.028-1.05-1.024-1.014.978-.976 1.024 1.023-.978.967ZM88.874 138.01a2.042 2.042 0 0 0-2.048 2.045c0 1.124.914 2.045 2.048 2.045a2.046 2.046 0 0 0 0-4.09Zm-.027 1.051 1.024 1.013-.978.976-1.024-1.022.978-.967Zm6.571-7.584a2.042 2.042 0 0 0-2.048 2.045c0 1.124.913 2.045 2.048 2.045a2.046 2.046 0 0 0 0-4.09Zm-.028 1.05 1.024 1.014-.978.976-1.024-1.022.978-.968Zm.028 5.483a2.042 2.042 0 0 0-2.048 2.045c0 1.124.913 2.045 2.048 2.045a2.046 2.046 0 0 0 0-4.09Zm-.028 1.051 1.024 1.013-.978.976-1.024-1.022.978-.967Zm26.191 29.17a2.04 2.04 0 0 0 2.048-2.044 2.047 2.047 0 0 0-2.048-2.045 2.046 2.046 0 0 0-2.039 2.045 2.04 2.04 0 0 0 2.039 2.044Zm.028-1.05-1.024-1.013.978-.976 1.024 1.022-.978.967Zm-6.571 1.05a2.04 2.04 0 0 0 2.048-2.044 2.047 2.047 0 0 0-2.048-2.045 2.046 2.046 0 0 0 0 4.089Zm.028-1.05-1.025-1.013.978-.976 1.024 1.022-.977.967Zm-6.571 1.05a2.04 2.04 0 0 0 2.048-2.044 2.047 2.047 0 0 0-2.048-2.045 2.046 2.046 0 0 0 0 4.089Zm.028-1.05-1.025-1.013.978-.976 1.024 1.022-.977.967Zm13.058-5.483a2.042 2.042 0 0 0 2.048-2.045 2.047 2.047 0 0 0-2.048-2.045 2.046 2.046 0 0 0 0 4.09Zm.028-1.05-1.024-1.013.978-.977 1.024 1.023-.978.967Zm-6.571 1.05a2.042 2.042 0 0 0 2.048-2.045 2.047 2.047 0 0 0-2.048-2.045 2.046 2.046 0 0 0 0 4.09Zm.028-1.05-1.025-1.013.978-.977 1.024 1.023-.977.967Zm-6.571 1.05a2.042 2.042 0 0 0 2.048-2.045 2.047 2.047 0 0 0-2.048-2.045 2.046 2.046 0 0 0 0 4.09Zm.028-1.05-1.025-1.013.978-.977 1.024 1.023-.977.967Zm13.058-5.483a2.042 2.042 0 0 0 2.048-2.045 2.047 2.047 0 0 0-2.048-2.045 2.046 2.046 0 0 0 0 4.09Zm.028-1.05-1.024-1.013.978-.977 1.024 1.023-.978.967Zm-6.571 1.05a2.042 2.042 0 0 0 2.048-2.045 2.047 2.047 0 0 0-2.048-2.045 2.046 2.046 0 0 0 0 4.09Zm.028-1.05-1.025-1.013.978-.977 1.024 1.023-.977.967Zm-6.571 1.05a2.042 2.042 0 0 0 2.048-2.045 2.047 2.047 0 0 0-2.048-2.045 2.046 2.046 0 0 0 0 4.09Zm.028-1.05-1.025-1.013.978-.977 1.024 1.023-.977.967Zm13.058-5.483a2.042 2.042 0 0 0 2.048-2.045 2.047 2.047 0 0 0-2.048-2.045 2.046 2.046 0 0 0 0 4.09Zm.028-1.05-1.024-1.014.978-.976 1.024 1.022-.978.968Zm-6.571 1.05a2.042 2.042 0 0 0 2.048-2.045 2.047 2.047 0 0 0-2.048-2.045 2.046 2.046 0 0 0 0 4.09Zm.028-1.05-1.025-1.014.978-.976 1.024 1.022-.977.968Zm-6.571 1.05a2.042 2.042 0 0 0 2.048-2.045 2.047 2.047 0 0 0-2.048-2.045 2.046 2.046 0 0 0 0 4.09Zm.028-1.05-1.025-1.014.978-.976 1.024 1.022-.977.968Z" clip-rule="evenodd"/>
  <path fill="#fff" d="m78.875 90.047-1.485.534c-.932.47-1.947 1.216-2.251 1.65-.517.736-.59.736-1.393.184-1.273-.894-1.532-.728-1.329.829.185 1.354.148 1.4-.885 1.4-1.283 0-2.768 1.031-3.912 2.708-1.55 2.275-.59 6.706 1.568 8.401 1.366 1.078 1.947.553.683-.783-1.356-.884-2.39-4.302-1.836-4.302.13 0 .563.203.96.451.6.369.848.341 1.374-.184.563-.571.572-.635.046-.635-1.06 0-1.42-2.239-.544-3.4.535-.7 2.122-1.39 3.183-1.39 1.605 0 2.574 2.468 1.116 2.846-.406.101-.738.34-.738.525 0 .59 1.172.81 1.882.368.923-.57.913-.58 1.42.636.24.58.905 1.511 1.477 2.045l.664.645v-2.404c-.101-.397-.194-.765-.23-1.161-.047-.626-2.731-3.5-3.257-3.5-.194 0-.757-.433-1.246-.968l-.894-.967 1.19.267c1.051.221 1.245.139 1.55-.663.433-1.151 1.614-1.87 2.887-2.008v-1.124Zm-.184 1.824c-1.024.046-2.51 1.686-2.178 3.012l.231.912 1.504-1.354c.313-.295.461-.497.627-.719v-1.805c-.055-.018-.11-.046-.184-.046Zm-5.176 10.372c-.267-.064-.452.175-.452.765 0 .506-.166 1.032-.369 1.16-.203.129-.766.839-.766 1.327l.056.764 2.832-.948c1.374-.47 2.74-.931 3.044-1.041.37-.129.194-.295-.516-.479-.655-.175-1.338-.12-1.744.138-.553.35-.738.258-1.135-.571-.332-.663-.682-1.041-.95-1.115Zm-3.985.267c-.738 0-.655.286.396 1.539.508.608.923 1.391.923 1.75 0 .866-1.384 2.607-2.058 2.607-.7 0-.673.7.028.967.332.129.554.691.554 1.391 0 .645.194 1.382.443 1.621.35.35.59-.138 1.097-2.229.351-1.474.646-3.353.656-4.191.018-1.612-1.07-3.455-2.04-3.455Zm-3.497.424c-.267.092-.895.424-1.476 1.023-.674 1.105-.812 1.464-.84 2.671-.027.875.102 1.907.286 2.294.277.598.203.672-.47.497-1.024-.267-1.476.424-.674 1.013.84.618.775.903-.498 2.211l-.876.894H62.5c.018-.618 1.07-.949 2.435-.581.784.203 1.117.406 1.107.581h2.759l-1.006-.829c-.82-.673-.922-.931-.553-1.308.378-.378.332-.572-.268-1.014-.692-.516-.692-.58-.092-.921.701-.396.876-1.612.277-1.98-.203-.129-.37.036-.37.359 0 .783-.987 1.124-1.67.562-.304-.249-.543-.866-.543-1.364 0-1.05.968-3.058 1.476-3.058.202 0 .369-.248.369-.552 0-.415-.12-.581-.388-.498Zm12.842 3.04-.507.774c-.35.534-.61 1.538-.581 2.229.046 1.382-.812 1.805-1.2.589-.221-.681-1.172-1.298-2.666-1.713-.766-.212-.784-.157-.369.94.24.644.895 1.4 1.448 1.685 1.449.747 1.32 1.612-.23 1.612-.701 0-1.67.341-2.224.774l-.867.673h3.829c-.037-.12.249-.258 1.052-.489 1.144-.331 1.54-.672 1.799-1.519.184-.608.424-1.345.516-1.649v-3.906Zm-1.531 5.02c.277.037.516.203.516.498 0 .626-.996 1.068-1.3.571-.12-.194-.111-.507.009-.71.175-.276.498-.386.775-.359Z"/>
  <path fill="#fff" d="m78.849 90.047 1.485.534c.932.47 1.947 1.216 2.251 1.65.517.736.59.736 1.393.184 1.273-.894 1.532-.728 1.329.829-.185 1.354-.148 1.4.886 1.4 1.282 0 2.767 1.031 3.911 2.708 1.55 2.275.59 6.706-1.568 8.401-1.365 1.078-1.947.553-.683-.783 1.356-.884 2.39-4.302 1.836-4.302-.13 0-.563.203-.96.451-.6.369-.848.341-1.374-.184-.563-.571-.572-.635-.046-.635 1.06 0 1.42-2.239.544-3.4-.535-.7-2.122-1.39-3.183-1.39-1.605 0-2.574 2.468-1.116 2.846.406.101.738.34.738.525 0 .59-1.172.81-1.882.368-.922-.57-.913-.58-1.42.636-.24.58-.905 1.511-1.477 2.045l-.664.645v-2.404c.101-.397.194-.765.23-1.161.047-.626 2.731-3.5 3.257-3.5.194 0 .757-.433 1.246-.968l.895-.967-1.19.267c-1.052.221-1.246.139-1.55-.663-.434-1.151-1.615-1.87-2.888-2.008v-1.124Zm.184 1.824c1.025.046 2.51 1.686 2.178 3.012l-.23.912-1.505-1.354c-.313-.295-.461-.497-.627-.719v-1.805c.055-.018.11-.046.184-.046Zm5.176 10.372c.268-.064.452.175.452.765 0 .506.166 1.032.37 1.16.202.129.765.839.765 1.327l-.056.764-2.832-.948c-1.374-.47-2.74-.931-3.044-1.041-.37-.129-.194-.295.516-.479.655-.175 1.338-.12 1.744.138.554.35.738.258 1.135-.571.332-.663.683-1.041.95-1.115Zm3.986.267c.738 0 .655.286-.397 1.539-.508.608-.923 1.391-.923 1.75 0 .866 1.384 2.607 2.058 2.607.7 0 .673.7-.028.967-.332.129-.554.691-.554 1.391 0 .645-.193 1.382-.442 1.621-.351.35-.59-.138-1.098-2.229-.35-1.474-.646-3.353-.655-4.191-.019-1.612 1.07-3.455 2.038-3.455Zm3.496.424c.268.092.895.424 1.476 1.023.674 1.105.812 1.464.84 2.671.027.875-.102 1.907-.286 2.294-.277.598-.203.672.47.497 1.024-.267 1.476.424.674 1.013-.84.618-.775.903.498 2.211l.876.894h-1.015c-.018-.618-1.07-.949-2.435-.581-.784.203-1.116.406-1.107.581h-2.759l1.006-.829c.821-.673.922-.931.553-1.308-.378-.378-.332-.572.268-1.014.692-.516.692-.58.092-.921-.7-.396-.876-1.612-.276-1.98.203-.129.368.036.368.359 0 .783.988 1.124 1.67.562.305-.249.545-.866.545-1.364 0-1.05-.969-3.058-1.476-3.058-.203 0-.37-.248-.37-.552 0-.415.12-.581.388-.498Zm-12.842 3.04.507.774c.35.534.61 1.538.582 2.229-.047 1.382.811 1.805 1.199.589.221-.681 1.172-1.298 2.666-1.713.766-.212.784-.157.37.94-.24.644-.896 1.4-1.45 1.685-1.448.747-1.319 1.612.231 1.612.702 0 1.67.341 2.224.774l.867.673h-3.829c.037-.12-.249-.258-1.051-.489-1.144-.331-1.541-.672-1.8-1.519-.184-.608-.424-1.345-.516-1.649v-3.906Zm1.531 5.02c-.276.037-.516.203-.516.498 0 .626.996 1.068 1.3.571.12-.194.111-.507-.009-.71-.175-.276-.498-.386-.775-.359Z"/>
  <path fill="#D9D9D9" d="m78.875 136.989-1.485-.534c-.932-.47-1.947-1.216-2.251-1.649-.517-.737-.59-.737-1.393-.184-1.273.893-1.532.728-1.329-.829.185-1.354.148-1.4-.885-1.4-1.283 0-2.768-1.032-3.912-2.709-1.55-2.275-.59-6.706 1.568-8.4 1.366-1.078 1.947-.553.683.783-1.356.884-2.39 4.301-1.836 4.301.13 0 .563-.202.96-.451.6-.369.848-.341 1.374.184.563.571.572.636.046.636-1.06 0-1.42 2.238-.544 3.399.535.7 2.122 1.391 3.183 1.391 1.605 0 2.574-2.469 1.116-2.847-.406-.101-.738-.34-.738-.525 0-.589 1.172-.81 1.882-.368.923.571.913.58 1.42-.636.24-.58.905-1.51 1.477-2.045l.664-.644v2.404c-.101.396-.194.764-.23 1.16-.047.627-2.731 3.501-3.257 3.501-.194 0-.757.433-1.246.967l-.894.967 1.19-.267c1.051-.221 1.245-.138 1.55.663.433 1.152 1.614 1.87 2.887 2.008v1.124Zm-.184-1.824c-1.024-.046-2.51-1.685-2.178-3.012l.231-.912 1.504 1.354c.313.295.461.498.627.719v1.805c-.055.019-.11.046-.184.046Zm-5.176-10.372c-.267.065-.452-.175-.452-.764 0-.507-.166-1.032-.369-1.161-.203-.129-.766-.838-.766-1.327l.056-.764 2.832.949c1.374.469 2.74.93 3.044 1.041.37.129.194.294-.516.479-.655.175-1.338.119-1.744-.139-.553-.35-.738-.258-1.135.572-.332.663-.682 1.04-.95 1.114Zm-3.985-.267c-.738 0-.655-.286.396-1.538.508-.608.923-1.391.923-1.751 0-.865-1.384-2.606-2.058-2.606-.7 0-.673-.7.028-.968.332-.129.554-.69.554-1.391 0-.644.194-1.381.443-1.621.35-.35.59.138 1.097 2.229.351 1.474.646 3.353.656 4.192.018 1.612-1.07 3.454-2.04 3.454Zm-3.497-.424c-.267-.092-.895-.423-1.476-1.022-.674-1.106-.812-1.465-.84-2.672-.027-.875.102-1.906.286-2.293.277-.599.203-.673-.47-.498-1.024.267-1.476-.423-.674-1.013.84-.617.775-.903-.498-2.211l-.876-.893H62.5c.018.617 1.07.949 2.435.58.784-.203 1.117-.405 1.107-.58h2.759l-1.006.829c-.82.672-.922.93-.553 1.308.378.378.332.571-.268 1.013-.692.516-.692.58-.092.921.701.396.876 1.612.277 1.981-.203.129-.37-.037-.37-.36 0-.782-.987-1.123-1.67-.561-.304.248-.543.865-.543 1.363 0 1.05.968 3.058 1.476 3.058.202 0 .369.249.369.553 0 .414-.12.58-.388.497Zm12.842-3.04-.507-.773c-.35-.535-.61-1.539-.581-2.23.046-1.381-.812-1.805-1.2-.589-.221.682-1.172 1.299-2.666 1.713-.766.212-.784.157-.369-.939.24-.645.895-1.4 1.448-1.686 1.449-.746 1.32-1.612-.23-1.612-.701 0-1.67-.341-2.224-.774l-.867-.672h3.829c-.037.12.249.258 1.052.488 1.144.332 1.54.672 1.799 1.52.184.608.424 1.345.516 1.649v3.905Zm-1.531-5.02c.277-.037.516-.203.516-.497 0-.627-.996-1.069-1.3-.571-.12.193-.111.506.009.709a.822.822 0 0 0 .775.359Z"/>
  <path fill="#fff" d="m78.849 136.989 1.485-.534c.932-.47 1.947-1.216 2.251-1.649.517-.737.59-.737 1.393-.184 1.273.893 1.532.728 1.329-.829-.185-1.354-.148-1.4.886-1.4 1.282 0 2.767-1.032 3.911-2.709 1.55-2.275.59-6.706-1.568-8.4-1.365-1.078-1.947-.553-.683.783 1.356.884 2.39 4.301 1.836 4.301-.13 0-.563-.202-.96-.451-.6-.369-.848-.341-1.374.184-.563.571-.572.636-.046.636 1.06 0 1.42 2.238.544 3.399-.535.7-2.122 1.391-3.183 1.391-1.605 0-2.574-2.469-1.116-2.847.406-.101.738-.34.738-.525 0-.589-1.172-.81-1.882-.368-.922.571-.913.58-1.42-.636-.24-.58-.905-1.51-1.477-2.045l-.664-.644v2.404c.101.396.194.764.23 1.16.047.627 2.731 3.501 3.257 3.501.194 0 .757.433 1.246.967l.895.967-1.19-.267c-1.052-.221-1.246-.138-1.55.663-.434 1.152-1.615 1.87-2.888 2.008v1.124Zm.184-1.824c1.025-.046 2.51-1.685 2.178-3.012l-.23-.912-1.505 1.354c-.313.295-.461.498-.627.719v1.805c.055.019.11.046.184.046Zm5.176-10.372c.268.065.452-.175.452-.764 0-.507.166-1.032.37-1.161.202-.129.765-.838.765-1.327l-.056-.764-2.832.949c-1.374.469-2.74.93-3.044 1.041-.37.129-.194.294.516.479.655.175 1.338.119 1.744-.139.554-.35.738-.258 1.135.572.332.663.683 1.04.95 1.114Zm3.986-.267c.738 0 .655-.286-.397-1.538-.508-.608-.923-1.391-.923-1.751 0-.865 1.384-2.606 2.058-2.606.7 0 .673-.7-.028-.968-.332-.129-.554-.69-.554-1.391 0-.644-.193-1.381-.442-1.621-.351-.35-.59.138-1.098 2.229-.35 1.474-.646 3.353-.655 4.192-.019 1.612 1.07 3.454 2.038 3.454Zm3.496-.424c.268-.092.895-.423 1.476-1.022.674-1.106.812-1.465.84-2.672.027-.875-.102-1.906-.286-2.293-.277-.599-.203-.673.47-.498 1.024.267 1.476-.423.674-1.013-.84-.617-.775-.903.498-2.211l.876-.893h-1.015c-.018.617-1.07.949-2.435.58-.784-.203-1.116-.405-1.107-.58h-2.759l1.006.829c.821.672.922.93.553 1.308-.378.378-.332.571.268 1.013.692.516.692.58.092.921-.7.396-.876 1.612-.276 1.981.203.129.368-.037.368-.36 0-.782.988-1.123 1.67-.561.305.248.545.865.545 1.363 0 1.05-.969 3.058-1.476 3.058-.203 0-.37.249-.37.553 0 .414.12.58.388.497Zm-12.842-3.04.507-.773c.35-.535.61-1.539.582-2.23-.047-1.381.811-1.805 1.199-.589.221.682 1.172 1.299 2.666 1.713.766.212.784.157.37-.939-.24-.645-.896-1.4-1.45-1.686-1.448-.746-1.319-1.612.231-1.612.702 0 1.67-.341 2.224-.774l.867-.672h-3.829c.037.12-.249.258-1.051.488-1.144.332-1.541.672-1.8 1.52-.184.608-.424 1.345-.516 1.649v3.905Zm1.531-5.02c-.276-.037-.516-.203-.516-.497 0-.627.996-1.069 1.3-.571.12.193.111.506-.009.709a.822.822 0 0 1-.775.359Z"/>
  <path fill="#fff" fill-rule="evenodd" d="M41.843 40.325s-1.384-2.985-2.99-4.643c-1.608-1.661-3.571-2.793-4.073-2.406m12.477-.501c-.845.03-2.177.708-2.897 1.426-.956.958-1.299 2.793-1.325 3.478-.026.686-.487-.31-.808-.873-.317-.567-.712-1.99-.82-1.186-.103.81-.125 1.2.027 2.107.147.903.586 2.635.944 3.199l1.465 1.451c.69-.692 1.144-2.303 1.177-2.303l-.025 3.442 1.605 1.592c-.428-.874-.716-2.425-.602-3.825.119-1.4.85-3.165.76-3.847-.42-.147-1.07.95-1.922.693-.03-.645.273-2.218.701-2.834.432-.611 1.635-2.1 2.366-2.314-.133-.154-.366-.217-.646-.206Z" clip-rule="evenodd"/>
  <path fill="#fff" fill-rule="evenodd" d="M32.142 30.778c3.55-1.824 7.247 3.058 7.247 3.058s.532-3.408 1.225-3.448c.694-.041 1.798 2.693 1.798 2.693s2.125-2.815 5.8-2.793c3.68.018 4.27 3.364 2.167 3.526-2.089.162-.878-1.897-.838-1.345.022.063-1.981-2.855-7.067 2.896-.749.848-1.454-3.117-1.819-2.244-.447 1.062-.081 2.307-.41 3.143.513.63-4.188-5.1-6.188-3.53" clip-rule="evenodd"/>
  <path fill="#fff" fill-rule="evenodd" d="M32.145 30.778c-1.826 3.545 3.063 7.237 3.063 7.237s-3.413.53-3.454 1.223c-.04.693 2.698 1.794 2.698 1.794s-2.82 2.123-2.798 5.793c.019 3.673 3.37 4.263 3.532 2.162.162-2.085-1.9-.876-1.347-.836.063.022-2.86-1.979 2.9-7.056.85-.748-3.121-1.452-2.247-1.816 1.063-.446 2.31-.082 3.148-.41.631.513-5.107-4.181-3.535-6.179" clip-rule="evenodd"/>
  <path fill="#fff" fill-rule="evenodd" d="M41.855 40.303s-2.99-1.382-4.65-2.984c-1.665-1.607-2.797-3.567-2.41-4.068m-.532 12.498c.03-.844.709-2.174 1.429-2.893.959-.954 2.797-1.297 3.483-1.323.687-.025-.31-.486-.874-.806-.569-.317-1.993-.711-1.189-.818.812-.104 1.203-.126 2.111.025.904.148 2.639.586 3.203.944l1.454 1.462c-.694.69-2.306 1.143-2.306 1.176l3.447-.026 1.594 1.603c-.875-.428-2.428-.715-3.83-.6-1.403.117-3.17.847-3.853.758-.148-.42.952-1.068.693-1.92-.645-.029-2.221.273-2.837.7-.613.432-2.104 1.633-2.318 2.363-.155-.133-.218-.365-.207-.645Zm82.81-5.424s1.384-2.985 2.989-4.643c1.609-1.661 3.572-2.793 4.074-2.406m-12.477-.501c.845.03 2.177.708 2.897 1.426.955.958 1.299 2.793 1.324 3.478.026.686.487-.31.809-.873.317-.567.712-1.99.819-1.186.103.81.125 1.2-.026 2.107-.148.903-.587 2.635-.945 3.199l-1.465 1.451c-.69-.692-1.144-2.303-1.177-2.303l.026 3.442-1.605 1.592c.428-.874.715-2.425.601-3.825-.118-1.4-.849-3.165-.76-3.847.421-.147 1.07.95 1.923.693.029-.645-.274-2.218-.702-2.834-.431-.611-1.634-2.1-2.365-2.314.133-.154.365-.217.646-.206Z" clip-rule="evenodd"/>
  <path fill="#fff" fill-rule="evenodd" d="M126.774 30.778c-3.55-1.824-7.247 3.058-7.247 3.058s-.532-3.408-1.225-3.448c-.694-.041-1.798 2.693-1.798 2.693s-2.125-2.815-5.801-2.793c-3.679.018-4.269 3.364-2.166 3.526 2.089.162.878-1.897.838-1.345-.022.063 1.982-2.855 7.067 2.896.749.848 1.454-3.117 1.819-2.244.447 1.062.081 2.307.41 3.143-.513.63 4.188-5.1 6.188-3.53" clip-rule="evenodd"/>
  <path fill="#fff" fill-rule="evenodd" d="M126.771 30.778c1.826 3.545-3.063 7.237-3.063 7.237s3.413.53 3.454 1.223c.041.693-2.698 1.794-2.698 1.794s2.82 2.123 2.798 5.793c-.019 3.673-3.37 4.263-3.532 2.162-.162-2.085 1.9-.876 1.347-.836-.063.022 2.86-1.979-2.901-7.056-.848-.748 3.122-1.452 2.248-1.816-1.063-.446-2.31-.082-3.148-.41-.631.513 5.107-4.181 3.535-6.179" clip-rule="evenodd"/>
  <path fill="#fff" fill-rule="evenodd" d="M117.062 40.303s2.989-1.382 4.649-2.984c1.665-1.607 2.797-3.567 2.41-4.068m.532 12.498c-.03-.844-.709-2.174-1.429-2.893-.959-.954-2.797-1.297-3.483-1.323-.687-.025.31-.486.874-.806.569-.317 1.993-.711 1.189-.818-.812-.104-1.203-.126-2.111.025-.904.148-2.639.586-3.203.944l-1.454 1.462c.694.69 2.306 1.143 2.306 1.176l-3.447-.026-1.594 1.603c.875-.428 2.428-.715 3.831-.6 1.402.117 3.17.847 3.852.758.148-.42-.952-1.068-.693-1.92.645-.029 2.221.273 2.837.7.613.432 2.104 1.633 2.318 2.363.155-.133.218-.365.207-.645Zm-82.81 141.4s-1.384 2.985-2.99 4.643c-1.608 1.661-3.571 2.793-4.073 2.406m12.477.501c-.845-.03-2.177-.707-2.897-1.426-.956-.958-1.299-2.793-1.325-3.478-.026-.686-.487.309-.808.873-.317.567-.712 1.99-.82 1.186-.103-.81-.125-1.201.027-2.107.147-.903.586-2.635.944-3.198l1.465-1.452c.69.693 1.144 2.303 1.177 2.303l-.025-3.442 1.605-1.591c-.428.873-.716 2.424-.602 3.824.119 1.4.85 3.165.76 3.847-.42.147-1.07-.951-1.922-.693-.03.645.273 2.218.701 2.834.432.611 1.635 2.1 2.366 2.314-.133.154-.366.217-.646.206Z" clip-rule="evenodd"/>
  <path fill="#fff" fill-rule="evenodd" d="M32.142 196.696c3.55 1.824 7.247-3.058 7.247-3.058s.532 3.408 1.225 3.449c.694.04 1.798-2.694 1.798-2.694s2.125 2.815 5.8 2.793c3.68-.018 4.27-3.364 2.167-3.526-2.089-.162-.878 1.898-.838 1.345.022-.063-1.981 2.855-7.067-2.896-.749-.848-1.454 3.117-1.819 2.244-.447-1.062-.081-2.307-.41-3.143.513-.63-4.188 5.099-6.188 3.53" clip-rule="evenodd"/>
  <path fill="#fff" fill-rule="evenodd" d="M32.145 196.696c-1.826-3.545 3.063-7.237 3.063-7.237s-3.413-.53-3.454-1.223c-.04-.693 2.698-1.794 2.698-1.794s-2.82-2.123-2.798-5.793c.019-3.673 3.37-4.263 3.532-2.162.162 2.085-1.9.877-1.347.836.063-.022-2.86 1.979 2.9 7.056.85.748-3.121 1.452-2.247 1.817 1.063.445 2.31.081 3.148.409.631-.513-5.107 4.182-3.535 6.179" clip-rule="evenodd"/>
  <path fill="#fff" fill-rule="evenodd" d="M41.855 187.171s-2.99 1.382-4.65 2.985c-1.665 1.606-2.797 3.567-2.41 4.068m-.532-12.499c.03.844.709 2.174 1.429 2.893.959.954 2.797 1.297 3.483 1.323.687.025-.31.486-.874.807-.569.316-1.993.711-1.189.818.812.103 1.203.125 2.111-.026.904-.148 2.639-.586 3.203-.944l1.454-1.462c-.694-.689-2.306-1.143-2.306-1.176l3.447.026 1.594-1.603c-.875.428-2.428.715-3.83.601-1.403-.118-3.17-.848-3.853-.759-.148.42.952 1.068.693 1.919-.645.03-2.221-.272-2.837-.7-.613-.431-2.104-1.632-2.318-2.361-.155.132-.218.364-.207.644Zm82.81 5.424s1.384 2.985 2.989 4.643c1.609 1.661 3.572 2.793 4.074 2.406m-12.477.501c.845-.03 2.177-.707 2.897-1.426.955-.958 1.299-2.793 1.324-3.478.026-.686.487.309.809.873.317.567.712 1.99.819 1.186.103-.81.125-1.201-.026-2.107-.148-.903-.587-2.635-.945-3.198l-1.465-1.452c-.69.693-1.144 2.303-1.177 2.303l.026-3.442-1.605-1.591c.428.873.715 2.424.601 3.824-.118 1.4-.849 3.165-.76 3.847.421.147 1.07-.951 1.923-.693.029.645-.274 2.218-.702 2.834-.431.611-1.634 2.1-2.365 2.314.133.154.365.217.646.206Z" clip-rule="evenodd"/>
  <path fill="#fff" fill-rule="evenodd" d="M126.774 196.696c-3.55 1.824-7.247-3.058-7.247-3.058s-.532 3.408-1.225 3.449c-.694.04-1.798-2.694-1.798-2.694s-2.125 2.815-5.801 2.793c-3.679-.018-4.269-3.364-2.166-3.526 2.089-.162.878 1.898.838 1.345-.022-.063 1.982 2.855 7.067-2.896.749-.848 1.454 3.117 1.819 2.244.447-1.062.081-2.307.41-3.143-.513-.63 4.188 5.099 6.188 3.53" clip-rule="evenodd"/>
  <path fill="#fff" fill-rule="evenodd" d="M126.771 196.696c1.826-3.545-3.063-7.237-3.063-7.237s3.413-.53 3.454-1.223c.041-.693-2.698-1.794-2.698-1.794s2.82-2.123 2.798-5.793c-.019-3.673-3.37-4.263-3.532-2.162-.162 2.085 1.9.877 1.347.836-.063-.022 2.86 1.979-2.901 7.056-.848.748 3.122 1.452 2.248 1.817-1.063.445-2.31.081-3.148.409-.631-.513 5.107 4.182 3.535 6.179" clip-rule="evenodd"/>
  <path fill="#fff" fill-rule="evenodd" d="M117.062 187.171s2.989 1.382 4.649 2.985c1.665 1.606 2.797 3.567 2.41 4.068m.532-12.499c-.03.844-.709 2.174-1.429 2.893-.959.954-2.797 1.297-3.483 1.323-.687.025.31.486.874.807.569.316 1.993.711 1.189.818-.812.103-1.203.125-2.111-.026-.904-.148-2.639-.586-3.203-.944l-1.454-1.462c.694-.689 2.306-1.143 2.306-1.176l-3.447.026-1.594-1.603c.875.428 2.428.715 3.831.601 1.402-.118 3.17-.848 3.852-.759.148.42-.952 1.068-.693 1.919.645.03 2.221-.272 2.837-.7.613-.431 2.104-1.632 2.318-2.361.155.132.218.364.207.644Z" clip-rule="evenodd"/>
  <path stroke="#fff" stroke-linecap="round" stroke-linejoin="round" stroke-width=".494" d="M18.27 208.246c-.899-.226-1.405-1.216-1.194-2.099.255-1.065 1.382-1.636 2.404-1.342 1.2.347 1.867 1.688 1.55 2.878-.365 1.372-1.832 2.1-3.157 1.689-1.503-.466-2.332-2.159-1.908-3.657.37-1.311 1.59-2.195 2.925-2.193"/>
  <path stroke="#fff" stroke-linecap="round" stroke-linejoin="round" stroke-width=".494" d="M19.308 209.303c.303.984 1.386 1.487 2.314 1.193 1.102-.35 1.635-1.623 1.261-2.73-.436-1.286-1.87-1.936-3.092-1.518-1.396.478-2.064 2.107-1.56 3.518.567 1.59 2.355 2.386 3.87 1.843 1.175-.421 1.984-1.551 2.074-2.82m114.24.578c-.226.897-1.218 1.402-2.102 1.191-1.067-.254-1.639-1.379-1.344-2.399.347-1.199 1.69-1.865 2.882-1.549 1.374.365 2.103 1.83 1.692 3.152-.467 1.501-2.163 2.329-3.663 1.906a3.036 3.036 0 0 1-2.196-2.921"/>
  <path stroke="#fff" stroke-linecap="round" stroke-linejoin="round" stroke-width=".494" d="M139.473 208.33c.986-.302 1.489-1.384 1.195-2.31-.35-1.101-1.625-1.633-2.734-1.259-1.288.435-1.939 1.867-1.52 3.087.479 1.394 2.11 2.061 3.523 1.558 1.592-.566 2.39-2.351 1.846-3.865-.422-1.173-1.553-1.981-2.824-2.071m.578-184.753c.899.226 1.404 1.216 1.193 2.1-.255 1.065-1.381 1.636-2.403 1.341-1.2-.346-1.868-1.687-1.551-2.878.365-1.372 1.832-2.1 3.157-1.689 1.503.466 2.333 2.16 1.909 3.657-.371 1.312-1.591 2.196-2.926 2.194"/>
  <path stroke="#fff" stroke-linecap="round" stroke-linejoin="round" stroke-width=".494" d="M138.499 17.66c-.303-.983-1.386-1.486-2.313-1.192-1.103.35-1.636 1.622-1.262 2.73.436 1.286 1.871 1.935 3.092 1.517 1.396-.478 2.065-2.107 1.561-3.517-.567-1.59-2.355-2.387-3.871-1.844-1.175.422-1.984 1.551-2.074 2.82m-114.24-.577c.226-.897 1.217-1.402 2.102-1.191 1.067.254 1.639 1.38 1.344 2.4-.347 1.198-1.69 1.864-2.883 1.548-1.374-.365-2.103-1.83-1.691-3.152.466-1.501 2.163-2.33 3.663-1.906a3.037 3.037 0 0 1 2.196 2.92"/>
  <path stroke="#fff" stroke-linecap="round" stroke-linejoin="round" stroke-width=".494" d="M18.334 18.634c-.986.302-1.49 1.383-1.195 2.31.35 1.1 1.625 1.633 2.733 1.26 1.289-.436 1.94-1.869 1.52-3.088-.478-1.394-2.11-2.062-3.522-1.559-1.593.567-2.39 2.352-1.846 3.866.421 1.172 1.553 1.98 2.824 2.07"/>
  <path stroke="#fff" stroke-miterlimit="40" stroke-width=".313" d="M19.278 25.308c-.6.044-1.956.832.212-.297.443-.228-.803.577-1.08.971-.82 1.514-.424 3.212.139 4.752 1.19 2.975 2.555 5.89 3.709 8.882.692 1.566.092 3.002-.932 4.306-1.08 1.268-2.454 2.292-3.875 3.211l-1.43.534c1.43-.901 2.814-1.916 3.912-3.177 1.005-1.251 1.614-2.643.996-4.174-1.07-3.019-2.49-5.924-3.69-8.9-.59-1.549-1.052-3.29-.24-4.848.738-1.129 2.186-1.969 3.561-2.144l-1.282.884Z"/>
  <path stroke="#fff" stroke-miterlimit="40" stroke-width=".313" d="M18.797 51.71c.6-.044 1.956-.831-.212.297-.443.228.803-.577 1.08-.97.82-1.515.424-3.213-.139-4.753-1.19-2.975-2.555-5.89-3.708-8.882-.692-1.566-.093-3.002.932-4.305 1.079-1.27 2.453-2.293 3.874-3.212l1.43-.534c-1.43.902-2.814 1.917-3.912 3.177-1.005 1.251-1.614 2.642-.996 4.174 1.07 3.02 2.491 5.924 3.69 8.9.59 1.549 1.052 3.29.24 4.848-.738 1.129-2.186 1.969-3.56 2.144l1.282-.884Z"/>
  <path stroke="#fff" stroke-miterlimit="40" stroke-width=".313" d="M19.278 50.346c-.6.044-1.956.832.212-.297.443-.228-.803.577-1.08.971-.82 1.514-.424 3.212.139 4.752 1.19 2.975 2.555 5.89 3.709 8.882.692 1.567.092 3.002-.932 4.306-1.08 1.269-2.454 2.292-3.875 3.211l-1.43.534c1.43-.901 2.814-1.916 3.912-3.177 1.005-1.251 1.614-2.642.996-4.174-1.07-3.019-2.49-5.924-3.69-8.9-.59-1.548-1.052-3.29-.24-4.848.738-1.129 2.186-1.969 3.561-2.144l-1.282.884Z"/>
  <path stroke="#fff" stroke-miterlimit="40" stroke-width=".313" d="M18.797 76.748c.6-.044 1.956-.831-.212.297-.443.228.803-.577 1.08-.97.82-1.515.424-3.213-.139-4.753-1.19-2.975-2.555-5.889-3.708-8.882-.692-1.566-.093-3.001.932-4.305 1.079-1.27 2.453-2.293 3.874-3.212l1.43-.534c-1.43.902-2.814 1.917-3.912 3.177-1.005 1.251-1.614 2.643-.996 4.174 1.07 3.02 2.491 5.925 3.69 8.9.59 1.549 1.052 3.29.24 4.848-.738 1.129-2.186 1.969-3.56 2.144l1.282-.884Z"/>
  <path stroke="#fff" stroke-miterlimit="40" stroke-width=".313" d="M19.278 75.393c-.6.044-1.956.832.212-.297.443-.228-.803.577-1.08.971-.82 1.514-.424 3.212.139 4.752 1.19 2.975 2.555 5.89 3.709 8.882.692 1.567.092 3.002-.932 4.306-1.08 1.269-2.454 2.292-3.875 3.211l-1.43.534c1.43-.901 2.814-1.916 3.912-3.176 1.005-1.252 1.614-2.643.996-4.175-1.07-3.019-2.49-5.924-3.69-8.9-.59-1.548-1.052-3.29-.24-4.848.738-1.128 2.186-1.969 3.561-2.144l-1.282.884Z"/>
  <path stroke="#fff" stroke-miterlimit="40" stroke-width=".313" d="M18.797 101.795c.6-.044 1.956-.831-.212.298-.443.227.803-.578 1.08-.972.82-1.514.424-3.211-.139-4.751-1.19-2.976-2.555-5.89-3.708-8.883-.692-1.566-.093-3.001.932-4.305 1.079-1.27 2.453-2.293 3.874-3.212l1.43-.534c-1.43.902-2.814 1.917-3.912 3.177-1.005 1.251-1.614 2.643-.996 4.174 1.07 3.02 2.491 5.925 3.69 8.9.59 1.549 1.052 3.29.24 4.848-.738 1.129-2.186 1.969-3.56 2.144l1.282-.884Z"/>
  <path stroke="#fff" stroke-miterlimit="40" stroke-width=".313" d="M19.278 100.441c-.6.043-1.956.831.212-.298.443-.227-.803.578-1.08.972-.82 1.513-.424 3.211.139 4.751 1.19 2.976 2.555 5.89 3.709 8.883.692 1.566.092 3.001-.932 4.305-1.08 1.269-2.454 2.293-3.875 3.212l-1.43.534c1.43-.902 2.814-1.917 3.912-3.177 1.005-1.251 1.614-2.643.996-4.174-1.07-3.019-2.49-5.925-3.69-8.9-.59-1.549-1.052-3.29-.24-4.848.738-1.129 2.186-1.97 3.561-2.144l-1.282.884Z"/>
  <path stroke="#fff" stroke-miterlimit="40" stroke-width=".313" d="M18.797 126.842c.6-.044 1.956-.831-.212.298-.443.227.803-.578 1.08-.972.82-1.513.424-3.211-.139-4.751-1.19-2.976-2.555-5.89-3.708-8.883-.692-1.566-.093-3.001.932-4.305 1.079-1.269 2.453-2.293 3.874-3.212l1.43-.534c-1.43.902-2.814 1.917-3.912 3.177-1.005 1.251-1.614 2.643-.996 4.174 1.07 3.019 2.491 5.925 3.69 8.9.59 1.549 1.052 3.29.24 4.848-.738 1.129-2.186 1.969-3.56 2.144l1.282-.884Z"/>
  <path stroke="#fff" stroke-miterlimit="40" stroke-width=".313" d="M19.278 125.479c-.6.044-1.956.831.212-.298.443-.227-.803.578-1.08.972-.82 1.514-.424 3.211.139 4.751 1.19 2.976 2.555 5.89 3.709 8.883.692 1.566.092 3.001-.932 4.305-1.08 1.269-2.454 2.293-3.875 3.212l-1.43.534c1.43-.902 2.814-1.917 3.912-3.177 1.005-1.251 1.614-2.643.996-4.174-1.07-3.019-2.49-5.925-3.69-8.9-.59-1.549-1.052-3.29-.24-4.848.738-1.129 2.186-1.969 3.561-2.144l-1.282.884Z"/>
  <path stroke="#fff" stroke-miterlimit="40" stroke-width=".313" d="M18.797 151.881c.6-.044 1.956-.832-.212.297-.443.228.803-.577 1.08-.971.82-1.514.424-3.212-.139-4.752-1.19-2.975-2.555-5.889-3.708-8.882-.692-1.567-.093-3.002.932-4.306 1.079-1.269 2.453-2.293 3.874-3.211l1.43-.534c-1.43.901-2.814 1.916-3.912 3.176-1.005 1.252-1.614 2.643-.996 4.175 1.07 3.019 2.491 5.924 3.69 8.899.59 1.549 1.052 3.291.24 4.848-.738 1.129-2.186 1.969-3.56 2.144l1.282-.883Z"/>
  <path stroke="#fff" stroke-miterlimit="40" stroke-width=".313" d="M19.278 150.526c-.6.044-1.956.831.212-.298.443-.227-.803.578-1.08.972-.82 1.514-.424 3.211.139 4.752 1.19 2.975 2.555 5.889 3.709 8.882.692 1.566.092 3.001-.932 4.305-1.08 1.269-2.454 2.293-3.875 3.212l-1.43.534c1.43-.902 2.814-1.917 3.912-3.177 1.005-1.251 1.614-2.643.996-4.174-1.07-3.019-2.49-5.925-3.69-8.9-.59-1.549-1.052-3.29-.24-4.848.738-1.129 2.186-1.969 3.561-2.144l-1.282.884Z"/>
  <path stroke="#fff" stroke-miterlimit="40" stroke-width=".313" d="M18.797 176.928c.6-.044 1.956-.832-.212.297-.443.228.803-.577 1.08-.971.82-1.514.424-3.212-.139-4.752-1.19-2.975-2.555-5.889-3.708-8.882-.692-1.567-.093-3.002.932-4.306 1.079-1.269 2.453-2.292 3.874-3.211l1.43-.534c-1.43.901-2.814 1.916-3.912 3.177-1.005 1.251-1.614 2.642-.996 4.174 1.07 3.019 2.491 5.924 3.69 8.899.59 1.549 1.052 3.291.24 4.849-.738 1.128-2.186 1.969-3.56 2.144l1.282-.884Z"/>
  <path stroke="#fff" stroke-miterlimit="40" stroke-width=".313" d="M19.278 175.573c-.6.044-1.956.832.212-.297.443-.228-.803.577-1.08.971-.82 1.514-.424 3.212.139 4.752 1.19 2.975 2.555 5.889 3.709 8.882.692 1.567.092 3.002-.932 4.306-1.08 1.269-2.454 2.292-3.875 3.211l-1.43.534c1.43-.901 2.814-1.916 3.912-3.177 1.005-1.251 1.614-2.642.996-4.174-1.07-3.019-2.49-5.924-3.69-8.9-.59-1.548-1.052-3.29-.24-4.848.738-1.128 2.186-1.969 3.561-2.144l-1.282.884Z"/>
  <path stroke="#fff" stroke-miterlimit="40" stroke-width=".313" d="M18.797 201.975c.6-.044 1.956-.832-.212.297-.443.228.803-.577 1.08-.971.82-1.514.424-3.212-.139-4.752-1.19-2.975-2.555-5.889-3.708-8.882-.692-1.566-.093-3.002.932-4.306 1.079-1.268 2.453-2.292 3.874-3.211l1.43-.534c-1.43.901-2.814 1.916-3.912 3.177-1.005 1.251-1.614 2.642-.996 4.174 1.07 3.019 2.491 5.924 3.69 8.9.59 1.549 1.052 3.29.24 4.848-.738 1.129-2.186 1.969-3.56 2.144l1.282-.884ZM138.829 25.02c-.599.044-1.955.831.213-.298.442-.227-.803.578-1.08.972-.821 1.514-.424 3.211.139 4.752 1.19 2.975 2.555 5.889 3.708 8.882.692 1.566.093 3.001-.932 4.305-1.079 1.27-2.454 2.293-3.874 3.212l-1.43.534c1.43-.902 2.814-1.917 3.911-3.177 1.006-1.251 1.615-2.643.997-4.174-1.07-3.02-2.491-5.925-3.69-8.9-.591-1.549-1.052-3.29-.24-4.848.738-1.129 2.186-1.969 3.561-2.144l-1.283.884Z"/>
  <path stroke="#fff" stroke-miterlimit="40" stroke-width=".313" d="M138.35 51.422c.599-.044 1.956-.832-.212.297-.443.228.802-.577 1.079-.971.821-1.514.424-3.212-.138-4.752-1.19-2.975-2.556-5.89-3.709-8.882-.692-1.567-.092-3.002.932-4.306 1.079-1.269 2.454-2.293 3.874-3.211l1.43-.534c-1.43.901-2.813 1.916-3.911 3.176-1.006 1.252-1.615 2.643-.997 4.175 1.071 3.019 2.491 5.924 3.691 8.9.59 1.548 1.051 3.29.24 4.847-.739 1.13-2.187 1.97-3.562 2.144l1.283-.883Z"/>
  <path stroke="#fff" stroke-miterlimit="40" stroke-width=".313" d="M138.829 50.058c-.599.044-1.955.831.213-.298.442-.227-.803.578-1.08.972-.821 1.514-.424 3.211.139 4.752 1.19 2.975 2.555 5.889 3.708 8.882.692 1.566.093 3.001-.932 4.305-1.079 1.27-2.454 2.293-3.874 3.212l-1.43.534c1.43-.902 2.814-1.917 3.911-3.177 1.006-1.251 1.615-2.643.997-4.174-1.07-3.02-2.491-5.925-3.69-8.9-.591-1.549-1.052-3.29-.24-4.848.738-1.129 2.186-1.969 3.561-2.144l-1.283.884Z"/>
  <path stroke="#fff" stroke-miterlimit="40" stroke-width=".313" d="M138.35 76.46c.599-.044 1.956-.832-.212.297-.443.228.802-.577 1.079-.971.821-1.514.424-3.212-.138-4.752-1.19-2.975-2.556-5.89-3.709-8.882-.692-1.567-.092-3.002.932-4.306 1.079-1.269 2.454-2.292 3.874-3.211l1.43-.534c-1.43.901-2.813 1.916-3.911 3.177-1.006 1.25-1.615 2.642-.997 4.174 1.071 3.019 2.491 5.924 3.691 8.9.59 1.548 1.051 3.29.24 4.847-.739 1.13-2.187 1.97-3.562 2.145l1.283-.884Z"/>
  <path stroke="#fff" stroke-miterlimit="40" stroke-width=".313" d="M138.829 75.105c-.599.044-1.955.832.213-.297.442-.228-.803.577-1.08.971-.821 1.514-.424 3.212.139 4.752 1.19 2.975 2.555 5.89 3.708 8.882.692 1.567.093 3.002-.932 4.306-1.079 1.269-2.454 2.292-3.874 3.211l-1.43.534c1.43-.901 2.814-1.916 3.911-3.177 1.006-1.25 1.615-2.642.997-4.174-1.07-3.019-2.491-5.924-3.69-8.9-.591-1.548-1.052-3.29-.24-4.848.738-1.128 2.186-1.968 3.561-2.144l-1.283.884Z"/>
  <path stroke="#fff" stroke-miterlimit="40" stroke-width=".313" d="M138.35 101.507c.599-.044 1.956-.831-.212.298-.443.227.802-.578 1.079-.972.821-1.514.424-3.211-.138-4.752-1.19-2.975-2.556-5.889-3.709-8.882-.692-1.566-.092-3.001.932-4.305 1.079-1.27 2.454-2.293 3.874-3.212l1.43-.534c-1.43.902-2.813 1.917-3.911 3.177-1.006 1.251-1.615 2.643-.997 4.174 1.071 3.02 2.491 5.925 3.691 8.9.59 1.549 1.051 3.29.24 4.848-.739 1.129-2.187 1.969-3.562 2.144l1.283-.884Z"/>
  <path stroke="#fff" stroke-miterlimit="40" stroke-width=".313" d="M138.829 100.152c-.599.044-1.955.832.213-.297.442-.228-.803.577-1.08.971-.821 1.514-.424 3.212.139 4.752 1.19 2.975 2.555 5.889 3.708 8.882.692 1.567.093 3.002-.932 4.306-1.079 1.269-2.454 2.293-3.874 3.211l-1.43.534c1.43-.901 2.814-1.916 3.911-3.176 1.006-1.252 1.615-2.643.997-4.175-1.07-3.019-2.491-5.924-3.69-8.899-.591-1.549-1.052-3.291-.24-4.848.738-1.129 2.186-1.97 3.561-2.144l-1.283.883Z"/>
  <path stroke="#fff" stroke-miterlimit="40" stroke-width=".313" d="M138.35 126.554c.599-.044 1.956-.831-.212.298-.443.227.802-.578 1.079-.972.821-1.514.424-3.211-.138-4.751-1.19-2.976-2.556-5.89-3.709-8.883-.692-1.566-.092-3.001.932-4.305 1.079-1.269 2.454-2.293 3.874-3.212l1.43-.534c-1.43.902-2.813 1.917-3.911 3.177-1.006 1.251-1.615 2.643-.997 4.174 1.071 3.019 2.491 5.925 3.691 8.9.59 1.549 1.051 3.29.24 4.848-.739 1.129-2.187 1.969-3.562 2.144l1.283-.884Z"/>
  <path stroke="#fff" stroke-miterlimit="40" stroke-width=".313" d="M138.829 125.19c-.599.044-1.955.832.213-.297.442-.228-.803.577-1.08.971-.821 1.514-.424 3.212.139 4.752 1.19 2.975 2.555 5.89 3.708 8.882.692 1.567.093 3.002-.932 4.306-1.079 1.269-2.454 2.293-3.874 3.211l-1.43.534c1.43-.901 2.814-1.916 3.911-3.176 1.006-1.252 1.615-2.643.997-4.175-1.07-3.019-2.491-5.924-3.69-8.899-.591-1.549-1.052-3.291-.24-4.848.738-1.129 2.186-1.969 3.561-2.144l-1.283.883Z"/>
  <path stroke="#fff" stroke-miterlimit="40" stroke-width=".313" d="M138.35 151.592c.599-.044 1.956-.831-.212.298-.443.227.802-.578 1.079-.972.821-1.513.424-3.211-.138-4.751-1.19-2.976-2.556-5.89-3.709-8.883-.692-1.566-.092-3.001.932-4.305 1.079-1.269 2.454-2.293 3.874-3.212l1.43-.534c-1.43.902-2.813 1.917-3.911 3.177-1.006 1.251-1.615 2.643-.997 4.174 1.071 3.019 2.491 5.925 3.691 8.9.59 1.549 1.051 3.29.24 4.848-.739 1.129-2.187 1.969-3.562 2.144l1.283-.884Z"/>
  <path stroke="#fff" stroke-miterlimit="40" stroke-width=".313" d="M138.829 150.238c-.599.043-1.955.831.213-.298.442-.227-.803.578-1.08.971-.821 1.514-.424 3.212.139 4.752 1.19 2.976 2.555 5.89 3.708 8.882.692 1.567.093 3.002-.932 4.306-1.079 1.269-2.454 2.293-3.874 3.212l-1.43.533c1.43-.901 2.814-1.916 3.911-3.176 1.006-1.252 1.615-2.643.997-4.174-1.07-3.02-2.491-5.925-3.69-8.9-.591-1.549-1.052-3.291-.24-4.848.738-1.129 2.186-1.969 3.561-2.144l-1.283.884Z"/>
  <path stroke="#fff" stroke-miterlimit="40" stroke-width=".313" d="M138.35 176.639c.599-.043 1.956-.831-.212.298-.443.227.802-.578 1.079-.971.821-1.514.424-3.212-.138-4.752-1.19-2.976-2.556-5.89-3.709-8.883-.692-1.566-.092-3.001.932-4.305 1.079-1.269 2.454-2.293 3.874-3.212l1.43-.533c-1.43.901-2.813 1.916-3.911 3.176-1.006 1.252-1.615 2.643-.997 4.174 1.071 3.02 2.491 5.925 3.691 8.9.59 1.549 1.051 3.291.24 4.848-.739 1.129-2.187 1.969-3.562 2.144l1.283-.884Z"/>
  <path stroke="#fff" stroke-miterlimit="40" stroke-width=".313" d="M138.829 175.285c-.599.043-1.955.831.213-.298.442-.227-.803.578-1.08.972-.821 1.513-.424 3.211.139 4.751 1.19 2.976 2.555 5.89 3.708 8.883.692 1.566.093 3.001-.932 4.305-1.079 1.269-2.454 2.293-3.874 3.212l-1.43.534c1.43-.902 2.814-1.917 3.911-3.177 1.006-1.251 1.615-2.643.997-4.174-1.07-3.019-2.491-5.925-3.69-8.9-.591-1.549-1.052-3.29-.24-4.848.738-1.129 2.186-1.969 3.561-2.144l-1.283.884Z"/>
  <path stroke="#fff" stroke-miterlimit="40" stroke-width=".313" d="M138.35 201.686c.599-.043 1.956-.831-.212.298-.443.228.802-.578 1.079-.971.821-1.514.424-3.212-.138-4.752-1.19-2.976-2.556-5.89-3.709-8.882-.692-1.567-.092-3.002.932-4.306 1.079-1.269 2.454-2.293 3.874-3.212l1.43-.533c-1.43.901-2.813 1.916-3.911 3.176-1.006 1.252-1.615 2.643-.997 4.175 1.071 3.019 2.491 5.924 3.691 8.899.59 1.549 1.051 3.291.24 4.848-.739 1.129-2.187 1.969-3.562 2.144l1.283-.884ZM28.003 17.837c.044.6.833 1.953-.298-.211-.227-.443.579.8.973 1.077 1.516.82 3.217.424 4.76-.138 2.98-1.188 5.898-2.552 8.895-3.703 1.569-.69 3.006-.092 4.312.93 1.27 1.078 2.296 2.45 3.217 3.87l.534 1.427c-.903-1.428-1.92-2.81-3.181-3.906-1.254-1.004-2.647-1.612-4.18-.994-3.024 1.068-5.934 2.487-8.914 3.684-1.551.59-3.296 1.05-4.856.24-1.13-.737-1.971-2.183-2.147-3.556l.885 1.28Z"/>
  <path stroke="#fff" stroke-miterlimit="40" stroke-width=".313" d="M54.446 18.316c-.044-.598-.833-1.953.298.212.228.442-.579-.801-.973-1.077-1.516-.82-3.217-.424-4.76.138-2.979 1.188-5.897 2.551-8.895 3.703-1.569.69-3.006.092-4.312-.93-1.27-1.078-2.296-2.45-3.216-3.87l-.535-1.427c.903 1.428 1.92 2.81 3.181 3.905 1.254 1.005 2.647 1.612 4.181.995 3.024-1.068 5.934-2.487 8.913-3.684 1.552-.59 3.296-1.05 4.856-.24 1.13.737 1.972 2.183 2.147 3.556l-.885-1.28Z"/>
  <path stroke="#fff" stroke-miterlimit="40" stroke-width=".313" d="M53.089 17.837c.044.6.832 1.953-.298-.211-.228-.443.578.8.973 1.077 1.516.82 3.216.424 4.759-.138 2.98-1.188 5.898-2.552 8.895-3.703 1.57-.69 3.007-.092 4.313.93 1.27 1.078 2.296 2.45 3.216 3.87l.535 1.427c-.903-1.428-1.92-2.81-3.182-3.906-1.253-1.004-2.647-1.612-4.18-.994-3.024 1.068-5.934 2.487-8.914 3.684-1.551.59-3.295 1.05-4.855.24-1.13-.737-1.972-2.183-2.147-3.556l.885 1.28Z"/>
  <path stroke="#fff" stroke-miterlimit="40" stroke-width=".313" d="M79.53 18.316c-.043-.598-.832-1.953.299.212.228.442-.579-.801-.973-1.077-1.516-.82-3.217-.424-4.76.138-2.979 1.188-5.898 2.551-8.895 3.703-1.569.69-3.006.092-4.312-.93-1.27-1.078-2.296-2.45-3.217-3.87l-.534-1.427c.903 1.428 1.92 2.81 3.181 3.905 1.254 1.005 2.647 1.612 4.181.995 3.024-1.068 5.933-2.487 8.913-3.684 1.552-.59 3.296-1.05 4.856-.24 1.13.737 1.972 2.183 2.147 3.556l-.885-1.28Z"/>
  <path stroke="#fff" stroke-miterlimit="40" stroke-width=".313" d="M78.174 17.837c.044.6.833 1.953-.298-.211-.228-.443.579.8.973 1.077 1.516.82 3.217.424 4.76-.138 2.98-1.188 5.898-2.552 8.895-3.703 1.569-.69 3.006-.092 4.312.93 1.27 1.078 2.296 2.45 3.217 3.87l.534 1.427c-.903-1.428-1.92-2.81-3.181-3.906-1.254-1.004-2.647-1.612-4.18-.994-3.025 1.068-5.934 2.487-8.914 3.684-1.552.59-3.296 1.05-4.856.24-1.13-.737-1.972-2.183-2.147-3.556l.885 1.28Z"/>
  <path stroke="#fff" stroke-miterlimit="40" stroke-width=".313" d="M104.617 18.316c-.044-.598-.833-1.953.298.212.228.442-.579-.801-.973-1.077-1.516-.82-3.217-.424-4.76.138-2.979 1.188-5.898 2.551-8.895 3.703-1.569.69-3.006.092-4.312-.93-1.27-1.078-2.296-2.45-3.216-3.87l-.535-1.427c.903 1.428 1.92 2.81 3.181 3.905 1.254 1.005 2.647 1.612 4.18.995 3.025-1.068 5.934-2.487 8.914-3.684 1.552-.59 3.296-1.05 4.856-.24 1.13.737 1.972 2.183 2.147 3.556l-.885-1.28Z"/>
  <path stroke="#fff" stroke-miterlimit="40" stroke-width=".313" d="M103.25 17.837c.044.6.833 1.953-.298-.211-.227-.443.579.8.973 1.077 1.516.82 3.217.424 4.759-.138 2.98-1.188 5.899-2.552 8.896-3.703 1.569-.69 3.006-.092 4.312.93 1.271 1.078 2.296 2.45 3.217 3.87l.534 1.427c-.902-1.428-1.919-2.81-3.181-3.906-1.253-1.004-2.647-1.612-4.181-.994-3.023 1.068-5.933 2.487-8.913 3.684-1.551.59-3.295 1.05-4.855.24-1.131-.737-1.972-2.183-2.148-3.556l.885 1.28Z"/>
  <path stroke="#fff" stroke-miterlimit="40" stroke-width=".313" d="M129.693 18.316c-.044-.598-.833-1.953.298.212.228.442-.579-.801-.973-1.077-1.516-.82-3.216-.424-4.759.138-2.98 1.188-5.898 2.551-8.896 3.703-1.569.69-3.006.092-4.312-.93-1.271-1.078-2.296-2.45-3.216-3.87l-.535-1.427c.903 1.428 1.919 2.81 3.181 3.905 1.254 1.005 2.647 1.612 4.181.995 3.024-1.068 5.934-2.487 8.913-3.684 1.552-.59 3.296-1.05 4.856-.24 1.13.737 1.972 2.183 2.147 3.556l-.885-1.28ZM28.003 208.691c.044.599.833 1.953-.298-.212-.227-.442.579.802.973 1.078 1.516.82 3.217.424 4.76-.138 2.98-1.188 5.898-2.552 8.895-3.703 1.569-.691 3.006-.092 4.312.93 1.27 1.078 2.296 2.451 3.217 3.869l.534 1.428c-.903-1.428-1.92-2.81-3.181-3.906-1.254-1.004-2.647-1.612-4.18-.995-3.024 1.069-5.934 2.487-8.914 3.685-1.551.589-3.296 1.05-4.856.239-1.13-.736-1.971-2.183-2.147-3.555l.885 1.28Z"/>
  <path stroke="#fff" stroke-miterlimit="40" stroke-width=".313" d="M54.446 209.17c-.044-.599-.833-1.953.298.212.228.442-.579-.801-.973-1.078-1.516-.82-3.217-.423-4.76.138-2.979 1.189-5.897 2.552-8.895 3.703-1.569.691-3.006.093-4.312-.93-1.27-1.078-2.296-2.45-3.216-3.869l-.535-1.428c.903 1.428 1.92 2.81 3.181 3.906 1.254 1.004 2.647 1.612 4.181.995 3.024-1.069 5.934-2.487 8.913-3.685 1.552-.589 3.296-1.05 4.856-.239 1.13.737 1.972 2.183 2.147 3.556l-.885-1.281Z"/>
  <path stroke="#fff" stroke-miterlimit="40" stroke-width=".313" d="M53.089 208.691c.044.599.832 1.953-.298-.212-.228-.442.578.802.973 1.078 1.516.82 3.216.424 4.759-.138 2.98-1.188 5.898-2.552 8.895-3.703 1.57-.691 3.007-.092 4.313.93 1.27 1.078 2.296 2.451 3.216 3.869l.535 1.428c-.903-1.428-1.92-2.81-3.182-3.906-1.253-1.004-2.647-1.612-4.18-.995-3.024 1.069-5.934 2.487-8.914 3.685-1.551.589-3.295 1.05-4.855.239-1.13-.736-1.972-2.183-2.147-3.555l.885 1.28Z"/>
  <path stroke="#fff" stroke-miterlimit="40" stroke-width=".313" d="M79.53 209.17c-.043-.599-.832-1.953.299.212.228.442-.579-.801-.973-1.078-1.516-.82-3.217-.423-4.76.138-2.979 1.189-5.898 2.552-8.895 3.703-1.569.691-3.006.093-4.312-.93-1.27-1.078-2.296-2.45-3.217-3.869l-.534-1.428c.903 1.428 1.92 2.81 3.181 3.906 1.254 1.004 2.647 1.612 4.181.995 3.024-1.069 5.933-2.487 8.913-3.685 1.552-.589 3.296-1.05 4.856-.239 1.13.737 1.972 2.183 2.147 3.556l-.885-1.281Z"/>
  <path stroke="#fff" stroke-miterlimit="40" stroke-width=".313" d="M78.174 208.691c.044.599.833 1.953-.298-.212-.228-.442.579.802.973 1.078 1.516.82 3.217.424 4.76-.138 2.98-1.188 5.898-2.552 8.895-3.703 1.569-.691 3.006-.092 4.312.93 1.27 1.078 2.296 2.451 3.217 3.869l.534 1.428c-.903-1.428-1.92-2.81-3.181-3.906-1.254-1.004-2.647-1.612-4.18-.995-3.025 1.069-5.934 2.487-8.914 3.685-1.552.589-3.296 1.05-4.856.239-1.13-.736-1.972-2.183-2.147-3.555l.885 1.28Z"/>
  <path stroke="#fff" stroke-miterlimit="40" stroke-width=".313" d="M104.617 209.17c-.044-.599-.833-1.953.298.212.228.442-.579-.801-.973-1.078-1.516-.82-3.217-.423-4.76.138-2.979 1.189-5.898 2.552-8.895 3.703-1.569.691-3.006.093-4.312-.93-1.27-1.078-2.296-2.45-3.216-3.869l-.535-1.428c.903 1.428 1.92 2.81 3.181 3.906 1.254 1.004 2.647 1.612 4.18.995 3.025-1.069 5.934-2.487 8.914-3.685 1.552-.589 3.296-1.05 4.856-.239 1.13.737 1.972 2.183 2.147 3.556l-.885-1.281Z"/>
  <path stroke="#fff" stroke-miterlimit="40" stroke-width=".313" d="M103.25 208.691c.044.599.833 1.953-.298-.212-.227-.442.579.802.973 1.078 1.516.82 3.217.424 4.759-.138 2.98-1.188 5.899-2.552 8.896-3.703 1.569-.691 3.006-.092 4.312.93 1.271 1.078 2.296 2.451 3.217 3.869l.534 1.428c-.902-1.428-1.919-2.81-3.181-3.906-1.253-1.004-2.647-1.612-4.181-.995-3.023 1.069-5.933 2.487-8.913 3.685-1.551.589-3.295 1.05-4.855.239-1.131-.736-1.972-2.183-2.148-3.555l.885 1.28Z"/>
  <path stroke="#fff" stroke-miterlimit="40" stroke-width=".313" d="M129.693 209.17c-.044-.599-.833-1.953.298.212.228.442-.579-.801-.973-1.078-1.516-.82-3.216-.423-4.759.138-2.98 1.189-5.898 2.552-8.896 3.703-1.569.691-3.006.093-4.312-.93-1.271-1.078-2.296-2.45-3.216-3.869l-.535-1.428c.903 1.428 1.919 2.81 3.181 3.906 1.254 1.004 2.647 1.612 4.181.995 3.024-1.069 5.934-2.487 8.913-3.685 1.552-.589 3.296-1.05 4.856-.239 1.13.737 1.972 2.183 2.147 3.556l-.885-1.281Z"/>
</svg>
