<svg xmlns="http://www.w3.org/2000/svg" width="105" height="105" fill="none" viewBox="0 0 105 105">
  <circle cx="52.352" cy="52.352" r="37.5" fill="#1EA2AB" transform="rotate(54.192 52.352 52.352)"/>
  <path fill="#D9D9D9" d="M72.39 71.187C61.986 82.253 44.582 82.792 33.516 72.39 22.45 61.987 21.912 44.584 32.314 33.517c10.402-11.066 27.806-11.605 38.872-1.202C82.253 42.717 82.791 60.12 72.39 71.187Z"/>
  <path fill="#D9D9D9" d="m76.214 23.316 3.643 3.425L28.49 81.388l-3.643-3.424z"/>
  <path fill="#D9D9D9" d="m26.74 24.847 54.648 51.368-3.425 3.643L23.315 28.49z"/>
  <path fill="#D9D9D9" d="M48.852 14.852h7v75h-7z"/>
  <path fill="#D9D9D9" d="M14.852 48.852h75v6h-75z"/>
  <path fill="#000" d="M33.406 60.818V42.636h1.165v18.182h-1.165Zm2.805-12.003c-.047-.52-.258-.925-.632-1.214-.37-.294-.897-.44-1.584-.44-.454 0-.833.059-1.136.177-.303.118-.53.282-.682.49-.151.204-.23.438-.234.703-.01.218.033.41.128.575.099.166.241.313.426.44.189.124.416.233.681.328a7.1 7.1 0 0 0 .895.248l1.25.284c.72.157 1.355.365 1.904.625.554.26 1.018.57 1.392.93.379.36.665.775.86 1.244.193.468.293.994.297 1.576-.004.919-.236 1.707-.696 2.365-.459.658-1.12 1.163-1.981 1.513-.857.35-1.892.526-3.104.526-1.217 0-2.277-.183-3.182-.547-.904-.365-1.607-.919-2.109-1.662-.502-.743-.76-1.683-.774-2.82h3.366c.029.469.154.86.377 1.172.222.313.528.55.916.71.393.161.848.242 1.364.242.473 0 .875-.064 1.207-.192.336-.128.594-.305.774-.533.18-.227.272-.487.277-.78a1.076 1.076 0 0 0-.256-.704c-.165-.199-.421-.37-.767-.511a7.871 7.871 0 0 0-1.306-.405l-1.52-.355c-1.26-.29-2.252-.755-2.976-1.4-.725-.648-1.084-1.524-1.08-2.627-.004-.9.237-1.688.725-2.365.487-.677 1.162-1.205 2.024-1.584.862-.379 1.844-.568 2.947-.568 1.127 0 2.105.191 2.933.575.834.379 1.48.911 1.94 1.598.459.686.693 1.482.703 2.386H36.21Zm12.038-4.36V59h-3.508V47.736h-.085l-3.253 1.988v-3.04l3.587-2.23h3.26Zm9.232 14.9c-1.27 0-2.363-.3-3.282-.902-.918-.606-1.626-1.475-2.123-2.606-.497-1.137-.744-2.503-.739-4.098.005-1.596.253-2.95.746-4.063.497-1.117 1.203-1.967 2.116-2.55.919-.587 2.013-.88 3.282-.88 1.269 0 2.362.293 3.28.88.924.583 1.634 1.433 2.132 2.55.497 1.117.743 2.472.738 4.063 0 1.6-.248 2.968-.745 4.105-.498 1.136-1.206 2.005-2.124 2.606-.914.597-2.008.895-3.281.895Zm0-2.876c.757 0 1.37-.386 1.84-1.158.468-.776.7-1.967.695-3.572 0-1.052-.106-1.918-.32-2.6-.212-.686-.508-1.198-.887-1.534a1.938 1.938 0 0 0-1.328-.504c-.753 0-1.362.381-1.826 1.143-.464.758-.698 1.923-.703 3.495-.005 1.065.097 1.948.306 2.649.213.7.511 1.224.895 1.57.383.34.826.51 1.328.51Zm14.18 2.876c-1.27 0-2.363-.3-3.282-.902-.919-.606-1.626-1.475-2.124-2.606-.497-1.137-.743-2.503-.738-4.098.005-1.596.253-2.95.746-4.063.497-1.117 1.202-1.967 2.116-2.55.919-.587 2.012-.88 3.281-.88 1.27 0 2.363.293 3.282.88.923.583 1.633 1.433 2.13 2.55.497 1.117.744 2.472.739 4.063 0 1.6-.249 2.968-.746 4.105-.497 1.136-1.205 2.005-2.123 2.606-.914.597-2.008.895-3.282.895Zm0-2.876c.757 0 1.37-.386 1.839-1.158.469-.776.7-1.967.696-3.572 0-1.052-.107-1.918-.32-2.6-.213-.686-.509-1.198-.888-1.534a1.938 1.938 0 0 0-1.328-.504c-.752 0-1.36.381-1.825 1.143-.464.758-.698 1.923-.703 3.495-.005 1.065.097 1.948.305 2.649.213.7.512 1.224.895 1.57.384.34.826.51 1.328.51Z"/>
</svg>
