<svg xmlns="http://www.w3.org/2000/svg" width="105" height="105" fill="none" viewBox="0 0 105 105">
  <circle cx="52.352" cy="52.352" r="37.5" fill="#BD7F1B" transform="rotate(54.192 52.352 52.352)"/>
  <path fill="#D9D9D9" d="M72.39 71.187C61.986 82.253 44.582 82.792 33.516 72.39 22.45 61.987 21.912 44.584 32.314 33.517c10.402-11.066 27.806-11.605 38.872-1.202C82.253 42.717 82.791 60.12 72.39 71.187Z"/>
  <path fill="#D9D9D9" d="m76.214 23.316 3.643 3.425L28.49 81.388l-3.643-3.424z"/>
  <path fill="#D9D9D9" d="m26.74 24.847 54.648 51.368-3.425 3.643L23.315 28.49z"/>
  <path fill="#D9D9D9" d="M48.852 14.852h7v75h-7z"/>
  <path fill="#D9D9D9" d="M14.852 48.852h75v6h-75z"/>
  <path fill="#000" d="M32.864 59.727V42.455h1.107v17.272h-1.107Zm2.665-11.402c-.045-.495-.245-.88-.6-1.154-.351-.28-.853-.419-1.505-.419-.432 0-.792.057-1.08.17-.288.112-.503.267-.647.465a1.124 1.124 0 0 0-.223.668.992.992 0 0 0 .122.546c.094.158.229.297.404.419.18.116.396.22.648.31s.535.169.85.236l1.188.27a8.365 8.365 0 0 1 1.808.594c.526.247.967.542 1.322.884.36.341.632.735.817 1.18.184.446.279.945.283 1.498-.004.873-.225 1.622-.661 2.247-.436.625-1.064 1.104-1.883 1.437-.814.333-1.797.5-2.948.5-1.156 0-2.164-.174-3.023-.52-.859-.346-1.527-.873-2.004-1.579-.476-.706-.722-1.599-.735-2.679h3.198c.027.446.146.817.358 1.114.211.297.501.521.87.674.373.153.805.23 1.295.23.45 0 .833-.06 1.148-.182.319-.122.564-.29.735-.506a1.2 1.2 0 0 0 .263-.743 1.023 1.023 0 0 0-.243-.667c-.157-.19-.4-.351-.729-.486a7.471 7.471 0 0 0-1.241-.385l-1.444-.337c-1.196-.275-2.139-.718-2.827-1.33-.688-.616-1.03-1.448-1.026-2.496-.004-.855.225-1.603.689-2.247.463-.643 1.104-1.145 1.923-1.504.818-.36 1.752-.54 2.8-.54 1.07 0 2 .182 2.786.546.792.36 1.406.866 1.842 1.518.437.653.66 1.408.668 2.268H35.53Zm10.337 9.864c-1.008 0-1.903-.182-2.686-.547-.782-.364-1.4-.866-1.855-1.504-.45-.639-.684-1.372-.702-2.2h3.239c.027.508.234.918.62 1.228.387.306.848.459 1.384.459.418 0 .79-.092 1.113-.277.324-.184.578-.443.762-.776.185-.337.275-.724.27-1.16.005-.445-.087-.834-.276-1.167a1.963 1.963 0 0 0-.77-.776 2.181 2.181 0 0 0-1.12-.284 2.46 2.46 0 0 0-1.14.264c-.355.18-.625.425-.81.735l-2.948-.553.6-7.45h8.866v2.693h-6.12l-.316 3.259h.08c.23-.383.599-.697 1.107-.945.513-.252 1.095-.378 1.747-.378.828 0 1.566.194 2.214.58a4.093 4.093 0 0 1 1.538 1.593c.378.68.567 1.457.567 2.335 0 .949-.225 1.79-.675 2.523-.445.733-1.07 1.309-1.876 1.727-.8.414-1.738.62-2.813.62Zm12.912.148c-1.205 0-2.245-.285-3.117-.857-.873-.575-1.545-1.4-2.017-2.476-.473-1.08-.707-2.377-.702-3.893.004-1.516.24-2.802.708-3.86.473-1.06 1.143-1.868 2.01-2.421.873-.558 1.913-.837 3.118-.837 1.206 0 2.245.279 3.117.837.877.553 1.552 1.36 2.024 2.422.473 1.061.707 2.348.702 3.86 0 1.52-.236 2.82-.708 3.899-.473 1.08-1.145 1.905-2.018 2.476-.868.567-1.907.85-3.117.85Zm0-2.732c.72 0 1.302-.367 1.748-1.1.445-.738.665-1.869.66-3.394 0-.998-.1-1.822-.303-2.47-.202-.651-.483-1.137-.843-1.457a1.84 1.84 0 0 0-1.262-.479c-.715 0-1.293.362-1.734 1.087-.44.72-.663 1.826-.668 3.32-.004 1.011.092 1.85.29 2.516.203.666.486 1.163.85 1.491.365.324.785.486 1.262.486Zm13.47 2.732c-1.205 0-2.244-.285-3.116-.857-.873-.575-1.546-1.4-2.018-2.476-.472-1.08-.706-2.377-.702-3.893.005-1.516.241-2.802.709-3.86.472-1.06 1.142-1.868 2.01-2.421.873-.558 1.912-.837 3.118-.837 1.205 0 2.244.279 3.117.837.877.553 1.552 1.36 2.024 2.422.472 1.061.706 2.348.702 3.86 0 1.52-.236 2.82-.709 3.899-.472 1.08-1.144 1.905-2.017 2.476-.868.567-1.907.85-3.117.85Zm0-2.732c.72 0 1.303-.367 1.748-1.1.446-.738.666-1.869.662-3.394 0-.998-.102-1.822-.304-2.47-.203-.651-.484-1.137-.844-1.457a1.84 1.84 0 0 0-1.261-.479c-.715 0-1.293.362-1.734 1.087-.441.72-.664 1.826-.668 3.32-.005 1.011.092 1.85.29 2.516.202.666.486 1.163.85 1.491.364.324.785.486 1.262.486Z"/>
</svg>
