<svg xmlns="http://www.w3.org/2000/svg" width="105" height="105" fill="none" viewBox="0 0 105 105">
  <circle cx="52.352" cy="52.352" r="37.5" fill="#1F40AF" transform="rotate(54.192 52.352 52.352)"/>
  <path fill="#D9D9D9" d="M72.39 71.187C61.986 82.253 44.582 82.792 33.516 72.39 22.45 61.987 21.912 44.584 32.314 33.517c10.402-11.066 27.806-11.605 38.872-1.202C82.253 42.717 82.791 60.12 72.39 71.187Z"/>
  <path fill="#D9D9D9" d="m76.214 23.316 3.643 3.425L28.49 81.388l-3.643-3.424z"/>
  <path fill="#D9D9D9" d="m26.74 24.847 54.648 51.368-3.425 3.643L23.315 28.49z"/>
  <path fill="#D9D9D9" d="M48.852 14.852h7v75h-7z"/>
  <path fill="#D9D9D9" d="M14.852 48.852h75v6h-75z"/>
  <path fill="#000" d="M40.496 60.818V42.636h1.164v18.182h-1.164ZM43.3 48.815c-.047-.52-.258-.925-.632-1.214-.37-.294-.897-.44-1.584-.44-.455 0-.833.059-1.136.177-.303.118-.53.282-.682.49-.152.204-.23.438-.235.703-.009.218.034.41.128.575.1.166.242.313.427.44.189.124.416.233.681.328.265.094.564.177.895.248l1.25.284a8.88 8.88 0 0 1 1.904.625c.554.26 1.018.57 1.392.93a3.6 3.6 0 0 1 .859 1.244c.194.468.294.994.298 1.576-.004.919-.236 1.707-.696 2.365-.459.658-1.12 1.163-1.981 1.513-.857.35-1.892.526-3.104.526-1.217 0-2.277-.183-3.182-.547-.904-.365-1.607-.919-2.11-1.662-.501-.743-.76-1.683-.773-2.82h3.366c.029.469.154.86.377 1.172.222.313.528.55.916.71.393.161.847.242 1.363.242.474 0 .876-.064 1.208-.192.336-.128.594-.305.774-.533.18-.227.272-.487.277-.78a1.077 1.077 0 0 0-.256-.704c-.165-.199-.421-.37-.767-.511a7.871 7.871 0 0 0-1.307-.405l-1.52-.355c-1.259-.29-2.25-.755-2.975-1.4-.725-.648-1.085-1.524-1.08-2.627-.005-.9.237-1.688.725-2.365.487-.677 1.162-1.205 2.024-1.584.861-.379 1.844-.568 2.947-.568 1.127 0 2.105.191 2.933.575.834.379 1.48.911 1.94 1.598.459.686.693 1.482.702 2.386H43.3Zm12.038-4.36V59H51.83V47.736h-.085l-3.253 1.988v-3.04l3.586-2.23h3.26Zm9.231 14.9c-1.268 0-2.362-.3-3.28-.902-.92-.606-1.627-1.475-2.124-2.606-.497-1.137-.744-2.503-.739-4.098.005-1.596.253-2.95.746-4.063.497-1.117 1.202-1.967 2.116-2.55.919-.587 2.013-.88 3.281-.88 1.27 0 2.363.293 3.282.88.923.583 1.633 1.433 2.13 2.55.498 1.117.744 2.472.74 4.063 0 1.6-.25 2.968-.747 4.105-.497 1.136-1.205 2.005-2.123 2.606-.914.597-2.008.895-3.282.895Zm0-2.876c.758 0 1.371-.386 1.84-1.158.469-.776.7-1.967.696-3.572 0-1.052-.106-1.918-.32-2.6-.213-.686-.509-1.198-.887-1.534a1.938 1.938 0 0 0-1.329-.504c-.752 0-1.36.381-1.825 1.143-.464.758-.698 1.923-.703 3.495-.005 1.065.097 1.948.305 2.649.213.7.512 1.224.895 1.57.384.34.827.51 1.328.51Z"/>
</svg>
