<svg xmlns="http://www.w3.org/2000/svg" width="105" height="105" fill="none" viewBox="0 0 105 105">
  <circle cx="52.352" cy="52.352" r="37.5" fill="#AF9A1F" transform="rotate(54.192 52.352 52.352)"/>
  <path fill="#D9D9D9" d="M72.39 71.187C61.986 82.253 44.582 82.792 33.516 72.39 22.45 61.987 21.912 44.584 32.314 33.517c10.402-11.066 27.806-11.605 38.872-1.202C82.253 42.717 82.791 60.12 72.39 71.187Z"/>
  <path fill="#D9D9D9" d="m76.214 23.316 3.643 3.425L28.49 81.388l-3.643-3.424z"/>
  <path fill="#D9D9D9" d="m26.74 24.847 54.648 51.368-3.425 3.643L23.315 28.49z"/>
  <path fill="#D9D9D9" d="M48.852 14.852h7v75h-7z"/>
  <path fill="#D9D9D9" d="M14.852 48.852h75v6h-75z"/>
  <path fill="#000" d="M46.937 60.67V42.488h1.165V60.67h-1.165Zm2.806-12.003c-.048-.52-.258-.925-.633-1.214-.369-.294-.897-.44-1.583-.44-.455 0-.834.059-1.137.177-.303.119-.53.282-.681.49-.152.204-.23.438-.235.703-.01.218.033.41.128.576.1.165.242.312.426.44.19.123.417.232.682.327.265.094.563.177.895.248l1.25.284c.72.157 1.354.365 1.903.625a5.14 5.14 0 0 1 1.392.93 3.6 3.6 0 0 1 .86 1.244c.194.468.293.994.298 1.576-.005.919-.237 1.707-.696 2.365-.46.659-1.12 1.163-1.982 1.513-.857.35-1.891.526-3.103.526-1.217 0-2.278-.183-3.182-.547-.904-.365-1.608-.919-2.11-1.662-.501-.744-.76-1.683-.774-2.82h3.367c.028.47.154.86.376 1.172.223.313.528.55.916.71.393.161.848.242 1.364.242.474 0 .876-.064 1.207-.192.337-.128.595-.305.775-.533.18-.227.272-.487.277-.78a1.077 1.077 0 0 0-.256-.704c-.166-.199-.422-.37-.767-.511a7.872 7.872 0 0 0-1.307-.405l-1.52-.355c-1.26-.29-2.251-.755-2.976-1.4-.724-.648-1.084-1.524-1.08-2.627-.004-.9.237-1.688.725-2.365.488-.677 1.163-1.205 2.024-1.584.862-.379 1.845-.568 2.948-.568 1.127 0 2.104.192 2.933.575.833.379 1.48.911 1.939 1.598.46.687.694 1.482.703 2.386h-3.366Zm12.038-4.36v14.545h-3.509V47.588h-.085l-3.253 1.989v-3.04l3.587-2.23h3.26Z"/>
</svg>
