<svg xmlns="http://www.w3.org/2000/svg" width="105" height="105" fill="none" viewBox="0 0 105 105">
  <circle cx="52.352" cy="52.352" r="37.5" fill="#0F8E39" transform="rotate(54.192 52.352 52.352)"/>
  <path fill="#D9D9D9" d="M72.39 71.187C61.986 82.253 44.582 82.792 33.516 72.39 22.45 61.987 21.912 44.584 32.314 33.517c10.402-11.066 27.806-11.605 38.872-1.202C82.253 42.717 82.791 60.12 72.39 71.187Z"/>
  <path fill="#D9D9D9" d="m76.214 23.316 3.643 3.425L28.49 81.388l-3.643-3.424z"/>
  <path fill="#D9D9D9" d="m26.74 24.847 54.648 51.368-3.425 3.643L23.315 28.49z"/>
  <path fill="#D9D9D9" d="M48.852 14.852h7v75h-7z"/>
  <path fill="#D9D9D9" d="M14.852 48.852h75v6h-75z"/>
  <path fill="#000" d="M39.607 60.818V42.636h1.165v18.182h-1.165Zm2.805-12.003c-.047-.52-.258-.925-.632-1.214-.37-.294-.897-.44-1.584-.44-.454 0-.833.059-1.136.177-.303.118-.53.282-.682.49-.151.204-.23.438-.234.703-.01.218.033.41.128.575.1.166.241.313.426.44.19.124.416.233.682.328a7.1 7.1 0 0 0 .895.248l1.25.284c.72.157 1.354.365 1.903.625.554.26 1.018.57 1.392.93.379.36.665.775.86 1.244.194.468.293.994.298 1.576-.005.919-.237 1.707-.696 2.365-.46.658-1.12 1.163-1.982 1.513-.857.35-1.892.526-3.104.526-1.216 0-2.277-.183-3.181-.547-.905-.365-1.608-.919-2.11-1.662-.502-.743-.76-1.683-.774-2.82h3.367c.028.469.153.86.376 1.172.222.313.528.55.916.71.393.161.848.242 1.364.242.473 0 .876-.064 1.207-.192.336-.128.594-.305.774-.533a1.25 1.25 0 0 0 .277-.78 1.077 1.077 0 0 0-.255-.704c-.166-.199-.422-.37-.767-.511a7.873 7.873 0 0 0-1.307-.405l-1.52-.355c-1.26-.29-2.252-.755-2.976-1.4-.724-.648-1.084-1.524-1.08-2.627-.004-.9.237-1.688.725-2.365.488-.677 1.162-1.205 2.024-1.584.862-.379 1.844-.568 2.947-.568 1.127 0 2.105.191 2.934.575.833.379 1.48.911 1.939 1.598.459.686.693 1.482.703 2.386h-3.367ZM47.725 59v-2.528l5.305-4.645c.398-.36.736-.69 1.016-.987.28-.304.492-.607.639-.91.147-.307.22-.641.22-1.001 0-.403-.087-.746-.263-1.03a1.763 1.763 0 0 0-.724-.668 2.307 2.307 0 0 0-1.058-.234c-.403 0-.755.083-1.059.249-.303.16-.54.395-.71.703-.166.308-.248.682-.248 1.122h-3.331c0-.99.222-1.844.667-2.564.445-.72 1.07-1.274 1.875-1.662.81-.393 1.75-.59 2.82-.59 1.103 0 2.062.185 2.876.555.815.369 1.444.885 1.89 1.548.45.658.674 1.423.674 2.294 0 .554-.111 1.103-.334 1.648-.222.544-.622 1.146-1.2 1.804-.573.658-1.387 1.446-2.443 2.365l-1.74 1.605v.092h5.895V59H47.725Zm18.322.199c-1.06 0-2.003-.192-2.827-.575-.824-.384-1.475-.912-1.953-1.584-.473-.673-.72-1.444-.739-2.316h3.41a1.7 1.7 0 0 0 .653 1.293c.407.322.892.483 1.456.483.44 0 .83-.097 1.172-.291a2.08 2.08 0 0 0 .802-.817c.194-.355.29-.762.284-1.222.005-.468-.092-.878-.29-1.228a2.066 2.066 0 0 0-.81-.817 2.296 2.296 0 0 0-1.18-.298 2.583 2.583 0 0 0-1.2.277c-.374.19-.658.447-.852.774l-3.104-.583.632-7.84h9.333v2.833h-6.442l-.334 3.43h.085c.242-.402.63-.733 1.165-.994.54-.265 1.153-.397 1.84-.397.87 0 1.648.203 2.33.61a4.309 4.309 0 0 1 1.619 1.677c.397.715.596 1.534.596 2.457 0 1-.237 1.885-.71 2.656-.469.772-1.127 1.378-1.975 1.819-.842.435-1.83.653-2.961.653Z"/>
</svg>
