<svg xmlns="http://www.w3.org/2000/svg" width="105" height="105" fill="none" viewBox="0 0 105 105">
  <circle cx="52.352" cy="52.352" r="37.5" fill="#DA6E73" fill-opacity=".9" transform="rotate(54.192 52.352 52.352)"/>
  <path fill="#D9D9D9" d="M72.39 71.187C61.986 82.253 44.582 82.792 33.516 72.39 22.45 61.987 21.912 44.584 32.314 33.517c10.402-11.066 27.806-11.605 38.872-1.202C82.253 42.717 82.791 60.12 72.39 71.187Z"/>
  <path fill="#D9D9D9" d="m76.214 23.316 3.643 3.425L28.49 81.388l-3.643-3.424z"/>
  <path fill="#D9D9D9" d="m26.74 24.847 54.648 51.368-3.425 3.643L23.315 28.49z"/>
  <path fill="#D9D9D9" d="M48.852 14.852h7v75h-7z"/>
  <path fill="#D9D9D9" d="M14.852 48.852h75v6h-75z"/>
  <path fill="#000" d="M38.894 60.818V42.636h1.165v18.182h-1.165Zm2.805-12.003c-.047-.52-.258-.925-.632-1.214-.369-.294-.897-.44-1.584-.44-.454 0-.833.059-1.136.177-.303.118-.53.282-.682.49-.151.204-.23.438-.234.703-.01.218.033.41.128.575.1.166.241.313.426.44.19.124.417.233.682.328a7.1 7.1 0 0 0 .895.248l1.25.284c.72.157 1.354.365 1.903.625.554.26 1.018.57 1.392.93a3.6 3.6 0 0 1 .86 1.244c.194.468.293.994.298 1.576-.005.919-.237 1.707-.696 2.365-.46.658-1.12 1.163-1.982 1.513-.857.35-1.891.526-3.104.526-1.216 0-2.277-.183-3.181-.547-.905-.365-1.608-.919-2.11-1.662-.502-.743-.76-1.683-.774-2.82h3.367c.028.469.154.86.376 1.172.223.313.528.55.916.71.393.161.848.242 1.364.242.473 0 .876-.064 1.207-.192.336-.128.594-.305.774-.533a1.25 1.25 0 0 0 .277-.78 1.077 1.077 0 0 0-.255-.704c-.166-.199-.422-.37-.767-.511a7.871 7.871 0 0 0-1.307-.405l-1.52-.355c-1.26-.29-2.252-.755-2.976-1.4-.724-.648-1.084-1.524-1.08-2.627-.004-.9.237-1.688.725-2.365.488-.677 1.162-1.205 2.024-1.584.862-.379 1.844-.568 2.948-.568 1.127 0 2.104.191 2.933.575.833.379 1.48.911 1.939 1.598.459.686.693 1.482.703 2.386h-3.367ZM52.58 59.2c-1.06 0-2.003-.192-2.827-.575-.824-.384-1.474-.912-1.953-1.584-.473-.673-.72-1.444-.738-2.316h3.409a1.7 1.7 0 0 0 .653 1.293c.407.322.893.483 1.456.483.44 0 .831-.097 1.172-.291a2.08 2.08 0 0 0 .802-.817c.195-.355.29-.762.285-1.222.004-.468-.093-.878-.292-1.228a2.066 2.066 0 0 0-.81-.817 2.296 2.296 0 0 0-1.178-.298 2.583 2.583 0 0 0-1.2.277c-.375.19-.659.447-.853.774l-3.103-.583.632-7.84h9.332v2.833h-6.442l-.334 3.43h.086c.241-.402.63-.733 1.164-.994.54-.265 1.153-.397 1.84-.397.871 0 1.648.203 2.33.61a4.309 4.309 0 0 1 1.619 1.677c.398.715.596 1.534.596 2.457 0 1-.236 1.885-.71 2.656-.469.772-1.127 1.378-1.974 1.819-.843.435-1.83.653-2.962.653Zm13.592.156c-1.269 0-2.363-.3-3.281-.902-.919-.606-1.627-1.475-2.124-2.606-.497-1.137-.743-2.503-.738-4.098.004-1.596.253-2.95.745-4.063.498-1.117 1.203-1.967 2.117-2.55.918-.587 2.012-.88 3.281-.88 1.269 0 2.363.293 3.281.88.924.583 1.634 1.433 2.131 2.55.497 1.117.743 2.472.739 4.063 0 1.6-.249 2.968-.746 4.105-.497 1.136-1.205 2.005-2.124 2.606-.913.597-2.007.895-3.28.895Zm0-2.876c.758 0 1.37-.386 1.84-1.158.468-.776.7-1.967.696-3.572 0-1.052-.107-1.918-.32-2.6-.213-.686-.509-1.198-.888-1.534a1.938 1.938 0 0 0-1.328-.504c-.753 0-1.361.381-1.825 1.143-.464.758-.699 1.923-.703 3.495-.005 1.065.097 1.948.305 2.649.213.7.511 1.224.895 1.57.384.34.826.51 1.328.51Z"/>
</svg>
